<svg xmlns:dc="http://purl.org/dc/elements/1.1/" xmlns:cc="http://creativecommons.org/ns#"
  xmlns:rdf="http://www.w3.org/1999/02/22-rdf-syntax-ns#" xmlns:svg="http://www.w3.org/2000/svg"
  xmlns="http://www.w3.org/2000/svg" xmlns:sodipodi="http://sodipodi.sourceforge.net/DTD/sodipodi-0.dtd"
  xmlns:inkscape="http://www.inkscape.org/namespaces/inkscape" version="1.0" width="1000" height="301.35"
  viewBox="0 0 1000 301.35" id="svg1936" inkscape:version="0.91 r13725" xmlns:xlink="http://www.w3.org/1999/xlink"><metadata id="metadata21"><rdf:RDF><cc:Work rdf:about=""><dc:format>
          image/svg+xml
        </dc:format><dc:type rdf:resource="http://purl.org/dc/dcmitype/StillImage"></dc:type><dc:title></dc:title></cc:Work></rdf:RDF></metadata><sodipodi:namedview pagecolor="#ffffff" bordercolor="#666666" borderopacity="1" objecttolerance="10"
    gridtolerance="10" guidetolerance="10" inkscape:pageopacity="0" inkscape:pageshadow="2" inkscape:window-width="1366"
    inkscape:window-height="705" id="namedview19" showgrid="false" inkscape:zoom="0.72" inkscape:cx="426.12"
    inkscape:cy="94.82" inkscape:window-x="-8" inkscape:window-y="-8" inkscape:window-maximized="1"
    inkscape:current-layer="svg1936"></sodipodi:namedview><defs id="defs1938"></defs><path
    d="m 620.38,235.67 c -58.11,42.83 -142.34,65.69 -214.86,65.69 -101.68,0 -193.23,-37.61 -262.48,-100.16 -5.44,-4.92 -0.57,-11.62 5.96,-7.79 74.74,43.49 167.15,69.65 262.61,69.65 64.38,0 135.20,-13.32 200.32,-40.96 9.84,-4.18 18.06,6.44 8.44,13.58"
    id="path8" style="fill:#ff9900;fill-opacity:1;fill-rule:evenodd;stroke:none" inkscape:connector-curvature="0"></path><path
    d="m 644.54,208.03 c -7.40,-9.49 -49.10,-4.48 -67.82,-2.26 -5.70,0.70 -6.57,-4.27 -1.44,-7.84 33.21,-23.38 87.71,-16.63 94.07,-8.79 6.36,7.88 -1.65,62.51 -32.86,88.58 -4.79,4.00 -9.36,1.87 -7.23,-3.44 7.01,-17.50 22.72,-56.72 15.28,-66.25"
    id="path10" style="fill:#ff9900;fill-opacity:1;fill-rule:evenodd;stroke:none" inkscape:connector-curvature="0"></path><path
    d="m 578.03,32.91 0,-22.72 c 0,-3.44 2.61,-5.75 5.75,-5.75 l 101.73,0 c 3.26,0 5.88,2.35 5.88,5.75 l 0,19.46 c -0.04,3.26 -2.79,7.53 -7.66,14.28 l -52.71,75.26 c 19.59,-0.48 40.26,2.44 58.02,12.45 4.00,2.26 5.09,5.57 5.40,8.84 l 0,24.25 c 0,3.31 -3.66,7.18 -7.49,5.18 -31.30,-16.41 -72.87,-18.20 -107.47,0.17 -3.53,1.92 -7.23,-1.92 -7.23,-5.22 l 0,-23.03 c 0,-3.70 0.04,-10.01 3.74,-15.63 l 61.07,-87.58 -53.15,0 c -3.26,0 -5.88,-2.31 -5.88,-5.70"
    id="path12" style="fill:#000000;fill-rule:evenodd;stroke:none" inkscape:connector-curvature="0"></path><path
    d="m 206.94,174.68 -30.95,0 c -2.96,-0.22 -5.31,-2.44 -5.53,-5.27 l 0,-158.84 c 0,-3.18 2.66,-5.70 5.96,-5.70 l 28.86,0 c 3.00,0.13 5.40,2.44 5.62,5.31 l 0,20.76 0.57,0 C 219.00,10.88 233.14,1.52 252.21,1.52 c 19.37,0 31.47,9.36 40.18,29.43 7.49,-20.07 24.51,-29.43 42.75,-29.43 12.97,0 27.16,5.35 35.82,17.37 9.79,13.36 7.79,32.78 7.79,49.80 l -0.04,100.25 c 0,3.18 -2.66,5.75 -5.96,5.75 l -30.91,0 c -3.09,-0.22 -5.57,-2.70 -5.57,-5.75 l 0,-84.19 c 0,-6.70 0.61,-23.42 -0.87,-29.77 -2.31,-10.66 -9.23,-13.67 -18.20,-13.67 -7.49,0 -15.32,5.01 -18.50,13.02 -3.18,8.01 -2.87,21.42 -2.87,30.43 l 0,84.19 c 0,3.18 -2.66,5.75 -5.96,5.75 l -30.91,0 c -3.13,-0.22 -5.57,-2.70 -5.57,-5.75 l -0.04,-84.19 c 0,-17.72 2.92,-43.79 -19.07,-43.79 -22.24,0 -21.37,25.42 -21.37,43.79 l 0,84.19 c 0,3.18 -2.66,5.75 -5.96,5.75"
    id="path14" style="fill:#000000;fill-rule:evenodd;stroke:none" inkscape:connector-curvature="0"></path><path
    d="m 778.96,1.52 c 45.92,0 70.78,39.44 70.78,89.58 0,48.45 -27.47,86.88 -70.78,86.88 -45.10,0 -69.65,-39.44 -69.65,-88.58 0,-49.45 24.86,-87.89 69.65,-87.89 m 0.26,32.43 c -22.81,0 -24.25,31.08 -24.25,50.45 0,19.41 -0.30,60.85 23.98,60.85 23.98,0 25.12,-33.43 25.12,-53.80 0,-13.41 -0.57,-29.43 -4.61,-42.14 -3.48,-11.06 -10.40,-15.37 -20.24,-15.37"
    id="path16" style="fill:#000000;fill-rule:evenodd;stroke:none" inkscape:connector-curvature="0"></path><path
    d="m 909.28,174.68 -30.82,0 c -3.09,-0.22 -5.57,-2.70 -5.57,-5.75 l -0.04,-158.88 c 0.26,-2.92 2.83,-5.18 5.96,-5.18 l 28.69,0 c 2.70,0.13 4.92,1.96 5.53,4.44 l 0,24.29 0.57,0 C 922.26,11.88 934.40,1.52 955.77,1.52 c 13.89,0 27.42,5.01 36.13,18.72 C 1000,32.95 1000,54.32 1000,69.69 l 0,99.99 c -0.35,2.79 -2.92,5.01 -5.96,5.01 l -31.04,0 c -2.83,-0.22 -5.18,-2.31 -5.48,-5.01 l 0,-86.28 c 0,-17.37 2.00,-42.79 -19.37,-42.79 -7.53,0 -14.45,5.05 -17.89,12.71 -4.35,9.71 -4.92,19.37 -4.92,30.08 l 0,85.54 c -0.04,3.18 -2.74,5.75 -6.05,5.75"
    id="path18" style="fill:#000000;fill-rule:evenodd;stroke:none" inkscape:connector-curvature="0"></path><path
    d="m 496.93,98.81 c 0,12.06 0.30,22.11 -5.79,32.82 -4.92,8.71 -12.75,14.06 -21.42,14.06 -11.88,0 -18.85,-9.05 -18.85,-22.42 0,-26.38 23.64,-31.17 46.05,-31.17 l 0,6.70 m 31.21,75.44 c -2.05,1.83 -5.01,1.96 -7.31,0.74 -10.27,-8.53 -12.14,-12.49 -17.76,-20.63 -16.98,17.32 -29.03,22.50 -51.02,22.50 -26.07,0 -46.32,-16.06 -46.32,-48.23 0,-25.12 13.58,-42.22 33.00,-50.58 16.80,-7.40 40.26,-8.71 58.20,-10.75 l 0,-4.00 c 0,-7.36 0.57,-16.06 -3.79,-22.42 -3.74,-5.70 -10.97,-8.05 -17.37,-8.05 -11.80,0 -22.29,6.05 -24.86,18.59 -0.52,2.79 -2.57,5.53 -5.40,5.66 L 415.53,53.85 C 413.01,53.28 410.18,51.23 410.92,47.36 417.79,10.97 450.70,2.17e-4 480.13,2.17e-4 c 15.06,0 34.74,4.00 46.62,15.41 15.06,14.06 13.62,32.82 13.62,53.24 l 0,48.23 c 0,14.50 6.01,20.85 11.67,28.69 1.96,2.79 2.39,6.14 -0.13,8.23 -6.31,5.27 -17.54,15.06 -23.72,20.55 l -0.04,-0.09"
    id="path28" style="fill:#000000;fill-rule:evenodd;stroke:none" inkscape:connector-curvature="0"></path><path
    d="m 91.19,98.81 c 0,12.06 0.30,22.11 -5.79,32.82 -4.92,8.71 -12.71,14.06 -21.42,14.06 -11.88,0 -18.80,-9.05 -18.80,-22.42 0,-26.38 23.64,-31.17 46.01,-31.17 l 0,6.70 m 31.21,75.44 c -2.05,1.83 -5.01,1.96 -7.31,0.74 -10.27,-8.53 -12.10,-12.49 -17.76,-20.63 C 80.36,171.68 68.34,176.86 46.32,176.86 20.28,176.86 -2.14e-6,160.80 -2.14e-6,128.63 -2.14e-6,103.51 13.62,86.41 33.00,78.05 49.80,70.65 73.26,69.34 91.19,67.30 l 0,-4.00 c 0,-7.36 0.57,-16.06 -3.74,-22.42 -3.79,-5.70 -11.01,-8.05 -17.37,-8.05 -11.80,0 -22.33,6.05 -24.90,18.59 -0.52,2.79 -2.57,5.53 -5.35,5.66 L 9.79,53.85 C 7.27,53.28 4.48,51.23 5.18,47.36 12.10,10.97 44.97,2.17e-4 74.39,2.17e-4 c 15.06,0 34.74,4.00 46.62,15.41 15.06,14.06 13.62,32.82 13.62,53.24 l 0,48.23 c 0,14.50 6.01,20.85 11.67,28.69 2.00,2.79 2.44,6.14 -0.09,8.23 -6.31,5.27 -17.54,15.06 -23.72,20.55 l -0.09,-0.09"
    id="path30" style="fill:#000000;fill-rule:evenodd;stroke:none" inkscape:connector-curvature="0"></path></svg>