<svg width="1471" height="1043" viewBox="0 0 1471 1043" fill="none" xmlns="http://www.w3.org/2000/svg">
  <rect width="1471" height="1043" fill="white" />
  <path d="M299 318C299 428 310.5 495 397.5 495" stroke="#3971FF" stroke-width="8" />
  <rect x="51" y="53" width="563" height="253" rx="35" fill="#E7EEFF" stroke="#E7EEFF" stroke-width="10" />
  <path
    d="M261.481 172.115C261.481 172.867 262.029 173.466 263.125 173.911C264.221 174.329 265.581 174.622 267.206 174.789C268.831 174.956 270.607 175.221 272.535 175.583C274.462 175.945 276.238 176.391 277.863 176.92C279.488 177.449 280.849 178.327 281.944 179.552C283.04 180.778 283.588 182.296 283.588 184.106C283.588 187.087 282.058 189.455 278.997 191.21C275.936 192.937 271.968 193.8 267.093 193.8C262.104 193.8 258.023 192.937 254.849 191.21C251.674 189.483 249.804 186.934 249.237 183.563H261.424C261.613 184.761 262.218 185.694 263.238 186.363C264.259 187.003 265.581 187.324 267.206 187.324C270.229 187.324 271.741 186.599 271.741 185.151C271.741 184.51 271.325 183.981 270.494 183.563C269.7 183.118 268.642 182.769 267.32 182.519C266.035 182.268 264.599 182.031 263.011 181.808C261.462 181.586 259.894 181.279 258.307 180.889C256.757 180.499 255.321 180.012 253.998 179.427C252.714 178.842 251.655 178.006 250.824 176.92C250.03 175.833 249.634 174.538 249.634 173.034C249.634 170.332 251.051 168.118 253.885 166.391C256.719 164.664 260.612 163.8 265.562 163.8C270.059 163.8 273.876 164.622 277.013 166.265C280.149 167.909 281.963 170.36 282.455 173.619H270.097C269.568 171.391 267.886 170.276 265.052 170.276C263.994 170.276 263.125 170.444 262.445 170.778C261.802 171.112 261.481 171.558 261.481 172.115Z"
    fill="#08272E" />
  <path
    d="M199.344 193.006V164.594H214.309L220.545 178.8L222.472 184.107L224.4 178.8L230.635 164.594H245.26V193.006H233.696L234.433 174.162L231.429 181.892L226.497 193.006H218.107L213.062 181.725L210.171 174.246L210.908 193.006H199.344Z"
    fill="#08272E" />
  <path
    d="M147.752 193.006V164.594H162.717L168.952 178.8L170.879 184.107L172.807 178.8L179.042 164.594H193.667V193.006H182.103L182.84 174.162L179.836 181.892L174.904 193.006H166.515L161.47 181.725L158.579 174.246L159.316 193.006H147.752Z"
    fill="#08272E" />
  <path d="M130.536 193.006V164.594H142.1V193.006H130.536Z" fill="#08272E" />
  <path
    d="M94 193.006V164.594H110.212C115.238 164.594 119.168 165.471 122.003 167.226C124.875 168.953 126.311 171.377 126.311 174.496C126.311 177.616 124.875 180.054 122.003 181.808C119.168 183.535 115.276 184.399 110.325 184.399H105.564V193.006H94ZM109.985 171.279H105.564V177.714H109.702C112.876 177.714 114.464 176.641 114.464 174.496C114.464 172.352 112.971 171.279 109.985 171.279Z"
    fill="#08272E" />
  <path
    d="M97.6562 136V104H103.453V131.141H117.547V136H97.6562ZM122.328 136V112H127.984V136H122.328ZM125.172 108.594C124.276 108.594 123.505 108.297 122.859 107.703C122.214 107.099 121.891 106.375 121.891 105.531C121.891 104.677 122.214 103.953 122.859 103.359C123.505 102.755 124.276 102.453 125.172 102.453C126.078 102.453 126.849 102.755 127.484 103.359C128.13 103.953 128.453 104.677 128.453 105.531C128.453 106.375 128.13 107.099 127.484 107.703C126.849 108.297 126.078 108.594 125.172 108.594ZM144.426 136.469C142.02 136.469 139.941 135.969 138.191 134.969C136.452 133.958 135.113 132.531 134.176 130.687C133.238 128.833 132.77 126.651 132.77 124.141C132.77 121.672 133.238 119.505 134.176 117.641C135.124 115.766 136.447 114.307 138.145 113.266C139.842 112.214 141.837 111.688 144.129 111.688C145.608 111.688 147.004 111.927 148.316 112.406C149.639 112.875 150.806 113.604 151.816 114.594C152.837 115.583 153.639 116.844 154.223 118.375C154.806 119.896 155.098 121.708 155.098 123.812V125.547H135.426V121.734H149.676C149.665 120.651 149.431 119.687 148.973 118.844C148.514 117.99 147.874 117.318 147.051 116.828C146.238 116.339 145.29 116.094 144.207 116.094C143.051 116.094 142.035 116.375 141.16 116.937C140.285 117.49 139.603 118.219 139.113 119.125C138.634 120.021 138.389 121.005 138.379 122.078V125.406C138.379 126.802 138.634 128 139.145 129C139.655 129.99 140.368 130.75 141.285 131.281C142.202 131.802 143.275 132.062 144.504 132.062C145.327 132.062 146.072 131.948 146.738 131.719C147.405 131.479 147.983 131.13 148.473 130.672C148.962 130.214 149.332 129.646 149.582 128.969L154.863 129.562C154.53 130.958 153.895 132.177 152.957 133.219C152.03 134.25 150.842 135.052 149.395 135.625C147.947 136.187 146.29 136.469 144.426 136.469ZM165.539 121.937V136H159.883V112H165.289V116.078H165.57C166.122 114.734 167.003 113.667 168.211 112.875C169.43 112.083 170.935 111.688 172.727 111.688C174.383 111.688 175.826 112.042 177.055 112.75C178.294 113.458 179.253 114.484 179.93 115.828C180.617 117.172 180.956 118.802 180.945 120.719V136H175.289V121.594C175.289 119.99 174.872 118.734 174.039 117.828C173.216 116.922 172.076 116.469 170.617 116.469C169.628 116.469 168.747 116.687 167.977 117.125C167.216 117.552 166.617 118.172 166.18 118.984C165.753 119.797 165.539 120.781 165.539 121.937Z"
    fill="#08272E" />
  <path
    d="M96.9063 269V236H102.469V239.969H102.797C103.089 239.385 103.5 238.766 104.031 238.109C104.563 237.443 105.281 236.875 106.188 236.406C107.094 235.927 108.25 235.688 109.656 235.688C111.51 235.688 113.182 236.161 114.672 237.109C116.172 238.047 117.359 239.437 118.234 241.281C119.12 243.115 119.563 245.365 119.563 248.031C119.563 250.667 119.13 252.906 118.266 254.75C117.401 256.594 116.224 258 114.734 258.969C113.245 259.938 111.557 260.422 109.672 260.422C108.297 260.422 107.156 260.193 106.25 259.734C105.344 259.276 104.615 258.724 104.063 258.078C103.521 257.422 103.099 256.802 102.797 256.219H102.563V269H96.9063ZM102.453 248C102.453 249.552 102.672 250.911 103.109 252.078C103.557 253.245 104.198 254.156 105.031 254.812C105.875 255.458 106.896 255.781 108.094 255.781C109.344 255.781 110.391 255.448 111.234 254.781C112.078 254.104 112.714 253.182 113.141 252.016C113.578 250.839 113.797 249.5 113.797 248C113.797 246.51 113.583 245.187 113.156 244.031C112.729 242.875 112.094 241.969 111.25 241.312C110.406 240.656 109.354 240.328 108.094 240.328C106.885 240.328 105.859 240.646 105.016 241.281C104.172 241.917 103.531 242.807 103.094 243.953C102.667 245.099 102.453 246.448 102.453 248ZM124.406 260V236H130.063V260H124.406ZM127.25 232.594C126.354 232.594 125.583 232.297 124.938 231.703C124.292 231.099 123.969 230.375 123.969 229.531C123.969 228.677 124.292 227.953 124.938 227.359C125.583 226.755 126.354 226.453 127.25 226.453C128.156 226.453 128.927 226.755 129.563 227.359C130.208 227.953 130.531 228.677 130.531 229.531C130.531 230.375 130.208 231.099 129.563 231.703C128.927 232.297 128.156 232.594 127.25 232.594ZM135.879 260V236H141.285V240.078H141.566C142.066 238.703 142.895 237.63 144.051 236.859C145.207 236.078 146.587 235.688 148.191 235.688C149.816 235.688 151.186 236.083 152.301 236.875C153.426 237.656 154.217 238.724 154.676 240.078H154.926C155.457 238.745 156.353 237.682 157.613 236.891C158.884 236.089 160.389 235.688 162.129 235.688C164.337 235.688 166.139 236.385 167.535 237.781C168.931 239.177 169.629 241.214 169.629 243.891V260H163.957V244.766C163.957 243.276 163.561 242.187 162.77 241.5C161.978 240.802 161.009 240.453 159.863 240.453C158.499 240.453 157.431 240.88 156.66 241.734C155.9 242.578 155.52 243.677 155.52 245.031V260H149.973V244.531C149.973 243.292 149.598 242.302 148.848 241.562C148.108 240.823 147.139 240.453 145.941 240.453C145.129 240.453 144.389 240.661 143.723 241.078C143.056 241.484 142.525 242.062 142.129 242.812C141.733 243.552 141.535 244.417 141.535 245.406V260H135.879ZM178.852 260.344C177.904 260.344 177.091 260.01 176.414 259.344C175.737 258.677 175.404 257.865 175.414 256.906C175.404 255.969 175.737 255.167 176.414 254.5C177.091 253.833 177.904 253.5 178.852 253.5C179.768 253.5 180.565 253.833 181.242 254.5C181.93 255.167 182.279 255.969 182.289 256.906C182.279 257.542 182.112 258.12 181.789 258.641C181.477 259.161 181.06 259.578 180.539 259.891C180.029 260.193 179.466 260.344 178.852 260.344ZM188.129 260V236H193.535V240.078H193.816C194.316 238.703 195.145 237.63 196.301 236.859C197.457 236.078 198.837 235.688 200.441 235.688C202.066 235.688 203.436 236.083 204.551 236.875C205.676 237.656 206.467 238.724 206.926 240.078H207.176C207.707 238.745 208.603 237.682 209.863 236.891C211.134 236.089 212.639 235.688 214.379 235.688C216.587 235.688 218.389 236.385 219.785 237.781C221.181 239.177 221.879 241.214 221.879 243.891V260H216.207V244.766C216.207 243.276 215.811 242.187 215.02 241.5C214.228 240.802 213.259 240.453 212.113 240.453C210.749 240.453 209.681 240.88 208.91 241.734C208.15 242.578 207.77 243.677 207.77 245.031V260H202.223V244.531C202.223 243.292 201.848 242.302 201.098 241.562C200.358 240.823 199.389 240.453 198.191 240.453C197.379 240.453 196.639 240.661 195.973 241.078C195.306 241.484 194.775 242.062 194.379 242.812C193.983 243.552 193.785 244.417 193.785 245.406V260H188.129ZM246.586 242.344L241.43 242.906C241.284 242.385 241.029 241.896 240.664 241.438C240.31 240.979 239.831 240.609 239.227 240.328C238.622 240.047 237.883 239.906 237.008 239.906C235.831 239.906 234.841 240.161 234.039 240.672C233.247 241.182 232.857 241.844 232.867 242.656C232.857 243.354 233.112 243.922 233.633 244.359C234.164 244.797 235.039 245.156 236.258 245.438L240.352 246.312C242.622 246.802 244.31 247.578 245.414 248.641C246.529 249.703 247.091 251.094 247.102 252.812C247.091 254.323 246.648 255.656 245.773 256.812C244.909 257.958 243.706 258.854 242.164 259.5C240.622 260.146 238.852 260.469 236.852 260.469C233.914 260.469 231.549 259.854 229.758 258.625C227.966 257.385 226.898 255.661 226.555 253.453L232.07 252.922C232.32 254.005 232.852 254.823 233.664 255.375C234.477 255.927 235.534 256.203 236.836 256.203C238.18 256.203 239.258 255.927 240.07 255.375C240.893 254.823 241.305 254.141 241.305 253.328C241.305 252.641 241.039 252.073 240.508 251.625C239.987 251.177 239.174 250.833 238.07 250.594L233.977 249.734C231.674 249.255 229.971 248.448 228.867 247.312C227.763 246.167 227.216 244.719 227.227 242.969C227.216 241.49 227.617 240.208 228.43 239.125C229.253 238.031 230.393 237.187 231.852 236.594C233.32 235.99 235.013 235.688 236.93 235.688C239.742 235.688 241.956 236.286 243.57 237.484C245.195 238.682 246.201 240.302 246.586 242.344ZM264.828 226.5L254.516 264.812H249.562L259.875 226.5H264.828ZM274.094 228V260H268.438V228H274.094ZM279.91 260V236H285.566V260H279.91ZM282.754 232.594C281.858 232.594 281.087 232.297 280.441 231.703C279.796 231.099 279.473 230.375 279.473 229.531C279.473 228.677 279.796 227.953 280.441 227.359C281.087 226.755 281.858 226.453 282.754 226.453C283.66 226.453 284.431 226.755 285.066 227.359C285.712 227.953 286.035 228.677 286.035 229.531C286.035 230.375 285.712 231.099 285.066 231.703C284.431 232.297 283.66 232.594 282.754 232.594ZM302.008 260.469C299.602 260.469 297.523 259.969 295.773 258.969C294.034 257.958 292.695 256.531 291.758 254.687C290.82 252.833 290.352 250.651 290.352 248.141C290.352 245.672 290.82 243.505 291.758 241.641C292.706 239.766 294.029 238.307 295.727 237.266C297.424 236.214 299.419 235.688 301.711 235.688C303.19 235.688 304.586 235.927 305.898 236.406C307.221 236.875 308.388 237.604 309.398 238.594C310.419 239.583 311.221 240.844 311.805 242.375C312.388 243.896 312.68 245.708 312.68 247.812V249.547H293.008V245.734H307.258C307.247 244.651 307.013 243.687 306.555 242.844C306.096 241.99 305.456 241.318 304.633 240.828C303.82 240.339 302.872 240.094 301.789 240.094C300.633 240.094 299.617 240.375 298.742 240.937C297.867 241.49 297.185 242.219 296.695 243.125C296.216 244.021 295.971 245.005 295.961 246.078V249.406C295.961 250.802 296.216 252 296.727 253C297.237 253.99 297.951 254.75 298.867 255.281C299.784 255.802 300.857 256.062 302.086 256.062C302.909 256.062 303.654 255.948 304.32 255.719C304.987 255.479 305.565 255.13 306.055 254.672C306.544 254.214 306.914 253.646 307.164 252.969L312.445 253.562C312.112 254.958 311.477 256.177 310.539 257.219C309.612 258.25 308.424 259.052 306.977 259.625C305.529 260.187 303.872 260.469 302.008 260.469ZM323.121 245.937V260H317.465V236H322.871V240.078H323.152C323.704 238.734 324.585 237.667 325.793 236.875C327.012 236.083 328.517 235.688 330.309 235.688C331.965 235.688 333.408 236.042 334.637 236.75C335.876 237.458 336.835 238.484 337.512 239.828C338.199 241.172 338.538 242.802 338.527 244.719V260H332.871V245.594C332.871 243.99 332.454 242.734 331.621 241.828C330.798 240.922 329.658 240.469 328.199 240.469C327.21 240.469 326.329 240.687 325.559 241.125C324.798 241.552 324.199 242.172 323.762 242.984C323.335 243.797 323.121 244.781 323.121 245.937ZM358.824 244.344V249H344.418V244.344H358.824ZM364.773 260V236H370.258V240H370.508C370.945 238.615 371.695 237.547 372.758 236.797C373.831 236.036 375.055 235.656 376.43 235.656C376.742 235.656 377.091 235.672 377.477 235.703C377.872 235.724 378.201 235.76 378.461 235.812V241.016C378.221 240.932 377.841 240.859 377.32 240.797C376.81 240.724 376.315 240.687 375.836 240.687C374.805 240.687 373.878 240.911 373.055 241.359C372.242 241.797 371.602 242.406 371.133 243.187C370.664 243.969 370.43 244.87 370.43 245.891V260H364.773ZM388.695 260.484C387.174 260.484 385.805 260.214 384.586 259.672C383.378 259.12 382.419 258.307 381.711 257.234C381.013 256.161 380.664 254.839 380.664 253.266C380.664 251.911 380.914 250.792 381.414 249.906C381.914 249.021 382.596 248.312 383.461 247.781C384.326 247.25 385.299 246.849 386.383 246.578C387.477 246.297 388.607 246.094 389.773 245.969C391.18 245.823 392.32 245.693 393.195 245.578C394.07 245.453 394.706 245.266 395.102 245.016C395.508 244.755 395.711 244.354 395.711 243.812V243.719C395.711 242.542 395.362 241.63 394.664 240.984C393.966 240.339 392.961 240.016 391.648 240.016C390.263 240.016 389.164 240.318 388.352 240.922C387.549 241.526 387.008 242.24 386.727 243.062L381.445 242.312C381.862 240.854 382.549 239.635 383.508 238.656C384.466 237.667 385.638 236.927 387.023 236.437C388.409 235.938 389.94 235.688 391.617 235.688C392.773 235.688 393.924 235.823 395.07 236.094C396.216 236.365 397.263 236.812 398.211 237.437C399.159 238.052 399.919 238.891 400.492 239.953C401.076 241.016 401.367 242.344 401.367 243.937V260H395.93V256.703H395.742C395.398 257.37 394.914 257.995 394.289 258.578C393.674 259.151 392.898 259.615 391.961 259.969C391.034 260.313 389.945 260.484 388.695 260.484ZM390.164 256.328C391.299 256.328 392.284 256.104 393.117 255.656C393.951 255.198 394.591 254.594 395.039 253.844C395.497 253.094 395.727 252.276 395.727 251.391V248.562C395.549 248.708 395.247 248.844 394.82 248.969C394.404 249.094 393.935 249.203 393.414 249.297C392.893 249.391 392.378 249.474 391.867 249.547C391.357 249.62 390.914 249.682 390.539 249.734C389.695 249.849 388.94 250.036 388.273 250.297C387.607 250.557 387.081 250.922 386.695 251.391C386.31 251.849 386.117 252.443 386.117 253.172C386.117 254.214 386.497 255 387.258 255.531C388.018 256.062 388.987 256.328 390.164 256.328ZM417.523 260.469C415.128 260.469 413.07 259.943 411.352 258.891C409.643 257.839 408.326 256.385 407.398 254.531C406.482 252.667 406.023 250.521 406.023 248.094C406.023 245.656 406.492 243.505 407.43 241.641C408.367 239.766 409.69 238.307 411.398 237.266C413.117 236.214 415.148 235.688 417.492 235.688C419.44 235.688 421.164 236.047 422.664 236.766C424.174 237.474 425.378 238.479 426.273 239.781C427.169 241.073 427.68 242.583 427.805 244.312H422.398C422.18 243.156 421.659 242.193 420.836 241.422C420.023 240.641 418.935 240.25 417.57 240.25C416.414 240.25 415.398 240.562 414.523 241.187C413.648 241.802 412.966 242.687 412.477 243.844C411.997 245 411.758 246.385 411.758 248C411.758 249.635 411.997 251.042 412.477 252.219C412.956 253.385 413.628 254.286 414.492 254.922C415.367 255.547 416.393 255.859 417.57 255.859C418.404 255.859 419.148 255.703 419.805 255.391C420.471 255.068 421.029 254.604 421.477 254C421.924 253.396 422.232 252.661 422.398 251.797H427.805C427.669 253.495 427.169 255 426.305 256.312C425.44 257.615 424.263 258.635 422.773 259.375C421.284 260.104 419.534 260.469 417.523 260.469ZM442.918 260.469C440.522 260.469 438.465 259.943 436.746 258.891C435.038 257.839 433.72 256.385 432.793 254.531C431.876 252.667 431.418 250.521 431.418 248.094C431.418 245.656 431.887 243.505 432.824 241.641C433.762 239.766 435.085 238.307 436.793 237.266C438.512 236.214 440.543 235.688 442.887 235.688C444.835 235.688 446.559 236.047 448.059 236.766C449.569 237.474 450.772 238.479 451.668 239.781C452.564 241.073 453.074 242.583 453.199 244.312H447.793C447.574 243.156 447.053 242.193 446.23 241.422C445.418 240.641 444.329 240.25 442.965 240.25C441.809 240.25 440.793 240.562 439.918 241.187C439.043 241.802 438.361 242.687 437.871 243.844C437.392 245 437.152 246.385 437.152 248C437.152 249.635 437.392 251.042 437.871 252.219C438.35 253.385 439.022 254.286 439.887 254.922C440.762 255.547 441.788 255.859 442.965 255.859C443.798 255.859 444.543 255.703 445.199 255.391C445.866 255.068 446.423 254.604 446.871 254C447.319 253.396 447.626 252.661 447.793 251.797H453.199C453.064 253.495 452.564 255 451.699 256.312C450.835 257.615 449.658 258.635 448.168 259.375C446.678 260.104 444.928 260.469 442.918 260.469ZM468.313 260.469C465.969 260.469 463.938 259.953 462.219 258.922C460.5 257.891 459.167 256.448 458.219 254.594C457.281 252.74 456.813 250.573 456.813 248.094C456.813 245.615 457.281 243.443 458.219 241.578C459.167 239.714 460.5 238.266 462.219 237.234C463.938 236.203 465.969 235.688 468.313 235.688C470.656 235.688 472.688 236.203 474.406 237.234C476.125 238.266 477.453 239.714 478.391 241.578C479.339 243.443 479.813 245.615 479.813 248.094C479.813 250.573 479.339 252.74 478.391 254.594C477.453 256.448 476.125 257.891 474.406 258.922C472.688 259.953 470.656 260.469 468.313 260.469ZM468.344 255.937C469.615 255.937 470.677 255.589 471.531 254.891C472.385 254.182 473.021 253.234 473.438 252.047C473.865 250.859 474.078 249.536 474.078 248.078C474.078 246.609 473.865 245.281 473.438 244.094C473.021 242.896 472.385 241.943 471.531 241.234C470.677 240.526 469.615 240.172 468.344 240.172C467.042 240.172 465.958 240.526 465.094 241.234C464.24 241.943 463.599 242.896 463.172 244.094C462.755 245.281 462.547 246.609 462.547 248.078C462.547 249.536 462.755 250.859 463.172 252.047C463.599 253.234 464.24 254.182 465.094 254.891C465.958 255.589 467.042 255.937 468.344 255.937ZM499.91 249.906V236H505.566V260H500.082V255.734H499.832C499.29 257.078 498.4 258.177 497.16 259.031C495.931 259.885 494.415 260.313 492.613 260.313C491.04 260.313 489.65 259.964 488.441 259.266C487.243 258.557 486.306 257.531 485.629 256.188C484.952 254.833 484.613 253.198 484.613 251.281V236H490.27V250.406C490.27 251.927 490.686 253.135 491.52 254.031C492.353 254.927 493.447 255.375 494.801 255.375C495.634 255.375 496.441 255.172 497.223 254.766C498.004 254.359 498.645 253.755 499.145 252.953C499.655 252.141 499.91 251.125 499.91 249.906ZM511.383 260V236H516.867V240H517.117C517.555 238.615 518.305 237.547 519.367 236.797C520.44 236.036 521.664 235.656 523.039 235.656C523.352 235.656 523.701 235.672 524.086 235.703C524.482 235.724 524.81 235.76 525.07 235.812V241.016C524.831 240.932 524.451 240.859 523.93 240.797C523.419 240.724 522.924 240.687 522.445 240.687C521.414 240.687 520.487 240.911 519.664 241.359C518.852 241.797 518.211 242.406 517.742 243.187C517.273 243.969 517.039 244.87 517.039 245.891V260H511.383ZM538.309 260.469C535.913 260.469 533.855 259.943 532.137 258.891C530.428 257.839 529.111 256.385 528.184 254.531C527.267 252.667 526.809 250.521 526.809 248.094C526.809 245.656 527.277 243.505 528.215 241.641C529.152 239.766 530.475 238.307 532.184 237.266C533.902 236.214 535.934 235.688 538.277 235.688C540.225 235.688 541.949 236.047 543.449 236.766C544.96 237.474 546.163 238.479 547.059 239.781C547.954 241.073 548.465 242.583 548.59 244.312H543.184C542.965 243.156 542.444 242.193 541.621 241.422C540.809 240.641 539.72 240.25 538.355 240.25C537.199 240.25 536.184 240.562 535.309 241.187C534.434 241.802 533.751 242.687 533.262 243.844C532.783 245 532.543 246.385 532.543 248C532.543 249.635 532.783 251.042 533.262 252.219C533.741 253.385 534.413 254.286 535.277 254.922C536.152 255.547 537.178 255.859 538.355 255.859C539.189 255.859 539.934 255.703 540.59 255.391C541.257 255.068 541.814 254.604 542.262 254C542.71 253.396 543.017 252.661 543.184 251.797H548.59C548.454 253.495 547.954 255 547.09 256.312C546.225 257.615 545.048 258.635 543.559 259.375C542.069 260.104 540.319 260.469 538.309 260.469ZM553.234 260V236H558.891V260H553.234ZM556.078 232.594C555.182 232.594 554.411 232.297 553.766 231.703C553.12 231.099 552.797 230.375 552.797 229.531C552.797 228.677 553.12 227.953 553.766 227.359C554.411 226.755 555.182 226.453 556.078 226.453C556.984 226.453 557.755 226.755 558.391 227.359C559.036 227.953 559.359 228.677 559.359 229.531C559.359 230.375 559.036 231.099 558.391 231.703C557.755 232.297 556.984 232.594 556.078 232.594Z"
    fill="#08272E" />
  <rect x="409" y="422" width="547" height="158" rx="35" fill="white" stroke="#E7EEFF" stroke-width="10" />
  <path
    d="M543.712 494.906H537.072C536.882 493.817 536.533 492.852 536.024 492.011C535.515 491.159 534.882 490.437 534.124 489.845C533.367 489.253 532.503 488.809 531.532 488.513C530.573 488.206 529.537 488.052 528.425 488.052C526.448 488.052 524.696 488.549 523.169 489.543C521.642 490.526 520.446 491.97 519.582 493.876C518.718 495.77 518.286 498.084 518.286 500.818C518.286 503.6 518.718 505.944 519.582 507.849C520.458 509.743 521.654 511.176 523.169 512.146C524.696 513.105 526.442 513.585 528.407 513.585C529.496 513.585 530.514 513.442 531.461 513.158C532.42 512.862 533.278 512.43 534.036 511.862C534.805 511.294 535.45 510.596 535.971 509.767C536.504 508.938 536.871 507.991 537.072 506.926L543.712 506.962C543.464 508.69 542.925 510.312 542.097 511.827C541.28 513.342 540.209 514.679 538.883 515.839C537.557 516.988 536.006 517.887 534.231 518.538C532.455 519.178 530.484 519.497 528.318 519.497C525.122 519.497 522.269 518.757 519.76 517.278C517.25 515.798 515.274 513.661 513.83 510.868C512.385 508.074 511.663 504.724 511.663 500.818C511.663 496.9 512.391 493.55 513.847 490.768C515.303 487.975 517.286 485.838 519.795 484.359C522.305 482.879 525.146 482.139 528.318 482.139C530.342 482.139 532.224 482.423 533.964 482.991C535.705 483.56 537.255 484.394 538.616 485.495C539.978 486.584 541.096 487.922 541.972 489.508C542.86 491.082 543.44 492.881 543.712 494.906ZM555.888 482.636V519H549.461V482.636H555.888ZM562.498 519V491.727H568.925V519H562.498ZM565.729 487.857C564.711 487.857 563.835 487.519 563.102 486.844C562.368 486.158 562.001 485.335 562.001 484.376C562.001 483.406 562.368 482.583 563.102 481.908C563.835 481.222 564.711 480.879 565.729 480.879C566.759 480.879 567.635 481.222 568.357 481.908C569.091 482.583 569.458 483.406 569.458 484.376C569.458 485.335 569.091 486.158 568.357 486.844C567.635 487.519 566.759 487.857 565.729 487.857ZM587.431 519.533C584.709 519.533 582.371 518.935 580.418 517.739C578.477 516.544 576.979 514.893 575.926 512.786C574.884 510.667 574.363 508.228 574.363 505.47C574.363 502.7 574.896 500.256 575.961 498.137C577.026 496.006 578.53 494.349 580.471 493.165C582.424 491.97 584.732 491.372 587.396 491.372C589.609 491.372 591.568 491.781 593.273 492.597C594.989 493.402 596.356 494.545 597.374 496.024C598.392 497.492 598.972 499.208 599.115 501.173H592.971C592.722 499.859 592.131 498.764 591.195 497.888C590.272 497.001 589.035 496.557 587.485 496.557C586.171 496.557 585.017 496.912 584.022 497.622C583.028 498.321 582.253 499.327 581.696 500.641C581.152 501.955 580.879 503.529 580.879 505.364C580.879 507.222 581.152 508.82 581.696 510.158C582.241 511.483 583.004 512.507 583.987 513.229C584.981 513.94 586.147 514.295 587.485 514.295C588.432 514.295 589.278 514.117 590.024 513.762C590.781 513.395 591.414 512.868 591.923 512.182C592.432 511.495 592.782 510.661 592.971 509.678H599.115C598.961 511.608 598.392 513.318 597.41 514.81C596.427 516.289 595.09 517.449 593.397 518.29C591.704 519.118 589.716 519.533 587.431 519.533ZM634.178 507.53V491.727H640.605V519H634.373V514.153H634.089C633.473 515.68 632.461 516.929 631.053 517.899C629.656 518.87 627.933 519.355 625.886 519.355C624.098 519.355 622.518 518.959 621.145 518.165C619.784 517.361 618.718 516.195 617.949 514.668C617.179 513.129 616.795 511.27 616.795 509.092V491.727H623.222V508.098C623.222 509.826 623.696 511.199 624.643 512.217C625.59 513.235 626.833 513.744 628.371 513.744C629.318 513.744 630.236 513.513 631.124 513.052C632.011 512.59 632.739 511.904 633.308 510.992C633.888 510.069 634.178 508.915 634.178 507.53ZM660.833 491.727V496.699H645.155V491.727H660.833ZM649.026 485.193H655.453V510.797C655.453 511.661 655.584 512.324 655.844 512.786C656.116 513.235 656.471 513.543 656.909 513.709C657.347 513.875 657.833 513.957 658.365 513.957C658.768 513.957 659.135 513.928 659.466 513.869C659.809 513.809 660.07 513.756 660.247 513.709L661.33 518.734C660.987 518.852 660.496 518.982 659.857 519.124C659.229 519.266 658.46 519.349 657.548 519.373C655.939 519.42 654.489 519.178 653.198 518.645C651.908 518.1 650.884 517.26 650.127 516.124C649.381 514.987 649.014 513.567 649.026 511.862V485.193ZM666.209 519V491.727H672.636V519H666.209ZM669.44 487.857C668.422 487.857 667.546 487.519 666.812 486.844C666.079 486.158 665.712 485.335 665.712 484.376C665.712 483.406 666.079 482.583 666.812 481.908C667.546 481.222 668.422 480.879 669.44 480.879C670.47 480.879 671.346 481.222 672.068 481.908C672.802 482.583 673.169 483.406 673.169 484.376C673.169 485.335 672.802 486.158 672.068 486.844C671.346 487.519 670.47 487.857 669.44 487.857ZM685.673 482.636V519H679.246V482.636H685.673ZM692.283 519V491.727H698.711V519H692.283ZM695.515 487.857C694.497 487.857 693.621 487.519 692.887 486.844C692.153 486.158 691.786 485.335 691.786 484.376C691.786 483.406 692.153 482.583 692.887 481.908C693.621 481.222 694.497 480.879 695.515 480.879C696.544 480.879 697.42 481.222 698.142 481.908C698.876 482.583 699.243 483.406 699.243 484.376C699.243 485.335 698.876 486.158 698.142 486.844C697.42 487.519 696.544 487.857 695.515 487.857ZM726.876 498.936L721.016 499.575C720.85 498.983 720.56 498.427 720.146 497.906C719.744 497.385 719.199 496.965 718.513 496.646C717.826 496.326 716.986 496.166 715.991 496.166C714.654 496.166 713.529 496.456 712.618 497.036C711.718 497.616 711.274 498.368 711.286 499.291C711.274 500.084 711.564 500.729 712.156 501.227C712.76 501.724 713.754 502.132 715.139 502.452L719.791 503.446C722.372 504.002 724.289 504.884 725.544 506.092C726.81 507.299 727.45 508.879 727.461 510.832C727.45 512.549 726.947 514.064 725.952 515.378C724.97 516.68 723.603 517.698 721.851 518.432C720.099 519.166 718.086 519.533 715.814 519.533C712.476 519.533 709.789 518.834 707.753 517.438C705.717 516.029 704.503 514.07 704.113 511.56L710.381 510.957C710.665 512.188 711.268 513.117 712.192 513.744C713.115 514.372 714.316 514.685 715.796 514.685C717.323 514.685 718.548 514.372 719.471 513.744C720.407 513.117 720.874 512.342 720.874 511.418C720.874 510.637 720.572 509.992 719.969 509.483C719.377 508.974 718.453 508.583 717.199 508.311L712.547 507.335C709.931 506.79 707.995 505.873 706.741 504.582C705.486 503.28 704.864 501.635 704.876 499.646C704.864 497.965 705.32 496.509 706.243 495.278C707.179 494.036 708.475 493.077 710.132 492.402C711.801 491.715 713.724 491.372 715.903 491.372C719.099 491.372 721.614 492.053 723.449 493.414C725.295 494.775 726.438 496.616 726.876 498.936ZM740.61 519.55C738.881 519.55 737.325 519.243 735.94 518.627C734.567 518 733.478 517.076 732.673 515.857C731.88 514.638 731.483 513.135 731.483 511.347C731.483 509.808 731.767 508.536 732.335 507.53C732.904 506.524 733.679 505.719 734.661 505.115C735.644 504.511 736.751 504.056 737.982 503.748C739.225 503.428 740.509 503.197 741.835 503.055C743.433 502.89 744.729 502.742 745.723 502.612C746.718 502.469 747.44 502.256 747.889 501.972C748.351 501.676 748.582 501.221 748.582 500.605V500.499C748.582 499.161 748.185 498.125 747.392 497.391C746.599 496.657 745.457 496.29 743.965 496.29C742.391 496.29 741.142 496.634 740.219 497.32C739.307 498.007 738.692 498.818 738.372 499.753L732.371 498.901C732.844 497.243 733.626 495.858 734.715 494.746C735.804 493.621 737.135 492.781 738.71 492.224C740.284 491.656 742.024 491.372 743.93 491.372C745.244 491.372 746.552 491.526 747.854 491.834C749.156 492.142 750.346 492.651 751.423 493.361C752.5 494.059 753.364 495.012 754.015 496.219C754.678 497.427 755.009 498.936 755.009 500.747V519H748.83V515.254H748.617C748.227 516.011 747.676 516.721 746.966 517.384C746.268 518.035 745.386 518.562 744.32 518.964C743.267 519.355 742.03 519.55 740.61 519.55ZM742.279 514.827C743.569 514.827 744.687 514.573 745.634 514.064C746.581 513.543 747.309 512.857 747.818 512.004C748.339 511.152 748.6 510.223 748.6 509.217V506.003C748.398 506.169 748.055 506.322 747.57 506.464C747.096 506.607 746.564 506.731 745.972 506.837C745.38 506.944 744.794 507.039 744.214 507.121C743.634 507.204 743.131 507.275 742.705 507.335C741.746 507.465 740.888 507.678 740.13 507.974C739.373 508.27 738.775 508.684 738.337 509.217C737.899 509.737 737.68 510.412 737.68 511.241C737.68 512.424 738.112 513.318 738.976 513.922C739.84 514.526 740.941 514.827 742.279 514.827ZM775.091 491.727V496.699H759.413V491.727H775.091ZM763.284 485.193H769.711V510.797C769.711 511.661 769.841 512.324 770.102 512.786C770.374 513.235 770.729 513.543 771.167 513.709C771.605 513.875 772.09 513.957 772.623 513.957C773.026 513.957 773.392 513.928 773.724 513.869C774.067 513.809 774.328 513.756 774.505 513.709L775.588 518.734C775.245 518.852 774.754 518.982 774.115 519.124C773.487 519.266 772.718 519.349 771.806 519.373C770.196 519.42 768.746 519.178 767.456 518.645C766.166 518.1 765.142 517.26 764.384 516.124C763.639 514.987 763.272 513.567 763.284 511.862V485.193ZM792.248 519.533C789.513 519.533 787.152 518.964 785.163 517.828C783.186 516.68 781.665 515.058 780.6 512.963C779.534 510.856 779.002 508.376 779.002 505.523C779.002 502.718 779.534 500.256 780.6 498.137C781.677 496.006 783.18 494.349 785.11 493.165C787.039 491.97 789.306 491.372 791.91 491.372C793.591 491.372 795.177 491.644 796.669 492.189C798.172 492.722 799.498 493.55 800.646 494.675C801.806 495.799 802.717 497.232 803.38 498.972C804.043 500.7 804.375 502.759 804.375 505.151V507.121H782.02V502.789H798.213C798.202 501.558 797.935 500.463 797.414 499.504C796.894 498.534 796.166 497.77 795.23 497.214C794.307 496.657 793.23 496.379 791.999 496.379C790.685 496.379 789.531 496.699 788.537 497.338C787.542 497.965 786.767 498.794 786.211 499.824C785.666 500.842 785.388 501.96 785.376 503.18V506.962C785.376 508.548 785.666 509.909 786.246 511.045C786.826 512.17 787.637 513.034 788.679 513.638C789.72 514.23 790.94 514.526 792.336 514.526C793.271 514.526 794.118 514.395 794.875 514.135C795.633 513.863 796.29 513.466 796.846 512.945C797.403 512.424 797.823 511.779 798.107 511.01L804.108 511.685C803.73 513.271 803.007 514.656 801.942 515.839C800.889 517.011 799.539 517.923 797.894 518.574C796.248 519.213 794.366 519.533 792.248 519.533ZM827.195 507.53V491.727H833.623V519H827.39V514.153H827.106C826.491 515.68 825.479 516.929 824.07 517.899C822.673 518.87 820.951 519.355 818.903 519.355C817.116 519.355 815.536 518.959 814.162 518.165C812.801 517.361 811.736 516.195 810.966 514.668C810.197 513.129 809.812 511.27 809.812 509.092V491.727H816.24V508.098C816.24 509.826 816.713 511.199 817.66 512.217C818.607 513.235 819.85 513.744 821.389 513.744C822.336 513.744 823.253 513.513 824.141 513.052C825.029 512.59 825.757 511.904 826.325 510.992C826.905 510.069 827.195 508.915 827.195 507.53ZM840.232 519V491.727H846.464V496.273H846.749C847.246 494.698 848.098 493.485 849.305 492.633C850.525 491.769 851.915 491.337 853.478 491.337C853.833 491.337 854.23 491.354 854.668 491.39C855.117 491.414 855.49 491.455 855.786 491.514V497.427C855.514 497.332 855.082 497.249 854.49 497.178C853.91 497.095 853.348 497.054 852.803 497.054C851.631 497.054 850.578 497.308 849.643 497.817C848.719 498.315 847.991 499.007 847.459 499.895C846.926 500.783 846.66 501.807 846.66 502.967V519H840.232Z"
    fill="#08272E" />
  <rect x="524" y="711" width="880" height="275" rx="36" fill="white" stroke="#3971FF" stroke-width="8" />
  <path
    d="M603.08 782.818C603.08 786.736 602.346 790.092 600.878 792.886C599.422 795.667 597.433 797.798 594.912 799.278C592.402 800.757 589.556 801.497 586.371 801.497C583.187 801.497 580.335 800.757 577.813 799.278C575.304 797.786 573.315 795.65 571.847 792.868C570.391 790.074 569.663 786.724 569.663 782.818C569.663 778.9 570.391 775.55 571.847 772.768C573.315 769.975 575.304 767.838 577.813 766.359C580.335 764.879 583.187 764.139 586.371 764.139C589.556 764.139 592.402 764.879 594.912 766.359C597.433 767.838 599.422 769.975 600.878 772.768C602.346 775.55 603.08 778.9 603.08 782.818ZM596.457 782.818C596.457 780.06 596.025 777.734 595.161 775.84C594.308 773.934 593.125 772.496 591.609 771.526C590.094 770.543 588.348 770.052 586.371 770.052C584.395 770.052 582.649 770.543 581.134 771.526C579.618 772.496 578.429 773.934 577.565 775.84C576.712 777.734 576.286 780.06 576.286 782.818C576.286 785.576 576.712 787.908 577.565 789.814C578.429 791.708 579.618 793.146 581.134 794.129C582.649 795.099 584.395 795.585 586.371 795.585C588.348 795.585 590.094 795.099 591.609 794.129C593.125 793.146 594.308 791.708 595.161 789.814C596.025 787.908 596.457 785.576 596.457 782.818ZM626.406 789.53V773.727H632.834V801H626.601V796.153H626.317C625.702 797.68 624.69 798.929 623.281 799.899C621.884 800.87 620.162 801.355 618.114 801.355C616.327 801.355 614.747 800.959 613.373 800.165C612.012 799.361 610.947 798.195 610.177 796.668C609.408 795.129 609.023 793.27 609.023 791.092V773.727H615.451V790.098C615.451 791.826 615.924 793.199 616.871 794.217C617.818 795.235 619.061 795.744 620.6 795.744C621.547 795.744 622.464 795.513 623.352 795.052C624.24 794.59 624.968 793.904 625.536 792.992C626.116 792.069 626.406 790.915 626.406 789.53ZM663.804 773.727L654.092 801H646.989L637.277 773.727H644.131L650.398 793.987H650.683L656.968 773.727H663.804ZM679.398 801.533C676.664 801.533 674.302 800.964 672.313 799.828C670.337 798.68 668.816 797.058 667.75 794.963C666.685 792.856 666.152 790.376 666.152 787.523C666.152 784.718 666.685 782.256 667.75 780.137C668.827 778.006 670.331 776.349 672.26 775.165C674.19 773.97 676.456 773.372 679.061 773.372C680.741 773.372 682.328 773.644 683.819 774.189C685.322 774.722 686.648 775.55 687.796 776.675C688.956 777.799 689.868 779.232 690.531 780.972C691.194 782.7 691.525 784.759 691.525 787.151V789.121H669.171V784.789H685.364C685.352 783.558 685.086 782.463 684.565 781.504C684.044 780.534 683.316 779.77 682.381 779.214C681.458 778.657 680.38 778.379 679.149 778.379C677.835 778.379 676.681 778.699 675.687 779.338C674.693 779.965 673.917 780.794 673.361 781.824C672.816 782.842 672.538 783.96 672.526 785.18V788.962C672.526 790.548 672.816 791.909 673.396 793.045C673.977 794.17 674.787 795.034 675.829 795.638C676.871 796.23 678.09 796.526 679.487 796.526C680.422 796.526 681.268 796.395 682.026 796.135C682.783 795.863 683.44 795.466 683.997 794.945C684.553 794.424 684.973 793.779 685.257 793.01L691.259 793.685C690.88 795.271 690.158 796.656 689.093 797.839C688.039 799.011 686.69 799.923 685.044 800.574C683.399 801.213 681.517 801.533 679.398 801.533ZM696.963 801V773.727H703.195V778.273H703.479C703.976 776.698 704.828 775.485 706.036 774.633C707.255 773.769 708.646 773.337 710.208 773.337C710.564 773.337 710.96 773.354 711.398 773.39C711.848 773.414 712.221 773.455 712.517 773.514V779.427C712.244 779.332 711.812 779.249 711.221 779.178C710.641 779.095 710.078 779.054 709.534 779.054C708.362 779.054 707.308 779.308 706.373 779.817C705.45 780.315 704.722 781.007 704.189 781.895C703.657 782.783 703.39 783.807 703.39 784.967V801H696.963ZM731.87 773.727V778.699H716.192V773.727H731.87ZM720.063 767.193H726.49V792.797C726.49 793.661 726.621 794.324 726.881 794.786C727.153 795.235 727.508 795.543 727.946 795.709C728.384 795.875 728.87 795.957 729.402 795.957C729.805 795.957 730.172 795.928 730.503 795.869C730.846 795.809 731.107 795.756 731.284 795.709L732.368 800.734C732.024 800.852 731.533 800.982 730.894 801.124C730.266 801.266 729.497 801.349 728.586 801.373C726.976 801.42 725.526 801.178 724.235 800.645C722.945 800.1 721.921 799.26 721.164 798.124C720.418 796.987 720.051 795.567 720.063 793.862V767.193ZM754.629 789.53V773.727H761.056V801H754.824V796.153H754.54C753.924 797.68 752.912 798.929 751.504 799.899C750.107 800.87 748.385 801.355 746.337 801.355C744.549 801.355 742.969 800.959 741.596 800.165C740.235 799.361 739.169 798.195 738.4 796.668C737.631 795.129 737.246 793.27 737.246 791.092V773.727H743.673V790.098C743.673 791.826 744.147 793.199 745.094 794.217C746.041 795.235 747.284 795.744 748.823 795.744C749.77 795.744 750.687 795.513 751.575 795.052C752.463 794.59 753.191 793.904 753.759 792.992C754.339 792.069 754.629 790.915 754.629 789.53ZM767.666 801V773.727H773.898V778.273H774.182C774.679 776.698 775.532 775.485 776.739 774.633C777.958 773.769 779.349 773.337 780.912 773.337C781.267 773.337 781.663 773.354 782.101 773.39C782.551 773.414 782.924 773.455 783.22 773.514V779.427C782.948 779.332 782.516 779.249 781.924 779.178C781.344 779.095 780.781 779.054 780.237 779.054C779.065 779.054 778.011 779.308 777.076 779.817C776.153 780.315 775.425 781.007 774.892 781.895C774.36 782.783 774.093 783.807 774.093 784.967V801H767.666ZM798.441 801.533C795.706 801.533 793.345 800.964 791.356 799.828C789.38 798.68 787.858 797.058 786.793 794.963C785.728 792.856 785.195 790.376 785.195 787.523C785.195 784.718 785.728 782.256 786.793 780.137C787.87 778.006 789.374 776.349 791.303 775.165C793.233 773.97 795.499 773.372 798.104 773.372C799.784 773.372 801.371 773.644 802.862 774.189C804.365 774.722 805.691 775.55 806.839 776.675C807.999 777.799 808.911 779.232 809.574 780.972C810.237 782.7 810.568 784.759 810.568 787.151V789.121H788.214V784.789H804.407C804.395 783.558 804.129 782.463 803.608 781.504C803.087 780.534 802.359 779.77 801.424 779.214C800.501 778.657 799.423 778.379 798.192 778.379C796.878 778.379 795.724 778.699 794.73 779.338C793.736 779.965 792.96 780.794 792.404 781.824C791.859 782.842 791.581 783.96 791.569 785.18V788.962C791.569 790.548 791.859 791.909 792.439 793.045C793.019 794.17 793.83 795.034 794.872 795.638C795.914 796.23 797.133 796.526 798.53 796.526C799.465 796.526 800.311 796.395 801.069 796.135C801.826 795.863 802.483 795.466 803.04 794.945C803.596 794.424 804.016 793.779 804.3 793.01L810.302 793.685C809.923 795.271 809.201 796.656 808.135 797.839C807.082 799.011 805.733 799.923 804.087 800.574C802.442 801.213 800.56 801.533 798.441 801.533ZM838.529 801.479C836.386 801.479 834.469 800.929 832.776 799.828C831.083 798.727 829.746 797.129 828.763 795.034C827.781 792.939 827.289 790.394 827.289 787.399C827.289 784.369 827.787 781.812 828.781 779.729C829.787 777.634 831.142 776.053 832.847 774.988C834.551 773.911 836.451 773.372 838.547 773.372C840.145 773.372 841.458 773.644 842.488 774.189C843.518 774.722 844.335 775.367 844.939 776.124C845.542 776.87 846.01 777.574 846.341 778.237H846.608V764.636H853.053V801H846.732V796.703H846.341C846.01 797.366 845.53 798.07 844.903 798.816C844.276 799.55 843.447 800.177 842.417 800.698C841.387 801.219 840.091 801.479 838.529 801.479ZM840.322 796.206C841.683 796.206 842.843 795.839 843.802 795.105C844.761 794.359 845.489 793.324 845.986 791.998C846.483 790.672 846.732 789.127 846.732 787.364C846.732 785.6 846.483 784.067 845.986 782.765C845.501 781.463 844.779 780.451 843.82 779.729C842.873 779.007 841.707 778.646 840.322 778.646C838.89 778.646 837.694 779.018 836.735 779.764C835.777 780.51 835.055 781.54 834.569 782.854C834.084 784.168 833.841 785.671 833.841 787.364C833.841 789.068 834.084 790.589 834.569 791.927C835.066 793.253 835.794 794.3 836.753 795.07C837.724 795.827 838.913 796.206 840.322 796.206ZM859.902 801V773.727H866.33V801H859.902ZM863.134 769.857C862.116 769.857 861.24 769.519 860.506 768.844C859.772 768.158 859.405 767.335 859.405 766.376C859.405 765.406 859.772 764.583 860.506 763.908C861.24 763.222 862.116 762.879 863.134 762.879C864.164 762.879 865.039 763.222 865.762 763.908C866.495 764.583 866.862 765.406 866.862 766.376C866.862 767.335 866.495 768.158 865.762 768.844C865.039 769.519 864.164 769.857 863.134 769.857ZM872.939 801V773.727H879.172V778.273H879.456C879.953 776.698 880.805 775.485 882.012 774.633C883.232 773.769 884.623 773.337 886.185 773.337C886.54 773.337 886.937 773.354 887.375 773.39C887.824 773.414 888.197 773.455 888.493 773.514V779.427C888.221 779.332 887.789 779.249 887.197 779.178C886.617 779.095 886.055 779.054 885.51 779.054C884.338 779.054 883.285 779.308 882.35 779.817C881.426 780.315 880.699 781.007 880.166 781.895C879.633 782.783 879.367 783.807 879.367 784.967V801H872.939ZM903.714 801.533C900.98 801.533 898.618 800.964 896.63 799.828C894.653 798.68 893.132 797.058 892.067 794.963C891.001 792.856 890.469 790.376 890.469 787.523C890.469 784.718 891.001 782.256 892.067 780.137C893.144 778.006 894.647 776.349 896.577 775.165C898.506 773.97 900.773 773.372 903.377 773.372C905.058 773.372 906.644 773.644 908.135 774.189C909.639 774.722 910.965 775.55 912.113 776.675C913.273 777.799 914.184 779.232 914.847 780.972C915.51 782.7 915.841 784.759 915.841 787.151V789.121H893.487V784.789H909.68C909.668 783.558 909.402 782.463 908.881 781.504C908.36 780.534 907.632 779.77 906.697 779.214C905.774 778.657 904.697 778.379 903.466 778.379C902.152 778.379 900.998 778.699 900.003 779.338C899.009 779.965 898.234 780.794 897.677 781.824C897.133 782.842 896.855 783.96 896.843 785.18V788.962C896.843 790.548 897.133 791.909 897.713 793.045C898.293 794.17 899.104 795.034 900.145 795.638C901.187 796.23 902.406 796.526 903.803 796.526C904.738 796.526 905.585 796.395 906.342 796.135C907.1 795.863 907.757 795.466 908.313 794.945C908.869 794.424 909.29 793.779 909.574 793.01L915.575 793.685C915.196 795.271 914.474 796.656 913.409 797.839C912.355 799.011 911.006 799.923 909.361 800.574C907.715 801.213 905.833 801.533 903.714 801.533ZM933.175 801.533C930.453 801.533 928.115 800.935 926.162 799.739C924.221 798.544 922.723 796.893 921.67 794.786C920.628 792.667 920.107 790.228 920.107 787.47C920.107 784.7 920.64 782.256 921.705 780.137C922.771 778.006 924.274 776.349 926.215 775.165C928.168 773.97 930.477 773.372 933.14 773.372C935.353 773.372 937.313 773.781 939.017 774.597C940.733 775.402 942.101 776.545 943.119 778.024C944.137 779.492 944.717 781.208 944.859 783.173H938.715C938.467 781.859 937.875 780.764 936.94 779.888C936.016 779.001 934.779 778.557 933.229 778.557C931.915 778.557 930.761 778.912 929.766 779.622C928.772 780.321 927.997 781.327 927.44 782.641C926.896 783.955 926.624 785.529 926.624 787.364C926.624 789.222 926.896 790.82 927.44 792.158C927.985 793.483 928.748 794.507 929.731 795.229C930.725 795.94 931.891 796.295 933.229 796.295C934.176 796.295 935.022 796.117 935.768 795.762C936.525 795.395 937.159 794.868 937.668 794.182C938.177 793.495 938.526 792.661 938.715 791.678H944.859C944.705 793.608 944.137 795.318 943.154 796.81C942.172 798.289 940.834 799.449 939.141 800.29C937.449 801.118 935.46 801.533 933.175 801.533ZM963.755 773.727V778.699H948.077V773.727H963.755ZM951.948 767.193H958.375V792.797C958.375 793.661 958.505 794.324 958.766 794.786C959.038 795.235 959.393 795.543 959.831 795.709C960.269 795.875 960.754 795.957 961.287 795.957C961.69 795.957 962.057 795.928 962.388 795.869C962.731 795.809 962.992 795.756 963.169 795.709L964.252 800.734C963.909 800.852 963.418 800.982 962.779 801.124C962.151 801.266 961.382 801.349 960.47 801.373C958.86 801.42 957.41 801.178 956.12 800.645C954.83 800.1 953.806 799.26 953.048 798.124C952.303 796.987 951.936 795.567 951.948 793.862V767.193ZM980.912 801.533C978.177 801.533 975.816 800.964 973.827 799.828C971.85 798.68 970.329 797.058 969.264 794.963C968.199 792.856 967.666 790.376 967.666 787.523C967.666 784.718 968.199 782.256 969.264 780.137C970.341 778.006 971.844 776.349 973.774 775.165C975.703 773.97 977.97 773.372 980.574 773.372C982.255 773.372 983.841 773.644 985.333 774.189C986.836 774.722 988.162 775.55 989.31 776.675C990.47 777.799 991.382 779.232 992.044 780.972C992.707 782.7 993.039 784.759 993.039 787.151V789.121H970.684V784.789H986.877C986.866 783.558 986.599 782.463 986.078 781.504C985.558 780.534 984.83 779.77 983.895 779.214C982.971 778.657 981.894 778.379 980.663 778.379C979.349 778.379 978.195 778.699 977.201 779.338C976.206 779.965 975.431 780.794 974.875 781.824C974.33 782.842 974.052 783.96 974.04 785.18V788.962C974.04 790.548 974.33 791.909 974.91 793.045C975.49 794.17 976.301 795.034 977.343 795.638C978.384 796.23 979.604 796.526 981 796.526C981.935 796.526 982.782 796.395 983.539 796.135C984.297 795.863 984.954 795.466 985.51 794.945C986.067 794.424 986.487 793.779 986.771 793.01L992.772 793.685C992.394 795.271 991.672 796.656 990.606 797.839C989.553 799.011 988.203 799.923 986.558 800.574C984.913 801.213 983.03 801.533 980.912 801.533ZM1021 801.479C1018.86 801.479 1016.94 800.929 1015.25 799.828C1013.55 798.727 1012.22 797.129 1011.23 795.034C1010.25 792.939 1009.76 790.394 1009.76 787.399C1009.76 784.369 1010.26 781.812 1011.25 779.729C1012.26 777.634 1013.61 776.053 1015.32 774.988C1017.02 773.911 1018.92 773.372 1021.02 773.372C1022.62 773.372 1023.93 773.644 1024.96 774.189C1025.99 774.722 1026.81 775.367 1027.41 776.124C1028.01 776.87 1028.48 777.574 1028.81 778.237H1029.08V764.636H1035.52V801H1029.2V796.703H1028.81C1028.48 797.366 1028 798.07 1027.37 798.816C1026.75 799.55 1025.92 800.177 1024.89 800.698C1023.86 801.219 1022.56 801.479 1021 801.479ZM1022.79 796.206C1024.15 796.206 1025.31 795.839 1026.27 795.105C1027.23 794.359 1027.96 793.324 1028.46 791.998C1028.95 790.672 1029.2 789.127 1029.2 787.364C1029.2 785.6 1028.95 784.067 1028.46 782.765C1027.97 781.463 1027.25 780.451 1026.29 779.729C1025.34 779.007 1024.18 778.646 1022.79 778.646C1021.36 778.646 1020.16 779.018 1019.21 779.764C1018.25 780.51 1017.53 781.54 1017.04 782.854C1016.55 784.168 1016.31 785.671 1016.31 787.364C1016.31 789.068 1016.55 790.589 1017.04 791.927C1017.54 793.253 1018.27 794.3 1019.22 795.07C1020.19 795.827 1021.38 796.206 1022.79 796.206ZM1050.22 801.55C1048.49 801.55 1046.94 801.243 1045.55 800.627C1044.18 800 1043.09 799.076 1042.28 797.857C1041.49 796.638 1041.09 795.135 1041.09 793.347C1041.09 791.808 1041.38 790.536 1041.95 789.53C1042.51 788.524 1043.29 787.719 1044.27 787.115C1045.26 786.511 1046.36 786.056 1047.59 785.748C1048.84 785.428 1050.12 785.197 1051.45 785.055C1053.04 784.89 1054.34 784.742 1055.33 784.612C1056.33 784.469 1057.05 784.256 1057.5 783.972C1057.96 783.676 1058.19 783.221 1058.19 782.605V782.499C1058.19 781.161 1057.8 780.125 1057 779.391C1056.21 778.657 1055.07 778.29 1053.58 778.29C1052 778.29 1050.75 778.634 1049.83 779.32C1048.92 780.007 1048.3 780.818 1047.98 781.753L1041.98 780.901C1042.46 779.243 1043.24 777.858 1044.33 776.746C1045.42 775.621 1046.75 774.781 1048.32 774.224C1049.9 773.656 1051.64 773.372 1053.54 773.372C1054.86 773.372 1056.16 773.526 1057.47 773.834C1058.77 774.142 1059.96 774.651 1061.03 775.361C1062.11 776.059 1062.98 777.012 1063.63 778.219C1064.29 779.427 1064.62 780.936 1064.62 782.747V801H1058.44V797.254H1058.23C1057.84 798.011 1057.29 798.721 1056.58 799.384C1055.88 800.035 1055 800.562 1053.93 800.964C1052.88 801.355 1051.64 801.55 1050.22 801.55ZM1051.89 796.827C1053.18 796.827 1054.3 796.573 1055.25 796.064C1056.19 795.543 1056.92 794.857 1057.43 794.004C1057.95 793.152 1058.21 792.223 1058.21 791.217V788.003C1058.01 788.169 1057.67 788.322 1057.18 788.464C1056.71 788.607 1056.17 788.731 1055.58 788.837C1054.99 788.944 1054.41 789.039 1053.83 789.121C1053.25 789.204 1052.74 789.275 1052.32 789.335C1051.36 789.465 1050.5 789.678 1049.74 789.974C1048.98 790.27 1048.39 790.684 1047.95 791.217C1047.51 791.737 1047.29 792.412 1047.29 793.241C1047.29 794.424 1047.72 795.318 1048.59 795.922C1049.45 796.526 1050.55 796.827 1051.89 796.827ZM1077.51 785.02V801H1071.08V773.727H1077.23V778.362H1077.55C1078.17 776.835 1079.17 775.621 1080.55 774.722C1081.93 773.822 1083.64 773.372 1085.68 773.372C1087.56 773.372 1089.2 773.775 1090.6 774.58C1092.01 775.384 1093.09 776.55 1093.86 778.077C1094.65 779.604 1095.03 781.457 1095.02 783.635V801H1088.59V784.629C1088.59 782.806 1088.12 781.38 1087.17 780.35C1086.24 779.32 1084.94 778.805 1083.28 778.805C1082.16 778.805 1081.16 779.054 1080.28 779.551C1079.42 780.036 1078.74 780.741 1078.24 781.664C1077.75 782.587 1077.51 783.706 1077.51 785.02ZM1123.11 780.936L1117.25 781.575C1117.08 780.983 1116.79 780.427 1116.38 779.906C1115.98 779.385 1115.43 778.965 1114.75 778.646C1114.06 778.326 1113.22 778.166 1112.22 778.166C1110.89 778.166 1109.76 778.456 1108.85 779.036C1107.95 779.616 1107.51 780.368 1107.52 781.291C1107.51 782.084 1107.8 782.729 1108.39 783.227C1108.99 783.724 1109.99 784.132 1111.37 784.452L1116.02 785.446C1118.6 786.002 1120.52 786.884 1121.78 788.092C1123.04 789.299 1123.68 790.879 1123.69 792.832C1123.68 794.549 1123.18 796.064 1122.18 797.378C1121.2 798.68 1119.83 799.698 1118.08 800.432C1116.33 801.166 1114.32 801.533 1112.05 801.533C1108.71 801.533 1106.02 800.834 1103.99 799.438C1101.95 798.029 1100.74 796.07 1100.35 793.56L1106.61 792.957C1106.9 794.188 1107.5 795.117 1108.42 795.744C1109.35 796.372 1110.55 796.685 1112.03 796.685C1113.56 796.685 1114.78 796.372 1115.7 795.744C1116.64 795.117 1117.11 794.342 1117.11 793.418C1117.11 792.637 1116.8 791.992 1116.2 791.483C1115.61 790.974 1114.69 790.583 1113.43 790.311L1108.78 789.335C1106.16 788.79 1104.23 787.873 1102.97 786.582C1101.72 785.28 1101.1 783.635 1101.11 781.646C1101.1 779.965 1101.55 778.509 1102.48 777.278C1103.41 776.036 1104.71 775.077 1106.36 774.402C1108.03 773.715 1109.96 773.372 1112.13 773.372C1115.33 773.372 1117.85 774.053 1119.68 775.414C1121.53 776.775 1122.67 778.616 1123.11 780.936ZM1147.82 764.636V801H1141.4V764.636H1147.82ZM1159.88 764.636V768.259C1159.88 769.3 1159.68 770.383 1159.28 771.508C1158.89 772.621 1158.35 773.686 1157.66 774.704C1156.98 775.71 1156.2 776.574 1155.32 777.296L1152.34 775.361C1152.99 774.378 1153.56 773.319 1154.04 772.183C1154.53 771.034 1154.77 769.738 1154.77 768.294V764.636H1159.88ZM1170.14 801.55C1168.41 801.55 1166.86 801.243 1165.47 800.627C1164.1 800 1163.01 799.076 1162.21 797.857C1161.41 796.638 1161.02 795.135 1161.02 793.347C1161.02 791.808 1161.3 790.536 1161.87 789.53C1162.44 788.524 1163.21 787.719 1164.19 787.115C1165.18 786.511 1166.28 786.056 1167.51 785.748C1168.76 785.428 1170.04 785.197 1171.37 785.055C1172.97 784.89 1174.26 784.742 1175.26 784.612C1176.25 784.469 1176.97 784.256 1177.42 783.972C1177.88 783.676 1178.12 783.221 1178.12 782.605V782.499C1178.12 781.161 1177.72 780.125 1176.93 779.391C1176.13 778.657 1174.99 778.29 1173.5 778.29C1171.92 778.29 1170.68 778.634 1169.75 779.32C1168.84 780.007 1168.23 780.818 1167.91 781.753L1161.9 780.901C1162.38 779.243 1163.16 777.858 1164.25 776.746C1165.34 775.621 1166.67 774.781 1168.24 774.224C1169.82 773.656 1171.56 773.372 1173.46 773.372C1174.78 773.372 1176.08 773.526 1177.39 773.834C1178.69 774.142 1179.88 774.651 1180.96 775.361C1182.03 776.059 1182.9 777.012 1183.55 778.219C1184.21 779.427 1184.54 780.936 1184.54 782.747V801H1178.36V797.254H1178.15C1177.76 798.011 1177.21 798.721 1176.5 799.384C1175.8 800.035 1174.92 800.562 1173.85 800.964C1172.8 801.355 1171.56 801.55 1170.14 801.55ZM1171.81 796.827C1173.1 796.827 1174.22 796.573 1175.17 796.064C1176.11 795.543 1176.84 794.857 1177.35 794.004C1177.87 793.152 1178.13 792.223 1178.13 791.217V788.003C1177.93 788.169 1177.59 788.322 1177.1 788.464C1176.63 788.607 1176.1 788.731 1175.5 788.837C1174.91 788.944 1174.33 789.039 1173.75 789.121C1173.17 789.204 1172.66 789.275 1172.24 789.335C1171.28 789.465 1170.42 789.678 1169.66 789.974C1168.91 790.27 1168.31 790.684 1167.87 791.217C1167.43 791.737 1167.21 792.412 1167.21 793.241C1167.21 794.424 1167.65 795.318 1168.51 795.922C1169.37 796.526 1170.47 796.827 1171.81 796.827ZM1191.01 811.227V773.727H1197.33V778.237H1197.7C1198.03 777.574 1198.5 776.87 1199.1 776.124C1199.71 775.367 1200.52 774.722 1201.55 774.189C1202.58 773.644 1203.9 773.372 1205.49 773.372C1207.6 773.372 1209.5 773.911 1211.19 774.988C1212.9 776.053 1214.25 777.634 1215.24 779.729C1216.25 781.812 1216.75 784.369 1216.75 787.399C1216.75 790.394 1216.26 792.939 1215.28 795.034C1214.3 797.129 1212.96 798.727 1211.26 799.828C1209.57 800.929 1207.65 801.479 1205.51 801.479C1203.95 801.479 1202.65 801.219 1201.62 800.698C1200.59 800.177 1199.77 799.55 1199.14 798.816C1198.52 798.07 1198.04 797.366 1197.7 796.703H1197.43V811.227H1191.01ZM1197.31 787.364C1197.31 789.127 1197.56 790.672 1198.05 791.998C1198.56 793.324 1199.29 794.359 1200.24 795.105C1201.2 795.839 1202.36 796.206 1203.72 796.206C1205.14 796.206 1206.33 795.827 1207.29 795.07C1208.25 794.3 1208.97 793.253 1209.45 791.927C1209.95 790.589 1210.2 789.068 1210.2 787.364C1210.2 785.671 1209.96 784.168 1209.47 782.854C1208.99 781.54 1208.26 780.51 1207.31 779.764C1206.35 779.018 1205.15 778.646 1203.72 778.646C1202.35 778.646 1201.18 779.007 1200.22 779.729C1199.26 780.451 1198.53 781.463 1198.04 782.765C1197.55 784.067 1197.31 785.6 1197.31 787.364ZM1222.26 811.227V773.727H1228.58V778.237H1228.95C1229.28 777.574 1229.75 776.87 1230.35 776.124C1230.96 775.367 1231.77 774.722 1232.8 774.189C1233.83 773.644 1235.15 773.372 1236.74 773.372C1238.85 773.372 1240.75 773.911 1242.44 774.988C1244.15 776.053 1245.5 777.634 1246.49 779.729C1247.5 781.812 1248 784.369 1248 787.399C1248 790.394 1247.51 792.939 1246.53 795.034C1245.55 797.129 1244.21 798.727 1242.51 799.828C1240.82 800.929 1238.9 801.479 1236.76 801.479C1235.2 801.479 1233.9 801.219 1232.87 800.698C1231.84 800.177 1231.02 799.55 1230.39 798.816C1229.77 798.07 1229.29 797.366 1228.95 796.703H1228.68V811.227H1222.26ZM1228.56 787.364C1228.56 789.127 1228.81 790.672 1229.3 791.998C1229.81 793.324 1230.54 794.359 1231.49 795.105C1232.45 795.839 1233.61 796.206 1234.97 796.206C1236.39 796.206 1237.58 795.827 1238.54 795.07C1239.5 794.3 1240.22 793.253 1240.7 791.927C1241.2 790.589 1241.45 789.068 1241.45 787.364C1241.45 785.671 1241.21 784.168 1240.72 782.854C1240.24 781.54 1239.51 780.51 1238.56 779.764C1237.6 779.018 1236.4 778.646 1234.97 778.646C1233.6 778.646 1232.43 779.007 1231.47 779.729C1230.51 780.451 1229.78 781.463 1229.29 782.765C1228.8 784.067 1228.56 785.6 1228.56 787.364Z"
    fill="#08272E" />
  <path d="M967 498C1155 498 1194 526 1194 700.5" stroke="#3971FF" stroke-width="8" />
  <g clip-path="url(#clip0_233_56)">
    <g opacity="0.53" filter="url(#filter0_f_233_56)">
      <path
        d="M1327.88 907.112C1327.88 911.171 1327.05 915.191 1325.42 918.941C1323.79 922.692 1321.41 926.099 1318.4 928.97C1315.39 931.84 1311.82 934.117 1307.89 935.67C1303.96 937.224 1299.75 938.023 1295.5 938.023C1291.25 938.023 1287.04 937.224 1283.11 935.67C1279.18 934.117 1275.61 931.84 1272.6 928.97C1269.6 926.099 1267.21 922.692 1265.59 918.941C1263.96 915.191 1263.12 911.171 1263.12 907.112C1263.12 898.914 1266.53 891.052 1272.6 885.255C1278.68 879.458 1286.91 876.201 1295.5 876.201C1299.75 876.201 1303.96 877.001 1307.89 878.554C1311.82 880.108 1315.39 882.384 1318.4 885.255C1321.41 888.125 1323.79 891.533 1325.42 895.283C1327.05 899.033 1327.88 903.053 1327.88 907.112Z"
        fill="black" />
    </g>
    <path
      d="M1329.11 904.383C1329.11 908.759 1328.24 913.092 1326.56 917.135C1324.87 921.178 1322.39 924.851 1319.27 927.946C1316.15 931.04 1312.44 933.494 1308.36 935.169C1304.29 936.844 1299.91 937.706 1295.5 937.706C1286.59 937.706 1278.04 934.195 1271.73 927.946C1265.43 921.696 1261.89 913.221 1261.89 904.383C1261.89 895.545 1265.43 887.069 1271.73 880.82C1278.04 874.571 1286.59 871.06 1295.5 871.06C1299.91 871.06 1304.29 871.922 1308.36 873.597C1312.44 875.271 1316.15 877.726 1319.27 880.82C1322.39 883.914 1324.87 887.588 1326.56 891.631C1328.24 895.674 1329.11 900.007 1329.11 904.383Z"
      fill="url(#paint0_linear_233_56)" stroke="#CDCDCD" stroke-width="0.351543" stroke-linecap="round"
      stroke-linejoin="round" />
    <path
      d="M1326.48 904.383C1326.48 912.528 1323.22 920.34 1317.41 926.099C1311.6 931.859 1303.72 935.094 1295.5 935.094C1287.28 935.094 1279.4 931.859 1273.59 926.099C1267.78 920.34 1264.52 912.528 1264.52 904.383C1264.52 896.238 1267.78 888.426 1273.59 882.666C1279.4 876.907 1287.28 873.671 1295.5 873.671C1303.72 873.671 1311.6 876.907 1317.41 882.666C1323.22 888.426 1326.48 896.238 1326.48 904.383Z"
      fill="url(#paint1_radial_233_56)" />
    <path
      d="M1295.5 875.273C1295.25 875.273 1295.05 875.473 1295.05 875.721V880.885C1295.05 881.134 1295.25 881.333 1295.5 881.333C1295.75 881.333 1295.95 881.134 1295.95 880.885V875.721C1295.95 875.473 1295.75 875.273 1295.5 875.273ZM1292.55 875.458C1292.52 875.455 1292.48 875.455 1292.45 875.458C1292.2 875.484 1292.02 875.704 1292.05 875.95L1292.28 878.111C1292.3 878.358 1292.53 878.536 1292.77 878.51C1293.02 878.484 1293.2 878.265 1293.18 878.018L1292.95 875.857C1292.93 875.641 1292.75 875.478 1292.55 875.458ZM1298.48 875.46C1298.27 875.48 1298.09 875.643 1298.07 875.859L1297.84 878.02C1297.82 878.267 1297.99 878.486 1298.24 878.512C1298.49 878.538 1298.71 878.36 1298.74 878.114L1298.97 875.953C1299 875.706 1298.82 875.487 1298.57 875.461C1298.54 875.458 1298.51 875.458 1298.48 875.46ZM1289.51 875.894C1289.48 875.895 1289.45 875.898 1289.42 875.904C1289.17 875.955 1289.02 876.192 1289.07 876.435L1290.15 881.488C1290.2 881.73 1290.44 881.884 1290.68 881.833C1290.93 881.782 1291.08 881.545 1291.03 881.302L1289.95 876.249C1289.91 876.037 1289.72 875.893 1289.51 875.894ZM1301.51 875.899C1301.3 875.897 1301.11 876.041 1301.07 876.253L1299.98 881.306C1299.93 881.548 1300.09 881.785 1300.33 881.837C1300.58 881.888 1300.82 881.734 1300.87 881.492L1301.95 876.44C1302 876.197 1301.85 875.96 1301.6 875.909C1301.57 875.902 1301.54 875.899 1301.51 875.899ZM1286.61 876.704C1286.55 876.699 1286.49 876.705 1286.43 876.725C1286.2 876.801 1286.07 877.053 1286.14 877.289L1286.82 879.355C1286.9 879.591 1287.15 879.719 1287.39 879.643C1287.63 879.566 1287.76 879.314 1287.68 879.078L1287 877.012C1286.95 876.835 1286.79 876.719 1286.61 876.704ZM1304.39 876.705C1304.22 876.72 1304.06 876.836 1304 877.013L1303.32 879.079C1303.25 879.315 1303.37 879.567 1303.61 879.644C1303.85 879.72 1304.1 879.592 1304.18 879.356L1304.86 877.29C1304.94 877.054 1304.81 876.802 1304.57 876.726C1304.51 876.707 1304.45 876.7 1304.39 876.705ZM1283.75 877.743C1283.69 877.744 1283.63 877.757 1283.57 877.782C1283.34 877.883 1283.24 878.147 1283.34 878.373L1285.46 883.093C1285.56 883.32 1285.83 883.421 1286.06 883.32C1286.28 883.219 1286.39 882.956 1286.29 882.729L1284.17 878.01C1284.09 877.84 1283.92 877.74 1283.75 877.743ZM1307.29 877.759C1307.11 877.756 1306.94 877.855 1306.87 878.025L1304.74 882.742C1304.64 882.968 1304.74 883.232 1304.97 883.333C1305.2 883.434 1305.47 883.333 1305.57 883.106L1307.69 878.39C1307.79 878.163 1307.69 877.899 1307.46 877.798C1307.41 877.773 1307.35 877.76 1307.29 877.759ZM1281.09 879.138C1281 879.132 1280.91 879.151 1280.83 879.197C1280.62 879.321 1280.54 879.594 1280.67 879.809L1281.76 881.691C1281.89 881.905 1282.16 881.978 1282.38 881.854C1282.6 881.73 1282.67 881.458 1282.54 881.243L1281.45 879.361C1281.37 879.227 1281.23 879.148 1281.09 879.138ZM1309.91 879.138C1309.77 879.148 1309.63 879.227 1309.55 879.361L1308.46 881.243C1308.33 881.458 1308.4 881.73 1308.62 881.854C1308.84 881.978 1309.11 881.905 1309.24 881.69L1310.33 879.809C1310.46 879.594 1310.38 879.321 1310.17 879.197C1310.09 879.151 1310 879.132 1309.91 879.138ZM1278.51 880.734C1278.42 880.738 1278.33 880.765 1278.26 880.82C1278.06 880.966 1278.01 881.244 1278.16 881.445L1281.22 885.626C1281.36 885.827 1281.64 885.871 1281.85 885.725C1282.05 885.58 1282.09 885.301 1281.95 885.1L1278.89 880.919C1278.8 880.794 1278.65 880.73 1278.51 880.734ZM1312.52 880.757C1312.38 880.752 1312.24 880.816 1312.14 880.942L1309.08 885.118C1308.93 885.319 1308.98 885.598 1309.18 885.744C1309.38 885.89 1309.66 885.846 1309.81 885.645L1312.87 881.469C1313.02 881.268 1312.98 880.989 1312.77 880.843C1312.7 880.788 1312.61 880.76 1312.52 880.757ZM1276.2 882.653C1276.08 882.647 1275.97 882.685 1275.87 882.768C1275.69 882.934 1275.67 883.216 1275.84 883.4L1277.31 885.015C1277.47 885.199 1277.76 885.214 1277.94 885.048C1278.13 884.882 1278.15 884.6 1277.98 884.416L1276.51 882.801C1276.43 882.709 1276.31 882.659 1276.2 882.653ZM1314.8 882.656C1314.69 882.663 1314.58 882.712 1314.49 882.804L1313.03 884.419C1312.86 884.603 1312.87 884.885 1313.06 885.051C1313.24 885.217 1313.53 885.202 1313.7 885.018L1315.16 883.404C1315.33 883.219 1315.32 882.937 1315.13 882.771C1315.04 882.688 1314.92 882.65 1314.8 882.656ZM1273.99 884.76C1273.87 884.766 1273.76 884.815 1273.68 884.908C1273.51 885.092 1273.52 885.374 1273.71 885.54L1277.58 888.995C1277.77 889.161 1278.05 889.146 1278.22 888.962C1278.39 888.778 1278.37 888.496 1278.19 888.33L1274.31 884.874C1274.22 884.791 1274.1 884.753 1273.99 884.76ZM1317.03 884.775C1316.91 884.768 1316.79 884.806 1316.7 884.889L1312.83 888.342C1312.64 888.508 1312.62 888.79 1312.79 888.974C1312.96 889.159 1313.24 889.174 1313.43 889.008L1317.3 885.555C1317.49 885.389 1317.51 885.107 1317.34 884.923C1317.25 884.831 1317.14 884.781 1317.03 884.775ZM1272.15 887.104C1272 887.099 1271.86 887.164 1271.77 887.289C1271.62 887.49 1271.66 887.769 1271.87 887.914L1273.64 889.191C1273.84 889.337 1274.12 889.293 1274.27 889.092C1274.42 888.892 1274.37 888.613 1274.17 888.467L1272.4 887.19C1272.32 887.135 1272.24 887.107 1272.15 887.104ZM1318.86 887.121C1318.78 887.124 1318.69 887.151 1318.61 887.206L1316.84 888.482C1316.64 888.627 1316.59 888.907 1316.74 889.107C1316.89 889.308 1317.17 889.352 1317.37 889.207L1319.14 887.931C1319.35 887.785 1319.39 887.506 1319.24 887.306C1319.15 887.18 1319.01 887.116 1318.86 887.121ZM1270.43 889.605C1270.28 889.615 1270.15 889.694 1270.07 889.829C1269.94 890.043 1270.02 890.316 1270.24 890.44L1274.75 893.023C1274.96 893.147 1275.24 893.073 1275.36 892.859C1275.49 892.644 1275.42 892.371 1275.2 892.247L1270.69 889.665C1270.61 889.618 1270.52 889.599 1270.43 889.605ZM1320.57 889.605C1320.48 889.599 1320.39 889.618 1320.31 889.665L1315.8 892.247C1315.58 892.371 1315.51 892.644 1315.64 892.859C1315.76 893.074 1316.04 893.147 1316.25 893.023L1320.77 890.44C1320.98 890.316 1321.06 890.043 1320.93 889.829C1320.85 889.694 1320.72 889.615 1320.57 889.605ZM1269.13 892.271C1268.95 892.267 1268.78 892.367 1268.71 892.537C1268.61 892.763 1268.71 893.027 1268.94 893.128L1270.94 894.013C1271.17 894.114 1271.43 894.013 1271.53 893.787C1271.64 893.56 1271.53 893.296 1271.31 893.195L1269.3 892.31C1269.25 892.285 1269.19 892.272 1269.13 892.271ZM1321.88 892.29C1321.82 892.291 1321.76 892.303 1321.7 892.329L1319.7 893.212C1319.47 893.313 1319.37 893.577 1319.47 893.803C1319.57 894.03 1319.84 894.131 1320.07 894.03L1322.07 893.147C1322.3 893.046 1322.4 892.782 1322.3 892.556C1322.22 892.386 1322.06 892.286 1321.88 892.29ZM1267.97 895.058C1267.8 895.072 1267.64 895.188 1267.58 895.365C1267.5 895.601 1267.63 895.853 1267.87 895.93L1272.82 897.53C1273.06 897.607 1273.32 897.479 1273.39 897.243C1273.47 897.007 1273.34 896.755 1273.1 896.678L1268.15 895.078C1268.09 895.059 1268.03 895.053 1267.97 895.058ZM1323.04 895.077C1322.98 895.071 1322.92 895.078 1322.86 895.097L1317.9 896.694C1317.66 896.771 1317.53 897.022 1317.61 897.258C1317.69 897.494 1317.94 897.622 1318.18 897.546L1323.14 895.949C1323.37 895.872 1323.5 895.621 1323.43 895.385C1323.37 895.208 1323.21 895.091 1323.04 895.077ZM1267.25 897.982C1267.04 897.98 1266.85 898.125 1266.81 898.337C1266.75 898.58 1266.91 898.817 1267.15 898.868L1269.3 899.32C1269.54 899.372 1269.78 899.218 1269.83 898.975C1269.88 898.732 1269.73 898.496 1269.48 898.444L1267.34 897.992C1267.31 897.986 1267.28 897.982 1267.25 897.982ZM1323.75 897.987C1323.72 897.987 1323.69 897.991 1323.66 897.996L1321.52 898.448C1321.27 898.499 1321.12 898.736 1321.17 898.978C1321.22 899.221 1321.46 899.375 1321.7 899.324L1323.85 898.872C1324.09 898.821 1324.25 898.584 1324.2 898.341C1324.15 898.129 1323.96 897.985 1323.75 897.987ZM1266.7 900.924C1266.49 900.944 1266.32 901.107 1266.3 901.323C1266.27 901.57 1266.45 901.789 1266.7 901.815L1271.88 902.358C1272.13 902.385 1272.35 902.207 1272.38 901.96C1272.4 901.714 1272.22 901.494 1271.98 901.468L1266.8 900.925C1266.76 900.922 1266.73 900.922 1266.7 900.924ZM1324.3 900.963C1324.27 900.96 1324.24 900.96 1324.21 900.963L1319.03 901.499C1318.78 901.525 1318.6 901.745 1318.63 901.991C1318.65 902.238 1318.87 902.416 1319.12 902.39L1324.3 901.854C1324.55 901.828 1324.73 901.609 1324.71 901.362C1324.68 901.146 1324.51 900.983 1324.3 900.963ZM1266.62 903.936C1266.37 903.936 1266.16 904.136 1266.16 904.384C1266.16 904.632 1266.37 904.831 1266.62 904.831H1268.81C1269.06 904.831 1269.26 904.632 1269.26 904.384C1269.26 904.136 1269.06 903.936 1268.81 903.936H1266.62ZM1322.19 903.936C1321.94 903.936 1321.74 904.136 1321.74 904.384C1321.74 904.632 1321.94 904.831 1322.19 904.831H1324.38C1324.63 904.831 1324.84 904.632 1324.84 904.384C1324.84 904.136 1324.63 903.936 1324.38 903.936H1322.19ZM1271.97 906.377C1271.94 906.374 1271.91 906.374 1271.88 906.377L1266.7 906.913C1266.45 906.939 1266.27 907.158 1266.29 907.405C1266.32 907.652 1266.54 907.83 1266.79 907.804L1271.97 907.268C1272.22 907.242 1272.4 907.023 1272.37 906.776C1272.35 906.56 1272.18 906.397 1271.97 906.377ZM1319.03 906.409C1318.82 906.428 1318.65 906.591 1318.62 906.807C1318.6 907.054 1318.78 907.274 1319.02 907.3L1324.2 907.843C1324.45 907.869 1324.68 907.691 1324.7 907.444C1324.73 907.198 1324.55 906.978 1324.3 906.952L1319.12 906.409C1319.09 906.406 1319.06 906.406 1319.03 906.409ZM1269.39 909.434C1269.36 909.434 1269.33 909.437 1269.3 909.443L1267.15 909.895C1266.91 909.946 1266.75 910.183 1266.8 910.426C1266.86 910.668 1267.1 910.822 1267.34 910.771L1269.48 910.319C1269.73 910.268 1269.88 910.031 1269.83 909.788C1269.79 909.576 1269.6 909.432 1269.39 909.434ZM1321.61 909.438C1321.4 909.436 1321.21 909.58 1321.17 909.793C1321.12 910.035 1321.27 910.272 1321.52 910.324L1323.66 910.775C1323.9 910.827 1324.14 910.673 1324.19 910.43C1324.25 910.188 1324.09 909.951 1323.85 909.899L1321.7 909.448C1321.67 909.441 1321.64 909.438 1321.61 909.438ZM1273 911.201C1272.94 911.196 1272.88 911.202 1272.82 911.222L1267.86 912.819C1267.63 912.895 1267.5 913.147 1267.57 913.383C1267.65 913.619 1267.91 913.747 1268.14 913.67L1273.1 912.074C1273.34 911.997 1273.47 911.745 1273.39 911.509C1273.33 911.332 1273.17 911.216 1273 911.201ZM1318 911.217C1317.82 911.232 1317.67 911.348 1317.61 911.525C1317.53 911.761 1317.66 912.013 1317.9 912.089L1322.85 913.689C1323.09 913.766 1323.34 913.638 1323.42 913.402C1323.5 913.167 1323.37 912.915 1323.13 912.838L1318.18 911.238C1318.12 911.219 1318.06 911.212 1318 911.217ZM1271.11 914.698C1271.05 914.699 1270.99 914.712 1270.93 914.737L1268.93 915.621C1268.7 915.722 1268.6 915.985 1268.7 916.212C1268.8 916.439 1269.07 916.54 1269.3 916.439L1271.3 915.555C1271.53 915.455 1271.63 915.191 1271.53 914.964C1271.45 914.794 1271.28 914.695 1271.11 914.698ZM1319.89 914.715C1319.71 914.711 1319.54 914.811 1319.47 914.981C1319.36 915.208 1319.47 915.471 1319.69 915.572L1321.7 916.457C1321.92 916.558 1322.19 916.457 1322.29 916.231C1322.39 916.004 1322.29 915.741 1322.06 915.64L1320.06 914.754C1320 914.729 1319.95 914.717 1319.89 914.715ZM1275 915.686C1274.92 915.679 1274.83 915.699 1274.75 915.745L1270.24 918.327C1270.02 918.452 1269.94 918.724 1270.07 918.939C1270.19 919.154 1270.47 919.227 1270.69 919.103L1275.2 916.521C1275.42 916.397 1275.49 916.124 1275.36 915.909C1275.29 915.775 1275.15 915.696 1275 915.686ZM1316 915.686C1315.85 915.695 1315.71 915.775 1315.64 915.909C1315.51 916.124 1315.58 916.397 1315.8 916.521L1320.31 919.103C1320.53 919.227 1320.81 919.154 1320.93 918.939C1321.06 918.724 1320.98 918.451 1320.77 918.327L1316.25 915.745C1316.17 915.699 1316.08 915.68 1316 915.686ZM1273.88 919.475C1273.79 919.479 1273.71 919.506 1273.63 919.561L1271.86 920.837C1271.65 920.982 1271.61 921.261 1271.76 921.462C1271.9 921.663 1272.18 921.707 1272.39 921.562L1274.16 920.286C1274.36 920.14 1274.41 919.861 1274.26 919.66C1274.17 919.535 1274.02 919.47 1273.88 919.475ZM1317.11 919.49C1316.97 919.485 1316.82 919.55 1316.73 919.675C1316.58 919.876 1316.63 920.155 1316.83 920.301L1318.6 921.578C1318.8 921.724 1319.09 921.679 1319.23 921.479C1319.38 921.278 1319.34 920.999 1319.13 920.853L1317.36 919.576C1317.28 919.522 1317.2 919.494 1317.11 919.49ZM1277.9 919.645C1277.78 919.639 1277.66 919.677 1277.57 919.76L1273.7 923.212C1273.51 923.378 1273.49 923.66 1273.66 923.845C1273.83 924.029 1274.11 924.044 1274.3 923.878L1278.17 920.426C1278.36 920.26 1278.38 919.978 1278.21 919.793C1278.12 919.701 1278.01 919.651 1277.9 919.645ZM1313.09 919.657C1312.98 919.664 1312.86 919.713 1312.78 919.805C1312.61 919.99 1312.63 920.272 1312.81 920.438L1316.69 923.893C1316.87 924.059 1317.16 924.044 1317.32 923.86C1317.49 923.676 1317.48 923.394 1317.29 923.228L1313.42 919.772C1313.33 919.689 1313.21 919.651 1313.09 919.657ZM1281.57 922.938C1281.43 922.932 1281.28 922.997 1281.19 923.122L1278.13 927.298C1277.98 927.499 1278.02 927.778 1278.23 927.924C1278.43 928.07 1278.71 928.026 1278.86 927.825L1281.92 923.649C1282.07 923.448 1282.02 923.169 1281.82 923.023C1281.75 922.969 1281.66 922.941 1281.57 922.938ZM1309.4 922.956C1309.32 922.96 1309.23 922.987 1309.15 923.042C1308.95 923.187 1308.91 923.466 1309.05 923.667L1312.11 927.848C1312.26 928.048 1312.54 928.093 1312.74 927.947C1312.94 927.802 1312.99 927.523 1312.84 927.322L1309.78 923.141C1309.69 923.016 1309.55 922.951 1309.4 922.956ZM1277.62 923.601C1277.5 923.608 1277.39 923.657 1277.3 923.749L1275.84 925.364C1275.67 925.548 1275.68 925.83 1275.87 925.996C1276.06 926.162 1276.34 926.147 1276.51 925.963L1277.97 924.349C1278.14 924.164 1278.13 923.882 1277.94 923.716C1277.85 923.633 1277.73 923.595 1277.62 923.601ZM1313.38 923.604C1313.27 923.597 1313.15 923.635 1313.06 923.718C1312.87 923.884 1312.85 924.166 1313.02 924.351L1314.49 925.965C1314.66 926.15 1314.94 926.165 1315.13 925.999C1315.31 925.833 1315.33 925.55 1315.16 925.366L1313.69 923.752C1313.61 923.659 1313.5 923.61 1313.38 923.604ZM1285.85 925.395C1285.68 925.39 1285.51 925.49 1285.43 925.66L1283.31 930.377C1283.21 930.603 1283.31 930.867 1283.54 930.968C1283.77 931.069 1284.03 930.968 1284.13 930.742L1286.26 926.025C1286.36 925.798 1286.26 925.535 1286.03 925.434C1285.97 925.408 1285.91 925.396 1285.85 925.395ZM1305.12 925.408C1305.06 925.409 1305 925.421 1304.94 925.446C1304.72 925.547 1304.61 925.811 1304.71 926.037L1306.83 930.757C1306.93 930.983 1307.2 931.085 1307.43 930.984C1307.66 930.883 1307.76 930.62 1307.66 930.393L1305.54 925.674C1305.46 925.504 1305.3 925.404 1305.12 925.408ZM1282.12 926.853C1281.98 926.862 1281.84 926.942 1281.76 927.076L1280.67 928.958C1280.54 929.172 1280.62 929.445 1280.83 929.569C1281.05 929.693 1281.32 929.62 1281.45 929.405L1282.54 927.524C1282.67 927.309 1282.6 927.036 1282.38 926.912C1282.3 926.866 1282.21 926.847 1282.12 926.853ZM1308.88 926.853C1308.79 926.846 1308.7 926.866 1308.62 926.912C1308.4 927.036 1308.33 927.309 1308.46 927.524L1309.55 929.405C1309.68 929.62 1309.95 929.693 1310.17 929.569C1310.38 929.445 1310.46 929.172 1310.33 928.958L1309.24 927.076C1309.16 926.942 1309.02 926.863 1308.88 926.853ZM1290.58 926.92C1290.37 926.918 1290.18 927.063 1290.13 927.275L1289.05 932.327C1289 932.57 1289.15 932.807 1289.4 932.858C1289.64 932.91 1289.88 932.756 1289.93 932.513L1291.02 927.461C1291.07 927.219 1290.91 926.982 1290.67 926.93C1290.64 926.924 1290.61 926.92 1290.58 926.92ZM1300.41 926.923C1300.38 926.924 1300.35 926.927 1300.32 926.933C1300.07 926.984 1299.92 927.221 1299.97 927.464L1301.05 932.517C1301.1 932.759 1301.34 932.913 1301.58 932.862C1301.83 932.811 1301.98 932.574 1301.93 932.331L1300.85 927.279C1300.81 927.066 1300.62 926.922 1300.41 926.923ZM1295.5 927.433C1295.25 927.433 1295.05 927.633 1295.05 927.881V933.046C1295.05 933.294 1295.25 933.493 1295.5 933.493C1295.75 933.493 1295.95 933.294 1295.95 933.046V927.881C1295.95 927.633 1295.75 927.433 1295.5 927.433ZM1287.21 929.102C1287.03 929.117 1286.88 929.233 1286.82 929.41L1286.14 931.476C1286.06 931.712 1286.19 931.964 1286.43 932.041C1286.67 932.117 1286.92 931.989 1287 931.753L1287.68 929.687C1287.75 929.451 1287.63 929.199 1287.39 929.123C1287.33 929.104 1287.27 929.097 1287.21 929.102ZM1303.79 929.103C1303.73 929.098 1303.67 929.104 1303.61 929.124C1303.37 929.2 1303.24 929.452 1303.32 929.688L1304 931.754C1304.07 931.99 1304.33 932.118 1304.57 932.041C1304.8 931.965 1304.93 931.713 1304.86 931.477L1304.18 929.411C1304.12 929.234 1303.96 929.118 1303.79 929.103ZM1292.66 930.254C1292.46 930.274 1292.28 930.437 1292.26 930.653L1292.03 932.813C1292 933.06 1292.18 933.279 1292.43 933.305C1292.68 933.331 1292.9 933.154 1292.93 932.907L1293.16 930.746C1293.18 930.5 1293.01 930.28 1292.76 930.254C1292.73 930.251 1292.69 930.251 1292.66 930.254ZM1298.32 930.256C1298.29 930.253 1298.26 930.253 1298.23 930.256C1297.98 930.282 1297.8 930.501 1297.82 930.748L1298.05 932.909C1298.08 933.156 1298.3 933.334 1298.55 933.308C1298.8 933.282 1298.97 933.063 1298.95 932.816L1298.72 930.655C1298.7 930.439 1298.53 930.276 1298.32 930.256Z"
      fill="#F4F2F3" />
    <g opacity="0.409" filter="url(#filter1_f_233_56)">
      <path d="M1316.67 886.472L1291.96 900.706L1276.33 925.09L1299.19 908.307L1316.67 886.472Z" fill="black" />
    </g>
    <path d="M1299.04 908.06L1291.96 900.706L1317.09 883.95L1299.04 908.06Z" fill="#FF5150" />
    <path d="M1299.04 908.06L1291.96 900.706L1273.91 924.816L1299.04 908.06Z" fill="#F1F1F1" />
    <path opacity="0.243" d="M1273.91 924.816L1299.04 908.06L1317.09 883.95L1273.91 924.816Z" fill="black" />
  </g>
  <path
    d="M1049.58 928.624C1020.69 942.374 1002.76 930.87 991.28 923.882C990.57 923.442 989.363 923.985 990.41 925.188C994.234 929.825 1006.77 941 1023.12 941C1039.49 941 1049.23 932.069 1050.45 930.511C1051.66 928.966 1050.8 928.113 1049.58 928.624H1049.58ZM1057.69 924.143C1056.92 923.132 1052.98 922.944 1050.5 923.249C1048.01 923.545 1044.28 925.063 1044.61 925.975C1044.77 926.317 1045.11 926.163 1046.82 926.01C1048.53 925.839 1053.33 925.234 1054.32 926.54C1055.33 927.855 1052.8 934.12 1052.33 935.13C1051.89 936.14 1052.5 936.401 1053.34 935.728C1054.17 935.055 1055.67 933.313 1056.68 930.848C1057.68 928.37 1058.28 924.912 1057.69 924.143Z"
    fill="#FF9900" />
  <path fill-rule="evenodd" clip-rule="evenodd"
    d="M1030.15 900.567C1030.15 904.174 1030.25 907.183 1028.42 910.387C1026.95 912.992 1024.62 914.594 1022.01 914.594C1018.46 914.594 1016.39 911.885 1016.39 907.887C1016.39 899.993 1023.46 898.561 1030.15 898.561V900.567ZM1039.49 923.139C1038.88 923.686 1037.99 923.725 1037.3 923.36C1034.23 920.807 1033.68 919.622 1031.99 917.186C1026.91 922.37 1023.32 923.92 1016.73 923.92C1008.94 923.92 1002.87 919.114 1002.87 909.489C1002.87 901.973 1006.94 896.854 1012.74 894.354C1017.77 892.139 1024.79 891.749 1030.15 891.137V889.938C1030.15 887.737 1030.32 885.132 1029.03 883.231C1027.9 881.524 1025.74 880.821 1023.84 880.821C1020.31 880.821 1017.15 882.631 1016.39 886.382C1016.23 887.216 1015.62 888.037 1014.78 888.076L1005.8 887.112C1005.04 886.942 1004.21 886.33 1004.42 885.171C1006.49 874.282 1016.32 871 1025.13 871C1029.63 871 1035.52 872.198 1039.08 875.611C1043.58 879.818 1043.15 885.432 1043.15 891.54V905.972C1043.15 910.309 1044.95 912.211 1046.64 914.555C1047.24 915.389 1047.37 916.392 1046.62 917.017C1044.73 918.593 1041.37 921.524 1039.52 923.165L1039.49 923.139"
    fill="black" />
  <path
    d="M1049.58 928.624C1020.69 942.374 1002.76 930.87 991.28 923.882C990.57 923.442 989.363 923.985 990.41 925.188C994.234 929.825 1006.77 941 1023.12 941C1039.49 941 1049.23 932.069 1050.45 930.511C1051.66 928.966 1050.8 928.113 1049.58 928.624H1049.58ZM1057.69 924.143C1056.92 923.132 1052.98 922.944 1050.5 923.249C1048.01 923.545 1044.28 925.063 1044.61 925.975C1044.77 926.317 1045.11 926.163 1046.82 926.01C1048.53 925.839 1053.33 925.234 1054.32 926.54C1055.33 927.855 1052.8 934.12 1052.33 935.13C1051.89 936.14 1052.5 936.401 1053.34 935.728C1054.17 935.055 1055.67 933.313 1056.68 930.848C1057.68 928.37 1058.28 924.912 1057.69 924.143Z"
    fill="#FF9900" />
  <path fill-rule="evenodd" clip-rule="evenodd"
    d="M1030.15 900.567C1030.15 904.174 1030.25 907.183 1028.42 910.387C1026.95 912.992 1024.62 914.594 1022.01 914.594C1018.46 914.594 1016.39 911.885 1016.39 907.887C1016.39 899.993 1023.46 898.561 1030.15 898.561V900.567ZM1039.49 923.139C1038.88 923.686 1037.99 923.725 1037.3 923.36C1034.23 920.807 1033.68 919.622 1031.99 917.186C1026.91 922.37 1023.32 923.92 1016.73 923.92C1008.94 923.92 1002.87 919.114 1002.87 909.489C1002.87 901.973 1006.94 896.854 1012.74 894.354C1017.77 892.139 1024.79 891.749 1030.15 891.137V889.938C1030.15 887.737 1030.32 885.132 1029.03 883.231C1027.9 881.524 1025.74 880.821 1023.84 880.821C1020.31 880.821 1017.15 882.631 1016.39 886.382C1016.23 887.216 1015.62 888.037 1014.78 888.076L1005.8 887.112C1005.04 886.942 1004.21 886.33 1004.42 885.171C1006.49 874.282 1016.32 871 1025.13 871C1029.63 871 1035.52 872.198 1039.08 875.611C1043.58 879.818 1043.15 885.432 1043.15 891.54V905.972C1043.15 910.309 1044.95 912.211 1046.64 914.555C1047.24 915.389 1047.37 916.392 1046.62 917.017C1044.73 918.593 1041.37 921.524 1039.52 923.165L1039.49 923.139"
    fill="black" />
  <g clip-path="url(#clip1_233_56)">
    <path
      d="M1158 921.492C1167.66 921.492 1175.5 913.657 1175.5 903.992C1175.5 894.327 1167.66 886.492 1158 886.492C1148.34 886.492 1140.5 894.327 1140.5 903.992C1140.5 913.657 1148.34 921.492 1158 921.492Z"
      fill="white" />
    <path
      d="M1158 886.5H1188.31C1185.23 881.179 1180.82 876.761 1175.5 873.689C1170.18 870.617 1164.14 869 1158 869C1151.85 869 1145.82 870.618 1140.5 873.691C1135.18 876.764 1130.76 881.183 1127.69 886.504L1142.84 912.75L1142.86 912.747C1141.32 910.088 1140.5 907.071 1140.5 903.998C1140.5 900.925 1141.3 897.906 1142.84 895.244C1144.37 892.583 1146.58 890.373 1149.25 888.838C1151.91 887.303 1154.93 886.496 1158 886.5Z"
      fill="url(#paint2_linear_233_56)" />
    <path
      d="M1158 917.854C1165.65 917.854 1171.85 911.651 1171.85 904C1171.85 896.348 1165.65 890.146 1158 890.146C1150.35 890.146 1144.15 896.348 1144.15 904C1144.15 911.651 1150.35 917.854 1158 917.854Z"
      fill="#1A73E8" />
    <path
      d="M1173.15 912.754L1158 939C1164.14 939.001 1170.18 937.384 1175.5 934.313C1180.82 931.241 1185.24 926.823 1188.31 921.502C1191.38 916.182 1193 910.146 1193 904.003C1193 897.859 1191.38 891.824 1188.3 886.505H1158L1157.99 886.518C1161.07 886.512 1164.09 887.317 1166.75 888.85C1169.41 890.383 1171.62 892.592 1173.16 895.252C1174.7 897.913 1175.51 900.932 1175.51 904.004C1175.51 907.077 1174.69 910.095 1173.15 912.754Z"
      fill="url(#paint3_linear_233_56)" />
    <path
      d="M1142.85 912.755L1127.69 886.509C1124.62 891.829 1123 897.864 1123 904.007C1123 910.151 1124.62 916.186 1127.69 921.507C1130.76 926.827 1135.18 931.244 1140.5 934.315C1145.82 937.386 1151.86 939.002 1158 939L1173.16 912.754L1173.15 912.744C1171.62 915.408 1169.41 917.622 1166.75 919.161C1164.09 920.7 1161.07 921.511 1158 921.512C1154.93 921.514 1151.91 920.704 1149.25 919.167C1146.59 917.629 1144.38 915.418 1142.85 912.755Z"
      fill="url(#paint4_linear_233_56)" />
  </g>
  <g clip-path="url(#clip2_233_56)">
    <path
      d="M770.931 879.931C769.793 875.628 766.438 872.24 762.179 871.09C754.458 869 723.5 869 723.5 869C723.5 869 692.542 869 684.821 871.09C680.562 872.24 677.207 875.628 676.069 879.931C674 887.729 674 904 674 904C674 904 674 920.271 676.069 928.07C677.207 932.372 680.562 935.76 684.821 936.911C692.542 939 723.5 939 723.5 939C723.5 939 754.458 939 762.179 936.911C766.438 935.76 769.793 932.372 770.931 928.07C773 920.271 773 904 773 904C773 904 773 887.729 770.931 879.931Z"
      fill="#ED1D24" />
    <path d="M713.375 918.773L739.25 904.001L713.375 889.227V918.773Z" fill="white" />
  </g>
  <g clip-path="url(#clip3_233_56)">
    <g clip-path="url(#clip4_233_56)">
      <path
        d="M910.813 885.298C910.813 882.974 908.929 881.098 906.615 881.098C904.3 881.098 902.415 882.974 902.415 885.298C902.415 887.613 904.3 889.489 906.615 889.489C908.929 889.489 910.813 887.613 910.813 885.298Z"
        fill="url(#paint5_linear_233_56)" />
      <path
        d="M916.406 918.08C916.251 921.489 915.681 923.34 915.208 924.57C914.572 926.201 913.813 927.367 912.583 928.59C911.367 929.814 910.201 930.57 908.57 931.199C907.34 931.679 905.482 932.251 902.073 932.413C898.388 932.576 897.296 932.611 887.952 932.611C878.616 932.611 877.516 932.576 873.831 932.413C870.423 932.251 868.572 931.679 867.342 931.199C865.703 930.57 864.545 929.814 863.322 928.59C862.09 927.367 861.332 926.201 860.705 924.57C860.232 923.34 859.653 921.489 859.506 918.08C859.326 914.395 859.293 913.286 859.293 903.961C859.293 894.616 859.326 893.516 859.506 889.831C859.653 886.422 860.232 884.572 860.705 883.332C861.332 881.703 862.09 880.544 863.322 879.32C864.545 878.099 865.703 877.341 867.342 876.705C868.572 876.223 870.423 875.66 873.831 875.497C877.516 875.335 878.616 875.293 887.952 875.293C897.296 875.293 898.388 875.335 902.073 875.497C905.482 875.66 907.34 876.223 908.57 876.705C910.201 877.341 911.367 878.099 912.583 879.32C913.813 880.544 914.572 881.703 915.208 883.332C915.681 884.572 916.251 886.422 916.406 889.831C916.578 893.516 916.619 894.616 916.619 903.961C916.619 913.286 916.578 914.395 916.406 918.08ZM922.7 889.544C922.529 885.819 921.942 883.275 921.069 881.058C920.181 878.759 918.991 876.81 917.042 874.862C915.102 872.922 913.154 871.731 910.854 870.833C908.629 869.969 906.093 869.375 902.367 869.212C898.64 869.033 897.45 869 887.952 869C878.462 869 877.264 869.033 873.537 869.212C869.82 869.375 867.285 869.969 865.05 870.833C862.759 871.731 860.81 872.922 858.87 874.862C856.922 876.81 855.731 878.759 854.835 881.058C853.971 883.275 853.384 885.819 853.204 889.544C853.041 893.271 853 894.462 853 903.961C853 913.45 853.041 914.64 853.204 918.367C853.384 922.084 853.971 924.627 854.835 926.854C855.731 929.145 856.922 931.102 858.87 933.042C860.81 934.982 862.759 936.181 865.05 937.078C867.285 937.942 869.82 938.529 873.537 938.7C877.264 938.871 878.462 938.913 887.952 938.913C897.45 938.913 898.64 938.871 902.367 938.7C906.093 938.529 908.629 937.942 910.854 937.078C913.154 936.181 915.102 934.982 917.042 933.042C918.991 931.102 920.181 929.145 921.069 926.854C921.942 924.627 922.529 922.084 922.7 918.367C922.871 914.64 922.913 913.45 922.913 903.961C922.913 894.462 922.871 893.271 922.7 889.544Z"
        fill="url(#paint6_linear_233_56)" />
      <path
        d="M887.952 915.603C881.52 915.603 876.301 910.392 876.301 903.961C876.301 897.518 881.52 892.301 887.952 892.301C894.386 892.301 899.611 897.518 899.611 903.961C899.611 910.392 894.386 915.603 887.952 915.603ZM887.952 885.999C878.037 885.999 870.008 894.046 870.008 903.961C870.008 913.866 878.037 921.905 887.952 921.905C897.866 921.905 905.905 913.866 905.905 903.961C905.905 894.046 897.866 885.999 887.952 885.999Z"
        fill="url(#paint7_linear_233_56)" />
    </g>
  </g>
  <defs>
    <filter id="filter0_f_233_56" x="1254.17" y="867.248" width="82.6693" height="79.7291" filterUnits="userSpaceOnUse"
      color-interpolation-filters="sRGB">
      <feFlood flood-opacity="0" result="BackgroundImageFix" />
      <feBlend mode="normal" in="SourceGraphic" in2="BackgroundImageFix" result="shape" />
      <feGaussianBlur stdDeviation="4.47676" result="effect1_foregroundBlur_233_56" />
    </filter>
    <filter id="filter1_f_233_56" x="1273.79" y="883.928" width="45.4261" height="43.7073" filterUnits="userSpaceOnUse"
      color-interpolation-filters="sRGB">
      <feFlood flood-opacity="0" result="BackgroundImageFix" />
      <feBlend mode="normal" in="SourceGraphic" in2="BackgroundImageFix" result="shape" />
      <feGaussianBlur stdDeviation="1.27242" result="effect1_foregroundBlur_233_56" />
    </filter>
    <linearGradient id="paint0_linear_233_56" x1="1295.5" y1="937.705" x2="1295.5" y2="871.06"
      gradientUnits="userSpaceOnUse">
      <stop stop-color="#BDBDBD" />
      <stop offset="1" stop-color="white" />
    </linearGradient>
    <radialGradient id="paint1_radial_233_56" cx="0" cy="0" r="1" gradientUnits="userSpaceOnUse"
      gradientTransform="translate(1295.64 899.905) scale(33.6137 33.3226)">
      <stop stop-color="#06C2E7" />
      <stop offset="0.25" stop-color="#0DB8EC" />
      <stop offset="0.5" stop-color="#12AEF1" />
      <stop offset="0.75" stop-color="#1F86F9" />
      <stop offset="1" stop-color="#107DDD" />
    </radialGradient>
    <linearGradient id="paint2_linear_233_56" x1="1127.69" y1="890.875" x2="1188.31" y2="890.875"
      gradientUnits="userSpaceOnUse">
      <stop stop-color="#D93025" />
      <stop offset="1" stop-color="#EA4335" />
    </linearGradient>
    <linearGradient id="paint3_linear_233_56" x1="1153.22" y1="938.532" x2="1183.53" y2="886.039"
      gradientUnits="userSpaceOnUse">
      <stop stop-color="#FCC934" />
      <stop offset="1" stop-color="#FBBC04" />
    </linearGradient>
    <linearGradient id="paint4_linear_233_56" x1="1161.79" y1="936.815" x2="1131.48" y2="884.321"
      gradientUnits="userSpaceOnUse">
      <stop stop-color="#1E8E3E" />
      <stop offset="1" stop-color="#34A853" />
    </linearGradient>
    <linearGradient id="paint5_linear_233_56" x1="853.63" y1="938.19" x2="917.089" y2="874.731"
      gradientUnits="userSpaceOnUse">
      <stop stop-color="#FFD521" />
      <stop offset="0.05" stop-color="#FFD521" />
      <stop offset="0.501119" stop-color="#F50000" />
      <stop offset="0.95" stop-color="#B900B4" />
      <stop offset="0.950079" stop-color="#B900B4" />
      <stop offset="1" stop-color="#B900B4" />
    </linearGradient>
    <linearGradient id="paint6_linear_233_56" x1="853.631" y1="938.277" x2="917.142" y2="874.766"
      gradientUnits="userSpaceOnUse">
      <stop stop-color="#FFD521" />
      <stop offset="0.05" stop-color="#FFD521" />
      <stop offset="0.501119" stop-color="#F50000" />
      <stop offset="0.95" stop-color="#B900B4" />
      <stop offset="0.950079" stop-color="#B900B4" />
      <stop offset="1" stop-color="#B900B4" />
    </linearGradient>
    <linearGradient id="paint7_linear_233_56" x1="853.647" y1="938.279" x2="917.143" y2="874.783"
      gradientUnits="userSpaceOnUse">
      <stop stop-color="#FFD521" />
      <stop offset="0.05" stop-color="#FFD521" />
      <stop offset="0.501119" stop-color="#F50000" />
      <stop offset="0.95" stop-color="#B900B4" />
      <stop offset="0.950079" stop-color="#B900B4" />
      <stop offset="1" stop-color="#B900B4" />
    </linearGradient>
    <clipPath id="clip0_233_56">
      <rect width="71" height="70" fill="white" transform="translate(1260 871)" />
    </clipPath>
    <clipPath id="clip1_233_56">
      <rect width="70" height="70" fill="white" transform="translate(1123 869)" />
    </clipPath>
    <clipPath id="clip2_233_56">
      <rect width="99" height="70" fill="white" transform="translate(674 869)" />
    </clipPath>
    <clipPath id="clip3_233_56">
      <rect width="70" height="70" fill="white" transform="translate(853 869)" />
    </clipPath>
    <clipPath id="clip4_233_56">
      <rect width="70" height="70" fill="white" transform="translate(853 869)" />
    </clipPath>
  </defs>
</svg>