<svg width="1471" height="1043" viewBox="0 0 1471 1043" fill="none" xmlns="http://www.w3.org/2000/svg"><rect width="1471" height="1043" fill="white" /><path d="M299 318C299 428 310.5 495 397.5 495" stroke="#3971FF" stroke-width="8" /><rect x="51" y="53" width="563" height="253" rx="35" fill="#E7EEFF" stroke="#E7EEFF" stroke-width="10" /><path
    d="M261.48 172.12C261.48 172.87 262.03 173.47 263.13 173.91C264.22 174.33 265.58 174.62 267.21 174.79C268.83 174.96 270.61 175.22 272.54 175.58C274.46 175.94 276.24 176.39 277.86 176.92C279.49 177.45 280.85 178.33 281.94 179.55C283.04 180.78 283.59 182.30 283.59 184.11C283.59 187.09 282.06 189.46 279.00 191.21C275.94 192.94 271.97 193.8 267.09 193.8C262.10 193.8 258.02 192.94 254.85 191.21C251.67 189.48 249.80 186.93 249.24 183.56H261.42C261.61 184.76 262.22 185.69 263.24 186.36C264.26 187.00 265.58 187.32 267.21 187.32C270.23 187.32 271.74 186.60 271.74 185.15C271.74 184.51 271.32 183.98 270.49 183.56C269.7 183.12 268.64 182.77 267.32 182.52C266.04 182.27 264.60 182.03 263.01 181.81C261.46 181.59 259.89 181.28 258.31 180.89C256.76 180.50 255.32 180.01 254.00 179.43C252.71 178.84 251.66 178.01 250.82 176.92C250.03 175.83 249.63 174.54 249.63 173.03C249.63 170.33 251.05 168.12 253.88 166.39C256.72 164.66 260.61 163.8 265.56 163.8C270.06 163.8 273.88 164.62 277.01 166.26C280.15 167.91 281.96 170.36 282.45 173.62H270.10C269.57 171.39 267.89 170.28 265.05 170.28C263.99 170.28 263.13 170.44 262.44 170.78C261.80 171.11 261.48 171.56 261.48 172.12Z"
    fill="#08272E" /><path
    d="M199.34 193.01V164.59H214.31L220.54 178.8L222.47 184.11L224.4 178.8L230.63 164.59H245.26V193.01H233.70L234.43 174.16L231.43 181.89L226.50 193.01H218.11L213.06 181.72L210.17 174.25L210.91 193.01H199.34Z"
    fill="#08272E" /><path
    d="M147.75 193.01V164.59H162.72L168.95 178.8L170.88 184.11L172.81 178.8L179.04 164.59H193.67V193.01H182.10L182.84 174.16L179.84 181.89L174.90 193.01H166.51L161.47 181.72L158.58 174.25L159.31 193.01H147.75Z"
    fill="#08272E" /><path d="M130.54 193.01V164.59H142.1V193.01H130.54Z" fill="#08272E" /><path
    d="M94 193.01V164.59H110.21C115.24 164.59 119.17 165.47 122.00 167.23C124.88 168.95 126.31 171.38 126.31 174.50C126.31 177.62 124.88 180.05 122.00 181.81C119.17 183.53 115.28 184.40 110.33 184.40H105.56V193.01H94ZM109.98 171.28H105.56V177.71H109.70C112.88 177.71 114.46 176.64 114.46 174.50C114.46 172.35 112.97 171.28 109.98 171.28Z"
    fill="#08272E" /><path
    d="M103.06 104V136H97.41V104H103.06ZM108.88 136V112H114.53V136H108.88ZM111.72 108.59C110.83 108.59 110.06 108.30 109.41 107.70C108.76 107.10 108.44 106.38 108.44 105.53C108.44 104.68 108.76 103.95 109.41 103.36C110.06 102.75 110.83 102.45 111.72 102.45C112.63 102.45 113.4 102.75 114.03 103.36C114.68 103.95 115.00 104.68 115.00 105.53C115.00 106.38 114.68 107.10 114.03 107.70C113.4 108.30 112.63 108.59 111.72 108.59ZM126.01 121.94V136H120.35V112H125.76V116.08H126.04C126.59 114.73 127.47 113.67 128.68 112.88C129.90 112.08 131.40 111.69 133.19 111.69C134.85 111.69 136.29 112.04 137.52 112.75C138.76 113.46 139.72 114.48 140.40 115.83C141.09 117.17 141.42 118.80 141.41 120.72V136H135.76V121.59C135.76 119.99 135.34 118.73 134.51 117.83C133.69 116.92 132.54 116.47 131.09 116.47C130.10 116.47 129.22 116.69 128.44 117.13C127.69 117.55 127.09 118.17 126.65 118.98C126.22 119.80 126.01 120.78 126.01 121.94ZM152.32 128.47L152.31 121.64H153.21L161.84 112H168.44L157.84 123.81H156.66L152.32 128.47ZM147.16 136V104H152.82V136H147.16ZM162.23 136L154.41 125.08L158.23 121.09L168.99 136H162.23Z"
    fill="#08272E" /><path
    d="M96.91 269V236H102.47V239.97H102.80C103.09 239.38 103.5 238.77 104.03 238.11C104.56 237.44 105.28 236.88 106.19 236.41C107.09 235.93 108.25 235.69 109.66 235.69C111.51 235.69 113.18 236.16 114.67 237.11C116.17 238.05 117.36 239.44 118.23 241.28C119.12 243.12 119.56 245.37 119.56 248.03C119.56 250.67 119.13 252.91 118.27 254.75C117.40 256.59 116.22 258 114.73 258.97C113.25 259.94 111.56 260.42 109.67 260.42C108.30 260.42 107.16 260.19 106.25 259.73C105.34 259.28 104.61 258.72 104.06 258.08C103.52 257.42 103.10 256.80 102.80 256.22H102.56V269H96.91ZM102.45 248C102.45 249.55 102.67 250.91 103.11 252.08C103.56 253.25 104.20 254.16 105.03 254.81C105.88 255.46 106.90 255.78 108.09 255.78C109.34 255.78 110.39 255.45 111.23 254.78C112.08 254.10 112.71 253.18 113.14 252.02C113.58 250.84 113.80 249.5 113.80 248C113.80 246.51 113.58 245.19 113.16 244.03C112.73 242.88 112.09 241.97 111.25 241.31C110.41 240.66 109.35 240.33 108.09 240.33C106.89 240.33 105.86 240.65 105.02 241.28C104.17 241.92 103.53 242.81 103.09 243.95C102.67 245.10 102.45 246.45 102.45 248ZM124.41 260V236H130.06V260H124.41ZM127.25 232.59C126.35 232.59 125.58 232.30 124.94 231.70C124.29 231.10 123.97 230.38 123.97 229.53C123.97 228.68 124.29 227.95 124.94 227.36C125.58 226.75 126.35 226.45 127.25 226.45C128.16 226.45 128.93 226.75 129.56 227.36C130.21 227.95 130.53 228.68 130.53 229.53C130.53 230.38 130.21 231.10 129.56 231.70C128.93 232.30 128.16 232.59 127.25 232.59ZM135.88 260V236H141.28V240.08H141.57C142.07 238.70 142.90 237.63 144.05 236.86C145.21 236.08 146.59 235.69 148.19 235.69C149.82 235.69 151.19 236.08 152.30 236.88C153.43 237.66 154.22 238.72 154.68 240.08H154.93C155.46 238.75 156.35 237.68 157.61 236.89C158.88 236.09 160.39 235.69 162.13 235.69C164.34 235.69 166.14 236.38 167.53 237.78C168.93 239.18 169.63 241.21 169.63 243.89V260H163.96V244.77C163.96 243.28 163.56 242.19 162.77 241.5C161.98 240.80 161.01 240.45 159.86 240.45C158.50 240.45 157.43 240.88 156.66 241.73C155.9 242.58 155.52 243.68 155.52 245.03V260H149.97V244.53C149.97 243.29 149.60 242.30 148.85 241.56C148.11 240.82 147.14 240.45 145.94 240.45C145.13 240.45 144.39 240.66 143.72 241.08C143.06 241.48 142.53 242.06 142.13 242.81C141.73 243.55 141.53 244.42 141.53 245.41V260H135.88ZM178.85 260.34C177.90 260.34 177.09 260.01 176.41 259.34C175.74 258.68 175.40 257.87 175.41 256.91C175.40 255.97 175.74 255.17 176.41 254.5C177.09 253.83 177.90 253.5 178.85 253.5C179.77 253.5 180.56 253.83 181.24 254.5C181.93 255.17 182.28 255.97 182.29 256.91C182.28 257.54 182.11 258.12 181.79 258.64C181.48 259.16 181.06 259.58 180.54 259.89C180.03 260.19 179.47 260.34 178.85 260.34ZM188.13 260V236H193.53V240.08H193.82C194.32 238.70 195.15 237.63 196.30 236.86C197.46 236.08 198.84 235.69 200.44 235.69C202.07 235.69 203.44 236.08 204.55 236.88C205.68 237.66 206.47 238.72 206.93 240.08H207.18C207.71 238.75 208.60 237.68 209.86 236.89C211.13 236.09 212.64 235.69 214.38 235.69C216.59 235.69 218.39 236.38 219.78 237.78C221.18 239.18 221.88 241.21 221.88 243.89V260H216.21V244.77C216.21 243.28 215.81 242.19 215.02 241.5C214.23 240.80 213.26 240.45 212.11 240.45C210.75 240.45 209.68 240.88 208.91 241.73C208.15 242.58 207.77 243.68 207.77 245.03V260H202.22V244.53C202.22 243.29 201.85 242.30 201.10 241.56C200.36 240.82 199.39 240.45 198.19 240.45C197.38 240.45 196.64 240.66 195.97 241.08C195.31 241.48 194.78 242.06 194.38 242.81C193.98 243.55 193.78 244.42 193.78 245.41V260H188.13ZM246.59 242.34L241.43 242.91C241.28 242.38 241.03 241.90 240.66 241.44C240.31 240.98 239.83 240.61 239.23 240.33C238.62 240.05 237.88 239.91 237.01 239.91C235.83 239.91 234.84 240.16 234.04 240.67C233.25 241.18 232.86 241.84 232.87 242.66C232.86 243.35 233.11 243.92 233.63 244.36C234.16 244.80 235.04 245.16 236.26 245.44L240.35 246.31C242.62 246.80 244.31 247.58 245.41 248.64C246.53 249.70 247.09 251.09 247.10 252.81C247.09 254.32 246.65 255.66 245.77 256.81C244.91 257.96 243.71 258.85 242.16 259.5C240.62 260.15 238.85 260.47 236.85 260.47C233.91 260.47 231.55 259.85 229.76 258.63C227.97 257.38 226.90 255.66 226.56 253.45L232.07 252.92C232.32 254.00 232.85 254.82 233.66 255.38C234.48 255.93 235.53 256.20 236.84 256.20C238.18 256.20 239.26 255.93 240.07 255.38C240.89 254.82 241.31 254.14 241.31 253.33C241.31 252.64 241.04 252.07 240.51 251.63C239.99 251.18 239.17 250.83 238.07 250.59L233.98 249.73C231.67 249.25 229.97 248.45 228.87 247.31C227.76 246.17 227.22 244.72 227.23 242.97C227.22 241.49 227.62 240.21 228.43 239.13C229.25 238.03 230.39 237.19 231.85 236.59C233.32 235.99 235.01 235.69 236.93 235.69C239.74 235.69 241.96 236.29 243.57 237.48C245.19 238.68 246.20 240.30 246.59 242.34ZM264.83 226.5L254.52 264.81H249.56L259.88 226.5H264.83ZM287.41 242.34L282.25 242.91C282.10 242.38 281.85 241.90 281.48 241.44C281.13 240.98 280.65 240.61 280.05 240.33C279.44 240.05 278.70 239.91 277.83 239.91C276.65 239.91 275.66 240.16 274.86 240.67C274.07 241.18 273.68 241.84 273.69 242.66C273.68 243.35 273.93 243.92 274.45 244.36C274.98 244.80 275.86 245.16 277.08 245.44L281.17 246.31C283.44 246.80 285.13 247.58 286.23 248.64C287.35 249.70 287.91 251.09 287.92 252.81C287.91 254.32 287.47 255.66 286.59 256.81C285.73 257.96 284.53 258.85 282.98 259.5C281.44 260.15 279.67 260.47 277.67 260.47C274.73 260.47 272.37 259.85 270.58 258.63C268.79 257.38 267.72 255.66 267.38 253.45L272.89 252.92C273.14 254.00 273.67 254.82 274.48 255.38C275.30 255.93 276.35 256.20 277.66 256.20C279 256.20 280.08 255.93 280.89 255.38C281.71 254.82 282.13 254.14 282.13 253.33C282.13 252.64 281.86 252.07 281.33 251.63C280.81 251.18 280.00 250.83 278.89 250.59L274.80 249.73C272.50 249.25 270.79 248.45 269.69 247.31C268.58 246.17 268.04 244.72 268.05 242.97C268.04 241.49 268.44 240.21 269.25 239.13C270.07 238.03 271.21 237.19 272.67 236.59C274.14 235.99 275.83 235.69 277.75 235.69C280.56 235.69 282.78 236.29 284.39 237.48C286.02 238.68 287.02 240.30 287.41 242.34ZM298.24 245.94V260H292.59V228H298.12V240.08H298.40C298.96 238.72 299.83 237.66 301.01 236.88C302.19 236.08 303.71 235.69 305.54 235.69C307.21 235.69 308.66 236.04 309.90 236.73C311.14 237.43 312.10 238.45 312.77 239.80C313.46 241.14 313.81 242.78 313.81 244.72V260H308.15V245.59C308.15 243.98 307.73 242.72 306.90 241.83C306.08 240.92 304.92 240.47 303.43 240.47C302.43 240.47 301.53 240.69 300.74 241.13C299.96 241.55 299.35 242.17 298.90 242.98C298.46 243.80 298.24 244.78 298.24 245.94ZM330.04 260.47C327.69 260.47 325.66 259.95 323.94 258.92C322.23 257.89 320.89 256.45 319.94 254.59C319.01 252.74 318.54 250.57 318.54 248.09C318.54 245.62 319.01 243.44 319.94 241.58C320.89 239.71 322.23 238.27 323.94 237.23C325.66 236.20 327.69 235.69 330.04 235.69C332.38 235.69 334.41 236.20 336.13 237.23C337.85 238.27 339.18 239.71 340.12 241.58C341.06 243.44 341.54 245.62 341.54 248.09C341.54 250.57 341.06 252.74 340.12 254.59C339.18 256.45 337.85 257.89 336.13 258.92C334.41 259.95 332.38 260.47 330.04 260.47ZM330.07 255.94C331.34 255.94 332.40 255.59 333.26 254.89C334.11 254.18 334.75 253.23 335.16 252.05C335.59 250.86 335.81 249.54 335.81 248.08C335.81 246.61 335.59 245.28 335.16 244.09C334.75 242.90 334.11 241.94 333.26 241.23C332.40 240.53 331.34 240.17 330.07 240.17C328.77 240.17 327.69 240.53 326.82 241.23C325.97 241.94 325.33 242.90 324.90 244.09C324.48 245.28 324.27 246.61 324.27 248.08C324.27 249.54 324.48 250.86 324.90 252.05C325.33 253.23 325.97 254.18 326.82 254.89C327.69 255.59 328.77 255.94 330.07 255.94ZM346.34 260V236H351.82V240H352.07C352.51 238.62 353.26 237.55 354.32 236.80C355.40 236.04 356.62 235.66 358.00 235.66C358.31 235.66 358.66 235.67 359.04 235.70C359.44 235.72 359.77 235.76 360.03 235.81V241.02C359.79 240.93 359.41 240.86 358.89 240.80C358.38 240.72 357.88 240.69 357.40 240.69C356.37 240.69 355.44 240.91 354.62 241.36C353.81 241.80 353.17 242.41 352.70 243.19C352.23 243.97 352.00 244.87 352.00 245.89V260H346.34ZM377.06 236V240.38H363.26V236H377.06ZM366.67 230.25H372.32V252.78C372.32 253.54 372.44 254.13 372.67 254.53C372.91 254.93 373.22 255.20 373.61 255.34C373.99 255.49 374.42 255.56 374.89 255.56C375.24 255.56 375.56 255.54 375.86 255.48C376.16 255.43 376.39 255.38 376.54 255.34L377.50 259.77C377.19 259.87 376.76 259.98 376.20 260.11C375.65 260.23 374.97 260.31 374.17 260.33C372.75 260.37 371.48 260.16 370.34 259.69C369.20 259.21 368.30 258.47 367.64 257.47C366.98 256.47 366.66 255.22 366.67 253.72V230.25ZM395.56 244.34V249H381.16V244.34H395.56ZM407.17 228V260H401.51V228H407.17ZM412.98 260V236H418.64V260H412.98ZM415.83 232.59C414.93 232.59 414.16 232.30 413.52 231.70C412.87 231.10 412.55 230.38 412.55 229.53C412.55 228.68 412.87 227.95 413.52 227.36C414.16 226.75 414.93 226.45 415.83 226.45C416.73 226.45 417.50 226.75 418.14 227.36C418.79 227.95 419.11 228.68 419.11 229.53C419.11 230.38 418.79 231.10 418.14 231.70C417.50 232.30 416.73 232.59 415.83 232.59ZM430.11 245.94V260H424.46V236H429.86V240.08H430.14C430.70 238.73 431.58 237.67 432.79 236.88C434.00 236.08 435.51 235.69 437.30 235.69C438.96 235.69 440.4 236.04 441.63 236.75C442.87 237.46 443.83 238.48 444.50 239.83C445.19 241.17 445.53 242.80 445.52 244.72V260H439.86V245.59C439.86 243.99 439.45 242.73 438.61 241.83C437.79 240.92 436.65 240.47 435.19 240.47C434.20 240.47 433.32 240.69 432.55 241.13C431.79 241.55 431.19 242.17 430.75 242.98C430.33 243.80 430.11 244.78 430.11 245.94ZM456.43 252.47L456.41 245.64H457.32L465.94 236H472.55L461.94 247.81H460.77L456.43 252.47ZM451.27 260V228H456.93V260H451.27ZM466.33 260L458.52 249.08L462.33 245.09L473.10 260H466.33Z"
    fill="#08272E" /><rect x="409" y="422" width="547" height="158" rx="35" fill="white" stroke="#E7EEFF" stroke-width="10" /><path
    d="M576.51 482.64H583.10V506.39C583.10 509.00 582.48 511.29 581.25 513.26C580.03 515.24 578.31 516.79 576.10 517.90C573.89 519 571.30 519.55 568.34 519.55C565.37 519.55 562.78 519 560.57 517.90C558.35 516.79 556.63 515.24 555.41 513.26C554.20 511.29 553.59 509.00 553.59 506.39V482.64H560.17V505.84C560.17 507.36 560.50 508.71 561.17 509.89C561.84 511.07 562.79 512.00 564.01 512.68C565.23 513.34 566.67 513.67 568.34 513.67C570.01 513.67 571.46 513.34 572.67 512.68C573.90 512.00 574.85 511.07 575.51 509.89C576.18 508.71 576.51 507.36 576.51 505.84V482.64ZM611.53 498.94L605.67 499.57C605.50 498.98 605.21 498.43 604.80 497.91C604.40 497.38 603.85 496.96 603.16 496.65C602.48 496.33 601.64 496.17 600.64 496.17C599.31 496.17 598.18 496.46 597.27 497.04C596.37 497.62 595.93 498.37 595.94 499.29C595.93 500.08 596.22 500.73 596.81 501.23C597.41 501.72 598.41 502.13 599.79 502.45L604.44 503.45C607.02 504.00 608.94 504.88 610.20 506.09C611.46 507.30 612.10 508.88 612.11 510.83C612.10 512.55 611.60 514.06 610.61 515.38C609.62 516.68 608.25 517.70 606.50 518.43C604.75 519.17 602.74 519.53 600.47 519.53C597.13 519.53 594.44 518.83 592.40 517.44C590.37 516.03 589.16 514.07 588.76 511.56L595.03 510.96C595.32 512.19 595.92 513.12 596.84 513.74C597.77 514.37 598.97 514.68 600.45 514.68C601.98 514.68 603.2 514.37 604.12 513.74C605.06 513.12 605.53 512.34 605.53 511.42C605.53 510.64 605.23 509.99 604.62 509.48C604.03 508.97 603.11 508.58 601.85 508.31L597.20 507.33C594.58 506.79 592.65 505.87 591.39 504.58C590.14 503.28 589.52 501.63 589.53 499.65C589.52 497.96 589.97 496.51 590.90 495.28C591.83 494.04 593.13 493.08 594.78 492.40C596.45 491.71 598.38 491.37 600.55 491.37C603.75 491.37 606.27 492.05 608.10 493.41C609.95 494.77 611.09 496.62 611.53 498.94ZM629.49 519.53C626.75 519.53 624.39 518.96 622.40 517.83C620.43 516.68 618.90 515.06 617.84 512.96C616.77 510.86 616.24 508.38 616.24 505.52C616.24 502.72 616.77 500.26 617.84 498.14C618.92 496.01 620.42 494.35 622.35 493.17C624.28 491.97 626.55 491.37 629.15 491.37C630.83 491.37 632.42 491.64 633.91 492.19C635.41 492.72 636.74 493.55 637.89 494.68C639.05 495.80 639.96 497.23 640.62 498.97C641.28 500.7 641.62 502.76 641.62 505.15V507.12H619.26V502.79H635.45C635.44 501.56 635.17 500.46 634.65 499.50C634.13 498.53 633.41 497.77 632.47 497.21C631.55 496.66 630.47 496.38 629.24 496.38C627.92 496.38 626.77 496.70 625.78 497.34C624.78 497.96 624.01 498.79 623.45 499.82C622.91 500.84 622.63 501.96 622.62 503.18V506.96C622.62 508.55 622.91 509.91 623.49 511.05C624.07 512.17 624.88 513.03 625.92 513.64C626.96 514.23 628.18 514.53 629.58 514.53C630.51 514.53 631.36 514.39 632.12 514.13C632.87 513.86 633.53 513.47 634.09 512.95C634.64 512.42 635.06 511.78 635.35 511.01L641.35 511.69C640.97 513.27 640.25 514.66 639.18 515.84C638.13 517.01 636.78 517.92 635.13 518.57C633.49 519.21 631.61 519.53 629.49 519.53ZM647.05 519V491.73H653.28V496.27H653.57C654.07 494.70 654.92 493.49 656.13 492.63C657.35 491.77 658.74 491.34 660.30 491.34C660.65 491.34 661.05 491.35 661.49 491.39C661.94 491.41 662.31 491.45 662.61 491.51V497.43C662.33 497.33 661.90 497.25 661.31 497.18C660.73 497.10 660.17 497.05 659.62 497.05C658.45 497.05 657.40 497.31 656.46 497.82C655.54 498.31 654.81 499.01 654.28 499.89C653.75 500.78 653.48 501.81 653.48 502.97V519H647.05ZM691.17 519.53C688.45 519.53 686.12 518.93 684.16 517.74C682.22 516.54 680.72 514.89 679.67 512.79C678.63 510.67 678.11 508.23 678.11 505.47C678.11 502.7 678.64 500.26 679.71 498.14C680.77 496.01 682.27 494.35 684.22 493.17C686.17 491.97 688.48 491.37 691.14 491.37C693.35 491.37 695.31 491.78 697.02 492.60C698.73 493.40 700.10 494.55 701.12 496.02C702.14 497.49 702.72 499.21 702.86 501.17H696.72C696.47 499.86 695.88 498.76 694.94 497.89C694.02 497.00 692.78 496.56 691.23 496.56C689.91 496.56 688.76 496.91 687.77 497.62C686.77 498.32 686.00 499.33 685.44 500.64C684.90 501.95 684.62 503.53 684.62 505.36C684.62 507.22 684.90 508.82 685.44 510.16C685.99 511.48 686.75 512.51 687.73 513.23C688.73 513.94 689.89 514.29 691.23 514.29C692.18 514.29 693.02 514.12 693.77 513.76C694.52 513.39 695.16 512.87 695.67 512.18C696.18 511.50 696.53 510.66 696.72 509.68H702.86C702.71 511.61 702.14 513.32 701.15 514.81C700.17 516.29 698.83 517.45 697.14 518.29C695.45 519.12 693.46 519.53 691.17 519.53ZM714.56 482.64V519H708.14V482.64H714.56ZM721.17 519V491.73H727.60V519H721.17ZM724.40 487.86C723.39 487.86 722.51 487.52 721.78 486.84C721.04 486.16 720.68 485.33 720.68 484.38C720.68 483.41 721.04 482.58 721.78 481.91C722.51 481.22 723.39 480.88 724.40 480.88C725.43 480.88 726.31 481.22 727.03 481.91C727.77 482.58 728.13 483.41 728.13 484.38C728.13 485.33 727.77 486.16 727.03 486.84C726.31 487.52 725.43 487.86 724.40 487.86ZM746.11 519.53C743.38 519.53 741.05 518.93 739.09 517.74C737.15 516.54 735.65 514.89 734.60 512.79C733.56 510.67 733.04 508.23 733.04 505.47C733.04 502.7 733.57 500.26 734.64 498.14C735.70 496.01 737.21 494.35 739.15 493.17C741.1 491.97 743.41 491.37 746.07 491.37C748.28 491.37 750.24 491.78 751.95 492.60C753.66 493.40 755.03 494.55 756.05 496.02C757.07 497.49 757.65 499.21 757.79 501.17H751.65C751.40 499.86 750.81 498.76 749.87 497.89C748.95 497.00 747.71 496.56 746.16 496.56C744.85 496.56 743.69 496.91 742.70 497.62C741.70 498.32 740.93 499.33 740.37 500.64C739.83 501.95 739.55 503.53 739.55 505.36C739.55 507.22 739.83 508.82 740.37 510.16C740.92 511.48 741.68 512.51 742.66 513.23C743.66 513.94 744.82 514.29 746.16 514.29C747.11 514.29 747.95 514.12 748.70 513.76C749.46 513.39 750.09 512.87 750.60 512.18C751.11 511.50 751.46 510.66 751.65 509.68H757.79C757.64 511.61 757.07 513.32 756.09 514.81C755.10 516.29 753.77 517.45 752.07 518.29C750.38 519.12 748.39 519.53 746.11 519.53ZM768.93 510.44L768.91 502.68H769.94L779.74 491.73H787.25L775.20 505.15H773.86L768.93 510.44ZM763.07 519V482.64H769.50V519H763.07ZM780.18 519L771.31 506.59L775.64 502.06L787.87 519H780.18ZM813.09 498.94L807.23 499.57C807.07 498.98 806.77 498.43 806.36 497.91C805.96 497.38 805.41 496.96 804.73 496.65C804.04 496.33 803.2 496.17 802.21 496.17C800.87 496.17 799.74 496.46 798.83 497.04C797.93 497.62 797.49 498.37 797.50 499.29C797.49 500.08 797.78 500.73 798.37 501.23C798.98 501.72 799.97 502.13 801.35 502.45L806.01 503.45C808.59 504.00 810.50 504.88 811.76 506.09C813.02 507.30 813.66 508.88 813.68 510.83C813.66 512.55 813.16 514.06 812.17 515.38C811.18 516.68 809.82 517.70 808.07 518.43C806.31 519.17 804.30 519.53 802.03 519.53C798.69 519.53 796.00 518.83 793.97 517.44C791.93 516.03 790.72 514.07 790.33 511.56L796.60 510.96C796.88 512.19 797.48 513.12 798.41 513.74C799.33 514.37 800.53 514.68 802.01 514.68C803.54 514.68 804.76 514.37 805.69 513.74C806.62 513.12 807.09 512.34 807.09 511.42C807.09 510.64 806.79 509.99 806.18 509.48C805.59 508.97 804.67 508.58 803.41 508.31L798.76 507.33C796.15 506.79 794.21 505.87 792.96 504.58C791.70 503.28 791.08 501.63 791.09 499.65C791.08 497.96 791.53 496.51 792.46 495.28C793.39 494.04 794.69 493.08 796.35 492.40C798.02 491.71 799.94 491.37 802.12 491.37C805.31 491.37 807.83 492.05 809.66 493.41C811.51 494.77 812.65 496.62 813.09 498.94Z"
    fill="#08272E" /><rect x="524" y="711" width="880" height="275" rx="36" fill="white" stroke="#3971FF" stroke-width="8" /><path
    d="M582.91 801H570.59V764.64H583.16C586.77 764.64 589.87 765.36 592.46 766.82C595.07 768.26 597.07 770.34 598.46 773.05C599.86 775.76 600.56 779.01 600.56 782.78C600.56 786.57 599.85 789.83 598.45 792.55C597.05 795.27 595.03 797.36 592.39 798.82C589.76 800.27 586.60 801 582.91 801ZM577.17 795.3H582.59C585.12 795.3 587.24 794.84 588.93 793.91C590.62 792.98 591.89 791.59 592.75 789.74C593.60 787.88 594.02 785.56 594.02 782.78C594.02 780.00 593.60 777.69 592.75 775.86C591.89 774.01 590.63 772.63 588.96 771.72C587.31 770.80 585.25 770.34 582.78 770.34H577.17V795.3ZM606.53 801V773.73H612.96V801H606.53ZM609.76 769.86C608.75 769.86 607.87 769.52 607.14 768.84C606.40 768.16 606.04 767.34 606.04 766.38C606.04 765.41 606.40 764.58 607.14 763.91C607.87 763.22 608.75 762.88 609.76 762.88C610.79 762.88 611.67 763.22 612.39 763.91C613.13 764.58 613.49 765.41 613.49 766.38C613.49 767.34 613.13 768.16 612.39 768.84C611.67 769.52 610.79 769.86 609.76 769.86ZM619.57 801V773.73H625.80V778.27H626.09C626.58 776.70 627.44 775.49 628.64 774.63C629.86 773.77 631.25 773.34 632.82 773.34C633.17 773.34 633.57 773.35 634.01 773.39C634.46 773.41 634.83 773.46 635.12 773.51V779.43C634.85 779.33 634.42 779.25 633.83 779.18C633.25 779.10 632.69 779.05 632.14 779.05C630.97 779.05 629.92 779.31 628.98 779.82C628.06 780.32 627.33 781.01 626.80 781.89C626.26 782.78 626.00 783.81 626.00 784.97V801H619.57ZM650.35 801.53C647.61 801.53 645.25 800.96 643.26 799.83C641.28 798.68 639.76 797.06 638.70 794.96C637.63 792.86 637.10 790.38 637.10 787.52C637.10 784.72 637.63 782.26 638.70 780.14C639.77 778.01 641.28 776.35 643.21 775.16C645.14 773.97 647.40 773.37 650.01 773.37C651.69 773.37 653.27 773.64 654.77 774.19C656.27 774.72 657.60 775.55 658.74 776.67C659.90 777.80 660.82 779.23 661.48 780.97C662.14 782.7 662.47 784.76 662.47 787.15V789.12H640.12V784.79H656.31C656.30 783.56 656.03 782.46 655.51 781.50C654.99 780.53 654.26 779.77 653.33 779.21C652.40 778.66 651.33 778.38 650.10 778.38C648.78 778.38 647.63 778.70 646.63 779.34C645.64 779.97 644.87 780.79 644.31 781.82C643.76 782.84 643.49 783.96 643.47 785.18V788.96C643.47 790.55 643.76 791.91 644.34 793.04C644.92 794.17 645.74 795.03 646.78 795.64C647.82 796.23 649.04 796.53 650.43 796.53C651.37 796.53 652.22 796.39 652.97 796.13C653.73 795.86 654.39 795.47 654.94 794.95C655.5 794.42 655.92 793.78 656.21 793.01L662.21 793.68C661.83 795.27 661.11 796.66 660.04 797.84C658.99 799.01 657.64 799.92 655.99 800.57C654.35 801.21 652.46 801.53 650.35 801.53ZM679.81 801.53C677.08 801.53 674.75 800.93 672.79 799.74C670.85 798.54 669.35 796.89 668.30 794.79C667.26 792.67 666.74 790.23 666.74 787.47C666.74 784.7 667.27 782.26 668.34 780.14C669.40 778.01 670.90 776.35 672.85 775.16C674.80 773.97 677.11 773.37 679.77 773.37C681.98 773.37 683.94 773.78 685.65 774.60C687.36 775.40 688.73 776.54 689.75 778.02C690.77 779.49 691.35 781.21 691.49 783.17H685.35C685.10 781.86 684.51 780.76 683.57 779.89C682.65 779.00 681.41 778.56 679.86 778.56C678.55 778.56 677.39 778.91 676.40 779.62C675.40 780.32 674.63 781.33 674.07 782.64C673.53 783.96 673.25 785.53 673.25 787.36C673.25 789.22 673.53 790.82 674.07 792.16C674.62 793.48 675.38 794.51 676.36 795.23C677.36 795.94 678.52 796.29 679.86 796.29C680.81 796.29 681.65 796.12 682.40 795.76C683.16 795.39 683.79 794.87 684.30 794.18C684.81 793.50 685.16 792.66 685.35 791.68H691.49C691.34 793.61 690.77 795.32 689.78 796.81C688.80 798.29 687.47 799.45 685.77 800.29C684.08 801.12 682.09 801.53 679.81 801.53ZM710.39 773.73V778.70H694.71V773.73H710.39ZM698.58 767.19H705.01V792.80C705.01 793.66 705.14 794.32 705.40 794.79C705.67 795.24 706.02 795.54 706.46 795.71C706.9 795.88 707.38 795.96 707.92 795.96C708.32 795.96 708.69 795.93 709.02 795.87C709.36 795.81 709.62 795.76 709.8 795.71L710.88 800.73C710.54 800.85 710.05 800.98 709.41 801.12C708.78 801.27 708.01 801.35 707.10 801.37C705.49 801.42 704.04 801.18 702.75 800.64C701.46 800.1 700.44 799.26 699.68 798.12C698.93 796.99 698.57 795.57 698.58 793.86V767.19ZM722.77 764.64V801H716.35V764.64H722.77ZM733.38 811.23C732.50 811.23 731.69 811.16 730.95 811.01C730.21 810.88 729.63 810.73 729.19 810.55L730.68 805.54C731.62 805.82 732.45 805.95 733.18 805.94C733.92 805.92 734.56 805.69 735.12 805.24C735.69 804.81 736.17 804.07 736.56 803.04L737.11 801.57L727.22 773.73H734.04L740.32 794.32H740.61L746.91 773.73H753.75L742.83 804.30C742.32 805.75 741.64 806.98 740.80 808.01C739.96 809.05 738.93 809.85 737.71 810.39C736.50 810.95 735.06 811.23 733.38 811.23ZM782.49 801.53C779.83 801.53 777.52 800.95 775.57 799.77C773.61 798.60 772.10 796.96 771.02 794.86C769.96 792.75 769.42 790.29 769.42 787.47C769.42 784.65 769.96 782.18 771.02 780.07C772.10 777.95 773.61 776.30 775.57 775.13C777.52 773.96 779.83 773.37 782.49 773.37C785.15 773.37 787.46 773.96 789.42 775.13C791.37 776.30 792.88 777.95 793.94 780.07C795.02 782.18 795.56 784.65 795.56 787.47C795.56 790.29 795.02 792.75 793.94 794.86C792.88 796.96 791.37 798.60 789.42 799.77C787.46 800.95 785.15 801.53 782.49 801.53ZM782.53 796.38C783.97 796.38 785.18 795.99 786.15 795.19C787.12 794.39 787.84 793.31 788.32 791.96C788.80 790.61 789.04 789.11 789.04 787.45C789.04 785.78 788.80 784.27 788.32 782.92C787.84 781.56 787.12 780.48 786.15 779.67C785.18 778.87 783.97 778.47 782.53 778.47C781.05 778.47 779.82 778.87 778.83 779.67C777.86 780.48 777.14 781.56 776.65 782.92C776.18 784.27 775.94 785.78 775.94 787.45C775.94 789.11 776.18 790.61 776.65 791.96C777.14 793.31 777.86 794.39 778.83 795.19C779.82 795.99 781.05 796.38 782.53 796.38ZM801.01 811.23V773.73H807.34V778.24H807.71C808.04 777.57 808.51 776.87 809.11 776.12C809.72 775.37 810.53 774.72 811.56 774.19C812.59 773.64 813.91 773.37 815.50 773.37C817.61 773.37 819.51 773.91 821.20 774.99C822.91 776.05 824.26 777.63 825.25 779.73C826.26 781.81 826.76 784.37 826.76 787.40C826.76 790.39 826.27 792.94 825.29 795.03C824.30 797.13 822.97 798.73 821.27 799.83C819.58 800.93 817.66 801.48 815.52 801.48C813.96 801.48 812.66 801.22 811.63 800.70C810.60 800.18 809.77 799.55 809.15 798.82C808.53 798.07 808.05 797.37 807.71 796.70H807.44V811.23H801.01ZM807.32 787.36C807.32 789.13 807.57 790.67 808.06 792.00C808.57 793.32 809.30 794.36 810.25 795.11C811.21 795.84 812.37 796.21 813.73 796.21C815.15 796.21 816.34 795.83 817.30 795.07C818.26 794.3 818.98 793.25 819.46 791.93C819.96 790.59 820.21 789.07 820.21 787.36C820.21 785.67 819.97 784.17 819.48 782.85C819.00 781.54 818.27 780.51 817.32 779.76C816.36 779.02 815.16 778.65 813.73 778.65C812.36 778.65 811.19 779.01 810.23 779.73C809.27 780.45 808.54 781.46 808.05 782.76C807.56 784.07 807.32 785.6 807.32 787.36ZM844.34 801.53C841.61 801.53 839.24 800.96 837.25 799.83C835.28 798.68 833.76 797.06 832.69 794.96C831.63 792.86 831.09 790.38 831.09 787.52C831.09 784.72 831.63 782.26 832.69 780.14C833.77 778.01 835.27 776.35 837.20 775.16C839.13 773.97 841.40 773.37 844.00 773.37C845.68 773.37 847.27 773.64 848.76 774.19C850.26 774.72 851.59 775.55 852.74 776.67C853.90 777.80 854.81 779.23 855.47 780.97C856.13 782.7 856.47 784.76 856.47 787.15V789.12H834.11V784.79H850.30C850.29 783.56 850.03 782.46 849.51 781.50C848.99 780.53 848.26 779.77 847.32 779.21C846.40 778.66 845.32 778.38 844.09 778.38C842.78 778.38 841.62 778.70 840.63 779.34C839.63 779.97 838.86 780.79 838.30 781.82C837.76 782.84 837.48 783.96 837.47 785.18V788.96C837.47 790.55 837.76 791.91 838.34 793.04C838.92 794.17 839.73 795.03 840.77 795.64C841.81 796.23 843.03 796.53 844.43 796.53C845.36 796.53 846.21 796.39 846.97 796.13C847.73 795.86 848.38 795.47 848.94 794.95C849.49 794.42 849.91 793.78 850.20 793.01L856.2 793.68C855.82 795.27 855.10 796.66 854.03 797.84C852.98 799.01 851.63 799.92 849.99 800.57C848.34 801.21 846.46 801.53 844.34 801.53ZM868.33 785.02V801H861.90V773.73H868.05V778.36H868.37C869.00 776.84 870.00 775.62 871.37 774.72C872.75 773.82 874.46 773.37 876.50 773.37C878.38 773.37 880.02 773.77 881.42 774.58C882.83 775.38 883.91 776.55 884.68 778.08C885.47 779.60 885.85 781.46 885.84 783.63V801H879.41V784.63C879.41 782.81 878.94 781.38 877.99 780.35C877.06 779.32 875.76 778.80 874.10 778.80C872.98 778.80 871.98 779.05 871.10 779.55C870.24 780.04 869.56 780.74 869.06 781.66C868.57 782.59 868.33 783.71 868.33 785.02ZM913.93 780.94L908.07 781.58C907.90 780.98 907.61 780.43 907.20 779.91C906.80 779.38 906.25 778.97 905.57 778.65C904.88 778.33 904.04 778.17 903.04 778.17C901.71 778.17 900.58 778.46 899.67 779.04C898.77 779.62 898.33 780.37 898.34 781.29C898.33 782.08 898.62 782.73 899.21 783.23C899.81 783.72 900.81 784.13 902.19 784.45L906.84 785.45C909.42 786.00 911.34 786.88 912.60 788.09C913.86 789.30 914.50 790.88 914.51 792.83C914.50 794.55 914.00 796.06 913.00 797.38C912.02 798.68 910.65 799.70 908.90 800.43C907.15 801.17 905.14 801.53 902.87 801.53C899.53 801.53 896.84 800.83 894.80 799.44C892.77 798.03 891.56 796.07 891.16 793.56L897.43 792.96C897.72 794.19 898.32 795.12 899.24 795.74C900.17 796.37 901.37 796.68 902.85 796.68C904.38 796.68 905.60 796.37 906.52 795.74C907.46 795.12 907.93 794.34 907.93 793.42C907.93 792.64 907.63 791.99 907.02 791.48C906.43 790.97 905.51 790.58 904.25 790.31L899.60 789.34C896.98 788.79 895.05 787.87 893.79 786.58C892.54 785.28 891.92 783.63 891.93 781.65C891.92 779.97 892.37 778.51 893.30 777.28C894.23 776.04 895.53 775.08 897.18 774.40C898.85 773.72 900.78 773.37 902.96 773.37C906.15 773.37 908.67 774.05 910.50 775.41C912.35 776.77 913.49 778.62 913.93 780.94ZM944.11 801.53C941.39 801.53 939.05 800.93 937.10 799.74C935.16 798.54 933.66 796.89 932.61 794.79C931.57 792.67 931.04 790.23 931.04 787.47C931.04 784.7 931.58 782.26 932.64 780.14C933.71 778.01 935.21 776.35 937.15 775.16C939.11 773.97 941.41 773.37 944.08 773.37C946.29 773.37 948.25 773.78 949.96 774.60C951.67 775.40 953.04 776.54 954.06 778.02C955.07 779.49 955.65 781.21 955.80 783.17H949.65C949.40 781.86 948.81 780.76 947.88 779.89C946.95 779.00 945.72 778.56 944.17 778.56C942.85 778.56 941.70 778.91 940.70 779.62C939.71 780.32 938.93 781.33 938.38 782.64C937.83 783.96 937.56 785.53 937.56 787.36C937.56 789.22 937.83 790.82 938.38 792.16C938.92 793.48 939.69 794.51 940.67 795.23C941.66 795.94 942.83 796.29 944.17 796.29C945.11 796.29 945.96 796.12 946.71 795.76C947.46 795.39 948.10 794.87 948.61 794.18C949.11 793.50 949.46 792.66 949.65 791.68H955.80C955.64 793.61 955.07 795.32 954.09 796.81C953.11 798.29 951.77 799.45 950.08 800.29C948.39 801.12 946.40 801.53 944.11 801.53ZM972.97 801.53C970.31 801.53 968.00 800.95 966.05 799.77C964.09 798.60 962.58 796.96 961.5 794.86C960.43 792.75 959.90 790.29 959.90 787.47C959.90 784.65 960.43 782.18 961.5 780.07C962.58 777.95 964.09 776.30 966.05 775.13C968.00 773.96 970.31 773.37 972.97 773.37C975.63 773.37 977.94 773.96 979.89 775.13C981.85 776.30 983.36 777.95 984.42 780.07C985.5 782.18 986.04 784.65 986.04 787.47C986.04 790.29 985.5 792.75 984.42 794.86C983.36 796.96 981.85 798.60 979.89 799.77C977.94 800.95 975.63 801.53 972.97 801.53ZM973.01 796.38C974.45 796.38 975.66 795.99 976.63 795.19C977.60 794.39 978.32 793.31 978.79 791.96C979.28 790.61 979.52 789.11 979.52 787.45C979.52 785.78 979.28 784.27 978.79 782.92C978.32 781.56 977.60 780.48 976.63 779.67C975.66 778.87 974.45 778.47 973.01 778.47C971.53 778.47 970.29 778.87 969.31 779.67C968.34 780.48 967.61 781.56 967.13 782.92C966.65 784.27 966.42 785.78 966.42 787.45C966.42 789.11 966.65 790.61 967.13 791.96C967.61 793.31 968.34 794.39 969.31 795.19C970.29 795.99 971.53 796.38 973.01 796.38ZM997.92 785.02V801H991.49V773.73H997.64V778.36H997.96C998.58 776.84 999.59 775.62 1000.96 774.72C1002.34 773.82 1004.05 773.37 1006.09 773.37C1007.97 773.37 1009.61 773.77 1011.01 774.58C1012.42 775.38 1013.51 776.55 1014.27 778.08C1015.06 779.60 1015.44 781.46 1015.43 783.63V801H1009V784.63C1009 782.81 1008.53 781.38 1007.58 780.35C1006.65 779.32 1005.35 778.80 1003.69 778.80C1002.57 778.80 1001.57 779.05 1000.69 779.55C999.83 780.04 999.15 780.74 998.65 781.66C998.16 782.59 997.92 783.71 997.92 785.02ZM1035.58 773.73V778.70H1019.9V773.73H1035.58ZM1023.77 767.19H1030.2V792.80C1030.2 793.66 1030.33 794.32 1030.59 794.79C1030.86 795.24 1031.22 795.54 1031.66 795.71C1032.1 795.88 1032.58 795.96 1033.11 795.96C1033.52 795.96 1033.88 795.93 1034.21 795.87C1034.56 795.81 1034.82 795.76 1035 795.71L1036.08 800.73C1035.74 800.85 1035.24 800.98 1034.6 801.12C1033.98 801.27 1033.21 801.35 1032.3 801.37C1030.69 801.42 1029.24 801.18 1027.95 800.64C1026.66 800.1 1025.63 799.26 1024.87 798.12C1024.13 796.99 1023.76 795.57 1023.77 793.86V767.19ZM1052.74 801.53C1050 801.53 1047.64 800.96 1045.65 799.83C1043.68 798.68 1042.16 797.06 1041.09 794.96C1040.02 792.86 1039.49 790.38 1039.49 787.52C1039.49 784.72 1040.02 782.26 1041.09 780.14C1042.17 778.01 1043.67 776.35 1045.6 775.16C1047.53 773.97 1049.8 773.37 1052.4 773.37C1054.08 773.37 1055.67 773.64 1057.16 774.19C1058.66 774.72 1059.99 775.55 1061.14 776.67C1062.3 777.80 1063.21 779.23 1063.87 780.97C1064.53 782.7 1064.86 784.76 1064.86 787.15V789.12H1042.51V784.79H1058.7C1058.69 783.56 1058.43 782.46 1057.9 781.50C1057.38 780.53 1056.66 779.77 1055.72 779.21C1054.8 778.66 1053.72 778.38 1052.49 778.38C1051.18 778.38 1050.02 778.70 1049.03 779.34C1048.03 779.97 1047.26 780.79 1046.7 781.82C1046.16 782.84 1045.88 783.96 1045.87 785.18V788.96C1045.87 790.55 1046.16 791.91 1046.74 793.04C1047.32 794.17 1048.13 795.03 1049.17 795.64C1050.21 796.23 1051.43 796.53 1052.83 796.53C1053.76 796.53 1054.61 796.39 1055.37 796.13C1056.12 795.86 1056.78 795.47 1057.34 794.95C1057.89 794.42 1058.31 793.78 1058.6 793.01L1064.6 793.68C1064.22 795.27 1063.5 796.66 1062.43 797.84C1061.38 799.01 1060.03 799.92 1058.38 800.57C1056.74 801.21 1054.86 801.53 1052.74 801.53ZM1076.73 785.02V801H1070.3V773.73H1076.45V778.36H1076.77C1077.39 776.84 1078.39 775.62 1079.77 774.72C1081.15 773.82 1082.86 773.37 1084.9 773.37C1086.78 773.37 1088.42 773.77 1089.82 774.58C1091.22 775.38 1092.31 776.55 1093.08 778.08C1093.86 779.60 1094.25 781.46 1094.24 783.63V801H1087.81V784.63C1087.81 782.81 1087.34 781.38 1086.39 780.35C1085.45 779.32 1084.16 778.80 1082.5 778.80C1081.38 778.80 1080.38 779.05 1079.5 779.55C1078.64 780.04 1077.96 780.74 1077.46 781.66C1076.97 782.59 1076.73 783.71 1076.73 785.02ZM1114.39 773.73V778.70H1098.71V773.73H1114.39ZM1102.58 767.19H1109.01V792.80C1109.01 793.66 1109.14 794.32 1109.4 794.79C1109.67 795.24 1110.03 795.54 1110.47 795.71C1110.9 795.88 1111.39 795.96 1111.92 795.96C1112.32 795.96 1112.69 795.93 1113.02 795.87C1113.37 795.81 1113.63 795.76 1113.8 795.71L1114.89 800.73C1114.54 800.85 1114.05 800.98 1113.41 801.12C1112.79 801.27 1112.02 801.35 1111.11 801.37C1109.5 801.42 1108.05 801.18 1106.75 800.64C1105.46 800.1 1104.44 799.26 1103.68 798.12C1102.94 796.99 1102.57 795.57 1102.58 793.86V767.19ZM1132.17 801V773.73H1138.6V801H1132.17ZM1135.4 769.86C1134.38 769.86 1133.51 769.52 1132.77 768.84C1132.04 768.16 1131.67 767.34 1131.67 766.38C1131.67 765.41 1132.04 764.58 1132.77 763.91C1133.51 763.22 1134.38 762.88 1135.4 762.88C1136.43 762.88 1137.31 763.22 1138.03 763.91C1138.76 764.58 1139.13 765.41 1139.13 766.38C1139.13 767.34 1138.76 768.16 1138.03 768.84C1137.31 769.52 1136.43 769.86 1135.4 769.86ZM1151.63 785.02V801H1145.2V773.73H1151.35V778.36H1151.67C1152.3 776.84 1153.3 775.62 1154.67 774.72C1156.05 773.82 1157.76 773.37 1159.8 773.37C1161.68 773.37 1163.32 773.77 1164.72 774.58C1166.13 775.38 1167.22 776.55 1167.99 778.08C1168.77 779.60 1169.15 781.46 1169.14 783.63V801H1162.71V784.63C1162.71 782.81 1162.24 781.38 1161.29 780.35C1160.36 779.32 1159.06 778.80 1157.4 778.80C1156.28 778.80 1155.28 779.05 1154.4 779.55C1153.54 780.04 1152.86 780.74 1152.36 781.66C1151.88 782.59 1151.63 783.71 1151.63 785.02ZM1195.92 801.55C1194.2 801.55 1192.64 801.24 1191.25 800.63C1189.88 800 1188.79 799.08 1187.99 797.86C1187.19 796.64 1186.8 795.13 1186.8 793.35C1186.8 791.81 1187.08 790.54 1187.65 789.53C1188.22 788.52 1188.99 787.72 1189.98 787.12C1190.96 786.51 1192.07 786.06 1193.3 785.75C1194.54 785.43 1195.82 785.20 1197.15 785.05C1198.75 784.89 1200.04 784.74 1201.04 784.61C1202.03 784.47 1202.75 784.26 1203.2 783.97C1203.67 783.68 1203.9 783.22 1203.9 782.61V782.50C1203.9 781.16 1203.5 780.13 1202.71 779.39C1201.91 778.66 1200.77 778.29 1199.28 778.29C1197.71 778.29 1196.46 778.63 1195.53 779.32C1194.62 780.01 1194.01 780.82 1193.69 781.75L1187.69 780.90C1188.16 779.24 1188.94 777.86 1190.03 776.75C1191.12 775.62 1192.45 774.78 1194.02 774.22C1195.6 773.66 1197.34 773.37 1199.24 773.37C1200.56 773.37 1201.87 773.53 1203.17 773.83C1204.47 774.14 1205.66 774.65 1206.74 775.36C1207.81 776.06 1208.68 777.01 1209.33 778.22C1209.99 779.43 1210.32 780.94 1210.32 782.75V801H1204.14V797.25H1203.93C1203.54 798.01 1202.99 798.72 1202.28 799.38C1201.58 800.03 1200.7 800.56 1199.63 800.96C1198.58 801.36 1197.34 801.55 1195.92 801.55ZM1197.59 796.83C1198.88 796.83 1200 796.57 1200.95 796.06C1201.9 795.54 1202.62 794.86 1203.13 794.00C1203.65 793.15 1203.91 792.22 1203.91 791.22V788.00C1203.71 788.17 1203.37 788.32 1202.88 788.46C1202.41 788.61 1201.88 788.73 1201.29 788.84C1200.69 788.94 1200.11 789.04 1199.53 789.12C1198.95 789.20 1198.45 789.27 1198.02 789.34C1197.06 789.47 1196.2 789.68 1195.44 789.97C1194.69 790.27 1194.09 790.68 1193.65 791.22C1193.21 791.74 1192.99 792.41 1192.99 793.24C1192.99 794.42 1193.43 795.32 1194.29 795.92C1195.15 796.53 1196.26 796.83 1197.59 796.83ZM1216.79 811.23V773.73H1223.11V778.24H1223.48C1223.81 777.57 1224.28 776.87 1224.88 776.12C1225.49 775.37 1226.3 774.72 1227.33 774.19C1228.36 773.64 1229.68 773.37 1231.28 773.37C1233.38 773.37 1235.28 773.91 1236.98 774.99C1238.68 776.05 1240.03 777.63 1241.02 779.73C1242.03 781.81 1242.53 784.37 1242.53 787.40C1242.53 790.39 1242.04 792.94 1241.06 795.03C1240.08 797.13 1238.74 798.73 1237.05 799.83C1235.35 800.93 1233.44 801.48 1231.29 801.48C1229.73 801.48 1228.43 801.22 1227.4 800.70C1226.38 800.18 1225.55 799.55 1224.92 798.82C1224.3 798.07 1223.82 797.37 1223.48 796.70H1223.21V811.23H1216.79ZM1223.09 787.36C1223.09 789.13 1223.34 790.67 1223.84 792.00C1224.34 793.32 1225.07 794.36 1226.02 795.11C1226.98 795.84 1228.14 796.21 1229.5 796.21C1230.92 796.21 1232.11 795.83 1233.07 795.07C1234.03 794.3 1234.75 793.25 1235.24 791.93C1235.73 790.59 1235.98 789.07 1235.98 787.36C1235.98 785.67 1235.74 784.17 1235.25 782.85C1234.77 781.54 1234.05 780.51 1233.09 779.76C1232.13 779.02 1230.93 778.65 1229.5 778.65C1228.13 778.65 1226.96 779.01 1226 779.73C1225.04 780.45 1224.32 781.46 1223.82 782.76C1223.33 784.07 1223.09 785.6 1223.09 787.36ZM1248.04 811.23V773.73H1254.36V778.24H1254.73C1255.06 777.57 1255.53 776.87 1256.13 776.12C1256.74 775.37 1257.55 774.72 1258.58 774.19C1259.61 773.64 1260.93 773.37 1262.53 773.37C1264.63 773.37 1266.53 773.91 1268.23 774.99C1269.93 776.05 1271.28 777.63 1272.27 779.73C1273.28 781.81 1273.78 784.37 1273.78 787.40C1273.78 790.39 1273.29 792.94 1272.31 795.03C1271.33 797.13 1269.99 798.73 1268.3 799.83C1266.6 800.93 1264.69 801.48 1262.54 801.48C1260.98 801.48 1259.68 801.22 1258.65 800.70C1257.63 800.18 1256.8 799.55 1256.17 798.82C1255.55 798.07 1255.07 797.37 1254.73 796.70H1254.46V811.23H1248.04ZM1254.34 787.36C1254.34 789.13 1254.59 790.67 1255.09 792.00C1255.59 793.32 1256.32 794.36 1257.27 795.11C1258.23 795.84 1259.39 796.21 1260.75 796.21C1262.17 796.21 1263.36 795.83 1264.32 795.07C1265.28 794.3 1266 793.25 1266.49 791.93C1266.98 790.59 1267.23 789.07 1267.23 787.36C1267.23 785.67 1266.99 784.17 1266.5 782.85C1266.02 781.54 1265.3 780.51 1264.34 779.76C1263.38 779.02 1262.18 778.65 1260.75 778.65C1259.38 778.65 1258.21 779.01 1257.25 779.73C1256.29 780.45 1255.57 781.46 1255.07 782.76C1254.58 784.07 1254.34 785.6 1254.34 787.36Z"
    fill="#08272E" /><path d="M967 498C1155 498 1194 526 1194 700.5" stroke="#3971FF" stroke-width="8" /><g clip-path="url(#clip0_234_4)"><g opacity="0.53" filter="url(#filter0_f_234_4)"><path
        d="M1327.88 907.11C1327.88 911.17 1327.05 915.19 1325.42 918.94C1323.79 922.69 1321.41 926.10 1318.4 928.97C1315.39 931.84 1311.82 934.12 1307.89 935.67C1303.96 937.22 1299.75 938.02 1295.5 938.02C1291.25 938.02 1287.04 937.22 1283.11 935.67C1279.18 934.12 1275.61 931.84 1272.6 928.97C1269.6 926.10 1267.21 922.69 1265.59 918.94C1263.96 915.19 1263.12 911.17 1263.12 907.11C1263.12 898.91 1266.53 891.05 1272.6 885.25C1278.68 879.46 1286.91 876.20 1295.5 876.20C1299.75 876.20 1303.96 877.00 1307.89 878.55C1311.82 880.11 1315.39 882.38 1318.4 885.25C1321.41 888.13 1323.79 891.53 1325.42 895.28C1327.05 899.03 1327.88 903.05 1327.88 907.11Z"
        fill="black" /></g><path
      d="M1329.11 904.38C1329.11 908.76 1328.24 913.09 1326.56 917.13C1324.87 921.18 1322.39 924.85 1319.27 927.95C1316.15 931.04 1312.44 933.49 1308.36 935.17C1304.29 936.84 1299.91 937.71 1295.5 937.71C1286.59 937.71 1278.04 934.20 1271.73 927.95C1265.43 921.70 1261.89 913.22 1261.89 904.38C1261.89 895.54 1265.43 887.07 1271.73 880.82C1278.04 874.57 1286.59 871.06 1295.5 871.06C1299.91 871.06 1304.29 871.92 1308.36 873.60C1312.44 875.27 1316.15 877.73 1319.27 880.82C1322.39 883.91 1324.87 887.59 1326.56 891.63C1328.24 895.67 1329.11 900.01 1329.11 904.38Z"
      fill="url(#paint0_linear_234_4)" stroke="#CDCDCD" stroke-width="0.35" stroke-linecap="round"
      stroke-linejoin="round" /><path
      d="M1326.48 904.38C1326.48 912.53 1323.22 920.34 1317.41 926.10C1311.6 931.86 1303.72 935.09 1295.5 935.09C1287.28 935.09 1279.4 931.86 1273.59 926.10C1267.78 920.34 1264.52 912.53 1264.52 904.38C1264.52 896.24 1267.78 888.43 1273.59 882.67C1279.4 876.91 1287.28 873.67 1295.5 873.67C1303.72 873.67 1311.6 876.91 1317.41 882.67C1323.22 888.43 1326.48 896.24 1326.48 904.38Z"
      fill="url(#paint1_radial_234_4)" /><path
      d="M1295.5 875.27C1295.25 875.27 1295.05 875.47 1295.05 875.72V880.88C1295.05 881.13 1295.25 881.33 1295.5 881.33C1295.75 881.33 1295.95 881.13 1295.95 880.88V875.72C1295.95 875.47 1295.75 875.27 1295.5 875.27ZM1292.55 875.46C1292.52 875.46 1292.48 875.46 1292.45 875.46C1292.2 875.48 1292.02 875.70 1292.05 875.95L1292.28 878.11C1292.3 878.36 1292.53 878.54 1292.77 878.51C1293.02 878.48 1293.2 878.26 1293.18 878.02L1292.95 875.86C1292.93 875.64 1292.75 875.48 1292.55 875.46ZM1298.48 875.46C1298.27 875.48 1298.09 875.64 1298.07 875.86L1297.84 878.02C1297.82 878.27 1297.99 878.49 1298.24 878.51C1298.49 878.54 1298.71 878.36 1298.74 878.11L1298.97 875.95C1299 875.71 1298.82 875.49 1298.57 875.46C1298.54 875.46 1298.51 875.46 1298.48 875.46ZM1289.51 875.89C1289.48 875.89 1289.45 875.90 1289.42 875.90C1289.17 875.96 1289.02 876.19 1289.07 876.43L1290.15 881.49C1290.2 881.73 1290.44 881.88 1290.68 881.83C1290.93 881.78 1291.08 881.54 1291.03 881.30L1289.95 876.25C1289.91 876.04 1289.72 875.89 1289.51 875.89ZM1301.51 875.90C1301.3 875.90 1301.11 876.04 1301.07 876.25L1299.98 881.31C1299.93 881.55 1300.09 881.78 1300.33 881.84C1300.58 881.89 1300.82 881.73 1300.87 881.49L1301.95 876.44C1302 876.20 1301.85 875.96 1301.6 875.91C1301.57 875.90 1301.54 875.90 1301.51 875.90ZM1286.61 876.70C1286.55 876.70 1286.49 876.71 1286.43 876.73C1286.2 876.80 1286.07 877.05 1286.14 877.29L1286.82 879.36C1286.9 879.59 1287.15 879.72 1287.39 879.64C1287.63 879.57 1287.76 879.31 1287.68 879.08L1287 877.01C1286.95 876.84 1286.79 876.72 1286.61 876.70ZM1304.39 876.71C1304.22 876.72 1304.06 876.84 1304 877.01L1303.32 879.08C1303.25 879.32 1303.37 879.57 1303.61 879.64C1303.85 879.72 1304.1 879.59 1304.18 879.36L1304.86 877.29C1304.94 877.05 1304.81 876.80 1304.57 876.73C1304.51 876.71 1304.45 876.7 1304.39 876.71ZM1283.75 877.74C1283.69 877.74 1283.63 877.76 1283.57 877.78C1283.34 877.88 1283.24 878.15 1283.34 878.37L1285.46 883.09C1285.56 883.32 1285.83 883.42 1286.06 883.32C1286.28 883.22 1286.39 882.96 1286.29 882.73L1284.17 878.01C1284.09 877.84 1283.92 877.74 1283.75 877.74ZM1307.29 877.76C1307.11 877.76 1306.94 877.86 1306.87 878.02L1304.74 882.74C1304.64 882.97 1304.74 883.23 1304.97 883.33C1305.2 883.43 1305.47 883.33 1305.57 883.11L1307.69 878.39C1307.79 878.16 1307.69 877.90 1307.46 877.80C1307.41 877.77 1307.35 877.76 1307.29 877.76ZM1281.09 879.14C1281 879.13 1280.91 879.15 1280.83 879.20C1280.62 879.32 1280.54 879.59 1280.67 879.81L1281.76 881.69C1281.89 881.90 1282.16 881.98 1282.38 881.85C1282.6 881.73 1282.67 881.46 1282.54 881.24L1281.45 879.36C1281.37 879.23 1281.23 879.15 1281.09 879.14ZM1309.91 879.14C1309.77 879.15 1309.63 879.23 1309.55 879.36L1308.46 881.24C1308.33 881.46 1308.4 881.73 1308.62 881.85C1308.84 881.98 1309.11 881.90 1309.24 881.69L1310.33 879.81C1310.46 879.59 1310.38 879.32 1310.17 879.20C1310.09 879.15 1310 879.13 1309.91 879.14ZM1278.51 880.73C1278.42 880.74 1278.33 880.76 1278.26 880.82C1278.06 880.97 1278.01 881.24 1278.16 881.45L1281.22 885.63C1281.36 885.83 1281.64 885.87 1281.85 885.73C1282.05 885.58 1282.09 885.30 1281.95 885.1L1278.89 880.92C1278.8 880.79 1278.65 880.73 1278.51 880.73ZM1312.52 880.76C1312.38 880.75 1312.24 880.82 1312.14 880.94L1309.08 885.12C1308.93 885.32 1308.98 885.60 1309.18 885.74C1309.38 885.89 1309.66 885.85 1309.81 885.64L1312.87 881.47C1313.02 881.27 1312.98 880.99 1312.77 880.84C1312.7 880.79 1312.61 880.76 1312.52 880.76ZM1276.2 882.65C1276.08 882.65 1275.97 882.68 1275.87 882.77C1275.69 882.93 1275.67 883.22 1275.84 883.4L1277.31 885.01C1277.47 885.20 1277.76 885.21 1277.94 885.05C1278.13 884.88 1278.15 884.6 1277.98 884.42L1276.51 882.80C1276.43 882.71 1276.31 882.66 1276.2 882.65ZM1314.8 882.66C1314.69 882.66 1314.58 882.71 1314.49 882.80L1313.03 884.42C1312.86 884.60 1312.87 884.88 1313.06 885.05C1313.24 885.22 1313.53 885.20 1313.7 885.02L1315.16 883.40C1315.33 883.22 1315.32 882.94 1315.13 882.77C1315.04 882.69 1314.92 882.65 1314.8 882.66ZM1273.99 884.76C1273.87 884.77 1273.76 884.82 1273.68 884.91C1273.51 885.09 1273.52 885.37 1273.71 885.54L1277.58 889.00C1277.77 889.16 1278.05 889.15 1278.22 888.96C1278.39 888.78 1278.37 888.50 1278.19 888.33L1274.31 884.87C1274.22 884.79 1274.1 884.75 1273.99 884.76ZM1317.03 884.77C1316.91 884.77 1316.79 884.81 1316.7 884.89L1312.83 888.34C1312.64 888.51 1312.62 888.79 1312.79 888.97C1312.96 889.16 1313.24 889.17 1313.43 889.01L1317.3 885.55C1317.49 885.39 1317.51 885.11 1317.34 884.92C1317.25 884.83 1317.14 884.78 1317.03 884.77ZM1272.15 887.10C1272 887.10 1271.86 887.16 1271.77 887.29C1271.62 887.49 1271.66 887.77 1271.87 887.91L1273.64 889.19C1273.84 889.34 1274.12 889.29 1274.27 889.09C1274.42 888.89 1274.37 888.61 1274.17 888.47L1272.4 887.19C1272.32 887.13 1272.24 887.11 1272.15 887.10ZM1318.86 887.12C1318.78 887.12 1318.69 887.15 1318.61 887.21L1316.84 888.48C1316.64 888.63 1316.59 888.91 1316.74 889.11C1316.89 889.31 1317.17 889.35 1317.37 889.21L1319.14 887.93C1319.35 887.78 1319.39 887.51 1319.24 887.31C1319.15 887.18 1319.01 887.12 1318.86 887.12ZM1270.43 889.61C1270.28 889.62 1270.15 889.69 1270.07 889.83C1269.94 890.04 1270.02 890.32 1270.24 890.44L1274.75 893.02C1274.96 893.15 1275.24 893.07 1275.36 892.86C1275.49 892.64 1275.42 892.37 1275.2 892.25L1270.69 889.66C1270.61 889.62 1270.52 889.60 1270.43 889.61ZM1320.57 889.61C1320.48 889.60 1320.39 889.62 1320.31 889.66L1315.8 892.25C1315.58 892.37 1315.51 892.64 1315.64 892.86C1315.76 893.07 1316.04 893.15 1316.25 893.02L1320.77 890.44C1320.98 890.32 1321.06 890.04 1320.93 889.83C1320.85 889.69 1320.72 889.62 1320.57 889.61ZM1269.13 892.27C1268.95 892.27 1268.78 892.37 1268.71 892.54C1268.61 892.76 1268.71 893.03 1268.94 893.13L1270.94 894.01C1271.17 894.11 1271.43 894.01 1271.53 893.79C1271.64 893.56 1271.53 893.30 1271.31 893.20L1269.3 892.31C1269.25 892.28 1269.19 892.27 1269.13 892.27ZM1321.88 892.29C1321.82 892.29 1321.76 892.30 1321.7 892.33L1319.7 893.21C1319.47 893.31 1319.37 893.58 1319.47 893.80C1319.57 894.03 1319.84 894.13 1320.07 894.03L1322.07 893.15C1322.3 893.05 1322.4 892.78 1322.3 892.56C1322.22 892.39 1322.06 892.29 1321.88 892.29ZM1267.97 895.06C1267.8 895.07 1267.64 895.19 1267.58 895.37C1267.5 895.60 1267.63 895.85 1267.87 895.93L1272.82 897.53C1273.06 897.61 1273.32 897.48 1273.39 897.24C1273.47 897.01 1273.34 896.75 1273.1 896.68L1268.15 895.08C1268.09 895.06 1268.03 895.05 1267.97 895.06ZM1323.04 895.08C1322.98 895.07 1322.92 895.08 1322.86 895.10L1317.9 896.69C1317.66 896.77 1317.53 897.02 1317.61 897.26C1317.69 897.49 1317.94 897.62 1318.18 897.55L1323.14 895.95C1323.37 895.87 1323.5 895.62 1323.43 895.38C1323.37 895.21 1323.21 895.09 1323.04 895.08ZM1267.25 897.98C1267.04 897.98 1266.85 898.13 1266.81 898.34C1266.75 898.58 1266.91 898.82 1267.15 898.87L1269.3 899.32C1269.54 899.37 1269.78 899.22 1269.83 898.98C1269.88 898.73 1269.73 898.50 1269.48 898.44L1267.34 897.99C1267.31 897.99 1267.28 897.98 1267.25 897.98ZM1323.75 897.99C1323.72 897.99 1323.69 897.99 1323.66 898.00L1321.52 898.45C1321.27 898.50 1321.12 898.74 1321.17 898.98C1321.22 899.22 1321.46 899.38 1321.7 899.32L1323.85 898.87C1324.09 898.82 1324.25 898.58 1324.2 898.34C1324.15 898.13 1323.96 897.99 1323.75 897.99ZM1266.7 900.92C1266.49 900.94 1266.32 901.11 1266.3 901.32C1266.27 901.57 1266.45 901.79 1266.7 901.82L1271.88 902.36C1272.13 902.38 1272.35 902.21 1272.38 901.96C1272.4 901.71 1272.22 901.49 1271.98 901.47L1266.8 900.92C1266.76 900.92 1266.73 900.92 1266.7 900.92ZM1324.3 900.96C1324.27 900.96 1324.24 900.96 1324.21 900.96L1319.03 901.50C1318.78 901.52 1318.6 901.75 1318.63 901.99C1318.65 902.24 1318.87 902.42 1319.12 902.39L1324.3 901.85C1324.55 901.83 1324.73 901.61 1324.71 901.36C1324.68 901.15 1324.51 900.98 1324.3 900.96ZM1266.62 903.94C1266.37 903.94 1266.16 904.14 1266.16 904.38C1266.16 904.63 1266.37 904.83 1266.62 904.83H1268.81C1269.06 904.83 1269.26 904.63 1269.26 904.38C1269.26 904.14 1269.06 903.94 1268.81 903.94H1266.62ZM1322.19 903.94C1321.94 903.94 1321.74 904.14 1321.74 904.38C1321.74 904.63 1321.94 904.83 1322.19 904.83H1324.38C1324.63 904.83 1324.84 904.63 1324.84 904.38C1324.84 904.14 1324.63 903.94 1324.38 903.94H1322.19ZM1271.97 906.38C1271.94 906.37 1271.91 906.37 1271.88 906.38L1266.7 906.91C1266.45 906.94 1266.27 907.16 1266.29 907.40C1266.32 907.65 1266.54 907.83 1266.79 907.80L1271.97 907.27C1272.22 907.24 1272.4 907.02 1272.37 906.78C1272.35 906.56 1272.18 906.40 1271.97 906.38ZM1319.03 906.41C1318.82 906.43 1318.65 906.59 1318.62 906.81C1318.6 907.05 1318.78 907.27 1319.02 907.3L1324.2 907.84C1324.45 907.87 1324.68 907.69 1324.7 907.44C1324.73 907.20 1324.55 906.98 1324.3 906.95L1319.12 906.41C1319.09 906.41 1319.06 906.41 1319.03 906.41ZM1269.39 909.43C1269.36 909.43 1269.33 909.44 1269.3 909.44L1267.15 909.89C1266.91 909.95 1266.75 910.18 1266.8 910.43C1266.86 910.67 1267.1 910.82 1267.34 910.77L1269.48 910.32C1269.73 910.27 1269.88 910.03 1269.83 909.79C1269.79 909.58 1269.6 909.43 1269.39 909.43ZM1321.61 909.44C1321.4 909.44 1321.21 909.58 1321.17 909.79C1321.12 910.03 1321.27 910.27 1321.52 910.32L1323.66 910.77C1323.9 910.83 1324.14 910.67 1324.19 910.43C1324.25 910.19 1324.09 909.95 1323.85 909.90L1321.7 909.45C1321.67 909.44 1321.64 909.44 1321.61 909.44ZM1273 911.20C1272.94 911.20 1272.88 911.20 1272.82 911.22L1267.86 912.82C1267.63 912.89 1267.5 913.15 1267.57 913.38C1267.65 913.62 1267.91 913.75 1268.14 913.67L1273.1 912.07C1273.34 912.00 1273.47 911.75 1273.39 911.51C1273.33 911.33 1273.17 911.22 1273 911.20ZM1318 911.22C1317.82 911.23 1317.67 911.35 1317.61 911.52C1317.53 911.76 1317.66 912.01 1317.9 912.09L1322.85 913.69C1323.09 913.77 1323.34 913.64 1323.42 913.40C1323.5 913.17 1323.37 912.91 1323.13 912.84L1318.18 911.24C1318.12 911.22 1318.06 911.21 1318 911.22ZM1271.11 914.70C1271.05 914.70 1270.99 914.71 1270.93 914.74L1268.93 915.62C1268.7 915.72 1268.6 915.99 1268.7 916.21C1268.8 916.44 1269.07 916.54 1269.3 916.44L1271.3 915.55C1271.53 915.46 1271.63 915.19 1271.53 914.96C1271.45 914.79 1271.28 914.70 1271.11 914.70ZM1319.89 914.72C1319.71 914.71 1319.54 914.81 1319.47 914.98C1319.36 915.21 1319.47 915.47 1319.69 915.57L1321.7 916.46C1321.92 916.56 1322.19 916.46 1322.29 916.23C1322.39 916.00 1322.29 915.74 1322.06 915.64L1320.06 914.75C1320 914.73 1319.95 914.72 1319.89 914.72ZM1275 915.69C1274.92 915.68 1274.83 915.70 1274.75 915.75L1270.24 918.33C1270.02 918.45 1269.94 918.72 1270.07 918.94C1270.19 919.15 1270.47 919.23 1270.69 919.10L1275.2 916.52C1275.42 916.40 1275.49 916.12 1275.36 915.91C1275.29 915.77 1275.15 915.70 1275 915.69ZM1316 915.69C1315.85 915.70 1315.71 915.77 1315.64 915.91C1315.51 916.12 1315.58 916.40 1315.8 916.52L1320.31 919.10C1320.53 919.23 1320.81 919.15 1320.93 918.94C1321.06 918.72 1320.98 918.45 1320.77 918.33L1316.25 915.75C1316.17 915.70 1316.08 915.68 1316 915.69ZM1273.88 919.48C1273.79 919.48 1273.71 919.51 1273.63 919.56L1271.86 920.84C1271.65 920.98 1271.61 921.26 1271.76 921.46C1271.9 921.66 1272.18 921.71 1272.39 921.56L1274.16 920.29C1274.36 920.14 1274.41 919.86 1274.26 919.66C1274.17 919.53 1274.02 919.47 1273.88 919.48ZM1317.11 919.49C1316.97 919.49 1316.82 919.55 1316.73 919.67C1316.58 919.88 1316.63 920.15 1316.83 920.30L1318.6 921.58C1318.8 921.72 1319.09 921.68 1319.23 921.48C1319.38 921.28 1319.34 921.00 1319.13 920.85L1317.36 919.58C1317.28 919.52 1317.2 919.49 1317.11 919.49ZM1277.9 919.64C1277.78 919.64 1277.66 919.68 1277.57 919.76L1273.7 923.21C1273.51 923.38 1273.49 923.66 1273.66 923.85C1273.83 924.03 1274.11 924.04 1274.3 923.88L1278.17 920.43C1278.36 920.26 1278.38 919.98 1278.21 919.79C1278.12 919.70 1278.01 919.65 1277.9 919.64ZM1313.09 919.66C1312.98 919.66 1312.86 919.71 1312.78 919.80C1312.61 919.99 1312.63 920.27 1312.81 920.44L1316.69 923.89C1316.87 924.06 1317.16 924.04 1317.32 923.86C1317.49 923.68 1317.48 923.39 1317.29 923.23L1313.42 919.77C1313.33 919.69 1313.21 919.65 1313.09 919.66ZM1281.57 922.94C1281.43 922.93 1281.28 923.00 1281.19 923.12L1278.13 927.30C1277.98 927.50 1278.02 927.78 1278.23 927.92C1278.43 928.07 1278.71 928.03 1278.86 927.83L1281.92 923.65C1282.07 923.45 1282.02 923.17 1281.82 923.02C1281.75 922.97 1281.66 922.94 1281.57 922.94ZM1309.4 922.96C1309.32 922.96 1309.23 922.99 1309.15 923.04C1308.95 923.19 1308.91 923.47 1309.05 923.67L1312.11 927.85C1312.26 928.05 1312.54 928.09 1312.74 927.95C1312.94 927.80 1312.99 927.52 1312.84 927.32L1309.78 923.14C1309.69 923.02 1309.55 922.95 1309.4 922.96ZM1277.62 923.60C1277.5 923.61 1277.39 923.66 1277.3 923.75L1275.84 925.36C1275.67 925.55 1275.68 925.83 1275.87 926.00C1276.06 926.16 1276.34 926.15 1276.51 925.96L1277.97 924.35C1278.14 924.16 1278.13 923.88 1277.94 923.72C1277.85 923.63 1277.73 923.60 1277.62 923.60ZM1313.38 923.60C1313.27 923.60 1313.15 923.63 1313.06 923.72C1312.87 923.88 1312.85 924.17 1313.02 924.35L1314.49 925.97C1314.66 926.15 1314.94 926.16 1315.13 926.00C1315.31 925.83 1315.33 925.55 1315.16 925.37L1313.69 923.75C1313.61 923.66 1313.5 923.61 1313.38 923.60ZM1285.85 925.39C1285.68 925.39 1285.51 925.49 1285.43 925.66L1283.31 930.38C1283.21 930.60 1283.31 930.87 1283.54 930.97C1283.77 931.07 1284.03 930.97 1284.13 930.74L1286.26 926.02C1286.36 925.80 1286.26 925.53 1286.03 925.43C1285.97 925.41 1285.91 925.40 1285.85 925.39ZM1305.12 925.41C1305.06 925.41 1305 925.42 1304.94 925.45C1304.72 925.55 1304.61 925.81 1304.71 926.04L1306.83 930.76C1306.93 930.98 1307.2 931.09 1307.43 930.98C1307.66 930.88 1307.76 930.62 1307.66 930.39L1305.54 925.67C1305.46 925.50 1305.3 925.40 1305.12 925.41ZM1282.12 926.85C1281.98 926.86 1281.84 926.94 1281.76 927.08L1280.67 928.96C1280.54 929.17 1280.62 929.45 1280.83 929.57C1281.05 929.69 1281.32 929.62 1281.45 929.40L1282.54 927.52C1282.67 927.31 1282.6 927.04 1282.38 926.91C1282.3 926.87 1282.21 926.85 1282.12 926.85ZM1308.88 926.85C1308.79 926.85 1308.7 926.87 1308.62 926.91C1308.4 927.04 1308.33 927.31 1308.46 927.52L1309.55 929.40C1309.68 929.62 1309.95 929.69 1310.17 929.57C1310.38 929.45 1310.46 929.17 1310.33 928.96L1309.24 927.08C1309.16 926.94 1309.02 926.86 1308.88 926.85ZM1290.58 926.92C1290.37 926.92 1290.18 927.06 1290.13 927.27L1289.05 932.33C1289 932.57 1289.15 932.81 1289.4 932.86C1289.64 932.91 1289.88 932.76 1289.93 932.51L1291.02 927.46C1291.07 927.22 1290.91 926.98 1290.67 926.93C1290.64 926.92 1290.61 926.92 1290.58 926.92ZM1300.41 926.92C1300.38 926.92 1300.35 926.93 1300.32 926.93C1300.07 926.98 1299.92 927.22 1299.97 927.46L1301.05 932.52C1301.1 932.76 1301.34 932.91 1301.58 932.86C1301.83 932.81 1301.98 932.57 1301.93 932.33L1300.85 927.28C1300.81 927.07 1300.62 926.92 1300.41 926.92ZM1295.5 927.43C1295.25 927.43 1295.05 927.63 1295.05 927.88V933.05C1295.05 933.29 1295.25 933.49 1295.5 933.49C1295.75 933.49 1295.95 933.29 1295.95 933.05V927.88C1295.95 927.63 1295.75 927.43 1295.5 927.43ZM1287.21 929.10C1287.03 929.12 1286.88 929.23 1286.82 929.41L1286.14 931.48C1286.06 931.71 1286.19 931.96 1286.43 932.04C1286.67 932.12 1286.92 931.99 1287 931.75L1287.68 929.69C1287.75 929.45 1287.63 929.20 1287.39 929.12C1287.33 929.10 1287.27 929.10 1287.21 929.10ZM1303.79 929.10C1303.73 929.10 1303.67 929.10 1303.61 929.12C1303.37 929.2 1303.24 929.45 1303.32 929.69L1304 931.75C1304.07 931.99 1304.33 932.12 1304.57 932.04C1304.8 931.97 1304.93 931.71 1304.86 931.48L1304.18 929.41C1304.12 929.23 1303.96 929.12 1303.79 929.10ZM1292.66 930.25C1292.46 930.27 1292.28 930.44 1292.26 930.65L1292.03 932.81C1292 933.06 1292.18 933.28 1292.43 933.30C1292.68 933.33 1292.9 933.15 1292.93 932.91L1293.16 930.75C1293.18 930.5 1293.01 930.28 1292.76 930.25C1292.73 930.25 1292.69 930.25 1292.66 930.25ZM1298.32 930.26C1298.29 930.25 1298.26 930.25 1298.23 930.26C1297.98 930.28 1297.8 930.50 1297.82 930.75L1298.05 932.91C1298.08 933.16 1298.3 933.33 1298.55 933.31C1298.8 933.28 1298.97 933.06 1298.95 932.82L1298.72 930.65C1298.7 930.44 1298.53 930.28 1298.32 930.26Z"
      fill="#F4F2F3" /><g opacity="0.41" filter="url(#filter1_f_234_4)"><path d="M1316.67 886.47L1291.96 900.71L1276.33 925.09L1299.19 908.31L1316.67 886.47Z" fill="black" /></g><path d="M1299.04 908.06L1291.96 900.71L1317.09 883.95L1299.04 908.06Z" fill="#FF5150" /><path d="M1299.04 908.06L1291.96 900.71L1273.91 924.82L1299.04 908.06Z" fill="#F1F1F1" /><path opacity="0.24" d="M1273.91 924.82L1299.04 908.06L1317.09 883.95L1273.91 924.82Z" fill="black" /></g><path
    d="M1049.58 928.62C1020.69 942.37 1002.76 930.87 991.28 923.88C990.57 923.44 989.36 923.99 990.41 925.19C994.23 929.83 1006.77 941 1023.12 941C1039.49 941 1049.23 932.07 1050.45 930.51C1051.66 928.97 1050.8 928.11 1049.58 928.62H1049.58ZM1057.69 924.14C1056.92 923.13 1052.98 922.94 1050.5 923.25C1048.01 923.54 1044.28 925.06 1044.61 925.98C1044.77 926.32 1045.11 926.16 1046.82 926.01C1048.53 925.84 1053.33 925.23 1054.32 926.54C1055.33 927.86 1052.8 934.12 1052.33 935.13C1051.89 936.14 1052.5 936.40 1053.34 935.73C1054.17 935.05 1055.67 933.31 1056.68 930.85C1057.68 928.37 1058.28 924.91 1057.69 924.14Z"
    fill="#FF9900" /><path fill-rule="evenodd" clip-rule="evenodd"
    d="M1030.15 900.57C1030.15 904.17 1030.25 907.18 1028.42 910.39C1026.95 912.99 1024.62 914.59 1022.01 914.59C1018.46 914.59 1016.39 911.88 1016.39 907.89C1016.39 899.99 1023.46 898.56 1030.15 898.56V900.57ZM1039.49 923.14C1038.88 923.69 1037.99 923.73 1037.3 923.36C1034.23 920.81 1033.68 919.62 1031.99 917.19C1026.91 922.37 1023.32 923.92 1016.73 923.92C1008.94 923.92 1002.87 919.11 1002.87 909.49C1002.87 901.97 1006.94 896.85 1012.74 894.35C1017.77 892.14 1024.79 891.75 1030.15 891.14V889.94C1030.15 887.74 1030.32 885.13 1029.03 883.23C1027.9 881.52 1025.74 880.82 1023.84 880.82C1020.31 880.82 1017.15 882.63 1016.39 886.38C1016.23 887.22 1015.62 888.04 1014.78 888.08L1005.8 887.11C1005.04 886.94 1004.21 886.33 1004.42 885.17C1006.49 874.28 1016.32 871 1025.13 871C1029.63 871 1035.52 872.20 1039.08 875.61C1043.58 879.82 1043.15 885.43 1043.15 891.54V905.97C1043.15 910.31 1044.95 912.21 1046.64 914.55C1047.24 915.39 1047.37 916.39 1046.62 917.02C1044.73 918.59 1041.37 921.52 1039.52 923.16L1039.49 923.14"
    fill="black" /><path
    d="M1049.58 928.62C1020.69 942.37 1002.76 930.87 991.28 923.88C990.57 923.44 989.36 923.99 990.41 925.19C994.23 929.83 1006.77 941 1023.12 941C1039.49 941 1049.23 932.07 1050.45 930.51C1051.66 928.97 1050.8 928.11 1049.58 928.62H1049.58ZM1057.69 924.14C1056.92 923.13 1052.98 922.94 1050.5 923.25C1048.01 923.54 1044.28 925.06 1044.61 925.98C1044.77 926.32 1045.11 926.16 1046.82 926.01C1048.53 925.84 1053.33 925.23 1054.32 926.54C1055.33 927.86 1052.8 934.12 1052.33 935.13C1051.89 936.14 1052.5 936.40 1053.34 935.73C1054.17 935.05 1055.67 933.31 1056.68 930.85C1057.68 928.37 1058.28 924.91 1057.69 924.14Z"
    fill="#FF9900" /><path fill-rule="evenodd" clip-rule="evenodd"
    d="M1030.15 900.57C1030.15 904.17 1030.25 907.18 1028.42 910.39C1026.95 912.99 1024.62 914.59 1022.01 914.59C1018.46 914.59 1016.39 911.88 1016.39 907.89C1016.39 899.99 1023.46 898.56 1030.15 898.56V900.57ZM1039.49 923.14C1038.88 923.69 1037.99 923.73 1037.3 923.36C1034.23 920.81 1033.68 919.62 1031.99 917.19C1026.91 922.37 1023.32 923.92 1016.73 923.92C1008.94 923.92 1002.87 919.11 1002.87 909.49C1002.87 901.97 1006.94 896.85 1012.74 894.35C1017.77 892.14 1024.79 891.75 1030.15 891.14V889.94C1030.15 887.74 1030.32 885.13 1029.03 883.23C1027.9 881.52 1025.74 880.82 1023.84 880.82C1020.31 880.82 1017.15 882.63 1016.39 886.38C1016.23 887.22 1015.62 888.04 1014.78 888.08L1005.8 887.11C1005.04 886.94 1004.21 886.33 1004.42 885.17C1006.49 874.28 1016.32 871 1025.13 871C1029.63 871 1035.52 872.20 1039.08 875.61C1043.58 879.82 1043.15 885.43 1043.15 891.54V905.97C1043.15 910.31 1044.95 912.21 1046.64 914.55C1047.24 915.39 1047.37 916.39 1046.62 917.02C1044.73 918.59 1041.37 921.52 1039.52 923.16L1039.49 923.14"
    fill="black" /><g clip-path="url(#clip1_234_4)"><path
      d="M1158 921.49C1167.66 921.49 1175.5 913.66 1175.5 903.99C1175.5 894.33 1167.66 886.49 1158 886.49C1148.34 886.49 1140.5 894.33 1140.5 903.99C1140.5 913.66 1148.34 921.49 1158 921.49Z"
      fill="white" /><path
      d="M1158 886.5H1188.31C1185.23 881.18 1180.82 876.76 1175.5 873.69C1170.18 870.62 1164.14 869 1158 869C1151.85 869 1145.82 870.62 1140.5 873.69C1135.18 876.76 1130.76 881.18 1127.69 886.50L1142.84 912.75L1142.86 912.75C1141.32 910.09 1140.5 907.07 1140.5 904.00C1140.5 900.92 1141.3 897.91 1142.84 895.24C1144.37 892.58 1146.58 890.37 1149.25 888.84C1151.91 887.30 1154.93 886.50 1158 886.5Z"
      fill="url(#paint2_linear_234_4)" /><path
      d="M1158 917.85C1165.65 917.85 1171.85 911.65 1171.85 904C1171.85 896.35 1165.65 890.15 1158 890.15C1150.35 890.15 1144.15 896.35 1144.15 904C1144.15 911.65 1150.35 917.85 1158 917.85Z"
      fill="#1A73E8" /><path
      d="M1173.15 912.75L1158 939C1164.14 939.00 1170.18 937.38 1175.5 934.31C1180.82 931.24 1185.24 926.82 1188.31 921.50C1191.38 916.18 1193 910.15 1193 904.00C1193 897.86 1191.38 891.82 1188.3 886.50H1158L1157.99 886.52C1161.07 886.51 1164.09 887.32 1166.75 888.85C1169.41 890.38 1171.62 892.59 1173.16 895.25C1174.7 897.91 1175.51 900.93 1175.51 904.00C1175.51 907.08 1174.69 910.10 1173.15 912.75Z"
      fill="url(#paint3_linear_234_4)" /><path
      d="M1142.85 912.75L1127.69 886.51C1124.62 891.83 1123 897.86 1123 904.01C1123 910.15 1124.62 916.19 1127.69 921.51C1130.76 926.83 1135.18 931.24 1140.5 934.32C1145.82 937.39 1151.86 939.00 1158 939L1173.16 912.75L1173.15 912.74C1171.62 915.41 1169.41 917.62 1166.75 919.16C1164.09 920.7 1161.07 921.51 1158 921.51C1154.93 921.51 1151.91 920.70 1149.25 919.17C1146.59 917.63 1144.38 915.42 1142.85 912.75Z"
      fill="url(#paint4_linear_234_4)" /></g><g clip-path="url(#clip2_234_4)"><path
      d="M770.93 879.93C769.79 875.63 766.44 872.24 762.18 871.09C754.46 869 723.5 869 723.5 869C723.5 869 692.54 869 684.82 871.09C680.56 872.24 677.21 875.63 676.07 879.93C674 887.73 674 904 674 904C674 904 674 920.27 676.07 928.07C677.21 932.37 680.56 935.76 684.82 936.91C692.54 939 723.5 939 723.5 939C723.5 939 754.46 939 762.18 936.91C766.44 935.76 769.79 932.37 770.93 928.07C773 920.27 773 904 773 904C773 904 773 887.73 770.93 879.93Z"
      fill="#ED1D24" /><path d="M713.38 918.77L739.25 904.00L713.38 889.23V918.77Z" fill="white" /></g><g clip-path="url(#clip3_234_4)"><g clip-path="url(#clip4_234_4)"><path
        d="M910.81 885.30C910.81 882.97 908.93 881.10 906.62 881.10C904.3 881.10 902.41 882.97 902.41 885.30C902.41 887.61 904.3 889.49 906.62 889.49C908.93 889.49 910.81 887.61 910.81 885.30Z"
        fill="url(#paint5_linear_234_4)" /><path
        d="M916.41 918.08C916.25 921.49 915.68 923.34 915.21 924.57C914.57 926.20 913.81 927.37 912.58 928.59C911.37 929.81 910.20 930.57 908.57 931.20C907.34 931.68 905.48 932.25 902.07 932.41C898.39 932.58 897.30 932.61 887.95 932.61C878.62 932.61 877.52 932.58 873.83 932.41C870.42 932.25 868.57 931.68 867.34 931.20C865.70 930.57 864.54 929.81 863.32 928.59C862.09 927.37 861.33 926.20 860.71 924.57C860.23 923.34 859.65 921.49 859.51 918.08C859.33 914.39 859.29 913.29 859.29 903.96C859.29 894.62 859.33 893.52 859.51 889.83C859.65 886.42 860.23 884.57 860.71 883.33C861.33 881.70 862.09 880.54 863.32 879.32C864.54 878.10 865.70 877.34 867.34 876.71C868.57 876.22 870.42 875.66 873.83 875.50C877.52 875.34 878.62 875.29 887.95 875.29C897.30 875.29 898.39 875.34 902.07 875.50C905.48 875.66 907.34 876.22 908.57 876.71C910.20 877.34 911.37 878.10 912.58 879.32C913.81 880.54 914.57 881.70 915.21 883.33C915.68 884.57 916.25 886.42 916.41 889.83C916.58 893.52 916.62 894.62 916.62 903.96C916.62 913.29 916.58 914.39 916.41 918.08ZM922.7 889.54C922.53 885.82 921.94 883.27 921.07 881.06C920.18 878.76 918.99 876.81 917.04 874.86C915.10 872.92 913.15 871.73 910.85 870.83C908.63 869.97 906.09 869.38 902.37 869.21C898.64 869.03 897.45 869 887.95 869C878.46 869 877.26 869.03 873.54 869.21C869.82 869.38 867.28 869.97 865.05 870.83C862.76 871.73 860.81 872.92 858.87 874.86C856.92 876.81 855.73 878.76 854.84 881.06C853.97 883.27 853.38 885.82 853.20 889.54C853.04 893.27 853 894.46 853 903.96C853 913.45 853.04 914.64 853.20 918.37C853.38 922.08 853.97 924.63 854.84 926.85C855.73 929.14 856.92 931.10 858.87 933.04C860.81 934.98 862.76 936.18 865.05 937.08C867.28 937.94 869.82 938.53 873.54 938.7C877.26 938.87 878.46 938.91 887.95 938.91C897.45 938.91 898.64 938.87 902.37 938.7C906.09 938.53 908.63 937.94 910.85 937.08C913.15 936.18 915.10 934.98 917.04 933.04C918.99 931.10 920.18 929.14 921.07 926.85C921.94 924.63 922.53 922.08 922.7 918.37C922.87 914.64 922.91 913.45 922.91 903.96C922.91 894.46 922.87 893.27 922.7 889.54Z"
        fill="url(#paint6_linear_234_4)" /><path
        d="M887.95 915.60C881.52 915.60 876.30 910.39 876.30 903.96C876.30 897.52 881.52 892.30 887.95 892.30C894.39 892.30 899.61 897.52 899.61 903.96C899.61 910.39 894.39 915.60 887.95 915.60ZM887.95 886.00C878.04 886.00 870.01 894.05 870.01 903.96C870.01 913.87 878.04 921.90 887.95 921.90C897.87 921.90 905.90 913.87 905.90 903.96C905.90 894.05 897.87 886.00 887.95 886.00Z"
        fill="url(#paint7_linear_234_4)" /></g></g><defs><filter id="filter0_f_234_4" x="1254.17" y="867.25" width="82.67" height="79.73" filterUnits="userSpaceOnUse"
      color-interpolation-filters="sRGB"><feFlood flood-opacity="0" result="BackgroundImageFix" /><feBlend mode="normal" in="SourceGraphic" in2="BackgroundImageFix" result="shape" /><feGaussianBlur stdDeviation="4.48" result="effect1_foregroundBlur_234_4" /></filter><filter id="filter1_f_234_4" x="1273.79" y="883.93" width="45.43" height="43.71" filterUnits="userSpaceOnUse"
      color-interpolation-filters="sRGB"><feFlood flood-opacity="0" result="BackgroundImageFix" /><feBlend mode="normal" in="SourceGraphic" in2="BackgroundImageFix" result="shape" /><feGaussianBlur stdDeviation="1.27" result="effect1_foregroundBlur_234_4" /></filter><linearGradient id="paint0_linear_234_4" x1="1295.5" y1="937.71" x2="1295.5" y2="871.06"
      gradientUnits="userSpaceOnUse"><stop stop-color="#BDBDBD" /><stop offset="1" stop-color="white" /></linearGradient><radialGradient id="paint1_radial_234_4" cx="0" cy="0" r="1" gradientUnits="userSpaceOnUse"
      gradientTransform="translate(1295.64 899.90) scale(33.61 33.32)"><stop stop-color="#06C2E7" /><stop offset="0.25" stop-color="#0DB8EC" /><stop offset="0.5" stop-color="#12AEF1" /><stop offset="0.75" stop-color="#1F86F9" /><stop offset="1" stop-color="#107DDD" /></radialGradient><linearGradient id="paint2_linear_234_4" x1="1127.69" y1="890.88" x2="1188.31" y2="890.88"
      gradientUnits="userSpaceOnUse"><stop stop-color="#D93025" /><stop offset="1" stop-color="#EA4335" /></linearGradient><linearGradient id="paint3_linear_234_4" x1="1153.22" y1="938.53" x2="1183.53" y2="886.04"
      gradientUnits="userSpaceOnUse"><stop stop-color="#FCC934" /><stop offset="1" stop-color="#FBBC04" /></linearGradient><linearGradient id="paint4_linear_234_4" x1="1161.79" y1="936.82" x2="1131.48" y2="884.32"
      gradientUnits="userSpaceOnUse"><stop stop-color="#1E8E3E" /><stop offset="1" stop-color="#34A853" /></linearGradient><linearGradient id="paint5_linear_234_4" x1="853.63" y1="938.19" x2="917.09" y2="874.73"
      gradientUnits="userSpaceOnUse"><stop stop-color="#FFD521" /><stop offset="0.05" stop-color="#FFD521" /><stop offset="0.50" stop-color="#F50000" /><stop offset="0.95" stop-color="#B900B4" /><stop offset="0.95" stop-color="#B900B4" /><stop offset="1" stop-color="#B900B4" /></linearGradient><linearGradient id="paint6_linear_234_4" x1="853.63" y1="938.28" x2="917.14" y2="874.77"
      gradientUnits="userSpaceOnUse"><stop stop-color="#FFD521" /><stop offset="0.05" stop-color="#FFD521" /><stop offset="0.50" stop-color="#F50000" /><stop offset="0.95" stop-color="#B900B4" /><stop offset="0.95" stop-color="#B900B4" /><stop offset="1" stop-color="#B900B4" /></linearGradient><linearGradient id="paint7_linear_234_4" x1="853.65" y1="938.28" x2="917.14" y2="874.78"
      gradientUnits="userSpaceOnUse"><stop stop-color="#FFD521" /><stop offset="0.05" stop-color="#FFD521" /><stop offset="0.50" stop-color="#F50000" /><stop offset="0.95" stop-color="#B900B4" /><stop offset="0.95" stop-color="#B900B4" /><stop offset="1" stop-color="#B900B4" /></linearGradient><clipPath id="clip0_234_4"><rect width="71" height="70" fill="white" transform="translate(1260 871)" /></clipPath><clipPath id="clip1_234_4"><rect width="70" height="70" fill="white" transform="translate(1123 869)" /></clipPath><clipPath id="clip2_234_4"><rect width="99" height="70" fill="white" transform="translate(674 869)" /></clipPath><clipPath id="clip3_234_4"><rect width="70" height="70" fill="white" transform="translate(853 869)" /></clipPath><clipPath id="clip4_234_4"><rect width="70" height="70" fill="white" transform="translate(853 869)" /></clipPath></defs></svg>