<svg width="1471" height="1043" viewBox="0 0 1471 1043" fill="none" xmlns="http://www.w3.org/2000/svg"><rect width="1471" height="1043" fill="white" /><path d="M299 318C299 428 310.5 495 397.5 495" stroke="#3971FF" stroke-width="8" /><rect x="51" y="53" width="563" height="253" rx="35" fill="#E7EEFF" stroke="#E7EEFF" stroke-width="10" /><path
    d="M261.48 172.12C261.48 172.87 262.03 173.47 263.13 173.91C264.22 174.33 265.58 174.62 267.21 174.79C268.83 174.96 270.61 175.22 272.54 175.58C274.46 175.94 276.24 176.39 277.86 176.92C279.49 177.45 280.85 178.33 281.94 179.55C283.04 180.78 283.59 182.30 283.59 184.11C283.59 187.09 282.06 189.46 279.00 191.21C275.94 192.94 271.97 193.8 267.09 193.8C262.10 193.8 258.02 192.94 254.85 191.21C251.67 189.48 249.80 186.93 249.24 183.56H261.42C261.61 184.76 262.22 185.69 263.24 186.36C264.26 187.00 265.58 187.32 267.21 187.32C270.23 187.32 271.74 186.60 271.74 185.15C271.74 184.51 271.32 183.98 270.49 183.56C269.7 183.12 268.64 182.77 267.32 182.52C266.04 182.27 264.60 182.03 263.01 181.81C261.46 181.59 259.89 181.28 258.31 180.89C256.76 180.50 255.32 180.01 254.00 179.43C252.71 178.84 251.66 178.01 250.82 176.92C250.03 175.83 249.63 174.54 249.63 173.03C249.63 170.33 251.05 168.12 253.88 166.39C256.72 164.66 260.61 163.8 265.56 163.8C270.06 163.8 273.88 164.62 277.01 166.26C280.15 167.91 281.96 170.36 282.45 173.62H270.10C269.57 171.39 267.89 170.28 265.05 170.28C263.99 170.28 263.13 170.44 262.44 170.78C261.80 171.11 261.48 171.56 261.48 172.12Z"
    fill="#08272E" /><path
    d="M199.34 193.01V164.59H214.31L220.54 178.8L222.47 184.11L224.4 178.8L230.63 164.59H245.26V193.01H233.70L234.43 174.16L231.43 181.89L226.50 193.01H218.11L213.06 181.72L210.17 174.25L210.91 193.01H199.34Z"
    fill="#08272E" /><path
    d="M147.75 193.01V164.59H162.72L168.95 178.8L170.88 184.11L172.81 178.8L179.04 164.59H193.67V193.01H182.10L182.84 174.16L179.84 181.89L174.90 193.01H166.51L161.47 181.72L158.58 174.25L159.32 193.01H147.75Z"
    fill="#08272E" /><path d="M130.54 193.01V164.59H142.1V193.01H130.54Z" fill="#08272E" /><path
    d="M94 193.01V164.59H110.21C115.24 164.59 119.17 165.47 122.00 167.23C124.88 168.95 126.31 171.38 126.31 174.50C126.31 177.62 124.88 180.05 122.00 181.81C119.17 183.53 115.28 184.40 110.33 184.40H105.56V193.01H94ZM109.98 171.28H105.56V177.71H109.70C112.88 177.71 114.46 176.64 114.46 174.50C114.46 172.35 112.97 171.28 109.98 171.28Z"
    fill="#08272E" /><path
    d="M97.66 136V104H103.45V131.14H117.55V136H97.66ZM122.33 136V112H127.98V136H122.33ZM125.17 108.59C124.28 108.59 123.50 108.30 122.86 107.70C122.21 107.10 121.89 106.38 121.89 105.53C121.89 104.68 122.21 103.95 122.86 103.36C123.50 102.75 124.28 102.45 125.17 102.45C126.08 102.45 126.85 102.75 127.48 103.36C128.13 103.95 128.45 104.68 128.45 105.53C128.45 106.38 128.13 107.10 127.48 107.70C126.85 108.30 126.08 108.59 125.17 108.59ZM144.43 136.47C142.02 136.47 139.94 135.97 138.19 134.97C136.45 133.96 135.11 132.53 134.18 130.69C133.24 128.83 132.77 126.65 132.77 124.14C132.77 121.67 133.24 119.50 134.18 117.64C135.12 115.77 136.45 114.31 138.15 113.27C139.84 112.21 141.84 111.69 144.13 111.69C145.61 111.69 147.00 111.93 148.32 112.41C149.64 112.88 150.81 113.60 151.82 114.59C152.84 115.58 153.64 116.84 154.22 118.38C154.81 119.90 155.10 121.71 155.10 123.81V125.55H135.43V121.73H149.68C149.66 120.65 149.43 119.69 148.97 118.84C148.51 117.99 147.87 117.32 147.05 116.83C146.24 116.34 145.29 116.09 144.21 116.09C143.05 116.09 142.03 116.38 141.16 116.94C140.28 117.49 139.60 118.22 139.11 119.13C138.63 120.02 138.39 121.00 138.38 122.08V125.41C138.38 126.80 138.63 128 139.15 129C139.66 129.99 140.37 130.75 141.28 131.28C142.20 131.80 143.28 132.06 144.50 132.06C145.33 132.06 146.07 131.95 146.74 131.72C147.41 131.48 147.98 131.13 148.47 130.67C148.96 130.21 149.33 129.65 149.58 128.97L154.86 129.56C154.53 130.96 153.90 132.18 152.96 133.22C152.03 134.25 150.84 135.05 149.40 135.63C147.95 136.19 146.29 136.47 144.43 136.47ZM165.54 121.94V136H159.88V112H165.29V116.08H165.57C166.12 114.73 167.00 113.67 168.21 112.88C169.43 112.08 170.94 111.69 172.73 111.69C174.38 111.69 175.83 112.04 177.06 112.75C178.29 113.46 179.25 114.48 179.93 115.83C180.62 117.17 180.96 118.80 180.94 120.72V136H175.29V121.59C175.29 119.99 174.87 118.73 174.04 117.83C173.22 116.92 172.08 116.47 170.62 116.47C169.63 116.47 168.75 116.69 167.98 117.13C167.22 117.55 166.62 118.17 166.18 118.98C165.75 119.80 165.54 120.78 165.54 121.94Z"
    fill="#08272E" /><path
    d="M96.91 269V236H102.47V239.97H102.80C103.09 239.38 103.5 238.77 104.03 238.11C104.56 237.44 105.28 236.88 106.19 236.41C107.09 235.93 108.25 235.69 109.66 235.69C111.51 235.69 113.18 236.16 114.67 237.11C116.17 238.05 117.36 239.44 118.23 241.28C119.12 243.12 119.56 245.37 119.56 248.03C119.56 250.67 119.13 252.91 118.27 254.75C117.40 256.59 116.22 258 114.73 258.97C113.25 259.94 111.56 260.42 109.67 260.42C108.30 260.42 107.16 260.19 106.25 259.73C105.34 259.28 104.61 258.72 104.06 258.08C103.52 257.42 103.10 256.80 102.80 256.22H102.56V269H96.91ZM102.45 248C102.45 249.55 102.67 250.91 103.11 252.08C103.56 253.25 104.20 254.16 105.03 254.81C105.88 255.46 106.90 255.78 108.09 255.78C109.34 255.78 110.39 255.45 111.23 254.78C112.08 254.10 112.71 253.18 113.14 252.02C113.58 250.84 113.80 249.5 113.80 248C113.80 246.51 113.58 245.19 113.16 244.03C112.73 242.88 112.09 241.97 111.25 241.31C110.41 240.66 109.35 240.33 108.09 240.33C106.89 240.33 105.86 240.65 105.02 241.28C104.17 241.92 103.53 242.81 103.09 243.95C102.67 245.10 102.45 246.45 102.45 248ZM124.41 260V236H130.06V260H124.41ZM127.25 232.59C126.35 232.59 125.58 232.30 124.94 231.70C124.29 231.10 123.97 230.38 123.97 229.53C123.97 228.68 124.29 227.95 124.94 227.36C125.58 226.75 126.35 226.45 127.25 226.45C128.16 226.45 128.93 226.75 129.56 227.36C130.21 227.95 130.53 228.68 130.53 229.53C130.53 230.38 130.21 231.10 129.56 231.70C128.93 232.30 128.16 232.59 127.25 232.59ZM135.88 260V236H141.28V240.08H141.57C142.07 238.70 142.90 237.63 144.05 236.86C145.21 236.08 146.59 235.69 148.19 235.69C149.82 235.69 151.19 236.08 152.30 236.88C153.43 237.66 154.22 238.72 154.68 240.08H154.93C155.46 238.75 156.35 237.68 157.61 236.89C158.88 236.09 160.39 235.69 162.13 235.69C164.34 235.69 166.14 236.38 167.53 237.78C168.93 239.18 169.63 241.21 169.63 243.89V260H163.96V244.77C163.96 243.28 163.56 242.19 162.77 241.5C161.98 240.80 161.01 240.45 159.86 240.45C158.50 240.45 157.43 240.88 156.66 241.73C155.9 242.58 155.52 243.68 155.52 245.03V260H149.97V244.53C149.97 243.29 149.60 242.30 148.85 241.56C148.11 240.82 147.14 240.45 145.94 240.45C145.13 240.45 144.39 240.66 143.72 241.08C143.06 241.48 142.53 242.06 142.13 242.81C141.73 243.55 141.53 244.42 141.53 245.41V260H135.88ZM178.85 260.34C177.90 260.34 177.09 260.01 176.41 259.34C175.74 258.68 175.40 257.87 175.41 256.91C175.40 255.97 175.74 255.17 176.41 254.5C177.09 253.83 177.90 253.5 178.85 253.5C179.77 253.5 180.56 253.83 181.24 254.5C181.93 255.17 182.28 255.97 182.29 256.91C182.28 257.54 182.11 258.12 181.79 258.64C181.48 259.16 181.06 259.58 180.54 259.89C180.03 260.19 179.47 260.34 178.85 260.34ZM188.13 260V236H193.53V240.08H193.82C194.32 238.70 195.15 237.63 196.30 236.86C197.46 236.08 198.84 235.69 200.44 235.69C202.07 235.69 203.44 236.08 204.55 236.88C205.68 237.66 206.47 238.72 206.93 240.08H207.18C207.71 238.75 208.60 237.68 209.86 236.89C211.13 236.09 212.64 235.69 214.38 235.69C216.59 235.69 218.39 236.38 219.78 237.78C221.18 239.18 221.88 241.21 221.88 243.89V260H216.21V244.77C216.21 243.28 215.81 242.19 215.02 241.5C214.23 240.80 213.26 240.45 212.11 240.45C210.75 240.45 209.68 240.88 208.91 241.73C208.15 242.58 207.77 243.68 207.77 245.03V260H202.22V244.53C202.22 243.29 201.85 242.30 201.10 241.56C200.36 240.82 199.39 240.45 198.19 240.45C197.38 240.45 196.64 240.66 195.97 241.08C195.31 241.48 194.78 242.06 194.38 242.81C193.98 243.55 193.78 244.42 193.78 245.41V260H188.13ZM246.59 242.34L241.43 242.91C241.28 242.38 241.03 241.90 240.66 241.44C240.31 240.98 239.83 240.61 239.23 240.33C238.62 240.05 237.88 239.91 237.01 239.91C235.83 239.91 234.84 240.16 234.04 240.67C233.25 241.18 232.86 241.84 232.87 242.66C232.86 243.35 233.11 243.92 233.63 244.36C234.16 244.80 235.04 245.16 236.26 245.44L240.35 246.31C242.62 246.80 244.31 247.58 245.41 248.64C246.53 249.70 247.09 251.09 247.10 252.81C247.09 254.32 246.65 255.66 245.77 256.81C244.91 257.96 243.71 258.85 242.16 259.5C240.62 260.15 238.85 260.47 236.85 260.47C233.91 260.47 231.55 259.85 229.76 258.63C227.97 257.38 226.90 255.66 226.56 253.45L232.07 252.92C232.32 254.00 232.85 254.82 233.66 255.38C234.48 255.93 235.53 256.20 236.84 256.20C238.18 256.20 239.26 255.93 240.07 255.38C240.89 254.82 241.31 254.14 241.31 253.33C241.31 252.64 241.04 252.07 240.51 251.63C239.99 251.18 239.17 250.83 238.07 250.59L233.98 249.73C231.67 249.25 229.97 248.45 228.87 247.31C227.76 246.17 227.22 244.72 227.23 242.97C227.22 241.49 227.62 240.21 228.43 239.13C229.25 238.03 230.39 237.19 231.85 236.59C233.32 235.99 235.01 235.69 236.93 235.69C239.74 235.69 241.96 236.29 243.57 237.48C245.19 238.68 246.20 240.30 246.59 242.34ZM264.83 226.5L254.52 264.81H249.56L259.88 226.5H264.83ZM274.09 228V260H268.44V228H274.09ZM279.91 260V236H285.57V260H279.91ZM282.75 232.59C281.86 232.59 281.09 232.30 280.44 231.70C279.80 231.10 279.47 230.38 279.47 229.53C279.47 228.68 279.80 227.95 280.44 227.36C281.09 226.75 281.86 226.45 282.75 226.45C283.66 226.45 284.43 226.75 285.07 227.36C285.71 227.95 286.04 228.68 286.04 229.53C286.04 230.38 285.71 231.10 285.07 231.70C284.43 232.30 283.66 232.59 282.75 232.59ZM302.01 260.47C299.60 260.47 297.52 259.97 295.77 258.97C294.03 257.96 292.69 256.53 291.76 254.69C290.82 252.83 290.35 250.65 290.35 248.14C290.35 245.67 290.82 243.50 291.76 241.64C292.71 239.77 294.03 238.31 295.73 237.27C297.42 236.21 299.42 235.69 301.71 235.69C303.19 235.69 304.59 235.93 305.90 236.41C307.22 236.88 308.39 237.60 309.40 238.59C310.42 239.58 311.22 240.84 311.81 242.38C312.39 243.90 312.68 245.71 312.68 247.81V249.55H293.01V245.73H307.26C307.25 244.65 307.01 243.69 306.56 242.84C306.10 241.99 305.46 241.32 304.63 240.83C303.82 240.34 302.87 240.09 301.79 240.09C300.63 240.09 299.62 240.38 298.74 240.94C297.87 241.49 297.19 242.22 296.69 243.13C296.22 244.02 295.97 245.00 295.96 246.08V249.41C295.96 250.80 296.22 252 296.73 253C297.24 253.99 297.95 254.75 298.87 255.28C299.78 255.80 300.86 256.06 302.09 256.06C302.91 256.06 303.65 255.95 304.32 255.72C304.99 255.48 305.56 255.13 306.06 254.67C306.54 254.21 306.91 253.65 307.16 252.97L312.44 253.56C312.11 254.96 311.48 256.18 310.54 257.22C309.61 258.25 308.42 259.05 306.98 259.63C305.53 260.19 303.87 260.47 302.01 260.47ZM323.12 245.94V260H317.46V236H322.87V240.08H323.15C323.70 238.73 324.58 237.67 325.79 236.88C327.01 236.08 328.52 235.69 330.31 235.69C331.96 235.69 333.41 236.04 334.64 236.75C335.88 237.46 336.83 238.48 337.51 239.83C338.20 241.17 338.54 242.80 338.53 244.72V260H332.87V245.59C332.87 243.99 332.45 242.73 331.62 241.83C330.80 240.92 329.66 240.47 328.20 240.47C327.21 240.47 326.33 240.69 325.56 241.13C324.80 241.55 324.20 242.17 323.76 242.98C323.33 243.80 323.12 244.78 323.12 245.94ZM358.82 244.34V249H344.42V244.34H358.82ZM364.77 260V236H370.26V240H370.51C370.94 238.62 371.69 237.55 372.76 236.80C373.83 236.04 375.06 235.66 376.43 235.66C376.74 235.66 377.09 235.67 377.48 235.70C377.87 235.72 378.20 235.76 378.46 235.81V241.02C378.22 240.93 377.84 240.86 377.32 240.80C376.81 240.72 376.31 240.69 375.84 240.69C374.81 240.69 373.88 240.91 373.06 241.36C372.24 241.80 371.60 242.41 371.13 243.19C370.66 243.97 370.43 244.87 370.43 245.89V260H364.77ZM388.69 260.48C387.17 260.48 385.81 260.21 384.59 259.67C383.38 259.12 382.42 258.31 381.71 257.23C381.01 256.16 380.66 254.84 380.66 253.27C380.66 251.91 380.91 250.79 381.41 249.91C381.91 249.02 382.60 248.31 383.46 247.78C384.33 247.25 385.30 246.85 386.38 246.58C387.48 246.30 388.61 246.09 389.77 245.97C391.18 245.82 392.32 245.69 393.19 245.58C394.07 245.45 394.71 245.27 395.10 245.02C395.51 244.75 395.71 244.35 395.71 243.81V243.72C395.71 242.54 395.36 241.63 394.66 240.98C393.97 240.34 392.96 240.02 391.65 240.02C390.26 240.02 389.16 240.32 388.35 240.92C387.55 241.53 387.01 242.24 386.73 243.06L381.44 242.31C381.86 240.85 382.55 239.63 383.51 238.66C384.47 237.67 385.64 236.93 387.02 236.44C388.41 235.94 389.94 235.69 391.62 235.69C392.77 235.69 393.92 235.82 395.07 236.09C396.22 236.37 397.26 236.81 398.21 237.44C399.16 238.05 399.92 238.89 400.49 239.95C401.08 241.02 401.37 242.34 401.37 243.94V260H395.93V256.70H395.74C395.40 257.37 394.91 258.00 394.29 258.58C393.67 259.15 392.90 259.62 391.96 259.97C391.03 260.31 389.94 260.48 388.69 260.48ZM390.16 256.33C391.30 256.33 392.28 256.10 393.12 255.66C393.95 255.20 394.59 254.59 395.04 253.84C395.50 253.09 395.73 252.28 395.73 251.39V248.56C395.55 248.71 395.25 248.84 394.82 248.97C394.40 249.09 393.94 249.20 393.41 249.30C392.89 249.39 392.38 249.47 391.87 249.55C391.36 249.62 390.91 249.68 390.54 249.73C389.69 249.85 388.94 250.04 388.27 250.30C387.61 250.56 387.08 250.92 386.69 251.39C386.31 251.85 386.12 252.44 386.12 253.17C386.12 254.21 386.50 255 387.26 255.53C388.02 256.06 388.99 256.33 390.16 256.33ZM417.52 260.47C415.13 260.47 413.07 259.94 411.35 258.89C409.64 257.84 408.33 256.38 407.40 254.53C406.48 252.67 406.02 250.52 406.02 248.09C406.02 245.66 406.49 243.50 407.43 241.64C408.37 239.77 409.69 238.31 411.40 237.27C413.12 236.21 415.15 235.69 417.49 235.69C419.44 235.69 421.16 236.05 422.66 236.77C424.17 237.47 425.38 238.48 426.27 239.78C427.17 241.07 427.68 242.58 427.81 244.31H422.40C422.18 243.16 421.66 242.19 420.84 241.42C420.02 240.64 418.94 240.25 417.57 240.25C416.41 240.25 415.40 240.56 414.52 241.19C413.65 241.80 412.97 242.69 412.48 243.84C412.00 245 411.76 246.38 411.76 248C411.76 249.63 412.00 251.04 412.48 252.22C412.96 253.38 413.63 254.29 414.49 254.92C415.37 255.55 416.39 255.86 417.57 255.86C418.40 255.86 419.15 255.70 419.81 255.39C420.47 255.07 421.03 254.60 421.48 254C421.92 253.40 422.23 252.66 422.40 251.80H427.81C427.67 253.50 427.17 255 426.31 256.31C425.44 257.62 424.26 258.63 422.77 259.38C421.28 260.10 419.53 260.47 417.52 260.47ZM442.92 260.47C440.52 260.47 438.46 259.94 436.75 258.89C435.04 257.84 433.72 256.38 432.79 254.53C431.88 252.67 431.42 250.52 431.42 248.09C431.42 245.66 431.89 243.50 432.82 241.64C433.76 239.77 435.08 238.31 436.79 237.27C438.51 236.21 440.54 235.69 442.89 235.69C444.83 235.69 446.56 236.05 448.06 236.77C449.57 237.47 450.77 238.48 451.67 239.78C452.56 241.07 453.07 242.58 453.20 244.31H447.79C447.57 243.16 447.05 242.19 446.23 241.42C445.42 240.64 444.33 240.25 442.96 240.25C441.81 240.25 440.79 240.56 439.92 241.19C439.04 241.80 438.36 242.69 437.87 243.84C437.39 245 437.15 246.38 437.15 248C437.15 249.63 437.39 251.04 437.87 252.22C438.35 253.38 439.02 254.29 439.89 254.92C440.76 255.55 441.79 255.86 442.96 255.86C443.80 255.86 444.54 255.70 445.20 255.39C445.87 255.07 446.42 254.60 446.87 254C447.32 253.40 447.63 252.66 447.79 251.80H453.20C453.06 253.50 452.56 255 451.70 256.31C450.83 257.62 449.66 258.63 448.17 259.38C446.68 260.10 444.93 260.47 442.92 260.47ZM468.31 260.47C465.97 260.47 463.94 259.95 462.22 258.92C460.5 257.89 459.17 256.45 458.22 254.59C457.28 252.74 456.81 250.57 456.81 248.09C456.81 245.62 457.28 243.44 458.22 241.58C459.17 239.71 460.5 238.27 462.22 237.23C463.94 236.20 465.97 235.69 468.31 235.69C470.66 235.69 472.69 236.20 474.41 237.23C476.13 238.27 477.45 239.71 478.39 241.58C479.34 243.44 479.81 245.62 479.81 248.09C479.81 250.57 479.34 252.74 478.39 254.59C477.45 256.45 476.13 257.89 474.41 258.92C472.69 259.95 470.66 260.47 468.31 260.47ZM468.34 255.94C469.62 255.94 470.68 255.59 471.53 254.89C472.38 254.18 473.02 253.23 473.44 252.05C473.87 250.86 474.08 249.54 474.08 248.08C474.08 246.61 473.87 245.28 473.44 244.09C473.02 242.90 472.38 241.94 471.53 241.23C470.68 240.53 469.62 240.17 468.34 240.17C467.04 240.17 465.96 240.53 465.09 241.23C464.24 241.94 463.60 242.90 463.17 244.09C462.75 245.28 462.55 246.61 462.55 248.08C462.55 249.54 462.75 250.86 463.17 252.05C463.60 253.23 464.24 254.18 465.09 254.89C465.96 255.59 467.04 255.94 468.34 255.94ZM499.91 249.91V236H505.57V260H500.08V255.73H499.83C499.29 257.08 498.4 258.18 497.16 259.03C495.93 259.88 494.42 260.31 492.61 260.31C491.04 260.31 489.65 259.96 488.44 259.27C487.24 258.56 486.31 257.53 485.63 256.19C484.95 254.83 484.61 253.20 484.61 251.28V236H490.27V250.41C490.27 251.93 490.69 253.13 491.52 254.03C492.35 254.93 493.45 255.38 494.80 255.38C495.63 255.38 496.44 255.17 497.22 254.77C498.00 254.36 498.64 253.75 499.14 252.95C499.65 252.14 499.91 251.13 499.91 249.91ZM511.38 260V236H516.87V240H517.12C517.55 238.62 518.30 237.55 519.37 236.80C520.44 236.04 521.66 235.66 523.04 235.66C523.35 235.66 523.70 235.67 524.09 235.70C524.48 235.72 524.81 235.76 525.07 235.81V241.02C524.83 240.93 524.45 240.86 523.93 240.80C523.42 240.72 522.92 240.69 522.45 240.69C521.41 240.69 520.49 240.91 519.66 241.36C518.85 241.80 518.21 242.41 517.74 243.19C517.27 243.97 517.04 244.87 517.04 245.89V260H511.38ZM538.31 260.47C535.91 260.47 533.86 259.94 532.14 258.89C530.43 257.84 529.11 256.38 528.18 254.53C527.27 252.67 526.81 250.52 526.81 248.09C526.81 245.66 527.28 243.50 528.22 241.64C529.15 239.77 530.48 238.31 532.18 237.27C533.90 236.21 535.93 235.69 538.28 235.69C540.23 235.69 541.95 236.05 543.45 236.77C544.96 237.47 546.16 238.48 547.06 239.78C547.95 241.07 548.47 242.58 548.59 244.31H543.18C542.97 243.16 542.44 242.19 541.62 241.42C540.81 240.64 539.72 240.25 538.36 240.25C537.20 240.25 536.18 240.56 535.31 241.19C534.43 241.80 533.75 242.69 533.26 243.84C532.78 245 532.54 246.38 532.54 248C532.54 249.63 532.78 251.04 533.26 252.22C533.74 253.38 534.41 254.29 535.28 254.92C536.15 255.55 537.18 255.86 538.36 255.86C539.19 255.86 539.93 255.70 540.59 255.39C541.26 255.07 541.81 254.60 542.26 254C542.71 253.40 543.02 252.66 543.18 251.80H548.59C548.45 253.50 547.95 255 547.09 256.31C546.23 257.62 545.05 258.63 543.56 259.38C542.07 260.10 540.32 260.47 538.31 260.47ZM553.23 260V236H558.89V260H553.23ZM556.08 232.59C555.18 232.59 554.41 232.30 553.77 231.70C553.12 231.10 552.80 230.38 552.80 229.53C552.80 228.68 553.12 227.95 553.77 227.36C554.41 226.75 555.18 226.45 556.08 226.45C556.98 226.45 557.75 226.75 558.39 227.36C559.04 227.95 559.36 228.68 559.36 229.53C559.36 230.38 559.04 231.10 558.39 231.70C557.75 232.30 556.98 232.59 556.08 232.59Z"
    fill="#08272E" /><rect x="409" y="422" width="547" height="158" rx="35" fill="white" stroke="#E7EEFF" stroke-width="10" /><path
    d="M543.71 494.91H537.07C536.88 493.82 536.53 492.85 536.02 492.01C535.51 491.16 534.88 490.44 534.12 489.85C533.37 489.25 532.50 488.81 531.53 488.51C530.57 488.21 529.54 488.05 528.42 488.05C526.45 488.05 524.70 488.55 523.17 489.54C521.64 490.53 520.45 491.97 519.58 493.88C518.72 495.77 518.29 498.08 518.29 500.82C518.29 503.6 518.72 505.94 519.58 507.85C520.46 509.74 521.65 511.18 523.17 512.15C524.70 513.11 526.44 513.59 528.41 513.59C529.50 513.59 530.51 513.44 531.46 513.16C532.42 512.86 533.28 512.43 534.04 511.86C534.80 511.29 535.45 510.60 535.97 509.77C536.50 508.94 536.87 507.99 537.07 506.93L543.71 506.96C543.46 508.69 542.92 510.31 542.10 511.83C541.28 513.34 540.21 514.68 538.88 515.84C537.56 516.99 536.01 517.89 534.23 518.54C532.46 519.18 530.48 519.50 528.32 519.50C525.12 519.50 522.27 518.76 519.76 517.28C517.25 515.80 515.27 513.66 513.83 510.87C512.38 508.07 511.66 504.72 511.66 500.82C511.66 496.9 512.39 493.55 513.85 490.77C515.30 487.98 517.29 485.84 519.79 484.36C522.30 482.88 525.15 482.14 528.32 482.14C530.34 482.14 532.22 482.42 533.96 482.99C535.71 483.56 537.25 484.39 538.62 485.50C539.98 486.58 541.10 487.92 541.97 489.51C542.86 491.08 543.44 492.88 543.71 494.91ZM555.89 482.64V519H549.46V482.64H555.89ZM562.50 519V491.73H568.92V519H562.50ZM565.73 487.86C564.71 487.86 563.84 487.52 563.10 486.84C562.37 486.16 562.00 485.33 562.00 484.38C562.00 483.41 562.37 482.58 563.10 481.91C563.84 481.22 564.71 480.88 565.73 480.88C566.76 480.88 567.63 481.22 568.36 481.91C569.09 482.58 569.46 483.41 569.46 484.38C569.46 485.33 569.09 486.16 568.36 486.84C567.63 487.52 566.76 487.86 565.73 487.86ZM587.43 519.53C584.71 519.53 582.37 518.93 580.42 517.74C578.48 516.54 576.98 514.89 575.93 512.79C574.88 510.67 574.36 508.23 574.36 505.47C574.36 502.7 574.90 500.26 575.96 498.14C577.03 496.01 578.53 494.35 580.47 493.17C582.42 491.97 584.73 491.37 587.40 491.37C589.61 491.37 591.57 491.78 593.27 492.60C594.99 493.40 596.36 494.55 597.37 496.02C598.39 497.49 598.97 499.21 599.12 501.17H592.97C592.72 499.86 592.13 498.76 591.20 497.89C590.27 497.00 589.03 496.56 587.49 496.56C586.17 496.56 585.02 496.91 584.02 497.62C583.03 498.32 582.25 499.33 581.70 500.64C581.15 501.95 580.88 503.53 580.88 505.36C580.88 507.22 581.15 508.82 581.70 510.16C582.24 511.48 583.00 512.51 583.99 513.23C584.98 513.94 586.15 514.29 587.49 514.29C588.43 514.29 589.28 514.12 590.02 513.76C590.78 513.39 591.41 512.87 591.92 512.18C592.43 511.50 592.78 510.66 592.97 509.68H599.12C598.96 511.61 598.39 513.32 597.41 514.81C596.43 516.29 595.09 517.45 593.40 518.29C591.70 519.12 589.72 519.53 587.43 519.53ZM634.18 507.53V491.73H640.61V519H634.37V514.15H634.09C633.47 515.68 632.46 516.93 631.05 517.90C629.66 518.87 627.93 519.36 625.89 519.36C624.10 519.36 622.52 518.96 621.14 518.16C619.78 517.36 618.72 516.20 617.95 514.67C617.18 513.13 616.79 511.27 616.79 509.09V491.73H623.22V508.10C623.22 509.83 623.70 511.20 624.64 512.22C625.59 513.24 626.83 513.74 628.37 513.74C629.32 513.74 630.24 513.51 631.12 513.05C632.01 512.59 632.74 511.90 633.31 510.99C633.89 510.07 634.18 508.92 634.18 507.53ZM660.83 491.73V496.70H645.15V491.73H660.83ZM649.03 485.19H655.45V510.80C655.45 511.66 655.58 512.32 655.84 512.79C656.12 513.24 656.47 513.54 656.91 513.71C657.35 513.88 657.83 513.96 658.37 513.96C658.77 513.96 659.13 513.93 659.47 513.87C659.81 513.81 660.07 513.76 660.25 513.71L661.33 518.73C660.99 518.85 660.50 518.98 659.86 519.12C659.23 519.27 658.46 519.35 657.55 519.37C655.94 519.42 654.49 519.18 653.20 518.64C651.91 518.1 650.88 517.26 650.13 516.12C649.38 514.99 649.01 513.57 649.03 511.86V485.19ZM666.21 519V491.73H672.64V519H666.21ZM669.44 487.86C668.42 487.86 667.55 487.52 666.81 486.84C666.08 486.16 665.71 485.33 665.71 484.38C665.71 483.41 666.08 482.58 666.81 481.91C667.55 481.22 668.42 480.88 669.44 480.88C670.47 480.88 671.35 481.22 672.07 481.91C672.80 482.58 673.17 483.41 673.17 484.38C673.17 485.33 672.80 486.16 672.07 486.84C671.35 487.52 670.47 487.86 669.44 487.86ZM685.67 482.64V519H679.25V482.64H685.67ZM692.28 519V491.73H698.71V519H692.28ZM695.51 487.86C694.50 487.86 693.62 487.52 692.89 486.84C692.15 486.16 691.79 485.33 691.79 484.38C691.79 483.41 692.15 482.58 692.89 481.91C693.62 481.22 694.50 480.88 695.51 480.88C696.54 480.88 697.42 481.22 698.14 481.91C698.88 482.58 699.24 483.41 699.24 484.38C699.24 485.33 698.88 486.16 698.14 486.84C697.42 487.52 696.54 487.86 695.51 487.86ZM726.88 498.94L721.02 499.57C720.85 498.98 720.56 498.43 720.15 497.91C719.74 497.38 719.20 496.96 718.51 496.65C717.83 496.33 716.99 496.17 715.99 496.17C714.65 496.17 713.53 496.46 712.62 497.04C711.72 497.62 711.27 498.37 711.29 499.29C711.27 500.08 711.56 500.73 712.16 501.23C712.76 501.72 713.75 502.13 715.14 502.45L719.79 503.45C722.37 504.00 724.29 504.88 725.54 506.09C726.81 507.30 727.45 508.88 727.46 510.83C727.45 512.55 726.95 514.06 725.95 515.38C724.97 516.68 723.60 517.70 721.85 518.43C720.10 519.17 718.09 519.53 715.81 519.53C712.48 519.53 709.79 518.83 707.75 517.44C705.72 516.03 704.50 514.07 704.11 511.56L710.38 510.96C710.66 512.19 711.27 513.12 712.19 513.74C713.12 514.37 714.32 514.68 715.80 514.68C717.32 514.68 718.55 514.37 719.47 513.74C720.41 513.12 720.87 512.34 720.87 511.42C720.87 510.64 720.57 509.99 719.97 509.48C719.38 508.97 718.45 508.58 717.20 508.31L712.55 507.33C709.93 506.79 708.00 505.87 706.74 504.58C705.49 503.28 704.86 501.63 704.88 499.65C704.86 497.96 705.32 496.51 706.24 495.28C707.18 494.04 708.48 493.08 710.13 492.40C711.80 491.71 713.72 491.37 715.90 491.37C719.10 491.37 721.61 492.05 723.45 493.41C725.29 494.77 726.44 496.62 726.88 498.94ZM740.61 519.55C738.88 519.55 737.33 519.24 735.94 518.63C734.57 518 733.48 517.08 732.67 515.86C731.88 514.64 731.48 513.13 731.48 511.35C731.48 509.81 731.77 508.54 732.34 507.53C732.90 506.52 733.68 505.72 734.66 505.12C735.64 504.51 736.75 504.06 737.98 503.75C739.23 503.43 740.51 503.20 741.84 503.06C743.43 502.89 744.73 502.74 745.72 502.61C746.72 502.47 747.44 502.26 747.89 501.97C748.35 501.68 748.58 501.22 748.58 500.61V500.50C748.58 499.16 748.18 498.13 747.39 497.39C746.60 496.66 745.46 496.29 743.97 496.29C742.39 496.29 741.14 496.63 740.22 497.32C739.31 498.01 738.69 498.82 738.37 499.75L732.37 498.90C732.84 497.24 733.63 495.86 734.72 494.75C735.80 493.62 737.13 492.78 738.71 492.22C740.28 491.66 742.02 491.37 743.93 491.37C745.24 491.37 746.55 491.53 747.85 491.83C749.16 492.14 750.35 492.65 751.42 493.36C752.5 494.06 753.36 495.01 754.01 496.22C754.68 497.43 755.01 498.94 755.01 500.75V519H748.83V515.25H748.62C748.23 516.01 747.68 516.72 746.97 517.38C746.27 518.03 745.39 518.56 744.32 518.96C743.27 519.36 742.03 519.55 740.61 519.55ZM742.28 514.83C743.57 514.83 744.69 514.57 745.63 514.06C746.58 513.54 747.31 512.86 747.82 512.00C748.34 511.15 748.6 510.22 748.6 509.22V506.00C748.40 506.17 748.05 506.32 747.57 506.46C747.10 506.61 746.56 506.73 745.97 506.84C745.38 506.94 744.79 507.04 744.21 507.12C743.63 507.20 743.13 507.27 742.71 507.33C741.75 507.46 740.89 507.68 740.13 507.97C739.37 508.27 738.77 508.68 738.34 509.22C737.90 509.74 737.68 510.41 737.68 511.24C737.68 512.42 738.11 513.32 738.98 513.92C739.84 514.53 740.94 514.83 742.28 514.83ZM775.09 491.73V496.70H759.41V491.73H775.09ZM763.28 485.19H769.71V510.80C769.71 511.66 769.84 512.32 770.10 512.79C770.37 513.24 770.73 513.54 771.17 513.71C771.61 513.88 772.09 513.96 772.62 513.96C773.03 513.96 773.39 513.93 773.72 513.87C774.07 513.81 774.33 513.76 774.50 513.71L775.59 518.73C775.25 518.85 774.75 518.98 774.12 519.12C773.49 519.27 772.72 519.35 771.81 519.37C770.20 519.42 768.75 519.18 767.46 518.64C766.17 518.1 765.14 517.26 764.38 516.12C763.64 514.99 763.27 513.57 763.28 511.86V485.19ZM792.25 519.53C789.51 519.53 787.15 518.96 785.16 517.83C783.19 516.68 781.66 515.06 780.6 512.96C779.53 510.86 779.00 508.38 779.00 505.52C779.00 502.72 779.53 500.26 780.6 498.14C781.68 496.01 783.18 494.35 785.11 493.17C787.04 491.97 789.31 491.37 791.91 491.37C793.59 491.37 795.18 491.64 796.67 492.19C798.17 492.72 799.50 493.55 800.65 494.68C801.81 495.80 802.72 497.23 803.38 498.97C804.04 500.7 804.38 502.76 804.38 505.15V507.12H782.02V502.79H798.21C798.20 501.56 797.93 500.46 797.41 499.50C796.89 498.53 796.17 497.77 795.23 497.21C794.31 496.66 793.23 496.38 792.00 496.38C790.68 496.38 789.53 496.70 788.54 497.34C787.54 497.96 786.77 498.79 786.21 499.82C785.67 500.84 785.39 501.96 785.38 503.18V506.96C785.38 508.55 785.67 509.91 786.25 511.05C786.83 512.17 787.64 513.03 788.68 513.64C789.72 514.23 790.94 514.53 792.34 514.53C793.27 514.53 794.12 514.39 794.88 514.13C795.63 513.86 796.29 513.47 796.85 512.95C797.40 512.42 797.82 511.78 798.11 511.01L804.11 511.69C803.73 513.27 803.01 514.66 801.94 515.84C800.89 517.01 799.54 517.92 797.89 518.57C796.25 519.21 794.37 519.53 792.25 519.53ZM827.20 507.53V491.73H833.62V519H827.39V514.15H827.11C826.49 515.68 825.48 516.93 824.07 517.90C822.67 518.87 820.95 519.36 818.90 519.36C817.12 519.36 815.54 518.96 814.16 518.16C812.80 517.36 811.74 516.20 810.97 514.67C810.20 513.13 809.81 511.27 809.81 509.09V491.73H816.24V508.10C816.24 509.83 816.71 511.20 817.66 512.22C818.61 513.24 819.85 513.74 821.39 513.74C822.34 513.74 823.25 513.51 824.14 513.05C825.03 512.59 825.76 511.90 826.33 510.99C826.90 510.07 827.20 508.92 827.20 507.53ZM840.23 519V491.73H846.46V496.27H846.75C847.25 494.70 848.10 493.49 849.30 492.63C850.52 491.77 851.91 491.34 853.48 491.34C853.83 491.34 854.23 491.35 854.67 491.39C855.12 491.41 855.49 491.45 855.79 491.51V497.43C855.51 497.33 855.08 497.25 854.49 497.18C853.91 497.10 853.35 497.05 852.80 497.05C851.63 497.05 850.58 497.31 849.64 497.82C848.72 498.31 847.99 499.01 847.46 499.89C846.93 500.78 846.66 501.81 846.66 502.97V519H840.23Z"
    fill="#08272E" /><rect x="524" y="711" width="880" height="275" rx="36" fill="white" stroke="#3971FF" stroke-width="8" /><path
    d="M603.08 782.82C603.08 786.74 602.35 790.09 600.88 792.89C599.42 795.67 597.43 797.80 594.91 799.28C592.40 800.76 589.56 801.50 586.37 801.50C583.19 801.50 580.34 800.76 577.81 799.28C575.30 797.79 573.32 795.65 571.85 792.87C570.39 790.07 569.66 786.72 569.66 782.82C569.66 778.9 570.39 775.55 571.85 772.77C573.32 769.98 575.30 767.84 577.81 766.36C580.34 764.88 583.19 764.14 586.37 764.14C589.56 764.14 592.40 764.88 594.91 766.36C597.43 767.84 599.42 769.98 600.88 772.77C602.35 775.55 603.08 778.9 603.08 782.82ZM596.46 782.82C596.46 780.06 596.02 777.73 595.16 775.84C594.31 773.93 593.13 772.50 591.61 771.53C590.09 770.54 588.35 770.05 586.37 770.05C584.39 770.05 582.65 770.54 581.13 771.53C579.62 772.50 578.43 773.93 577.57 775.84C576.71 777.73 576.29 780.06 576.29 782.82C576.29 785.58 576.71 787.91 577.57 789.81C578.43 791.71 579.62 793.15 581.13 794.13C582.65 795.10 584.39 795.59 586.37 795.59C588.35 795.59 590.09 795.10 591.61 794.13C593.13 793.15 594.31 791.71 595.16 789.81C596.02 787.91 596.46 785.58 596.46 782.82ZM626.41 789.53V773.73H632.83V801H626.60V796.15H626.32C625.70 797.68 624.69 798.93 623.28 799.90C621.88 800.87 620.16 801.36 618.11 801.36C616.33 801.36 614.75 800.96 613.37 800.16C612.01 799.36 610.95 798.20 610.18 796.67C609.41 795.13 609.02 793.27 609.02 791.09V773.73H615.45V790.10C615.45 791.83 615.92 793.20 616.87 794.22C617.82 795.24 619.06 795.74 620.6 795.74C621.55 795.74 622.46 795.51 623.35 795.05C624.24 794.59 624.97 793.90 625.54 792.99C626.12 792.07 626.41 790.91 626.41 789.53ZM663.80 773.73L654.09 801H646.99L637.28 773.73H644.13L650.40 793.99H650.68L656.97 773.73H663.80ZM679.40 801.53C676.66 801.53 674.30 800.96 672.31 799.83C670.34 798.68 668.82 797.06 667.75 794.96C666.68 792.86 666.15 790.38 666.15 787.52C666.15 784.72 666.68 782.26 667.75 780.14C668.83 778.01 670.33 776.35 672.26 775.16C674.19 773.97 676.46 773.37 679.06 773.37C680.74 773.37 682.33 773.64 683.82 774.19C685.32 774.72 686.65 775.55 687.80 776.67C688.96 777.80 689.87 779.23 690.53 780.97C691.19 782.7 691.52 784.76 691.52 787.15V789.12H669.17V784.79H685.36C685.35 783.56 685.09 782.46 684.57 781.50C684.04 780.53 683.32 779.77 682.38 779.21C681.46 778.66 680.38 778.38 679.15 778.38C677.84 778.38 676.68 778.70 675.69 779.34C674.69 779.97 673.92 780.79 673.36 781.82C672.82 782.84 672.54 783.96 672.53 785.18V788.96C672.53 790.55 672.82 791.91 673.40 793.04C673.98 794.17 674.79 795.03 675.83 795.64C676.87 796.23 678.09 796.53 679.49 796.53C680.42 796.53 681.27 796.39 682.03 796.13C682.78 795.86 683.44 795.47 684.00 794.95C684.55 794.42 684.97 793.78 685.26 793.01L691.26 793.68C690.88 795.27 690.16 796.66 689.09 797.84C688.04 799.01 686.69 799.92 685.04 800.57C683.40 801.21 681.52 801.53 679.40 801.53ZM696.96 801V773.73H703.20V778.27H703.48C703.98 776.70 704.83 775.49 706.04 774.63C707.25 773.77 708.65 773.34 710.21 773.34C710.56 773.34 710.96 773.35 711.40 773.39C711.85 773.41 712.22 773.46 712.52 773.51V779.43C712.24 779.33 711.81 779.25 711.22 779.18C710.64 779.10 710.08 779.05 709.53 779.05C708.36 779.05 707.31 779.31 706.37 779.82C705.45 780.32 704.72 781.01 704.19 781.89C703.66 782.78 703.39 783.81 703.39 784.97V801H696.96ZM731.87 773.73V778.70H716.19V773.73H731.87ZM720.06 767.19H726.49V792.80C726.49 793.66 726.62 794.32 726.88 794.79C727.15 795.24 727.51 795.54 727.95 795.71C728.38 795.88 728.87 795.96 729.40 795.96C729.80 795.96 730.17 795.93 730.50 795.87C730.85 795.81 731.11 795.76 731.28 795.71L732.37 800.73C732.02 800.85 731.53 800.98 730.89 801.12C730.27 801.27 729.50 801.35 728.59 801.37C726.98 801.42 725.53 801.18 724.24 800.64C722.95 800.1 721.92 799.26 721.16 798.12C720.42 796.99 720.05 795.57 720.06 793.86V767.19ZM754.63 789.53V773.73H761.06V801H754.82V796.15H754.54C753.92 797.68 752.91 798.93 751.50 799.90C750.11 800.87 748.38 801.36 746.34 801.36C744.55 801.36 742.97 800.96 741.60 800.16C740.24 799.36 739.17 798.20 738.4 796.67C737.63 795.13 737.25 793.27 737.25 791.09V773.73H743.67V790.10C743.67 791.83 744.15 793.20 745.09 794.22C746.04 795.24 747.28 795.74 748.82 795.74C749.77 795.74 750.69 795.51 751.58 795.05C752.46 794.59 753.19 793.90 753.76 792.99C754.34 792.07 754.63 790.91 754.63 789.53ZM767.67 801V773.73H773.90V778.27H774.18C774.68 776.70 775.53 775.49 776.74 774.63C777.96 773.77 779.35 773.34 780.91 773.34C781.27 773.34 781.66 773.35 782.10 773.39C782.55 773.41 782.92 773.46 783.22 773.51V779.43C782.95 779.33 782.52 779.25 781.92 779.18C781.34 779.10 780.78 779.05 780.24 779.05C779.07 779.05 778.01 779.31 777.08 779.82C776.15 780.32 775.42 781.01 774.89 781.89C774.36 782.78 774.09 783.81 774.09 784.97V801H767.67ZM798.44 801.53C795.71 801.53 793.35 800.96 791.36 799.83C789.38 798.68 787.86 797.06 786.79 794.96C785.73 792.86 785.20 790.38 785.20 787.52C785.20 784.72 785.73 782.26 786.79 780.14C787.87 778.01 789.37 776.35 791.30 775.16C793.23 773.97 795.50 773.37 798.10 773.37C799.78 773.37 801.37 773.64 802.86 774.19C804.37 774.72 805.69 775.55 806.84 776.67C808.00 777.80 808.91 779.23 809.57 780.97C810.24 782.7 810.57 784.76 810.57 787.15V789.12H788.21V784.79H804.41C804.39 783.56 804.13 782.46 803.61 781.50C803.09 780.53 802.36 779.77 801.42 779.21C800.50 778.66 799.42 778.38 798.19 778.38C796.88 778.38 795.72 778.70 794.73 779.34C793.74 779.97 792.96 780.79 792.40 781.82C791.86 782.84 791.58 783.96 791.57 785.18V788.96C791.57 790.55 791.86 791.91 792.44 793.04C793.02 794.17 793.83 795.03 794.87 795.64C795.91 796.23 797.13 796.53 798.53 796.53C799.47 796.53 800.31 796.39 801.07 796.13C801.83 795.86 802.48 795.47 803.04 794.95C803.60 794.42 804.02 793.78 804.3 793.01L810.30 793.68C809.92 795.27 809.20 796.66 808.13 797.84C807.08 799.01 805.73 799.92 804.09 800.57C802.44 801.21 800.56 801.53 798.44 801.53ZM838.53 801.48C836.39 801.48 834.47 800.93 832.78 799.83C831.08 798.73 829.75 797.13 828.76 795.03C827.78 792.94 827.29 790.39 827.29 787.40C827.29 784.37 827.79 781.81 828.78 779.73C829.79 777.63 831.14 776.05 832.85 774.99C834.55 773.91 836.45 773.37 838.55 773.37C840.14 773.37 841.46 773.64 842.49 774.19C843.52 774.72 844.34 775.37 844.94 776.12C845.54 776.87 846.01 777.57 846.34 778.24H846.61V764.64H853.05V801H846.73V796.70H846.34C846.01 797.37 845.53 798.07 844.90 798.82C844.28 799.55 843.45 800.18 842.42 800.70C841.39 801.22 840.09 801.48 838.53 801.48ZM840.32 796.21C841.68 796.21 842.84 795.84 843.80 795.11C844.76 794.36 845.49 793.32 845.99 792.00C846.48 790.67 846.73 789.13 846.73 787.36C846.73 785.6 846.48 784.07 845.99 782.76C845.50 781.46 844.78 780.45 843.82 779.73C842.87 779.01 841.71 778.65 840.32 778.65C838.89 778.65 837.69 779.02 836.74 779.76C835.78 780.51 835.05 781.54 834.57 782.85C834.08 784.17 833.84 785.67 833.84 787.36C833.84 789.07 834.08 790.59 834.57 791.93C835.07 793.25 835.79 794.3 836.75 795.07C837.72 795.83 838.91 796.21 840.32 796.21ZM859.90 801V773.73H866.33V801H859.90ZM863.13 769.86C862.12 769.86 861.24 769.52 860.51 768.84C859.77 768.16 859.40 767.34 859.40 766.38C859.40 765.41 859.77 764.58 860.51 763.91C861.24 763.22 862.12 762.88 863.13 762.88C864.16 762.88 865.04 763.22 865.76 763.91C866.50 764.58 866.86 765.41 866.86 766.38C866.86 767.34 866.50 768.16 865.76 768.84C865.04 769.52 864.16 769.86 863.13 769.86ZM872.94 801V773.73H879.17V778.27H879.46C879.95 776.70 880.80 775.49 882.01 774.63C883.23 773.77 884.62 773.34 886.18 773.34C886.54 773.34 886.94 773.35 887.38 773.39C887.82 773.41 888.20 773.46 888.49 773.51V779.43C888.22 779.33 887.79 779.25 887.20 779.18C886.62 779.10 886.05 779.05 885.51 779.05C884.34 779.05 883.28 779.31 882.35 779.82C881.43 780.32 880.70 781.01 880.17 781.89C879.63 782.78 879.37 783.81 879.37 784.97V801H872.94ZM903.71 801.53C900.98 801.53 898.62 800.96 896.63 799.83C894.65 798.68 893.13 797.06 892.07 794.96C891.00 792.86 890.47 790.38 890.47 787.52C890.47 784.72 891.00 782.26 892.07 780.14C893.14 778.01 894.65 776.35 896.58 775.16C898.51 773.97 900.77 773.37 903.38 773.37C905.06 773.37 906.64 773.64 908.13 774.19C909.64 774.72 910.97 775.55 912.11 776.67C913.27 777.80 914.18 779.23 914.85 780.97C915.51 782.7 915.84 784.76 915.84 787.15V789.12H893.49V784.79H909.68C909.67 783.56 909.40 782.46 908.88 781.50C908.36 780.53 907.63 779.77 906.70 779.21C905.77 778.66 904.70 778.38 903.47 778.38C902.15 778.38 901.00 778.70 900.00 779.34C899.01 779.97 898.23 780.79 897.68 781.82C897.13 782.84 896.86 783.96 896.84 785.18V788.96C896.84 790.55 897.13 791.91 897.71 793.04C898.29 794.17 899.10 795.03 900.14 795.64C901.19 796.23 902.41 796.53 903.80 796.53C904.74 796.53 905.59 796.39 906.34 796.13C907.1 795.86 907.76 795.47 908.31 794.95C908.87 794.42 909.29 793.78 909.57 793.01L915.58 793.68C915.20 795.27 914.47 796.66 913.41 797.84C912.36 799.01 911.01 799.92 909.36 800.57C907.72 801.21 905.83 801.53 903.71 801.53ZM933.17 801.53C930.45 801.53 928.12 800.93 926.16 799.74C924.22 798.54 922.72 796.89 921.67 794.79C920.63 792.67 920.11 790.23 920.11 787.47C920.11 784.7 920.64 782.26 921.71 780.14C922.77 778.01 924.27 776.35 926.22 775.16C928.17 773.97 930.48 773.37 933.14 773.37C935.35 773.37 937.31 773.78 939.02 774.60C940.73 775.40 942.10 776.54 943.12 778.02C944.14 779.49 944.72 781.21 944.86 783.17H938.72C938.47 781.86 937.88 780.76 936.94 779.89C936.02 779.00 934.78 778.56 933.23 778.56C931.91 778.56 930.76 778.91 929.77 779.62C928.77 780.32 928.00 781.33 927.44 782.64C926.90 783.96 926.62 785.53 926.62 787.36C926.62 789.22 926.90 790.82 927.44 792.16C927.99 793.48 928.75 794.51 929.73 795.23C930.73 795.94 931.89 796.29 933.23 796.29C934.18 796.29 935.02 796.12 935.77 795.76C936.52 795.39 937.16 794.87 937.67 794.18C938.18 793.50 938.53 792.66 938.72 791.68H944.86C944.71 793.61 944.14 795.32 943.15 796.81C942.17 798.29 940.83 799.45 939.14 800.29C937.45 801.12 935.46 801.53 933.17 801.53ZM963.75 773.73V778.70H948.08V773.73H963.75ZM951.95 767.19H958.38V792.80C958.38 793.66 958.50 794.32 958.77 794.79C959.04 795.24 959.39 795.54 959.83 795.71C960.27 795.88 960.75 795.96 961.29 795.96C961.69 795.96 962.06 795.93 962.39 795.87C962.73 795.81 962.99 795.76 963.17 795.71L964.25 800.73C963.91 800.85 963.42 800.98 962.78 801.12C962.15 801.27 961.38 801.35 960.47 801.37C958.86 801.42 957.41 801.18 956.12 800.64C954.83 800.1 953.81 799.26 953.05 798.12C952.30 796.99 951.94 795.57 951.95 793.86V767.19ZM980.91 801.53C978.18 801.53 975.82 800.96 973.83 799.83C971.85 798.68 970.33 797.06 969.26 794.96C968.20 792.86 967.67 790.38 967.67 787.52C967.67 784.72 968.20 782.26 969.26 780.14C970.34 778.01 971.84 776.35 973.77 775.16C975.70 773.97 977.97 773.37 980.57 773.37C982.25 773.37 983.84 773.64 985.33 774.19C986.84 774.72 988.16 775.55 989.31 776.67C990.47 777.80 991.38 779.23 992.04 780.97C992.71 782.7 993.04 784.76 993.04 787.15V789.12H970.68V784.79H986.88C986.87 783.56 986.60 782.46 986.08 781.50C985.56 780.53 984.83 779.77 983.89 779.21C982.97 778.66 981.89 778.38 980.66 778.38C979.35 778.38 978.20 778.70 977.20 779.34C976.21 779.97 975.43 780.79 974.88 781.82C974.33 782.84 974.05 783.96 974.04 785.18V788.96C974.04 790.55 974.33 791.91 974.91 793.04C975.49 794.17 976.30 795.03 977.34 795.64C978.38 796.23 979.60 796.53 981 796.53C981.93 796.53 982.78 796.39 983.54 796.13C984.30 795.86 984.95 795.47 985.51 794.95C986.07 794.42 986.49 793.78 986.77 793.01L992.77 793.68C992.39 795.27 991.67 796.66 990.61 797.84C989.55 799.01 988.20 799.92 986.56 800.57C984.91 801.21 983.03 801.53 980.91 801.53ZM1021 801.48C1018.86 801.48 1016.94 800.93 1015.25 799.83C1013.55 798.73 1012.22 797.13 1011.23 795.03C1010.25 792.94 1009.76 790.39 1009.76 787.40C1009.76 784.37 1010.26 781.81 1011.25 779.73C1012.26 777.63 1013.61 776.05 1015.32 774.99C1017.02 773.91 1018.92 773.37 1021.02 773.37C1022.62 773.37 1023.93 773.64 1024.96 774.19C1025.99 774.72 1026.81 775.37 1027.41 776.12C1028.01 776.87 1028.48 777.57 1028.81 778.24H1029.08V764.64H1035.52V801H1029.2V796.70H1028.81C1028.48 797.37 1028 798.07 1027.37 798.82C1026.75 799.55 1025.92 800.18 1024.89 800.70C1023.86 801.22 1022.56 801.48 1021 801.48ZM1022.79 796.21C1024.15 796.21 1025.31 795.84 1026.27 795.11C1027.23 794.36 1027.96 793.32 1028.46 792.00C1028.95 790.67 1029.2 789.13 1029.2 787.36C1029.2 785.6 1028.95 784.07 1028.46 782.76C1027.97 781.46 1027.25 780.45 1026.29 779.73C1025.34 779.01 1024.18 778.65 1022.79 778.65C1021.36 778.65 1020.16 779.02 1019.21 779.76C1018.25 780.51 1017.53 781.54 1017.04 782.85C1016.55 784.17 1016.31 785.67 1016.31 787.36C1016.31 789.07 1016.55 790.59 1017.04 791.93C1017.54 793.25 1018.27 794.3 1019.22 795.07C1020.19 795.83 1021.38 796.21 1022.79 796.21ZM1050.22 801.55C1048.49 801.55 1046.94 801.24 1045.55 800.63C1044.18 800 1043.09 799.08 1042.28 797.86C1041.49 796.64 1041.09 795.13 1041.09 793.35C1041.09 791.81 1041.38 790.54 1041.95 789.53C1042.51 788.52 1043.29 787.72 1044.27 787.12C1045.26 786.51 1046.36 786.06 1047.59 785.75C1048.84 785.43 1050.12 785.20 1051.45 785.05C1053.04 784.89 1054.34 784.74 1055.33 784.61C1056.33 784.47 1057.05 784.26 1057.5 783.97C1057.96 783.68 1058.19 783.22 1058.19 782.61V782.50C1058.19 781.16 1057.8 780.13 1057 779.39C1056.21 778.66 1055.07 778.29 1053.58 778.29C1052 778.29 1050.75 778.63 1049.83 779.32C1048.92 780.01 1048.3 780.82 1047.98 781.75L1041.98 780.90C1042.46 779.24 1043.24 777.86 1044.33 776.75C1045.42 775.62 1046.75 774.78 1048.32 774.22C1049.9 773.66 1051.64 773.37 1053.54 773.37C1054.86 773.37 1056.16 773.53 1057.47 773.83C1058.77 774.14 1059.96 774.65 1061.03 775.36C1062.11 776.06 1062.98 777.01 1063.63 778.22C1064.29 779.43 1064.62 780.94 1064.62 782.75V801H1058.44V797.25H1058.23C1057.84 798.01 1057.29 798.72 1056.58 799.38C1055.88 800.03 1055 800.56 1053.93 800.96C1052.88 801.36 1051.64 801.55 1050.22 801.55ZM1051.89 796.83C1053.18 796.83 1054.3 796.57 1055.25 796.06C1056.19 795.54 1056.92 794.86 1057.43 794.00C1057.95 793.15 1058.21 792.22 1058.21 791.22V788.00C1058.01 788.17 1057.67 788.32 1057.18 788.46C1056.71 788.61 1056.17 788.73 1055.58 788.84C1054.99 788.94 1054.41 789.04 1053.83 789.12C1053.25 789.20 1052.74 789.27 1052.32 789.34C1051.36 789.47 1050.5 789.68 1049.74 789.97C1048.98 790.27 1048.39 790.68 1047.95 791.22C1047.51 791.74 1047.29 792.41 1047.29 793.24C1047.29 794.42 1047.72 795.32 1048.59 795.92C1049.45 796.53 1050.55 796.83 1051.89 796.83ZM1077.51 785.02V801H1071.08V773.73H1077.23V778.36H1077.55C1078.17 776.84 1079.17 775.62 1080.55 774.72C1081.93 773.82 1083.64 773.37 1085.68 773.37C1087.56 773.37 1089.2 773.77 1090.6 774.58C1092.01 775.38 1093.09 776.55 1093.86 778.08C1094.65 779.60 1095.03 781.46 1095.02 783.63V801H1088.59V784.63C1088.59 782.81 1088.12 781.38 1087.17 780.35C1086.24 779.32 1084.94 778.80 1083.28 778.80C1082.16 778.80 1081.16 779.05 1080.28 779.55C1079.42 780.04 1078.74 780.74 1078.24 781.66C1077.75 782.59 1077.51 783.71 1077.51 785.02ZM1123.11 780.94L1117.25 781.58C1117.08 780.98 1116.79 780.43 1116.38 779.91C1115.98 779.38 1115.43 778.97 1114.75 778.65C1114.06 778.33 1113.22 778.17 1112.22 778.17C1110.89 778.17 1109.76 778.46 1108.85 779.04C1107.95 779.62 1107.51 780.37 1107.52 781.29C1107.51 782.08 1107.8 782.73 1108.39 783.23C1108.99 783.72 1109.99 784.13 1111.37 784.45L1116.02 785.45C1118.6 786.00 1120.52 786.88 1121.78 788.09C1123.04 789.30 1123.68 790.88 1123.69 792.83C1123.68 794.55 1123.18 796.06 1122.18 797.38C1121.2 798.68 1119.83 799.70 1118.08 800.43C1116.33 801.17 1114.32 801.53 1112.05 801.53C1108.71 801.53 1106.02 800.83 1103.99 799.44C1101.95 798.03 1100.74 796.07 1100.35 793.56L1106.61 792.96C1106.9 794.19 1107.5 795.12 1108.42 795.74C1109.35 796.37 1110.55 796.68 1112.03 796.68C1113.56 796.68 1114.78 796.37 1115.7 795.74C1116.64 795.12 1117.11 794.34 1117.11 793.42C1117.11 792.64 1116.8 791.99 1116.2 791.48C1115.61 790.97 1114.69 790.58 1113.43 790.31L1108.78 789.34C1106.16 788.79 1104.23 787.87 1102.97 786.58C1101.72 785.28 1101.1 783.63 1101.11 781.65C1101.1 779.97 1101.55 778.51 1102.48 777.28C1103.41 776.04 1104.71 775.08 1106.36 774.40C1108.03 773.72 1109.96 773.37 1112.13 773.37C1115.33 773.37 1117.85 774.05 1119.68 775.41C1121.53 776.77 1122.67 778.62 1123.11 780.94ZM1147.82 764.64V801H1141.4V764.64H1147.82ZM1159.88 764.64V768.26C1159.88 769.3 1159.68 770.38 1159.28 771.51C1158.89 772.62 1158.35 773.69 1157.66 774.70C1156.98 775.71 1156.2 776.57 1155.32 777.30L1152.34 775.36C1152.99 774.38 1153.56 773.32 1154.04 772.18C1154.53 771.03 1154.77 769.74 1154.77 768.29V764.64H1159.88ZM1170.14 801.55C1168.41 801.55 1166.86 801.24 1165.47 800.63C1164.1 800 1163.01 799.08 1162.21 797.86C1161.41 796.64 1161.02 795.13 1161.02 793.35C1161.02 791.81 1161.3 790.54 1161.87 789.53C1162.44 788.52 1163.21 787.72 1164.19 787.12C1165.18 786.51 1166.28 786.06 1167.51 785.75C1168.76 785.43 1170.04 785.20 1171.37 785.05C1172.97 784.89 1174.26 784.74 1175.26 784.61C1176.25 784.47 1176.97 784.26 1177.42 783.97C1177.88 783.68 1178.12 783.22 1178.12 782.61V782.50C1178.12 781.16 1177.72 780.13 1176.93 779.39C1176.13 778.66 1174.99 778.29 1173.5 778.29C1171.92 778.29 1170.68 778.63 1169.75 779.32C1168.84 780.01 1168.23 780.82 1167.91 781.75L1161.9 780.90C1162.38 779.24 1163.16 777.86 1164.25 776.75C1165.34 775.62 1166.67 774.78 1168.24 774.22C1169.82 773.66 1171.56 773.37 1173.46 773.37C1174.78 773.37 1176.08 773.53 1177.39 773.83C1178.69 774.14 1179.88 774.65 1180.96 775.36C1182.03 776.06 1182.9 777.01 1183.55 778.22C1184.21 779.43 1184.54 780.94 1184.54 782.75V801H1178.36V797.25H1178.15C1177.76 798.01 1177.21 798.72 1176.5 799.38C1175.8 800.03 1174.92 800.56 1173.85 800.96C1172.8 801.36 1171.56 801.55 1170.14 801.55ZM1171.81 796.83C1173.1 796.83 1174.22 796.57 1175.17 796.06C1176.11 795.54 1176.84 794.86 1177.35 794.00C1177.87 793.15 1178.13 792.22 1178.13 791.22V788.00C1177.93 788.17 1177.59 788.32 1177.1 788.46C1176.63 788.61 1176.1 788.73 1175.5 788.84C1174.91 788.94 1174.33 789.04 1173.75 789.12C1173.17 789.20 1172.66 789.27 1172.24 789.34C1171.28 789.47 1170.42 789.68 1169.66 789.97C1168.91 790.27 1168.31 790.68 1167.87 791.22C1167.43 791.74 1167.21 792.41 1167.21 793.24C1167.21 794.42 1167.65 795.32 1168.51 795.92C1169.37 796.53 1170.47 796.83 1171.81 796.83ZM1191.01 811.23V773.73H1197.33V778.24H1197.7C1198.03 777.57 1198.5 776.87 1199.1 776.12C1199.71 775.37 1200.52 774.72 1201.55 774.19C1202.58 773.64 1203.9 773.37 1205.49 773.37C1207.6 773.37 1209.5 773.91 1211.19 774.99C1212.9 776.05 1214.25 777.63 1215.24 779.73C1216.25 781.81 1216.75 784.37 1216.75 787.40C1216.75 790.39 1216.26 792.94 1215.28 795.03C1214.3 797.13 1212.96 798.73 1211.26 799.83C1209.57 800.93 1207.65 801.48 1205.51 801.48C1203.95 801.48 1202.65 801.22 1201.62 800.70C1200.59 800.18 1199.77 799.55 1199.14 798.82C1198.52 798.07 1198.04 797.37 1197.7 796.70H1197.43V811.23H1191.01ZM1197.31 787.36C1197.31 789.13 1197.56 790.67 1198.05 792.00C1198.56 793.32 1199.29 794.36 1200.24 795.11C1201.2 795.84 1202.36 796.21 1203.72 796.21C1205.14 796.21 1206.33 795.83 1207.29 795.07C1208.25 794.3 1208.97 793.25 1209.45 791.93C1209.95 790.59 1210.2 789.07 1210.2 787.36C1210.2 785.67 1209.96 784.17 1209.47 782.85C1208.99 781.54 1208.26 780.51 1207.31 779.76C1206.35 779.02 1205.15 778.65 1203.72 778.65C1202.35 778.65 1201.18 779.01 1200.22 779.73C1199.26 780.45 1198.53 781.46 1198.04 782.76C1197.55 784.07 1197.31 785.6 1197.31 787.36ZM1222.26 811.23V773.73H1228.58V778.24H1228.95C1229.28 777.57 1229.75 776.87 1230.35 776.12C1230.96 775.37 1231.77 774.72 1232.8 774.19C1233.83 773.64 1235.15 773.37 1236.74 773.37C1238.85 773.37 1240.75 773.91 1242.44 774.99C1244.15 776.05 1245.5 777.63 1246.49 779.73C1247.5 781.81 1248 784.37 1248 787.40C1248 790.39 1247.51 792.94 1246.53 795.03C1245.55 797.13 1244.21 798.73 1242.51 799.83C1240.82 800.93 1238.9 801.48 1236.76 801.48C1235.2 801.48 1233.9 801.22 1232.87 800.70C1231.84 800.18 1231.02 799.55 1230.39 798.82C1229.77 798.07 1229.29 797.37 1228.95 796.70H1228.68V811.23H1222.26ZM1228.56 787.36C1228.56 789.13 1228.81 790.67 1229.3 792.00C1229.81 793.32 1230.54 794.36 1231.49 795.11C1232.45 795.84 1233.61 796.21 1234.97 796.21C1236.39 796.21 1237.58 795.83 1238.54 795.07C1239.5 794.3 1240.22 793.25 1240.7 791.93C1241.2 790.59 1241.45 789.07 1241.45 787.36C1241.45 785.67 1241.21 784.17 1240.72 782.85C1240.24 781.54 1239.51 780.51 1238.56 779.76C1237.6 779.02 1236.4 778.65 1234.97 778.65C1233.6 778.65 1232.43 779.01 1231.47 779.73C1230.51 780.45 1229.78 781.46 1229.29 782.76C1228.8 784.07 1228.56 785.6 1228.56 787.36Z"
    fill="#08272E" /><path d="M967 498C1155 498 1194 526 1194 700.5" stroke="#3971FF" stroke-width="8" /><g clip-path="url(#clip0_233_56)"><g opacity="0.53" filter="url(#filter0_f_233_56)"><path
        d="M1327.88 907.11C1327.88 911.17 1327.05 915.19 1325.42 918.94C1323.79 922.69 1321.41 926.10 1318.4 928.97C1315.39 931.84 1311.82 934.12 1307.89 935.67C1303.96 937.22 1299.75 938.02 1295.5 938.02C1291.25 938.02 1287.04 937.22 1283.11 935.67C1279.18 934.12 1275.61 931.84 1272.6 928.97C1269.6 926.10 1267.21 922.69 1265.59 918.94C1263.96 915.19 1263.12 911.17 1263.12 907.11C1263.12 898.91 1266.53 891.05 1272.6 885.25C1278.68 879.46 1286.91 876.20 1295.5 876.20C1299.75 876.20 1303.96 877.00 1307.89 878.55C1311.82 880.11 1315.39 882.38 1318.4 885.25C1321.41 888.13 1323.79 891.53 1325.42 895.28C1327.05 899.03 1327.88 903.05 1327.88 907.11Z"
        fill="black" /></g><path
      d="M1329.11 904.38C1329.11 908.76 1328.24 913.09 1326.56 917.13C1324.87 921.18 1322.39 924.85 1319.27 927.95C1316.15 931.04 1312.44 933.49 1308.36 935.17C1304.29 936.84 1299.91 937.71 1295.5 937.71C1286.59 937.71 1278.04 934.20 1271.73 927.95C1265.43 921.70 1261.89 913.22 1261.89 904.38C1261.89 895.54 1265.43 887.07 1271.73 880.82C1278.04 874.57 1286.59 871.06 1295.5 871.06C1299.91 871.06 1304.29 871.92 1308.36 873.60C1312.44 875.27 1316.15 877.73 1319.27 880.82C1322.39 883.91 1324.87 887.59 1326.56 891.63C1328.24 895.67 1329.11 900.01 1329.11 904.38Z"
      fill="url(#paint0_linear_233_56)" stroke="#CDCDCD" stroke-width="0.35" stroke-linecap="round"
      stroke-linejoin="round" /><path
      d="M1326.48 904.38C1326.48 912.53 1323.22 920.34 1317.41 926.10C1311.6 931.86 1303.72 935.09 1295.5 935.09C1287.28 935.09 1279.4 931.86 1273.59 926.10C1267.78 920.34 1264.52 912.53 1264.52 904.38C1264.52 896.24 1267.78 888.43 1273.59 882.67C1279.4 876.91 1287.28 873.67 1295.5 873.67C1303.72 873.67 1311.6 876.91 1317.41 882.67C1323.22 888.43 1326.48 896.24 1326.48 904.38Z"
      fill="url(#paint1_radial_233_56)" /><path
      d="M1295.5 875.27C1295.25 875.27 1295.05 875.47 1295.05 875.72V880.88C1295.05 881.13 1295.25 881.33 1295.5 881.33C1295.75 881.33 1295.95 881.13 1295.95 880.88V875.72C1295.95 875.47 1295.75 875.27 1295.5 875.27ZM1292.55 875.46C1292.52 875.46 1292.48 875.46 1292.45 875.46C1292.2 875.48 1292.02 875.70 1292.05 875.95L1292.28 878.11C1292.3 878.36 1292.53 878.54 1292.77 878.51C1293.02 878.48 1293.2 878.26 1293.18 878.02L1292.95 875.86C1292.93 875.64 1292.75 875.48 1292.55 875.46ZM1298.48 875.46C1298.27 875.48 1298.09 875.64 1298.07 875.86L1297.84 878.02C1297.82 878.27 1297.99 878.49 1298.24 878.51C1298.49 878.54 1298.71 878.36 1298.74 878.11L1298.97 875.95C1299 875.71 1298.82 875.49 1298.57 875.46C1298.54 875.46 1298.51 875.46 1298.48 875.46ZM1289.51 875.89C1289.48 875.89 1289.45 875.90 1289.42 875.90C1289.17 875.96 1289.02 876.19 1289.07 876.43L1290.15 881.49C1290.2 881.73 1290.44 881.88 1290.68 881.83C1290.93 881.78 1291.08 881.54 1291.03 881.30L1289.95 876.25C1289.91 876.04 1289.72 875.89 1289.51 875.89ZM1301.51 875.90C1301.3 875.90 1301.11 876.04 1301.07 876.25L1299.98 881.31C1299.93 881.55 1300.09 881.78 1300.33 881.84C1300.58 881.89 1300.82 881.73 1300.87 881.49L1301.95 876.44C1302 876.20 1301.85 875.96 1301.6 875.91C1301.57 875.90 1301.54 875.90 1301.51 875.90ZM1286.61 876.70C1286.55 876.70 1286.49 876.71 1286.43 876.73C1286.2 876.80 1286.07 877.05 1286.14 877.29L1286.82 879.36C1286.9 879.59 1287.15 879.72 1287.39 879.64C1287.63 879.57 1287.76 879.31 1287.68 879.08L1287 877.01C1286.95 876.84 1286.79 876.72 1286.61 876.70ZM1304.39 876.71C1304.22 876.72 1304.06 876.84 1304 877.01L1303.32 879.08C1303.25 879.32 1303.37 879.57 1303.61 879.64C1303.85 879.72 1304.1 879.59 1304.18 879.36L1304.86 877.29C1304.94 877.05 1304.81 876.80 1304.57 876.73C1304.51 876.71 1304.45 876.7 1304.39 876.71ZM1283.75 877.74C1283.69 877.74 1283.63 877.76 1283.57 877.78C1283.34 877.88 1283.24 878.15 1283.34 878.37L1285.46 883.09C1285.56 883.32 1285.83 883.42 1286.06 883.32C1286.28 883.22 1286.39 882.96 1286.29 882.73L1284.17 878.01C1284.09 877.84 1283.92 877.74 1283.75 877.74ZM1307.29 877.76C1307.11 877.76 1306.94 877.86 1306.87 878.02L1304.74 882.74C1304.64 882.97 1304.74 883.23 1304.97 883.33C1305.2 883.43 1305.47 883.33 1305.57 883.11L1307.69 878.39C1307.79 878.16 1307.69 877.90 1307.46 877.80C1307.41 877.77 1307.35 877.76 1307.29 877.76ZM1281.09 879.14C1281 879.13 1280.91 879.15 1280.83 879.20C1280.62 879.32 1280.54 879.59 1280.67 879.81L1281.76 881.69C1281.89 881.90 1282.16 881.98 1282.38 881.85C1282.6 881.73 1282.67 881.46 1282.54 881.24L1281.45 879.36C1281.37 879.23 1281.23 879.15 1281.09 879.14ZM1309.91 879.14C1309.77 879.15 1309.63 879.23 1309.55 879.36L1308.46 881.24C1308.33 881.46 1308.4 881.73 1308.62 881.85C1308.84 881.98 1309.11 881.90 1309.24 881.69L1310.33 879.81C1310.46 879.59 1310.38 879.32 1310.17 879.20C1310.09 879.15 1310 879.13 1309.91 879.14ZM1278.51 880.73C1278.42 880.74 1278.33 880.76 1278.26 880.82C1278.06 880.97 1278.01 881.24 1278.16 881.45L1281.22 885.63C1281.36 885.83 1281.64 885.87 1281.85 885.73C1282.05 885.58 1282.09 885.30 1281.95 885.1L1278.89 880.92C1278.8 880.79 1278.65 880.73 1278.51 880.73ZM1312.52 880.76C1312.38 880.75 1312.24 880.82 1312.14 880.94L1309.08 885.12C1308.93 885.32 1308.98 885.60 1309.18 885.74C1309.38 885.89 1309.66 885.85 1309.81 885.64L1312.87 881.47C1313.02 881.27 1312.98 880.99 1312.77 880.84C1312.7 880.79 1312.61 880.76 1312.52 880.76ZM1276.2 882.65C1276.08 882.65 1275.97 882.68 1275.87 882.77C1275.69 882.93 1275.67 883.22 1275.84 883.4L1277.31 885.01C1277.47 885.20 1277.76 885.21 1277.94 885.05C1278.13 884.88 1278.15 884.6 1277.98 884.42L1276.51 882.80C1276.43 882.71 1276.31 882.66 1276.2 882.65ZM1314.8 882.66C1314.69 882.66 1314.58 882.71 1314.49 882.80L1313.03 884.42C1312.86 884.60 1312.87 884.88 1313.06 885.05C1313.24 885.22 1313.53 885.20 1313.7 885.02L1315.16 883.40C1315.33 883.22 1315.32 882.94 1315.13 882.77C1315.04 882.69 1314.92 882.65 1314.8 882.66ZM1273.99 884.76C1273.87 884.77 1273.76 884.82 1273.68 884.91C1273.51 885.09 1273.52 885.37 1273.71 885.54L1277.58 889.00C1277.77 889.16 1278.05 889.15 1278.22 888.96C1278.39 888.78 1278.37 888.50 1278.19 888.33L1274.31 884.87C1274.22 884.79 1274.1 884.75 1273.99 884.76ZM1317.03 884.77C1316.91 884.77 1316.79 884.81 1316.7 884.89L1312.83 888.34C1312.64 888.51 1312.62 888.79 1312.79 888.97C1312.96 889.16 1313.24 889.17 1313.43 889.01L1317.3 885.55C1317.49 885.39 1317.51 885.11 1317.34 884.92C1317.25 884.83 1317.14 884.78 1317.03 884.77ZM1272.15 887.10C1272 887.10 1271.86 887.16 1271.77 887.29C1271.62 887.49 1271.66 887.77 1271.87 887.91L1273.64 889.19C1273.84 889.34 1274.12 889.29 1274.27 889.09C1274.42 888.89 1274.37 888.61 1274.17 888.47L1272.4 887.19C1272.32 887.13 1272.24 887.11 1272.15 887.10ZM1318.86 887.12C1318.78 887.12 1318.69 887.15 1318.61 887.21L1316.84 888.48C1316.64 888.63 1316.59 888.91 1316.74 889.11C1316.89 889.31 1317.17 889.35 1317.37 889.21L1319.14 887.93C1319.35 887.78 1319.39 887.51 1319.24 887.31C1319.15 887.18 1319.01 887.12 1318.86 887.12ZM1270.43 889.61C1270.28 889.62 1270.15 889.69 1270.07 889.83C1269.94 890.04 1270.02 890.32 1270.24 890.44L1274.75 893.02C1274.96 893.15 1275.24 893.07 1275.36 892.86C1275.49 892.64 1275.42 892.37 1275.2 892.25L1270.69 889.66C1270.61 889.62 1270.52 889.60 1270.43 889.61ZM1320.57 889.61C1320.48 889.60 1320.39 889.62 1320.31 889.66L1315.8 892.25C1315.58 892.37 1315.51 892.64 1315.64 892.86C1315.76 893.07 1316.04 893.15 1316.25 893.02L1320.77 890.44C1320.98 890.32 1321.06 890.04 1320.93 889.83C1320.85 889.69 1320.72 889.62 1320.57 889.61ZM1269.13 892.27C1268.95 892.27 1268.78 892.37 1268.71 892.54C1268.61 892.76 1268.71 893.03 1268.94 893.13L1270.94 894.01C1271.17 894.11 1271.43 894.01 1271.53 893.79C1271.64 893.56 1271.53 893.30 1271.31 893.20L1269.3 892.31C1269.25 892.28 1269.19 892.27 1269.13 892.27ZM1321.88 892.29C1321.82 892.29 1321.76 892.30 1321.7 892.33L1319.7 893.21C1319.47 893.31 1319.37 893.58 1319.47 893.80C1319.57 894.03 1319.84 894.13 1320.07 894.03L1322.07 893.15C1322.3 893.05 1322.4 892.78 1322.3 892.56C1322.22 892.39 1322.06 892.29 1321.88 892.29ZM1267.97 895.06C1267.8 895.07 1267.64 895.19 1267.58 895.37C1267.5 895.60 1267.63 895.85 1267.87 895.93L1272.82 897.53C1273.06 897.61 1273.32 897.48 1273.39 897.24C1273.47 897.01 1273.34 896.75 1273.1 896.68L1268.15 895.08C1268.09 895.06 1268.03 895.05 1267.97 895.06ZM1323.04 895.08C1322.98 895.07 1322.92 895.08 1322.86 895.10L1317.9 896.69C1317.66 896.77 1317.53 897.02 1317.61 897.26C1317.69 897.49 1317.94 897.62 1318.18 897.55L1323.14 895.95C1323.37 895.87 1323.5 895.62 1323.43 895.38C1323.37 895.21 1323.21 895.09 1323.04 895.08ZM1267.25 897.98C1267.04 897.98 1266.85 898.13 1266.81 898.34C1266.75 898.58 1266.91 898.82 1267.15 898.87L1269.3 899.32C1269.54 899.37 1269.78 899.22 1269.83 898.98C1269.88 898.73 1269.73 898.50 1269.48 898.44L1267.34 897.99C1267.31 897.99 1267.28 897.98 1267.25 897.98ZM1323.75 897.99C1323.72 897.99 1323.69 897.99 1323.66 898.00L1321.52 898.45C1321.27 898.50 1321.12 898.74 1321.17 898.98C1321.22 899.22 1321.46 899.38 1321.7 899.32L1323.85 898.87C1324.09 898.82 1324.25 898.58 1324.2 898.34C1324.15 898.13 1323.96 897.99 1323.75 897.99ZM1266.7 900.92C1266.49 900.94 1266.32 901.11 1266.3 901.32C1266.27 901.57 1266.45 901.79 1266.7 901.82L1271.88 902.36C1272.13 902.38 1272.35 902.21 1272.38 901.96C1272.4 901.71 1272.22 901.49 1271.98 901.47L1266.8 900.92C1266.76 900.92 1266.73 900.92 1266.7 900.92ZM1324.3 900.96C1324.27 900.96 1324.24 900.96 1324.21 900.96L1319.03 901.50C1318.78 901.52 1318.6 901.75 1318.63 901.99C1318.65 902.24 1318.87 902.42 1319.12 902.39L1324.3 901.85C1324.55 901.83 1324.73 901.61 1324.71 901.36C1324.68 901.15 1324.51 900.98 1324.3 900.96ZM1266.62 903.94C1266.37 903.94 1266.16 904.14 1266.16 904.38C1266.16 904.63 1266.37 904.83 1266.62 904.83H1268.81C1269.06 904.83 1269.26 904.63 1269.26 904.38C1269.26 904.14 1269.06 903.94 1268.81 903.94H1266.62ZM1322.19 903.94C1321.94 903.94 1321.74 904.14 1321.74 904.38C1321.74 904.63 1321.94 904.83 1322.19 904.83H1324.38C1324.63 904.83 1324.84 904.63 1324.84 904.38C1324.84 904.14 1324.63 903.94 1324.38 903.94H1322.19ZM1271.97 906.38C1271.94 906.37 1271.91 906.37 1271.88 906.38L1266.7 906.91C1266.45 906.94 1266.27 907.16 1266.29 907.40C1266.32 907.65 1266.54 907.83 1266.79 907.80L1271.97 907.27C1272.22 907.24 1272.4 907.02 1272.37 906.78C1272.35 906.56 1272.18 906.40 1271.97 906.38ZM1319.03 906.41C1318.82 906.43 1318.65 906.59 1318.62 906.81C1318.6 907.05 1318.78 907.27 1319.02 907.3L1324.2 907.84C1324.45 907.87 1324.68 907.69 1324.7 907.44C1324.73 907.20 1324.55 906.98 1324.3 906.95L1319.12 906.41C1319.09 906.41 1319.06 906.41 1319.03 906.41ZM1269.39 909.43C1269.36 909.43 1269.33 909.44 1269.3 909.44L1267.15 909.89C1266.91 909.95 1266.75 910.18 1266.8 910.43C1266.86 910.67 1267.1 910.82 1267.34 910.77L1269.48 910.32C1269.73 910.27 1269.88 910.03 1269.83 909.79C1269.79 909.58 1269.6 909.43 1269.39 909.43ZM1321.61 909.44C1321.4 909.44 1321.21 909.58 1321.17 909.79C1321.12 910.03 1321.27 910.27 1321.52 910.32L1323.66 910.77C1323.9 910.83 1324.14 910.67 1324.19 910.43C1324.25 910.19 1324.09 909.95 1323.85 909.90L1321.7 909.45C1321.67 909.44 1321.64 909.44 1321.61 909.44ZM1273 911.20C1272.94 911.20 1272.88 911.20 1272.82 911.22L1267.86 912.82C1267.63 912.89 1267.5 913.15 1267.57 913.38C1267.65 913.62 1267.91 913.75 1268.14 913.67L1273.1 912.07C1273.34 912.00 1273.47 911.75 1273.39 911.51C1273.33 911.33 1273.17 911.22 1273 911.20ZM1318 911.22C1317.82 911.23 1317.67 911.35 1317.61 911.52C1317.53 911.76 1317.66 912.01 1317.9 912.09L1322.85 913.69C1323.09 913.77 1323.34 913.64 1323.42 913.40C1323.5 913.17 1323.37 912.91 1323.13 912.84L1318.18 911.24C1318.12 911.22 1318.06 911.21 1318 911.22ZM1271.11 914.70C1271.05 914.70 1270.99 914.71 1270.93 914.74L1268.93 915.62C1268.7 915.72 1268.6 915.99 1268.7 916.21C1268.8 916.44 1269.07 916.54 1269.3 916.44L1271.3 915.55C1271.53 915.46 1271.63 915.19 1271.53 914.96C1271.45 914.79 1271.28 914.70 1271.11 914.70ZM1319.89 914.72C1319.71 914.71 1319.54 914.81 1319.47 914.98C1319.36 915.21 1319.47 915.47 1319.69 915.57L1321.7 916.46C1321.92 916.56 1322.19 916.46 1322.29 916.23C1322.39 916.00 1322.29 915.74 1322.06 915.64L1320.06 914.75C1320 914.73 1319.95 914.72 1319.89 914.72ZM1275 915.69C1274.92 915.68 1274.83 915.70 1274.75 915.75L1270.24 918.33C1270.02 918.45 1269.94 918.72 1270.07 918.94C1270.19 919.15 1270.47 919.23 1270.69 919.10L1275.2 916.52C1275.42 916.40 1275.49 916.12 1275.36 915.91C1275.29 915.77 1275.15 915.70 1275 915.69ZM1316 915.69C1315.85 915.70 1315.71 915.77 1315.64 915.91C1315.51 916.12 1315.58 916.40 1315.8 916.52L1320.31 919.10C1320.53 919.23 1320.81 919.15 1320.93 918.94C1321.06 918.72 1320.98 918.45 1320.77 918.33L1316.25 915.75C1316.17 915.70 1316.08 915.68 1316 915.69ZM1273.88 919.48C1273.79 919.48 1273.71 919.51 1273.63 919.56L1271.86 920.84C1271.65 920.98 1271.61 921.26 1271.76 921.46C1271.9 921.66 1272.18 921.71 1272.39 921.56L1274.16 920.29C1274.36 920.14 1274.41 919.86 1274.26 919.66C1274.17 919.53 1274.02 919.47 1273.88 919.48ZM1317.11 919.49C1316.97 919.49 1316.82 919.55 1316.73 919.67C1316.58 919.88 1316.63 920.15 1316.83 920.30L1318.6 921.58C1318.8 921.72 1319.09 921.68 1319.23 921.48C1319.38 921.28 1319.34 921.00 1319.13 920.85L1317.36 919.58C1317.28 919.52 1317.2 919.49 1317.11 919.49ZM1277.9 919.64C1277.78 919.64 1277.66 919.68 1277.57 919.76L1273.7 923.21C1273.51 923.38 1273.49 923.66 1273.66 923.85C1273.83 924.03 1274.11 924.04 1274.3 923.88L1278.17 920.43C1278.36 920.26 1278.38 919.98 1278.21 919.79C1278.12 919.70 1278.01 919.65 1277.9 919.64ZM1313.09 919.66C1312.98 919.66 1312.86 919.71 1312.78 919.80C1312.61 919.99 1312.63 920.27 1312.81 920.44L1316.69 923.89C1316.87 924.06 1317.16 924.04 1317.32 923.86C1317.49 923.68 1317.48 923.39 1317.29 923.23L1313.42 919.77C1313.33 919.69 1313.21 919.65 1313.09 919.66ZM1281.57 922.94C1281.43 922.93 1281.28 923.00 1281.19 923.12L1278.13 927.30C1277.98 927.50 1278.02 927.78 1278.23 927.92C1278.43 928.07 1278.71 928.03 1278.86 927.83L1281.92 923.65C1282.07 923.45 1282.02 923.17 1281.82 923.02C1281.75 922.97 1281.66 922.94 1281.57 922.94ZM1309.4 922.96C1309.32 922.96 1309.23 922.99 1309.15 923.04C1308.95 923.19 1308.91 923.47 1309.05 923.67L1312.11 927.85C1312.26 928.05 1312.54 928.09 1312.74 927.95C1312.94 927.80 1312.99 927.52 1312.84 927.32L1309.78 923.14C1309.69 923.02 1309.55 922.95 1309.4 922.96ZM1277.62 923.60C1277.5 923.61 1277.39 923.66 1277.3 923.75L1275.84 925.36C1275.67 925.55 1275.68 925.83 1275.87 926.00C1276.06 926.16 1276.34 926.15 1276.51 925.96L1277.97 924.35C1278.14 924.16 1278.13 923.88 1277.94 923.72C1277.85 923.63 1277.73 923.60 1277.62 923.60ZM1313.38 923.60C1313.27 923.60 1313.15 923.63 1313.06 923.72C1312.87 923.88 1312.85 924.17 1313.02 924.35L1314.49 925.97C1314.66 926.15 1314.94 926.16 1315.13 926.00C1315.31 925.83 1315.33 925.55 1315.16 925.37L1313.69 923.75C1313.61 923.66 1313.5 923.61 1313.38 923.60ZM1285.85 925.39C1285.68 925.39 1285.51 925.49 1285.43 925.66L1283.31 930.38C1283.21 930.60 1283.31 930.87 1283.54 930.97C1283.77 931.07 1284.03 930.97 1284.13 930.74L1286.26 926.02C1286.36 925.80 1286.26 925.53 1286.03 925.43C1285.97 925.41 1285.91 925.40 1285.85 925.39ZM1305.12 925.41C1305.06 925.41 1305 925.42 1304.94 925.45C1304.72 925.55 1304.61 925.81 1304.71 926.04L1306.83 930.76C1306.93 930.98 1307.2 931.09 1307.43 930.98C1307.66 930.88 1307.76 930.62 1307.66 930.39L1305.54 925.67C1305.46 925.50 1305.3 925.40 1305.12 925.41ZM1282.12 926.85C1281.98 926.86 1281.84 926.94 1281.76 927.08L1280.67 928.96C1280.54 929.17 1280.62 929.45 1280.83 929.57C1281.05 929.69 1281.32 929.62 1281.45 929.40L1282.54 927.52C1282.67 927.31 1282.6 927.04 1282.38 926.91C1282.3 926.87 1282.21 926.85 1282.12 926.85ZM1308.88 926.85C1308.79 926.85 1308.7 926.87 1308.62 926.91C1308.4 927.04 1308.33 927.31 1308.46 927.52L1309.55 929.40C1309.68 929.62 1309.95 929.69 1310.17 929.57C1310.38 929.45 1310.46 929.17 1310.33 928.96L1309.24 927.08C1309.16 926.94 1309.02 926.86 1308.88 926.85ZM1290.58 926.92C1290.37 926.92 1290.18 927.06 1290.13 927.27L1289.05 932.33C1289 932.57 1289.15 932.81 1289.4 932.86C1289.64 932.91 1289.88 932.76 1289.93 932.51L1291.02 927.46C1291.07 927.22 1290.91 926.98 1290.67 926.93C1290.64 926.92 1290.61 926.92 1290.58 926.92ZM1300.41 926.92C1300.38 926.92 1300.35 926.93 1300.32 926.93C1300.07 926.98 1299.92 927.22 1299.97 927.46L1301.05 932.52C1301.1 932.76 1301.34 932.91 1301.58 932.86C1301.83 932.81 1301.98 932.57 1301.93 932.33L1300.85 927.28C1300.81 927.07 1300.62 926.92 1300.41 926.92ZM1295.5 927.43C1295.25 927.43 1295.05 927.63 1295.05 927.88V933.05C1295.05 933.29 1295.25 933.49 1295.5 933.49C1295.75 933.49 1295.95 933.29 1295.95 933.05V927.88C1295.95 927.63 1295.75 927.43 1295.5 927.43ZM1287.21 929.10C1287.03 929.12 1286.88 929.23 1286.82 929.41L1286.14 931.48C1286.06 931.71 1286.19 931.96 1286.43 932.04C1286.67 932.12 1286.92 931.99 1287 931.75L1287.68 929.69C1287.75 929.45 1287.63 929.20 1287.39 929.12C1287.33 929.10 1287.27 929.10 1287.21 929.10ZM1303.79 929.10C1303.73 929.10 1303.67 929.10 1303.61 929.12C1303.37 929.2 1303.24 929.45 1303.32 929.69L1304 931.75C1304.07 931.99 1304.33 932.12 1304.57 932.04C1304.8 931.97 1304.93 931.71 1304.86 931.48L1304.18 929.41C1304.12 929.23 1303.96 929.12 1303.79 929.10ZM1292.66 930.25C1292.46 930.27 1292.28 930.44 1292.26 930.65L1292.03 932.81C1292 933.06 1292.18 933.28 1292.43 933.30C1292.68 933.33 1292.9 933.15 1292.93 932.91L1293.16 930.75C1293.18 930.5 1293.01 930.28 1292.76 930.25C1292.73 930.25 1292.69 930.25 1292.66 930.25ZM1298.32 930.26C1298.29 930.25 1298.26 930.25 1298.23 930.26C1297.98 930.28 1297.8 930.50 1297.82 930.75L1298.05 932.91C1298.08 933.16 1298.3 933.33 1298.55 933.31C1298.8 933.28 1298.97 933.06 1298.95 932.82L1298.72 930.65C1298.7 930.44 1298.53 930.28 1298.32 930.26Z"
      fill="#F4F2F3" /><g opacity="0.41" filter="url(#filter1_f_233_56)"><path d="M1316.67 886.47L1291.96 900.71L1276.33 925.09L1299.19 908.31L1316.67 886.47Z" fill="black" /></g><path d="M1299.04 908.06L1291.96 900.71L1317.09 883.95L1299.04 908.06Z" fill="#FF5150" /><path d="M1299.04 908.06L1291.96 900.71L1273.91 924.82L1299.04 908.06Z" fill="#F1F1F1" /><path opacity="0.24" d="M1273.91 924.82L1299.04 908.06L1317.09 883.95L1273.91 924.82Z" fill="black" /></g><path
    d="M1049.58 928.62C1020.69 942.37 1002.76 930.87 991.28 923.88C990.57 923.44 989.36 923.99 990.41 925.19C994.23 929.83 1006.77 941 1023.12 941C1039.49 941 1049.23 932.07 1050.45 930.51C1051.66 928.97 1050.8 928.11 1049.58 928.62H1049.58ZM1057.69 924.14C1056.92 923.13 1052.98 922.94 1050.5 923.25C1048.01 923.54 1044.28 925.06 1044.61 925.98C1044.77 926.32 1045.11 926.16 1046.82 926.01C1048.53 925.84 1053.33 925.23 1054.32 926.54C1055.33 927.86 1052.8 934.12 1052.33 935.13C1051.89 936.14 1052.5 936.40 1053.34 935.73C1054.17 935.05 1055.67 933.31 1056.68 930.85C1057.68 928.37 1058.28 924.91 1057.69 924.14Z"
    fill="#FF9900" /><path fill-rule="evenodd" clip-rule="evenodd"
    d="M1030.15 900.57C1030.15 904.17 1030.25 907.18 1028.42 910.39C1026.95 912.99 1024.62 914.59 1022.01 914.59C1018.46 914.59 1016.39 911.88 1016.39 907.89C1016.39 899.99 1023.46 898.56 1030.15 898.56V900.57ZM1039.49 923.14C1038.88 923.69 1037.99 923.73 1037.3 923.36C1034.23 920.81 1033.68 919.62 1031.99 917.19C1026.91 922.37 1023.32 923.92 1016.73 923.92C1008.94 923.92 1002.87 919.11 1002.87 909.49C1002.87 901.97 1006.94 896.85 1012.74 894.35C1017.77 892.14 1024.79 891.75 1030.15 891.14V889.94C1030.15 887.74 1030.32 885.13 1029.03 883.23C1027.9 881.52 1025.74 880.82 1023.84 880.82C1020.31 880.82 1017.15 882.63 1016.39 886.38C1016.23 887.22 1015.62 888.04 1014.78 888.08L1005.8 887.11C1005.04 886.94 1004.21 886.33 1004.42 885.17C1006.49 874.28 1016.32 871 1025.13 871C1029.63 871 1035.52 872.20 1039.08 875.61C1043.58 879.82 1043.15 885.43 1043.15 891.54V905.97C1043.15 910.31 1044.95 912.21 1046.64 914.55C1047.24 915.39 1047.37 916.39 1046.62 917.02C1044.73 918.59 1041.37 921.52 1039.52 923.16L1039.49 923.14"
    fill="black" /><path
    d="M1049.58 928.62C1020.69 942.37 1002.76 930.87 991.28 923.88C990.57 923.44 989.36 923.99 990.41 925.19C994.23 929.83 1006.77 941 1023.12 941C1039.49 941 1049.23 932.07 1050.45 930.51C1051.66 928.97 1050.8 928.11 1049.58 928.62H1049.58ZM1057.69 924.14C1056.92 923.13 1052.98 922.94 1050.5 923.25C1048.01 923.54 1044.28 925.06 1044.61 925.98C1044.77 926.32 1045.11 926.16 1046.82 926.01C1048.53 925.84 1053.33 925.23 1054.32 926.54C1055.33 927.86 1052.8 934.12 1052.33 935.13C1051.89 936.14 1052.5 936.40 1053.34 935.73C1054.17 935.05 1055.67 933.31 1056.68 930.85C1057.68 928.37 1058.28 924.91 1057.69 924.14Z"
    fill="#FF9900" /><path fill-rule="evenodd" clip-rule="evenodd"
    d="M1030.15 900.57C1030.15 904.17 1030.25 907.18 1028.42 910.39C1026.95 912.99 1024.62 914.59 1022.01 914.59C1018.46 914.59 1016.39 911.88 1016.39 907.89C1016.39 899.99 1023.46 898.56 1030.15 898.56V900.57ZM1039.49 923.14C1038.88 923.69 1037.99 923.73 1037.3 923.36C1034.23 920.81 1033.68 919.62 1031.99 917.19C1026.91 922.37 1023.32 923.92 1016.73 923.92C1008.94 923.92 1002.87 919.11 1002.87 909.49C1002.87 901.97 1006.94 896.85 1012.74 894.35C1017.77 892.14 1024.79 891.75 1030.15 891.14V889.94C1030.15 887.74 1030.32 885.13 1029.03 883.23C1027.9 881.52 1025.74 880.82 1023.84 880.82C1020.31 880.82 1017.15 882.63 1016.39 886.38C1016.23 887.22 1015.62 888.04 1014.78 888.08L1005.8 887.11C1005.04 886.94 1004.21 886.33 1004.42 885.17C1006.49 874.28 1016.32 871 1025.13 871C1029.63 871 1035.52 872.20 1039.08 875.61C1043.58 879.82 1043.15 885.43 1043.15 891.54V905.97C1043.15 910.31 1044.95 912.21 1046.64 914.55C1047.24 915.39 1047.37 916.39 1046.62 917.02C1044.73 918.59 1041.37 921.52 1039.52 923.16L1039.49 923.14"
    fill="black" /><g clip-path="url(#clip1_233_56)"><path
      d="M1158 921.49C1167.66 921.49 1175.5 913.66 1175.5 903.99C1175.5 894.33 1167.66 886.49 1158 886.49C1148.34 886.49 1140.5 894.33 1140.5 903.99C1140.5 913.66 1148.34 921.49 1158 921.49Z"
      fill="white" /><path
      d="M1158 886.5H1188.31C1185.23 881.18 1180.82 876.76 1175.5 873.69C1170.18 870.62 1164.14 869 1158 869C1151.85 869 1145.82 870.62 1140.5 873.69C1135.18 876.76 1130.76 881.18 1127.69 886.50L1142.84 912.75L1142.86 912.75C1141.32 910.09 1140.5 907.07 1140.5 904.00C1140.5 900.92 1141.3 897.91 1142.84 895.24C1144.37 892.58 1146.58 890.37 1149.25 888.84C1151.91 887.30 1154.93 886.50 1158 886.5Z"
      fill="url(#paint2_linear_233_56)" /><path
      d="M1158 917.85C1165.65 917.85 1171.85 911.65 1171.85 904C1171.85 896.35 1165.65 890.15 1158 890.15C1150.35 890.15 1144.15 896.35 1144.15 904C1144.15 911.65 1150.35 917.85 1158 917.85Z"
      fill="#1A73E8" /><path
      d="M1173.15 912.75L1158 939C1164.14 939.00 1170.18 937.38 1175.5 934.31C1180.82 931.24 1185.24 926.82 1188.31 921.50C1191.38 916.18 1193 910.15 1193 904.00C1193 897.86 1191.38 891.82 1188.3 886.50H1158L1157.99 886.52C1161.07 886.51 1164.09 887.32 1166.75 888.85C1169.41 890.38 1171.62 892.59 1173.16 895.25C1174.7 897.91 1175.51 900.93 1175.51 904.00C1175.51 907.08 1174.69 910.10 1173.15 912.75Z"
      fill="url(#paint3_linear_233_56)" /><path
      d="M1142.85 912.75L1127.69 886.51C1124.62 891.83 1123 897.86 1123 904.01C1123 910.15 1124.62 916.19 1127.69 921.51C1130.76 926.83 1135.18 931.24 1140.5 934.32C1145.82 937.39 1151.86 939.00 1158 939L1173.16 912.75L1173.15 912.74C1171.62 915.41 1169.41 917.62 1166.75 919.16C1164.09 920.7 1161.07 921.51 1158 921.51C1154.93 921.51 1151.91 920.70 1149.25 919.17C1146.59 917.63 1144.38 915.42 1142.85 912.75Z"
      fill="url(#paint4_linear_233_56)" /></g><g clip-path="url(#clip2_233_56)"><path
      d="M770.93 879.93C769.79 875.63 766.44 872.24 762.18 871.09C754.46 869 723.5 869 723.5 869C723.5 869 692.54 869 684.82 871.09C680.56 872.24 677.21 875.63 676.07 879.93C674 887.73 674 904 674 904C674 904 674 920.27 676.07 928.07C677.21 932.37 680.56 935.76 684.82 936.91C692.54 939 723.5 939 723.5 939C723.5 939 754.46 939 762.18 936.91C766.44 935.76 769.79 932.37 770.93 928.07C773 920.27 773 904 773 904C773 904 773 887.73 770.93 879.93Z"
      fill="#ED1D24" /><path d="M713.38 918.77L739.25 904.00L713.38 889.23V918.77Z" fill="white" /></g><g clip-path="url(#clip3_233_56)"><g clip-path="url(#clip4_233_56)"><path
        d="M910.81 885.30C910.81 882.97 908.93 881.10 906.62 881.10C904.3 881.10 902.41 882.97 902.41 885.30C902.41 887.61 904.3 889.49 906.62 889.49C908.93 889.49 910.81 887.61 910.81 885.30Z"
        fill="url(#paint5_linear_233_56)" /><path
        d="M916.41 918.08C916.25 921.49 915.68 923.34 915.21 924.57C914.57 926.20 913.81 927.37 912.58 928.59C911.37 929.81 910.20 930.57 908.57 931.20C907.34 931.68 905.48 932.25 902.07 932.41C898.39 932.58 897.30 932.61 887.95 932.61C878.62 932.61 877.52 932.58 873.83 932.41C870.42 932.25 868.57 931.68 867.34 931.20C865.70 930.57 864.54 929.81 863.32 928.59C862.09 927.37 861.33 926.20 860.71 924.57C860.23 923.34 859.65 921.49 859.51 918.08C859.33 914.39 859.29 913.29 859.29 903.96C859.29 894.62 859.33 893.52 859.51 889.83C859.65 886.42 860.23 884.57 860.71 883.33C861.33 881.70 862.09 880.54 863.32 879.32C864.54 878.10 865.70 877.34 867.34 876.71C868.57 876.22 870.42 875.66 873.83 875.50C877.52 875.34 878.62 875.29 887.95 875.29C897.30 875.29 898.39 875.34 902.07 875.50C905.48 875.66 907.34 876.22 908.57 876.71C910.20 877.34 911.37 878.10 912.58 879.32C913.81 880.54 914.57 881.70 915.21 883.33C915.68 884.57 916.25 886.42 916.41 889.83C916.58 893.52 916.62 894.62 916.62 903.96C916.62 913.29 916.58 914.39 916.41 918.08ZM922.7 889.54C922.53 885.82 921.94 883.27 921.07 881.06C920.18 878.76 918.99 876.81 917.04 874.86C915.10 872.92 913.15 871.73 910.85 870.83C908.63 869.97 906.09 869.38 902.37 869.21C898.64 869.03 897.45 869 887.95 869C878.46 869 877.26 869.03 873.54 869.21C869.82 869.38 867.28 869.97 865.05 870.83C862.76 871.73 860.81 872.92 858.87 874.86C856.92 876.81 855.73 878.76 854.84 881.06C853.97 883.27 853.38 885.82 853.20 889.54C853.04 893.27 853 894.46 853 903.96C853 913.45 853.04 914.64 853.20 918.37C853.38 922.08 853.97 924.63 854.84 926.85C855.73 929.14 856.92 931.10 858.87 933.04C860.81 934.98 862.76 936.18 865.05 937.08C867.28 937.94 869.82 938.53 873.54 938.7C877.26 938.87 878.46 938.91 887.95 938.91C897.45 938.91 898.64 938.87 902.37 938.7C906.09 938.53 908.63 937.94 910.85 937.08C913.15 936.18 915.10 934.98 917.04 933.04C918.99 931.10 920.18 929.14 921.07 926.85C921.94 924.63 922.53 922.08 922.7 918.37C922.87 914.64 922.91 913.45 922.91 903.96C922.91 894.46 922.87 893.27 922.7 889.54Z"
        fill="url(#paint6_linear_233_56)" /><path
        d="M887.95 915.60C881.52 915.60 876.30 910.39 876.30 903.96C876.30 897.52 881.52 892.30 887.95 892.30C894.39 892.30 899.61 897.52 899.61 903.96C899.61 910.39 894.39 915.60 887.95 915.60ZM887.95 886.00C878.04 886.00 870.01 894.05 870.01 903.96C870.01 913.87 878.04 921.90 887.95 921.90C897.87 921.90 905.90 913.87 905.90 903.96C905.90 894.05 897.87 886.00 887.95 886.00Z"
        fill="url(#paint7_linear_233_56)" /></g></g><defs><filter id="filter0_f_233_56" x="1254.17" y="867.25" width="82.67" height="79.73" filterUnits="userSpaceOnUse"
      color-interpolation-filters="sRGB"><feFlood flood-opacity="0" result="BackgroundImageFix" /><feBlend mode="normal" in="SourceGraphic" in2="BackgroundImageFix" result="shape" /><feGaussianBlur stdDeviation="4.48" result="effect1_foregroundBlur_233_56" /></filter><filter id="filter1_f_233_56" x="1273.79" y="883.93" width="45.43" height="43.71" filterUnits="userSpaceOnUse"
      color-interpolation-filters="sRGB"><feFlood flood-opacity="0" result="BackgroundImageFix" /><feBlend mode="normal" in="SourceGraphic" in2="BackgroundImageFix" result="shape" /><feGaussianBlur stdDeviation="1.27" result="effect1_foregroundBlur_233_56" /></filter><linearGradient id="paint0_linear_233_56" x1="1295.5" y1="937.71" x2="1295.5" y2="871.06"
      gradientUnits="userSpaceOnUse"><stop stop-color="#BDBDBD" /><stop offset="1" stop-color="white" /></linearGradient><radialGradient id="paint1_radial_233_56" cx="0" cy="0" r="1" gradientUnits="userSpaceOnUse"
      gradientTransform="translate(1295.64 899.90) scale(33.61 33.32)"><stop stop-color="#06C2E7" /><stop offset="0.25" stop-color="#0DB8EC" /><stop offset="0.5" stop-color="#12AEF1" /><stop offset="0.75" stop-color="#1F86F9" /><stop offset="1" stop-color="#107DDD" /></radialGradient><linearGradient id="paint2_linear_233_56" x1="1127.69" y1="890.88" x2="1188.31" y2="890.88"
      gradientUnits="userSpaceOnUse"><stop stop-color="#D93025" /><stop offset="1" stop-color="#EA4335" /></linearGradient><linearGradient id="paint3_linear_233_56" x1="1153.22" y1="938.53" x2="1183.53" y2="886.04"
      gradientUnits="userSpaceOnUse"><stop stop-color="#FCC934" /><stop offset="1" stop-color="#FBBC04" /></linearGradient><linearGradient id="paint4_linear_233_56" x1="1161.79" y1="936.82" x2="1131.48" y2="884.32"
      gradientUnits="userSpaceOnUse"><stop stop-color="#1E8E3E" /><stop offset="1" stop-color="#34A853" /></linearGradient><linearGradient id="paint5_linear_233_56" x1="853.63" y1="938.19" x2="917.09" y2="874.73"
      gradientUnits="userSpaceOnUse"><stop stop-color="#FFD521" /><stop offset="0.05" stop-color="#FFD521" /><stop offset="0.50" stop-color="#F50000" /><stop offset="0.95" stop-color="#B900B4" /><stop offset="0.95" stop-color="#B900B4" /><stop offset="1" stop-color="#B900B4" /></linearGradient><linearGradient id="paint6_linear_233_56" x1="853.63" y1="938.28" x2="917.14" y2="874.77"
      gradientUnits="userSpaceOnUse"><stop stop-color="#FFD521" /><stop offset="0.05" stop-color="#FFD521" /><stop offset="0.50" stop-color="#F50000" /><stop offset="0.95" stop-color="#B900B4" /><stop offset="0.95" stop-color="#B900B4" /><stop offset="1" stop-color="#B900B4" /></linearGradient><linearGradient id="paint7_linear_233_56" x1="853.65" y1="938.28" x2="917.14" y2="874.78"
      gradientUnits="userSpaceOnUse"><stop stop-color="#FFD521" /><stop offset="0.05" stop-color="#FFD521" /><stop offset="0.50" stop-color="#F50000" /><stop offset="0.95" stop-color="#B900B4" /><stop offset="0.95" stop-color="#B900B4" /><stop offset="1" stop-color="#B900B4" /></linearGradient><clipPath id="clip0_233_56"><rect width="71" height="70" fill="white" transform="translate(1260 871)" /></clipPath><clipPath id="clip1_233_56"><rect width="70" height="70" fill="white" transform="translate(1123 869)" /></clipPath><clipPath id="clip2_233_56"><rect width="99" height="70" fill="white" transform="translate(674 869)" /></clipPath><clipPath id="clip3_233_56"><rect width="70" height="70" fill="white" transform="translate(853 869)" /></clipPath><clipPath id="clip4_233_56"><rect width="70" height="70" fill="white" transform="translate(853 869)" /></clipPath></defs></svg>