<svg width="1471" height="1043" viewBox="0 0 1471 1043" fill="none" xmlns="http://www.w3.org/2000/svg">
  <rect width="1471" height="1043" fill="white" />
  <path d="M299 318C299 428 310.5 495 397.5 495" stroke="#3971FF" stroke-width="8" />
  <rect x="51" y="53" width="563" height="253" rx="35" fill="#E7EEFF" stroke="#E7EEFF" stroke-width="10" />
  <path
    d="M261.481 172.115C261.481 172.867 262.029 173.466 263.125 173.911C264.221 174.329 265.581 174.622 267.206 174.789C268.831 174.956 270.607 175.221 272.535 175.583C274.462 175.945 276.238 176.391 277.863 176.92C279.488 177.449 280.849 178.327 281.944 179.552C283.04 180.778 283.588 182.296 283.588 184.106C283.588 187.087 282.058 189.455 278.997 191.21C275.936 192.937 271.968 193.8 267.093 193.8C262.104 193.8 258.023 192.937 254.849 191.21C251.674 189.482 249.804 186.934 249.237 183.563H261.424C261.613 184.761 262.218 185.694 263.238 186.363C264.259 187.003 265.581 187.324 267.206 187.324C270.229 187.324 271.741 186.599 271.741 185.151C271.741 184.51 271.325 183.981 270.494 183.563C269.7 183.118 268.642 182.769 267.32 182.519C266.035 182.268 264.599 182.031 263.011 181.808C261.462 181.586 259.894 181.279 258.307 180.889C256.757 180.499 255.321 180.012 253.998 179.427C252.714 178.842 251.655 178.006 250.824 176.92C250.03 175.833 249.634 174.538 249.634 173.034C249.634 170.332 251.051 168.118 253.885 166.391C256.719 164.664 260.612 163.8 265.562 163.8C270.059 163.8 273.876 164.622 277.013 166.265C280.149 167.909 281.963 170.36 282.455 173.619H270.097C269.568 171.391 267.886 170.276 265.052 170.276C263.994 170.276 263.125 170.444 262.445 170.778C261.802 171.112 261.481 171.558 261.481 172.115Z"
    fill="#08272E" />
  <path
    d="M199.345 193.006V164.594H214.31L220.545 178.8L222.472 184.107L224.4 178.8L230.635 164.594H245.26V193.006H233.696L234.433 174.162L231.429 181.892L226.497 193.006H218.108L213.063 181.725L210.172 174.246L210.909 193.006H199.345Z"
    fill="#08272E" />
  <path
    d="M147.751 193.006V164.594H162.716L168.952 178.8L170.879 184.107L172.807 178.8L179.042 164.594H193.667V193.006H182.103L182.84 174.162L179.836 181.892L174.904 193.006H166.514L161.469 181.725L158.578 174.246L159.315 193.006H147.751Z"
    fill="#08272E" />
  <path d="M130.536 193.006V164.594H142.1V193.006H130.536Z" fill="#08272E" />
  <path
    d="M94 193.006V164.594H110.212C115.238 164.594 119.168 165.471 122.003 167.226C124.875 168.953 126.311 171.377 126.311 174.496C126.311 177.616 124.875 180.054 122.003 181.808C119.168 183.535 115.276 184.399 110.325 184.399H105.564V193.006H94ZM109.985 171.279H105.564V177.714H109.702C112.876 177.714 114.464 176.641 114.464 174.496C114.464 172.352 112.971 171.279 109.985 171.279Z"
    fill="#08272E" />
  <path
    d="M103.063 104V136H97.4063V104H103.063ZM108.879 136V112H114.535V136H108.879ZM111.723 108.594C110.827 108.594 110.056 108.297 109.41 107.703C108.764 107.099 108.441 106.375 108.441 105.531C108.441 104.677 108.764 103.953 109.41 103.359C110.056 102.755 110.827 102.453 111.723 102.453C112.629 102.453 113.4 102.755 114.035 103.359C114.681 103.953 115.004 104.677 115.004 105.531C115.004 106.375 114.681 107.099 114.035 107.703C113.4 108.297 112.629 108.594 111.723 108.594ZM126.008 121.937V136H120.352V112H125.758V116.078H126.039C126.591 114.734 127.471 113.667 128.68 112.875C129.898 112.083 131.404 111.688 133.195 111.688C134.852 111.688 136.294 112.042 137.523 112.75C138.763 113.458 139.721 114.484 140.398 115.828C141.086 117.172 141.424 118.802 141.414 120.719V136H135.758V121.594C135.758 119.99 135.341 118.734 134.508 117.828C133.685 116.922 132.544 116.469 131.086 116.469C130.096 116.469 129.216 116.687 128.445 117.125C127.685 117.552 127.086 118.172 126.648 118.984C126.221 119.797 126.008 120.781 126.008 121.937ZM152.32 128.469L152.305 121.641H153.211L161.836 112H168.445L157.836 123.812H156.664L152.32 128.469ZM147.164 136V104H152.82V136H147.164ZM162.227 136L154.414 125.078L158.227 121.094L168.992 136H162.227Z"
    fill="#08272E" />
  <path
    d="M96.9063 269V236H102.469V239.969H102.797C103.089 239.385 103.5 238.766 104.031 238.109C104.563 237.443 105.281 236.875 106.188 236.406C107.094 235.927 108.25 235.688 109.656 235.688C111.51 235.688 113.182 236.161 114.672 237.109C116.172 238.047 117.359 239.437 118.234 241.281C119.12 243.115 119.563 245.365 119.563 248.031C119.563 250.667 119.13 252.906 118.266 254.75C117.401 256.594 116.224 258 114.734 258.969C113.245 259.938 111.557 260.422 109.672 260.422C108.297 260.422 107.156 260.193 106.25 259.734C105.344 259.276 104.615 258.724 104.063 258.078C103.521 257.422 103.099 256.802 102.797 256.219H102.563V269H96.9063ZM102.453 248C102.453 249.552 102.672 250.911 103.109 252.078C103.557 253.245 104.198 254.156 105.031 254.812C105.875 255.458 106.896 255.781 108.094 255.781C109.344 255.781 110.391 255.448 111.234 254.781C112.078 254.104 112.714 253.182 113.141 252.016C113.578 250.839 113.797 249.5 113.797 248C113.797 246.51 113.583 245.187 113.156 244.031C112.729 242.875 112.094 241.969 111.25 241.312C110.406 240.656 109.354 240.328 108.094 240.328C106.885 240.328 105.859 240.646 105.016 241.281C104.172 241.917 103.531 242.807 103.094 243.953C102.667 245.099 102.453 246.448 102.453 248ZM124.406 260V236H130.063V260H124.406ZM127.25 232.594C126.354 232.594 125.583 232.297 124.938 231.703C124.292 231.099 123.969 230.375 123.969 229.531C123.969 228.677 124.292 227.953 124.938 227.359C125.583 226.755 126.354 226.453 127.25 226.453C128.156 226.453 128.927 226.755 129.563 227.359C130.208 227.953 130.531 228.677 130.531 229.531C130.531 230.375 130.208 231.099 129.563 231.703C128.927 232.297 128.156 232.594 127.25 232.594ZM135.879 260V236H141.285V240.078H141.566C142.066 238.703 142.895 237.63 144.051 236.859C145.207 236.078 146.587 235.688 148.191 235.688C149.816 235.688 151.186 236.083 152.301 236.875C153.426 237.656 154.217 238.724 154.676 240.078H154.926C155.457 238.745 156.353 237.682 157.613 236.891C158.884 236.089 160.389 235.688 162.129 235.688C164.337 235.688 166.139 236.385 167.535 237.781C168.931 239.177 169.629 241.214 169.629 243.891V260H163.957V244.766C163.957 243.276 163.561 242.187 162.77 241.5C161.978 240.802 161.009 240.453 159.863 240.453C158.499 240.453 157.431 240.88 156.66 241.734C155.9 242.578 155.52 243.677 155.52 245.031V260H149.973V244.531C149.973 243.292 149.598 242.302 148.848 241.562C148.108 240.823 147.139 240.453 145.941 240.453C145.129 240.453 144.389 240.661 143.723 241.078C143.056 241.484 142.525 242.062 142.129 242.812C141.733 243.552 141.535 244.417 141.535 245.406V260H135.879ZM178.852 260.344C177.904 260.344 177.091 260.01 176.414 259.344C175.737 258.677 175.404 257.865 175.414 256.906C175.404 255.969 175.737 255.167 176.414 254.5C177.091 253.833 177.904 253.5 178.852 253.5C179.768 253.5 180.565 253.833 181.242 254.5C181.93 255.167 182.279 255.969 182.289 256.906C182.279 257.542 182.112 258.12 181.789 258.641C181.477 259.161 181.06 259.578 180.539 259.891C180.029 260.193 179.466 260.344 178.852 260.344ZM188.129 260V236H193.535V240.078H193.816C194.316 238.703 195.145 237.63 196.301 236.859C197.457 236.078 198.837 235.688 200.441 235.688C202.066 235.688 203.436 236.083 204.551 236.875C205.676 237.656 206.467 238.724 206.926 240.078H207.176C207.707 238.745 208.603 237.682 209.863 236.891C211.134 236.089 212.639 235.688 214.379 235.688C216.587 235.688 218.389 236.385 219.785 237.781C221.181 239.177 221.879 241.214 221.879 243.891V260H216.207V244.766C216.207 243.276 215.811 242.187 215.02 241.5C214.228 240.802 213.259 240.453 212.113 240.453C210.749 240.453 209.681 240.88 208.91 241.734C208.15 242.578 207.77 243.677 207.77 245.031V260H202.223V244.531C202.223 243.292 201.848 242.302 201.098 241.562C200.358 240.823 199.389 240.453 198.191 240.453C197.379 240.453 196.639 240.661 195.973 241.078C195.306 241.484 194.775 242.062 194.379 242.812C193.983 243.552 193.785 244.417 193.785 245.406V260H188.129ZM246.586 242.344L241.43 242.906C241.284 242.385 241.029 241.896 240.664 241.438C240.31 240.979 239.831 240.609 239.227 240.328C238.622 240.047 237.883 239.906 237.008 239.906C235.831 239.906 234.841 240.161 234.039 240.672C233.247 241.182 232.857 241.844 232.867 242.656C232.857 243.354 233.112 243.922 233.633 244.359C234.164 244.797 235.039 245.156 236.258 245.438L240.352 246.312C242.622 246.802 244.31 247.578 245.414 248.641C246.529 249.703 247.091 251.094 247.102 252.812C247.091 254.323 246.648 255.656 245.773 256.812C244.909 257.958 243.706 258.854 242.164 259.5C240.622 260.146 238.852 260.469 236.852 260.469C233.914 260.469 231.549 259.854 229.758 258.625C227.966 257.385 226.898 255.661 226.555 253.453L232.07 252.922C232.32 254.005 232.852 254.823 233.664 255.375C234.477 255.927 235.534 256.203 236.836 256.203C238.18 256.203 239.258 255.927 240.07 255.375C240.893 254.823 241.305 254.141 241.305 253.328C241.305 252.641 241.039 252.073 240.508 251.625C239.987 251.177 239.174 250.833 238.07 250.594L233.977 249.734C231.674 249.255 229.971 248.448 228.867 247.312C227.763 246.167 227.216 244.719 227.227 242.969C227.216 241.49 227.617 240.208 228.43 239.125C229.253 238.031 230.393 237.187 231.852 236.594C233.32 235.99 235.013 235.688 236.93 235.688C239.742 235.688 241.956 236.286 243.57 237.484C245.195 238.682 246.201 240.302 246.586 242.344ZM264.828 226.5L254.516 264.812H249.562L259.875 226.5H264.828ZM287.406 242.344L282.25 242.906C282.104 242.385 281.849 241.896 281.484 241.438C281.13 240.979 280.651 240.609 280.047 240.328C279.443 240.047 278.703 239.906 277.828 239.906C276.651 239.906 275.661 240.161 274.859 240.672C274.068 241.182 273.677 241.844 273.688 242.656C273.677 243.354 273.932 243.922 274.453 244.359C274.984 244.797 275.859 245.156 277.078 245.438L281.172 246.312C283.443 246.802 285.13 247.578 286.234 248.641C287.349 249.703 287.911 251.094 287.922 252.812C287.911 254.323 287.469 255.656 286.594 256.812C285.729 257.958 284.526 258.854 282.984 259.5C281.443 260.146 279.672 260.469 277.672 260.469C274.734 260.469 272.37 259.854 270.578 258.625C268.786 257.385 267.719 255.661 267.375 253.453L272.891 252.922C273.141 254.005 273.672 254.823 274.484 255.375C275.297 255.927 276.354 256.203 277.656 256.203C279 256.203 280.078 255.927 280.891 255.375C281.714 254.823 282.125 254.141 282.125 253.328C282.125 252.641 281.859 252.073 281.328 251.625C280.807 251.177 279.995 250.833 278.891 250.594L274.797 249.734C272.495 249.255 270.792 248.448 269.687 247.312C268.583 246.167 268.036 244.719 268.047 242.969C268.036 241.49 268.438 240.208 269.25 239.125C270.073 238.031 271.214 237.187 272.672 236.594C274.141 235.99 275.833 235.688 277.75 235.688C280.563 235.688 282.776 236.286 284.391 237.484C286.016 238.682 287.021 240.302 287.406 242.344ZM298.242 245.937V260H292.586V228H298.117V240.078H298.398C298.961 238.724 299.831 237.656 301.008 236.875C302.195 236.083 303.706 235.688 305.539 235.688C307.206 235.688 308.659 236.036 309.898 236.734C311.138 237.432 312.096 238.453 312.773 239.797C313.461 241.141 313.805 242.781 313.805 244.719V260H308.148V245.594C308.148 243.979 307.732 242.724 306.898 241.828C306.076 240.922 304.919 240.469 303.43 240.469C302.43 240.469 301.534 240.687 300.742 241.125C299.961 241.552 299.346 242.172 298.898 242.984C298.461 243.797 298.242 244.781 298.242 245.937ZM330.039 260.469C327.695 260.469 325.664 259.953 323.945 258.922C322.227 257.891 320.893 256.448 319.945 254.594C319.008 252.74 318.539 250.573 318.539 248.094C318.539 245.615 319.008 243.443 319.945 241.578C320.893 239.714 322.227 238.266 323.945 237.234C325.664 236.203 327.695 235.688 330.039 235.688C332.383 235.688 334.414 236.203 336.133 237.234C337.852 238.266 339.18 239.714 340.117 241.578C341.065 243.443 341.539 245.615 341.539 248.094C341.539 250.573 341.065 252.74 340.117 254.594C339.18 256.448 337.852 257.891 336.133 258.922C334.414 259.953 332.383 260.469 330.039 260.469ZM330.07 255.937C331.341 255.937 332.404 255.589 333.258 254.891C334.112 254.182 334.747 253.234 335.164 252.047C335.591 250.859 335.805 249.536 335.805 248.078C335.805 246.609 335.591 245.281 335.164 244.094C334.747 242.896 334.112 241.943 333.258 241.234C332.404 240.526 331.341 240.172 330.07 240.172C328.768 240.172 327.685 240.526 326.82 241.234C325.966 241.943 325.326 242.896 324.898 244.094C324.482 245.281 324.273 246.609 324.273 248.078C324.273 249.536 324.482 250.859 324.898 252.047C325.326 253.234 325.966 254.182 326.82 254.891C327.685 255.589 328.768 255.937 330.07 255.937ZM346.34 260V236H351.824V240H352.074C352.512 238.615 353.262 237.547 354.324 236.797C355.397 236.036 356.621 235.656 357.996 235.656C358.309 235.656 358.658 235.672 359.043 235.703C359.439 235.724 359.767 235.76 360.027 235.812V241.016C359.788 240.932 359.408 240.859 358.887 240.797C358.376 240.724 357.882 240.687 357.402 240.687C356.371 240.687 355.444 240.911 354.621 241.359C353.809 241.797 353.168 242.406 352.699 243.187C352.23 243.969 351.996 244.87 351.996 245.891V260H346.34ZM377.059 236V240.375H363.262V236H377.059ZM366.668 230.25H372.324V252.781C372.324 253.542 372.439 254.125 372.668 254.531C372.908 254.927 373.22 255.198 373.605 255.344C373.991 255.49 374.418 255.562 374.887 255.562C375.241 255.562 375.564 255.536 375.855 255.484C376.158 255.432 376.387 255.385 376.543 255.344L377.496 259.766C377.194 259.87 376.762 259.984 376.199 260.109C375.647 260.234 374.97 260.307 374.168 260.328C372.751 260.37 371.475 260.156 370.34 259.687C369.204 259.208 368.303 258.469 367.637 257.469C366.98 256.469 366.658 255.219 366.668 253.719V230.25ZM395.563 244.344V249H381.156V244.344H395.563ZM407.168 228V260H401.512V228H407.168ZM412.984 260V236H418.641V260H412.984ZM415.828 232.594C414.932 232.594 414.161 232.297 413.516 231.703C412.87 231.099 412.547 230.375 412.547 229.531C412.547 228.677 412.87 227.953 413.516 227.359C414.161 226.755 414.932 226.453 415.828 226.453C416.734 226.453 417.505 226.755 418.141 227.359C418.786 227.953 419.109 228.677 419.109 229.531C419.109 230.375 418.786 231.099 418.141 231.703C417.505 232.297 416.734 232.594 415.828 232.594ZM430.113 245.937V260H424.457V236H429.863V240.078H430.145C430.697 238.734 431.577 237.667 432.785 236.875C434.004 236.083 435.509 235.688 437.301 235.688C438.957 235.688 440.4 236.042 441.629 236.75C442.868 237.458 443.827 238.484 444.504 239.828C445.191 241.172 445.53 242.802 445.52 244.719V260H439.863V245.594C439.863 243.99 439.447 242.734 438.613 241.828C437.79 240.922 436.65 240.469 435.191 240.469C434.202 240.469 433.322 240.687 432.551 241.125C431.79 241.552 431.191 242.172 430.754 242.984C430.327 243.797 430.113 244.781 430.113 245.937ZM456.426 252.469L456.41 245.641H457.316L465.941 236H472.551L461.941 247.812H460.77L456.426 252.469ZM451.27 260V228H456.926V260H451.27ZM466.332 260L458.52 249.078L462.332 245.094L473.098 260H466.332Z"
    fill="#08272E" />
  <rect x="409" y="422" width="547" height="158" rx="35" fill="white" stroke="#E7EEFF" stroke-width="10" />
  <path
    d="M576.509 482.636H583.097V506.393C583.097 508.998 582.481 511.288 581.25 513.265C580.031 515.242 578.314 516.786 576.101 517.899C573.887 519 571.301 519.55 568.342 519.55C565.371 519.55 562.778 519 560.565 517.899C558.351 516.786 556.635 515.242 555.415 513.265C554.196 511.288 553.587 508.998 553.587 506.393V482.636H560.174V505.843C560.174 507.358 560.505 508.708 561.168 509.891C561.843 511.075 562.79 512.004 564.009 512.679C565.228 513.342 566.673 513.673 568.342 513.673C570.011 513.673 571.455 513.342 572.674 512.679C573.905 512.004 574.852 511.075 575.515 509.891C576.178 508.708 576.509 507.358 576.509 505.843V482.636ZM611.528 498.936L605.669 499.575C605.503 498.983 605.213 498.427 604.798 497.906C604.396 497.385 603.852 496.965 603.165 496.646C602.478 496.326 601.638 496.166 600.644 496.166C599.306 496.166 598.182 496.456 597.27 497.036C596.37 497.616 595.927 498.368 595.938 499.291C595.927 500.084 596.217 500.729 596.808 501.227C597.412 501.724 598.406 502.132 599.791 502.452L604.443 503.446C607.024 504.002 608.941 504.884 610.196 506.092C611.463 507.299 612.102 508.879 612.114 510.832C612.102 512.549 611.599 514.064 610.605 515.378C609.622 516.68 608.255 517.698 606.503 518.432C604.751 519.166 602.739 519.533 600.466 519.533C597.128 519.533 594.441 518.834 592.405 517.438C590.369 516.029 589.156 514.07 588.765 511.56L595.033 510.957C595.317 512.188 595.921 513.117 596.844 513.744C597.767 514.372 598.969 514.685 600.448 514.685C601.975 514.685 603.2 514.372 604.124 513.744C605.059 513.117 605.526 512.342 605.526 511.418C605.526 510.637 605.225 509.992 604.621 509.483C604.029 508.974 603.106 508.583 601.851 508.311L597.199 507.335C594.583 506.79 592.648 505.873 591.393 504.582C590.138 503.28 589.517 501.635 589.529 499.646C589.517 497.965 589.972 496.509 590.896 495.278C591.831 494.036 593.127 493.077 594.784 492.402C596.453 491.715 598.377 491.372 600.555 491.372C603.751 491.372 606.266 492.053 608.101 493.414C609.948 494.775 611.09 496.616 611.528 498.936ZM629.488 519.533C626.753 519.533 624.392 518.964 622.403 517.828C620.426 516.68 618.905 515.058 617.84 512.963C616.775 510.856 616.242 508.376 616.242 505.523C616.242 502.718 616.775 500.256 617.84 498.137C618.917 496.006 620.421 494.349 622.35 493.165C624.279 491.97 626.546 491.372 629.15 491.372C630.831 491.372 632.417 491.644 633.909 492.189C635.412 492.722 636.738 493.55 637.886 494.675C639.046 495.799 639.958 497.232 640.621 498.972C641.283 500.7 641.615 502.759 641.615 505.151V507.121H619.26V502.789H635.454C635.442 501.558 635.175 500.463 634.655 499.504C634.134 498.534 633.406 497.77 632.471 497.214C631.547 496.657 630.47 496.379 629.239 496.379C627.925 496.379 626.771 496.699 625.777 497.338C624.782 497.965 624.007 498.794 623.451 499.824C622.906 500.842 622.628 501.96 622.616 503.18V506.962C622.616 508.548 622.906 509.909 623.486 511.045C624.066 512.17 624.877 513.034 625.919 513.638C626.961 514.23 628.18 514.526 629.577 514.526C630.512 514.526 631.358 514.395 632.116 514.135C632.873 513.863 633.53 513.466 634.086 512.945C634.643 512.424 635.063 511.779 635.347 511.01L641.349 511.685C640.97 513.271 640.248 514.656 639.182 515.839C638.129 517.011 636.779 517.923 635.134 518.574C633.489 519.213 631.607 519.533 629.488 519.533ZM647.053 519V491.727H653.285V496.273H653.569C654.066 494.698 654.918 493.485 656.126 492.633C657.345 491.769 658.736 491.337 660.298 491.337C660.653 491.337 661.05 491.354 661.488 491.39C661.938 491.414 662.311 491.455 662.607 491.514V497.427C662.334 497.332 661.902 497.249 661.31 497.178C660.73 497.095 660.168 497.054 659.624 497.054C658.452 497.054 657.398 497.308 656.463 497.817C655.54 498.315 654.812 499.007 654.279 499.895C653.746 500.783 653.48 501.807 653.48 502.967V519H647.053ZM691.175 519.533C688.453 519.533 686.115 518.935 684.162 517.739C682.221 516.544 680.723 514.893 679.67 512.786C678.628 510.667 678.107 508.228 678.107 505.47C678.107 502.7 678.64 500.256 679.705 498.137C680.771 496.006 682.274 494.349 684.215 493.165C686.168 491.97 688.477 491.372 691.14 491.372C693.353 491.372 695.313 491.781 697.017 492.597C698.733 493.402 700.101 494.545 701.119 496.024C702.137 497.492 702.717 499.208 702.859 501.173H696.715C696.467 499.859 695.875 498.764 694.94 497.888C694.016 497.001 692.779 496.557 691.229 496.557C689.915 496.557 688.761 496.912 687.766 497.622C686.772 498.321 685.997 499.327 685.44 500.641C684.896 501.955 684.624 503.529 684.624 505.364C684.624 507.222 684.896 508.82 685.44 510.158C685.985 511.483 686.748 512.507 687.731 513.229C688.725 513.94 689.891 514.295 691.229 514.295C692.176 514.295 693.022 514.117 693.768 513.762C694.525 513.395 695.159 512.868 695.668 512.182C696.177 511.495 696.526 510.661 696.715 509.678H702.859C702.705 511.608 702.137 513.318 701.154 514.81C700.172 516.289 698.834 517.449 697.141 518.29C695.449 519.118 693.46 519.533 691.175 519.533ZM714.564 482.636V519H708.137V482.636H714.564ZM721.174 519V491.727H727.601V519H721.174ZM724.405 487.857C723.387 487.857 722.511 487.519 721.777 486.844C721.043 486.158 720.676 485.335 720.676 484.376C720.676 483.406 721.043 482.583 721.777 481.908C722.511 481.222 723.387 480.879 724.405 480.879C725.435 480.879 726.311 481.222 727.033 481.908C727.767 482.583 728.134 483.406 728.134 484.376C728.134 485.335 727.767 486.158 727.033 486.844C726.311 487.519 725.435 487.857 724.405 487.857ZM746.107 519.533C743.385 519.533 741.047 518.935 739.094 517.739C737.152 516.544 735.655 514.893 734.601 512.786C733.56 510.667 733.039 508.228 733.039 505.47C733.039 502.7 733.572 500.256 734.637 498.137C735.702 496.006 737.206 494.349 739.147 493.165C741.1 491.97 743.408 491.372 746.072 491.372C748.285 491.372 750.244 491.781 751.949 492.597C753.665 493.402 755.032 494.545 756.05 496.024C757.068 497.492 757.648 499.208 757.79 501.173H751.647C751.398 499.859 750.806 498.764 749.871 497.888C748.948 497.001 747.711 496.557 746.16 496.557C744.846 496.557 743.692 496.912 742.698 497.622C741.704 498.321 740.928 499.327 740.372 500.641C739.827 501.955 739.555 503.529 739.555 505.364C739.555 507.222 739.827 508.82 740.372 510.158C740.916 511.483 741.68 512.507 742.662 513.229C743.657 513.94 744.823 514.295 746.16 514.295C747.107 514.295 747.954 514.117 748.699 513.762C749.457 513.395 750.09 512.868 750.599 512.182C751.108 511.495 751.457 510.661 751.647 509.678H757.79C757.636 511.608 757.068 513.318 756.086 514.81C755.103 516.289 753.766 517.449 752.073 518.29C750.38 519.118 748.392 519.533 746.107 519.533ZM768.928 510.442L768.91 502.683H769.94L779.741 491.727H787.251L775.195 505.151H773.864L768.928 510.442ZM763.068 519V482.636H769.496V519H763.068ZM780.185 519L771.307 506.589L775.639 502.061L787.873 519H780.185ZM813.09 498.936L807.231 499.575C807.065 498.983 806.775 498.427 806.361 497.906C805.959 497.385 805.414 496.965 804.727 496.646C804.041 496.326 803.2 496.166 802.206 496.166C800.869 496.166 799.744 496.456 798.833 497.036C797.933 497.616 797.489 498.368 797.501 499.291C797.489 500.084 797.779 500.729 798.371 501.227C798.975 501.724 799.969 502.132 801.354 502.452L806.006 503.446C808.586 504.002 810.504 504.884 811.759 506.092C813.025 507.299 813.664 508.879 813.676 510.832C813.664 512.549 813.161 514.064 812.167 515.378C811.185 516.68 809.817 517.698 808.066 518.432C806.314 519.166 804.301 519.533 802.029 519.533C798.691 519.533 796.003 518.834 793.968 517.438C791.932 516.029 790.718 514.07 790.328 511.56L796.595 510.957C796.879 512.188 797.483 513.117 798.406 513.744C799.33 514.372 800.531 514.685 802.011 514.685C803.538 514.685 804.763 514.372 805.686 513.744C806.621 513.117 807.089 512.342 807.089 511.418C807.089 510.637 806.787 509.992 806.183 509.483C805.592 508.974 804.668 508.583 803.414 508.311L798.762 507.335C796.146 506.79 794.21 505.873 792.955 504.582C791.701 503.28 791.079 501.635 791.091 499.646C791.079 497.965 791.535 496.509 792.458 495.278C793.393 494.036 794.69 493.077 796.347 492.402C798.016 491.715 799.939 491.372 802.117 491.372C805.313 491.372 807.829 492.053 809.664 493.414C811.51 494.775 812.652 496.616 813.09 498.936Z"
    fill="#08272E" />
  <rect x="524" y="711" width="880" height="275" rx="36" fill="white" stroke="#3971FF" stroke-width="8" />
  <path
    d="M582.909 801H570.587V764.636H583.158C586.768 764.636 589.869 765.364 592.462 766.82C595.066 768.264 597.066 770.342 598.463 773.053C599.86 775.763 600.558 779.007 600.558 782.783C600.558 786.571 599.854 789.826 598.445 792.548C597.049 795.271 595.03 797.36 592.391 798.816C589.763 800.272 586.602 801 582.909 801ZM577.174 795.3H582.589C585.123 795.3 587.236 794.839 588.928 793.915C590.621 792.98 591.893 791.589 592.746 789.743C593.598 787.884 594.024 785.564 594.024 782.783C594.024 780.001 593.598 777.693 592.746 775.858C591.893 774.011 590.633 772.632 588.964 771.721C587.307 770.798 585.247 770.336 582.785 770.336H577.174V795.3ZM606.533 801V773.727H612.961V801H606.533ZM609.765 769.857C608.747 769.857 607.871 769.519 607.137 768.844C606.403 768.158 606.036 767.335 606.036 766.376C606.036 765.406 606.403 764.583 607.137 763.908C607.871 763.222 608.747 762.879 609.765 762.879C610.794 762.879 611.67 763.222 612.392 763.908C613.126 764.583 613.493 765.406 613.493 766.376C613.493 767.335 613.126 768.158 612.392 768.844C611.67 769.519 610.794 769.857 609.765 769.857ZM619.57 801V773.727H625.802V778.273H626.086C626.584 776.698 627.436 775.485 628.643 774.633C629.863 773.769 631.253 773.337 632.816 773.337C633.171 773.337 633.568 773.354 634.006 773.39C634.455 773.414 634.828 773.455 635.124 773.514V779.427C634.852 779.332 634.42 779.249 633.828 779.178C633.248 779.095 632.686 779.054 632.141 779.054C630.969 779.054 629.916 779.308 628.981 779.817C628.057 780.315 627.329 781.007 626.797 781.895C626.264 782.783 625.998 783.807 625.998 784.967V801H619.57ZM650.345 801.533C647.611 801.533 645.249 800.964 643.261 799.828C641.284 798.68 639.763 797.058 638.697 794.963C637.632 792.856 637.099 790.376 637.099 787.523C637.099 784.718 637.632 782.256 638.697 780.137C639.775 778.006 641.278 776.349 643.207 775.165C645.137 773.97 647.404 773.372 650.008 773.372C651.689 773.372 653.275 773.644 654.766 774.189C656.27 774.722 657.595 775.55 658.744 776.675C659.904 777.799 660.815 779.232 661.478 780.972C662.141 782.7 662.472 784.759 662.472 787.151V789.121H640.118V784.789H656.311C656.299 783.558 656.033 782.463 655.512 781.504C654.991 780.534 654.263 779.77 653.328 779.214C652.405 778.657 651.328 778.379 650.097 778.379C648.783 778.379 647.629 778.699 646.634 779.338C645.64 779.965 644.865 780.794 644.308 781.824C643.764 782.842 643.486 783.96 643.474 785.18V788.962C643.474 790.548 643.764 791.909 644.344 793.045C644.924 794.17 645.735 795.034 646.776 795.638C647.818 796.23 649.037 796.526 650.434 796.526C651.369 796.526 652.215 796.395 652.973 796.135C653.731 795.863 654.388 795.466 654.944 794.945C655.5 794.424 655.92 793.779 656.205 793.01L662.206 793.685C661.827 795.271 661.105 796.656 660.04 797.839C658.986 799.011 657.637 799.923 655.991 800.574C654.346 801.213 652.464 801.533 650.345 801.533ZM679.806 801.533C677.084 801.533 674.746 800.935 672.793 799.739C670.852 798.544 669.354 796.893 668.301 794.786C667.259 792.667 666.738 790.228 666.738 787.47C666.738 784.7 667.271 782.256 668.336 780.137C669.401 778.006 670.905 776.349 672.846 775.165C674.799 773.97 677.107 773.372 679.771 773.372C681.984 773.372 683.943 773.781 685.648 774.597C687.364 775.402 688.731 776.545 689.749 778.024C690.767 779.492 691.347 781.208 691.49 783.173H685.346C685.097 781.859 684.506 780.764 683.57 779.888C682.647 779.001 681.41 778.557 679.86 778.557C678.546 778.557 677.392 778.912 676.397 779.622C675.403 780.321 674.628 781.327 674.071 782.641C673.527 783.955 673.254 785.529 673.254 787.364C673.254 789.222 673.527 790.82 674.071 792.158C674.616 793.483 675.379 794.507 676.362 795.229C677.356 795.94 678.522 796.295 679.86 796.295C680.807 796.295 681.653 796.117 682.399 795.762C683.156 795.395 683.789 794.868 684.298 794.182C684.807 793.495 685.157 792.661 685.346 791.678H691.49C691.336 793.608 690.767 795.318 689.785 796.81C688.802 798.289 687.465 799.449 685.772 800.29C684.079 801.118 682.091 801.533 679.806 801.533ZM710.386 773.727V778.699H694.708V773.727H710.386ZM698.578 767.193H705.006V792.797C705.006 793.661 705.136 794.324 705.397 794.786C705.669 795.235 706.024 795.543 706.462 795.709C706.9 795.875 707.385 795.957 707.918 795.957C708.32 795.957 708.687 795.928 709.019 795.869C709.362 795.809 709.623 795.756 709.8 795.709L710.883 800.734C710.54 800.852 710.049 800.982 709.409 801.124C708.782 801.266 708.013 801.349 707.101 801.373C705.491 801.42 704.041 801.178 702.751 800.645C701.461 800.1 700.437 799.26 699.679 798.124C698.934 796.987 698.567 795.567 698.578 793.862V767.193ZM722.775 764.636V801H716.347V764.636H722.775ZM733.38 811.227C732.504 811.227 731.693 811.156 730.947 811.014C730.213 810.884 729.627 810.73 729.189 810.553L730.681 805.545C731.616 805.818 732.45 805.948 733.184 805.936C733.918 805.924 734.563 805.693 735.12 805.244C735.688 804.806 736.167 804.072 736.558 803.042L737.108 801.568L727.218 773.727H734.037L740.322 794.324H740.606L746.909 773.727H753.745L742.826 804.303C742.317 805.747 741.642 806.984 740.801 808.013C739.961 809.055 738.931 809.848 737.712 810.393C736.505 810.949 735.06 811.227 733.38 811.227ZM782.492 801.533C779.828 801.533 777.52 800.947 775.567 799.775C773.614 798.603 772.099 796.964 771.022 794.857C769.956 792.75 769.424 790.287 769.424 787.47C769.424 784.653 769.956 782.185 771.022 780.066C772.099 777.947 773.614 776.302 775.567 775.13C777.52 773.958 779.828 773.372 782.492 773.372C785.155 773.372 787.463 773.958 789.417 775.13C791.37 776.302 792.879 777.947 793.944 780.066C795.021 782.185 795.56 784.653 795.56 787.47C795.56 790.287 795.021 792.75 793.944 794.857C792.879 796.964 791.37 798.603 789.417 799.775C787.463 800.947 785.155 801.533 782.492 801.533ZM782.527 796.384C783.971 796.384 785.179 795.987 786.15 795.194C787.12 794.389 787.842 793.312 788.316 791.962C788.801 790.613 789.044 789.11 789.044 787.452C789.044 785.783 788.801 784.274 788.316 782.925C787.842 781.563 787.12 780.48 786.15 779.675C785.179 778.871 783.971 778.468 782.527 778.468C781.048 778.468 779.817 778.871 778.834 779.675C777.864 780.48 777.136 781.563 776.65 782.925C776.177 784.274 775.94 785.783 775.94 787.452C775.94 789.11 776.177 790.613 776.65 791.962C777.136 793.312 777.864 794.389 778.834 795.194C779.817 795.987 781.048 796.384 782.527 796.384ZM801.015 811.227V773.727H807.336V778.237H807.709C808.041 777.574 808.508 776.87 809.112 776.124C809.716 775.367 810.532 774.722 811.562 774.189C812.592 773.644 813.906 773.372 815.504 773.372C817.611 773.372 819.511 773.911 821.204 774.988C822.908 776.053 824.258 777.634 825.252 779.729C826.258 781.812 826.761 784.369 826.761 787.399C826.761 790.394 826.27 792.939 825.287 795.034C824.305 797.129 822.967 798.727 821.275 799.828C819.582 800.929 817.664 801.479 815.522 801.479C813.959 801.479 812.663 801.219 811.633 800.698C810.604 800.177 809.775 799.55 809.148 798.816C808.532 798.07 808.053 797.366 807.709 796.703H807.443V811.227H801.015ZM807.319 787.364C807.319 789.127 807.567 790.672 808.064 791.998C808.573 793.324 809.301 794.359 810.248 795.105C811.207 795.839 812.367 796.206 813.729 796.206C815.149 796.206 816.339 795.827 817.297 795.07C818.256 794.3 818.978 793.253 819.464 791.927C819.961 790.589 820.209 789.068 820.209 787.364C820.209 785.671 819.967 784.168 819.481 782.854C818.996 781.54 818.274 780.51 817.315 779.764C816.356 779.018 815.161 778.646 813.729 778.646C812.355 778.646 811.189 779.007 810.231 779.729C809.272 780.451 808.544 781.463 808.047 782.765C807.561 784.067 807.319 785.6 807.319 787.364ZM844.339 801.533C841.605 801.533 839.243 800.964 837.255 799.828C835.278 798.68 833.757 797.058 832.692 794.963C831.626 792.856 831.094 790.376 831.094 787.523C831.094 784.718 831.626 782.256 832.692 780.137C833.769 778.006 835.272 776.349 837.202 775.165C839.131 773.97 841.398 773.372 844.002 773.372C845.683 773.372 847.269 773.644 848.76 774.189C850.264 774.722 851.59 775.55 852.738 776.675C853.898 777.799 854.809 779.232 855.472 780.972C856.135 782.7 856.466 784.759 856.466 787.151V789.121H834.112V784.789H850.305C850.293 783.558 850.027 782.463 849.506 781.504C848.985 780.534 848.257 779.77 847.322 779.214C846.399 778.657 845.322 778.379 844.091 778.379C842.777 778.379 841.623 778.699 840.628 779.338C839.634 779.965 838.859 780.794 838.302 781.824C837.758 782.842 837.48 783.96 837.468 785.18V788.962C837.468 790.548 837.758 791.909 838.338 793.045C838.918 794.17 839.729 795.034 840.77 795.638C841.812 796.23 843.031 796.526 844.428 796.526C845.363 796.526 846.21 796.395 846.967 796.135C847.725 795.863 848.382 795.466 848.938 794.945C849.494 794.424 849.915 793.779 850.199 793.01L856.2 793.685C855.821 795.271 855.099 796.656 854.034 797.839C852.98 799.011 851.631 799.923 849.986 800.574C848.34 801.213 846.458 801.533 844.339 801.533ZM868.332 785.02V801H861.904V773.727H868.048V778.362H868.367C868.995 776.835 869.995 775.621 871.368 774.722C872.753 773.822 874.463 773.372 876.499 773.372C878.381 773.372 880.021 773.775 881.418 774.58C882.826 775.384 883.915 776.55 884.685 778.077C885.466 779.604 885.851 781.457 885.839 783.635V801H879.411V784.629C879.411 782.806 878.938 781.38 877.991 780.35C877.056 779.32 875.759 778.805 874.102 778.805C872.978 778.805 871.978 779.054 871.102 779.551C870.237 780.036 869.557 780.741 869.06 781.664C868.574 782.587 868.332 783.706 868.332 785.02ZM913.928 780.936L908.069 781.575C907.903 780.983 907.613 780.427 907.199 779.906C906.796 779.385 906.252 778.965 905.565 778.646C904.879 778.326 904.038 778.166 903.044 778.166C901.706 778.166 900.582 778.456 899.67 779.036C898.771 779.616 898.327 780.368 898.339 781.291C898.327 782.084 898.617 782.729 899.209 783.227C899.813 783.724 900.807 784.132 902.192 784.452L906.844 785.446C909.424 786.002 911.342 786.884 912.597 788.092C913.863 789.299 914.502 790.879 914.514 792.832C914.502 794.549 913.999 796.064 913.005 797.378C912.022 798.68 910.655 799.698 908.903 800.432C907.152 801.166 905.139 801.533 902.866 801.533C899.528 801.533 896.841 800.834 894.805 799.438C892.769 798.029 891.556 796.07 891.165 793.56L897.433 792.957C897.717 794.188 898.321 795.117 899.244 795.744C900.168 796.372 901.369 796.685 902.849 796.685C904.376 796.685 905.601 796.372 906.524 795.744C907.459 795.117 907.927 794.342 907.927 793.418C907.927 792.637 907.625 791.992 907.021 791.483C906.429 790.974 905.506 790.583 904.251 790.311L899.599 789.335C896.983 788.79 895.048 787.873 893.793 786.582C892.539 785.28 891.917 783.635 891.929 781.646C891.917 779.965 892.373 778.509 893.296 777.278C894.231 776.036 895.527 775.077 897.185 774.402C898.854 773.715 900.777 773.372 902.955 773.372C906.151 773.372 908.667 774.053 910.501 775.414C912.348 776.775 913.49 778.616 913.928 780.936ZM944.113 801.533C941.39 801.533 939.053 800.935 937.099 799.739C935.158 798.544 933.661 796.893 932.607 794.786C931.566 792.667 931.045 790.228 931.045 787.47C931.045 784.7 931.577 782.256 932.643 780.137C933.708 778.006 935.211 776.349 937.153 775.165C939.106 773.97 941.414 773.372 944.077 773.372C946.291 773.372 948.25 773.781 949.955 774.597C951.671 775.402 953.038 776.545 954.056 778.024C955.074 779.492 955.654 781.208 955.796 783.173H949.653C949.404 781.859 948.812 780.764 947.877 779.888C946.954 779.001 945.717 778.557 944.166 778.557C942.852 778.557 941.698 778.912 940.704 779.622C939.71 780.321 938.934 781.327 938.378 782.641C937.833 783.955 937.561 785.529 937.561 787.364C937.561 789.222 937.833 790.82 938.378 792.158C938.922 793.483 939.686 794.507 940.668 795.229C941.663 795.94 942.829 796.295 944.166 796.295C945.113 796.295 945.96 796.117 946.705 795.762C947.463 795.395 948.096 794.868 948.605 794.182C949.114 793.495 949.463 792.661 949.653 791.678H955.796C955.642 793.608 955.074 795.318 954.092 796.81C953.109 798.289 951.772 799.449 950.079 800.29C948.386 801.118 946.397 801.533 944.113 801.533ZM972.97 801.533C970.307 801.533 967.999 800.947 966.046 799.775C964.093 798.603 962.577 796.964 961.5 794.857C960.435 792.75 959.902 790.287 959.902 787.47C959.902 784.653 960.435 782.185 961.5 780.066C962.577 777.947 964.093 776.302 966.046 775.13C967.999 773.958 970.307 773.372 972.97 773.372C975.634 773.372 977.942 773.958 979.895 775.13C981.848 776.302 983.357 777.947 984.423 780.066C985.5 782.185 986.039 784.653 986.039 787.47C986.039 790.287 985.5 792.75 984.423 794.857C983.357 796.964 981.848 798.603 979.895 799.775C977.942 800.947 975.634 801.533 972.97 801.533ZM973.006 796.384C974.45 796.384 975.657 795.987 976.628 795.194C977.599 794.389 978.321 793.312 978.794 791.962C979.28 790.613 979.522 789.11 979.522 787.452C979.522 785.783 979.28 784.274 978.794 782.925C978.321 781.563 977.599 780.48 976.628 779.675C975.657 778.871 974.45 778.468 973.006 778.468C971.526 778.468 970.295 778.871 969.313 779.675C968.342 780.48 967.614 781.563 967.129 782.925C966.655 784.274 966.419 785.783 966.419 787.452C966.419 789.11 966.655 790.613 967.129 791.962C967.614 793.312 968.342 794.389 969.313 795.194C970.295 795.987 971.526 796.384 973.006 796.384ZM997.922 785.02V801H991.494V773.727H997.637V778.362H997.957C998.584 776.835 999.585 775.621 1000.96 774.722C1002.34 773.822 1004.05 773.372 1006.09 773.372C1007.97 773.372 1009.61 773.775 1011.01 774.58C1012.42 775.384 1013.51 776.55 1014.27 778.077C1015.06 779.604 1015.44 781.457 1015.43 783.635V801H1009V784.629C1009 782.806 1008.53 781.38 1007.58 780.35C1006.65 779.32 1005.35 778.805 1003.69 778.805C1002.57 778.805 1001.57 779.054 1000.69 779.551C999.827 780.036 999.147 780.741 998.65 781.664C998.164 782.587 997.922 783.706 997.922 785.02ZM1035.58 773.727V778.699H1019.9V773.727H1035.58ZM1023.77 767.193H1030.2V792.797C1030.2 793.661 1030.33 794.324 1030.59 794.786C1030.86 795.235 1031.22 795.543 1031.66 795.709C1032.1 795.875 1032.58 795.957 1033.11 795.957C1033.52 795.957 1033.88 795.928 1034.21 795.869C1034.56 795.809 1034.82 795.756 1035 795.709L1036.08 800.734C1035.74 800.852 1035.24 800.982 1034.6 801.124C1033.98 801.266 1033.21 801.349 1032.3 801.373C1030.69 801.42 1029.24 801.178 1027.95 800.645C1026.66 800.1 1025.63 799.26 1024.87 798.124C1024.13 796.987 1023.76 795.567 1023.77 793.862V767.193ZM1052.74 801.533C1050 801.533 1047.64 800.964 1045.65 799.828C1043.68 798.68 1042.16 797.058 1041.09 794.963C1040.02 792.856 1039.49 790.376 1039.49 787.523C1039.49 784.718 1040.02 782.256 1041.09 780.137C1042.17 778.006 1043.67 776.349 1045.6 775.165C1047.53 773.97 1049.8 773.372 1052.4 773.372C1054.08 773.372 1055.67 773.644 1057.16 774.189C1058.66 774.722 1059.99 775.55 1061.14 776.675C1062.3 777.799 1063.21 779.232 1063.87 780.972C1064.53 782.7 1064.86 784.759 1064.86 787.151V789.121H1042.51V784.789H1058.7C1058.69 783.558 1058.43 782.463 1057.9 781.504C1057.38 780.534 1056.66 779.77 1055.72 779.214C1054.8 778.657 1053.72 778.379 1052.49 778.379C1051.18 778.379 1050.02 778.699 1049.03 779.338C1048.03 779.965 1047.26 780.794 1046.7 781.824C1046.16 782.842 1045.88 783.96 1045.87 785.18V788.962C1045.87 790.548 1046.16 791.909 1046.74 793.045C1047.32 794.17 1048.13 795.034 1049.17 795.638C1050.21 796.23 1051.43 796.526 1052.83 796.526C1053.76 796.526 1054.61 796.395 1055.37 796.135C1056.12 795.863 1056.78 795.466 1057.34 794.945C1057.89 794.424 1058.31 793.779 1058.6 793.01L1064.6 793.685C1064.22 795.271 1063.5 796.656 1062.43 797.839C1061.38 799.011 1060.03 799.923 1058.38 800.574C1056.74 801.213 1054.86 801.533 1052.74 801.533ZM1076.73 785.02V801H1070.3V773.727H1076.45V778.362H1076.77C1077.39 776.835 1078.39 775.621 1079.77 774.722C1081.15 773.822 1082.86 773.372 1084.9 773.372C1086.78 773.372 1088.42 773.775 1089.82 774.58C1091.22 775.384 1092.31 776.55 1093.08 778.077C1093.86 779.604 1094.25 781.457 1094.24 783.635V801H1087.81V784.629C1087.81 782.806 1087.34 781.38 1086.39 780.35C1085.45 779.32 1084.16 778.805 1082.5 778.805C1081.38 778.805 1080.38 779.054 1079.5 779.551C1078.64 780.036 1077.96 780.741 1077.46 781.664C1076.97 782.587 1076.73 783.706 1076.73 785.02ZM1114.39 773.727V778.699H1098.71V773.727H1114.39ZM1102.58 767.193H1109.01V792.797C1109.01 793.661 1109.14 794.324 1109.4 794.786C1109.67 795.235 1110.03 795.543 1110.47 795.709C1110.9 795.875 1111.39 795.957 1111.92 795.957C1112.32 795.957 1112.69 795.928 1113.02 795.869C1113.37 795.809 1113.63 795.756 1113.8 795.709L1114.89 800.734C1114.54 800.852 1114.05 800.982 1113.41 801.124C1112.79 801.266 1112.02 801.349 1111.11 801.373C1109.5 801.42 1108.05 801.178 1106.75 800.645C1105.46 800.1 1104.44 799.26 1103.68 798.124C1102.94 796.987 1102.57 795.567 1102.58 793.862V767.193ZM1132.17 801V773.727H1138.6V801H1132.17ZM1135.4 769.857C1134.38 769.857 1133.51 769.519 1132.77 768.844C1132.04 768.158 1131.67 767.335 1131.67 766.376C1131.67 765.406 1132.04 764.583 1132.77 763.908C1133.51 763.222 1134.38 762.879 1135.4 762.879C1136.43 762.879 1137.31 763.222 1138.03 763.908C1138.76 764.583 1139.13 765.406 1139.13 766.376C1139.13 767.335 1138.76 768.158 1138.03 768.844C1137.31 769.519 1136.43 769.857 1135.4 769.857ZM1151.63 785.02V801H1145.2V773.727H1151.35V778.362H1151.67C1152.3 776.835 1153.3 775.621 1154.67 774.722C1156.05 773.822 1157.76 773.372 1159.8 773.372C1161.68 773.372 1163.32 773.775 1164.72 774.58C1166.13 775.384 1167.22 776.55 1167.99 778.077C1168.77 779.604 1169.15 781.457 1169.14 783.635V801H1162.71V784.629C1162.71 782.806 1162.24 781.38 1161.29 780.35C1160.36 779.32 1159.06 778.805 1157.4 778.805C1156.28 778.805 1155.28 779.054 1154.4 779.551C1153.54 780.036 1152.86 780.741 1152.36 781.664C1151.88 782.587 1151.63 783.706 1151.63 785.02ZM1195.92 801.55C1194.2 801.55 1192.64 801.243 1191.25 800.627C1189.88 800 1188.79 799.076 1187.99 797.857C1187.19 796.638 1186.8 795.135 1186.8 793.347C1186.8 791.808 1187.08 790.536 1187.65 789.53C1188.22 788.524 1188.99 787.719 1189.98 787.115C1190.96 786.511 1192.07 786.056 1193.3 785.748C1194.54 785.428 1195.82 785.197 1197.15 785.055C1198.75 784.89 1200.04 784.742 1201.04 784.612C1202.03 784.469 1202.75 784.256 1203.2 783.972C1203.67 783.676 1203.9 783.221 1203.9 782.605V782.499C1203.9 781.161 1203.5 780.125 1202.71 779.391C1201.91 778.657 1200.77 778.29 1199.28 778.29C1197.71 778.29 1196.46 778.634 1195.53 779.32C1194.62 780.007 1194.01 780.818 1193.69 781.753L1187.69 780.901C1188.16 779.243 1188.94 777.858 1190.03 776.746C1191.12 775.621 1192.45 774.781 1194.02 774.224C1195.6 773.656 1197.34 773.372 1199.24 773.372C1200.56 773.372 1201.87 773.526 1203.17 773.834C1204.47 774.142 1205.66 774.651 1206.74 775.361C1207.81 776.059 1208.68 777.012 1209.33 778.219C1209.99 779.427 1210.32 780.936 1210.32 782.747V801H1204.14V797.254H1203.93C1203.54 798.011 1202.99 798.721 1202.28 799.384C1201.58 800.035 1200.7 800.562 1199.63 800.964C1198.58 801.355 1197.34 801.55 1195.92 801.55ZM1197.59 796.827C1198.88 796.827 1200 796.573 1200.95 796.064C1201.9 795.543 1202.62 794.857 1203.13 794.004C1203.65 793.152 1203.91 792.223 1203.91 791.217V788.003C1203.71 788.169 1203.37 788.322 1202.88 788.464C1202.41 788.607 1201.88 788.731 1201.29 788.837C1200.69 788.944 1200.11 789.039 1199.53 789.121C1198.95 789.204 1198.45 789.275 1198.02 789.335C1197.06 789.465 1196.2 789.678 1195.44 789.974C1194.69 790.27 1194.09 790.684 1193.65 791.217C1193.21 791.737 1192.99 792.412 1192.99 793.241C1192.99 794.424 1193.43 795.318 1194.29 795.922C1195.15 796.526 1196.26 796.827 1197.59 796.827ZM1216.79 811.227V773.727H1223.11V778.237H1223.48C1223.81 777.574 1224.28 776.87 1224.88 776.124C1225.49 775.367 1226.3 774.722 1227.33 774.189C1228.36 773.644 1229.68 773.372 1231.28 773.372C1233.38 773.372 1235.28 773.911 1236.98 774.988C1238.68 776.053 1240.03 777.634 1241.02 779.729C1242.03 781.812 1242.53 784.369 1242.53 787.399C1242.53 790.394 1242.04 792.939 1241.06 795.034C1240.08 797.129 1238.74 798.727 1237.05 799.828C1235.35 800.929 1233.44 801.479 1231.29 801.479C1229.73 801.479 1228.43 801.219 1227.4 800.698C1226.38 800.177 1225.55 799.55 1224.92 798.816C1224.3 798.07 1223.82 797.366 1223.48 796.703H1223.21V811.227H1216.79ZM1223.09 787.364C1223.09 789.127 1223.34 790.672 1223.84 791.998C1224.34 793.324 1225.07 794.359 1226.02 795.105C1226.98 795.839 1228.14 796.206 1229.5 796.206C1230.92 796.206 1232.11 795.827 1233.07 795.07C1234.03 794.3 1234.75 793.253 1235.24 791.927C1235.73 790.589 1235.98 789.068 1235.98 787.364C1235.98 785.671 1235.74 784.168 1235.25 782.854C1234.77 781.54 1234.05 780.51 1233.09 779.764C1232.13 779.018 1230.93 778.646 1229.5 778.646C1228.13 778.646 1226.96 779.007 1226 779.729C1225.04 780.451 1224.32 781.463 1223.82 782.765C1223.33 784.067 1223.09 785.6 1223.09 787.364ZM1248.04 811.227V773.727H1254.36V778.237H1254.73C1255.06 777.574 1255.53 776.87 1256.13 776.124C1256.74 775.367 1257.55 774.722 1258.58 774.189C1259.61 773.644 1260.93 773.372 1262.53 773.372C1264.63 773.372 1266.53 773.911 1268.23 774.988C1269.93 776.053 1271.28 777.634 1272.27 779.729C1273.28 781.812 1273.78 784.369 1273.78 787.399C1273.78 790.394 1273.29 792.939 1272.31 795.034C1271.33 797.129 1269.99 798.727 1268.3 799.828C1266.6 800.929 1264.69 801.479 1262.54 801.479C1260.98 801.479 1259.68 801.219 1258.65 800.698C1257.63 800.177 1256.8 799.55 1256.17 798.816C1255.55 798.07 1255.07 797.366 1254.73 796.703H1254.46V811.227H1248.04ZM1254.34 787.364C1254.34 789.127 1254.59 790.672 1255.09 791.998C1255.59 793.324 1256.32 794.359 1257.27 795.105C1258.23 795.839 1259.39 796.206 1260.75 796.206C1262.17 796.206 1263.36 795.827 1264.32 795.07C1265.28 794.3 1266 793.253 1266.49 791.927C1266.98 790.589 1267.23 789.068 1267.23 787.364C1267.23 785.671 1266.99 784.168 1266.5 782.854C1266.02 781.54 1265.3 780.51 1264.34 779.764C1263.38 779.018 1262.18 778.646 1260.75 778.646C1259.38 778.646 1258.21 779.007 1257.25 779.729C1256.29 780.451 1255.57 781.463 1255.07 782.765C1254.58 784.067 1254.34 785.6 1254.34 787.364Z"
    fill="#08272E" />
  <path d="M967 498C1155 498 1194 526 1194 700.5" stroke="#3971FF" stroke-width="8" />
  <g clip-path="url(#clip0_234_4)">
    <g opacity="0.53" filter="url(#filter0_f_234_4)">
      <path
        d="M1327.88 907.112C1327.88 911.171 1327.05 915.191 1325.42 918.941C1323.79 922.692 1321.41 926.099 1318.4 928.97C1315.39 931.84 1311.82 934.117 1307.89 935.67C1303.96 937.224 1299.75 938.023 1295.5 938.023C1291.25 938.023 1287.04 937.224 1283.11 935.67C1279.18 934.117 1275.61 931.84 1272.6 928.97C1269.6 926.099 1267.21 922.692 1265.59 918.941C1263.96 915.191 1263.12 911.171 1263.12 907.112C1263.12 898.914 1266.53 891.052 1272.6 885.255C1278.68 879.458 1286.91 876.201 1295.5 876.201C1299.75 876.201 1303.96 877.001 1307.89 878.554C1311.82 880.108 1315.39 882.384 1318.4 885.255C1321.41 888.125 1323.79 891.533 1325.42 895.283C1327.05 899.033 1327.88 903.053 1327.88 907.112Z"
        fill="black" />
    </g>
    <path
      d="M1329.11 904.383C1329.11 908.759 1328.24 913.092 1326.56 917.135C1324.87 921.178 1322.39 924.851 1319.27 927.946C1316.15 931.04 1312.44 933.494 1308.36 935.169C1304.29 936.844 1299.91 937.706 1295.5 937.706C1286.59 937.706 1278.04 934.195 1271.73 927.946C1265.43 921.696 1261.89 913.221 1261.89 904.383C1261.89 895.545 1265.43 887.069 1271.73 880.82C1278.04 874.571 1286.59 871.06 1295.5 871.06C1299.91 871.06 1304.29 871.922 1308.36 873.597C1312.44 875.271 1316.15 877.726 1319.27 880.82C1322.39 883.914 1324.87 887.588 1326.56 891.631C1328.24 895.674 1329.11 900.007 1329.11 904.383Z"
      fill="url(#paint0_linear_234_4)" stroke="#CDCDCD" stroke-width="0.351543" stroke-linecap="round"
      stroke-linejoin="round" />
    <path
      d="M1326.48 904.383C1326.48 912.528 1323.22 920.34 1317.41 926.099C1311.6 931.859 1303.72 935.094 1295.5 935.094C1287.28 935.094 1279.4 931.859 1273.59 926.099C1267.78 920.34 1264.52 912.528 1264.52 904.383C1264.52 896.238 1267.78 888.426 1273.59 882.666C1279.4 876.907 1287.28 873.671 1295.5 873.671C1303.72 873.671 1311.6 876.907 1317.41 882.666C1323.22 888.426 1326.48 896.238 1326.48 904.383Z"
      fill="url(#paint1_radial_234_4)" />
    <path
      d="M1295.5 875.273C1295.25 875.273 1295.05 875.473 1295.05 875.721V880.885C1295.05 881.134 1295.25 881.333 1295.5 881.333C1295.75 881.333 1295.95 881.134 1295.95 880.885V875.721C1295.95 875.473 1295.75 875.273 1295.5 875.273ZM1292.55 875.458C1292.52 875.455 1292.48 875.455 1292.45 875.458C1292.2 875.484 1292.02 875.704 1292.05 875.95L1292.28 878.111C1292.3 878.358 1292.53 878.536 1292.77 878.51C1293.02 878.484 1293.2 878.265 1293.18 878.018L1292.95 875.857C1292.93 875.641 1292.75 875.478 1292.55 875.458ZM1298.48 875.46C1298.27 875.48 1298.09 875.643 1298.07 875.859L1297.84 878.02C1297.82 878.267 1297.99 878.486 1298.24 878.512C1298.49 878.538 1298.71 878.36 1298.74 878.114L1298.97 875.953C1299 875.706 1298.82 875.487 1298.57 875.461C1298.54 875.458 1298.51 875.458 1298.48 875.46ZM1289.51 875.894C1289.48 875.895 1289.45 875.898 1289.42 875.904C1289.17 875.955 1289.02 876.192 1289.07 876.435L1290.15 881.488C1290.2 881.73 1290.44 881.884 1290.68 881.833C1290.93 881.782 1291.08 881.545 1291.03 881.302L1289.95 876.249C1289.91 876.037 1289.72 875.893 1289.51 875.894ZM1301.51 875.899C1301.3 875.897 1301.11 876.041 1301.07 876.253L1299.98 881.306C1299.93 881.548 1300.09 881.785 1300.33 881.837C1300.58 881.888 1300.82 881.734 1300.87 881.492L1301.95 876.44C1302 876.197 1301.85 875.96 1301.6 875.909C1301.57 875.902 1301.54 875.899 1301.51 875.899ZM1286.61 876.704C1286.55 876.699 1286.49 876.705 1286.43 876.725C1286.2 876.801 1286.07 877.053 1286.14 877.289L1286.82 879.355C1286.9 879.591 1287.15 879.719 1287.39 879.643C1287.63 879.566 1287.76 879.314 1287.68 879.078L1287 877.012C1286.95 876.835 1286.79 876.719 1286.61 876.704ZM1304.39 876.705C1304.22 876.72 1304.06 876.836 1304 877.013L1303.32 879.079C1303.25 879.315 1303.37 879.567 1303.61 879.644C1303.85 879.72 1304.1 879.592 1304.18 879.356L1304.86 877.29C1304.94 877.054 1304.81 876.802 1304.57 876.726C1304.51 876.707 1304.45 876.7 1304.39 876.705ZM1283.75 877.743C1283.69 877.744 1283.63 877.757 1283.57 877.782C1283.34 877.883 1283.24 878.147 1283.34 878.373L1285.46 883.093C1285.56 883.32 1285.83 883.421 1286.06 883.32C1286.28 883.219 1286.39 882.956 1286.29 882.729L1284.17 878.01C1284.09 877.84 1283.92 877.74 1283.75 877.743ZM1307.29 877.759C1307.11 877.756 1306.94 877.855 1306.87 878.025L1304.74 882.742C1304.64 882.968 1304.74 883.232 1304.97 883.333C1305.2 883.434 1305.47 883.333 1305.57 883.106L1307.69 878.39C1307.79 878.163 1307.69 877.899 1307.46 877.798C1307.41 877.773 1307.35 877.76 1307.29 877.759ZM1281.09 879.138C1281 879.132 1280.91 879.151 1280.83 879.197C1280.62 879.321 1280.54 879.594 1280.67 879.809L1281.76 881.691C1281.89 881.905 1282.16 881.978 1282.38 881.854C1282.6 881.73 1282.67 881.458 1282.54 881.243L1281.45 879.361C1281.37 879.227 1281.23 879.148 1281.09 879.138ZM1309.91 879.138C1309.77 879.148 1309.63 879.227 1309.55 879.361L1308.46 881.243C1308.33 881.458 1308.4 881.73 1308.62 881.854C1308.84 881.978 1309.11 881.905 1309.24 881.69L1310.33 879.809C1310.46 879.594 1310.38 879.321 1310.17 879.197C1310.09 879.151 1310 879.132 1309.91 879.138ZM1278.51 880.734C1278.42 880.738 1278.33 880.765 1278.26 880.82C1278.06 880.966 1278.01 881.244 1278.16 881.445L1281.22 885.626C1281.36 885.827 1281.64 885.871 1281.85 885.725C1282.05 885.58 1282.09 885.301 1281.95 885.1L1278.89 880.919C1278.8 880.794 1278.65 880.73 1278.51 880.734ZM1312.52 880.757C1312.38 880.752 1312.24 880.816 1312.14 880.942L1309.08 885.118C1308.93 885.319 1308.98 885.598 1309.18 885.744C1309.38 885.89 1309.66 885.846 1309.81 885.645L1312.87 881.469C1313.02 881.268 1312.98 880.989 1312.77 880.843C1312.7 880.788 1312.61 880.76 1312.52 880.757ZM1276.2 882.653C1276.08 882.647 1275.97 882.685 1275.87 882.768C1275.69 882.934 1275.67 883.216 1275.84 883.4L1277.31 885.015C1277.47 885.199 1277.76 885.214 1277.94 885.048C1278.13 884.882 1278.15 884.6 1277.98 884.416L1276.51 882.801C1276.43 882.709 1276.31 882.659 1276.2 882.653ZM1314.8 882.656C1314.69 882.663 1314.58 882.712 1314.49 882.804L1313.03 884.419C1312.86 884.603 1312.87 884.885 1313.06 885.051C1313.24 885.217 1313.53 885.202 1313.7 885.018L1315.16 883.404C1315.33 883.219 1315.32 882.937 1315.13 882.771C1315.04 882.688 1314.92 882.65 1314.8 882.656ZM1273.99 884.76C1273.87 884.766 1273.76 884.815 1273.68 884.908C1273.51 885.092 1273.52 885.374 1273.71 885.54L1277.58 888.995C1277.77 889.161 1278.05 889.146 1278.22 888.962C1278.39 888.778 1278.37 888.496 1278.19 888.33L1274.31 884.874C1274.22 884.791 1274.1 884.753 1273.99 884.76ZM1317.03 884.775C1316.91 884.768 1316.79 884.806 1316.7 884.889L1312.83 888.342C1312.64 888.508 1312.62 888.79 1312.79 888.974C1312.96 889.159 1313.24 889.174 1313.43 889.008L1317.3 885.555C1317.49 885.389 1317.51 885.107 1317.34 884.923C1317.25 884.831 1317.14 884.781 1317.03 884.775ZM1272.15 887.104C1272 887.099 1271.86 887.164 1271.77 887.289C1271.62 887.49 1271.66 887.769 1271.87 887.914L1273.64 889.191C1273.84 889.337 1274.12 889.293 1274.27 889.092C1274.42 888.892 1274.37 888.613 1274.17 888.467L1272.4 887.19C1272.32 887.135 1272.24 887.107 1272.15 887.104ZM1318.86 887.121C1318.78 887.124 1318.69 887.151 1318.61 887.206L1316.84 888.482C1316.64 888.627 1316.59 888.907 1316.74 889.107C1316.89 889.308 1317.17 889.352 1317.37 889.207L1319.14 887.931C1319.35 887.785 1319.39 887.506 1319.24 887.306C1319.15 887.18 1319.01 887.116 1318.86 887.121ZM1270.43 889.605C1270.28 889.615 1270.15 889.694 1270.07 889.829C1269.94 890.043 1270.02 890.316 1270.24 890.44L1274.75 893.023C1274.96 893.147 1275.24 893.073 1275.36 892.859C1275.49 892.644 1275.42 892.371 1275.2 892.247L1270.69 889.665C1270.61 889.618 1270.52 889.599 1270.43 889.605ZM1320.57 889.605C1320.48 889.599 1320.39 889.618 1320.31 889.665L1315.8 892.247C1315.58 892.371 1315.51 892.644 1315.64 892.859C1315.76 893.074 1316.04 893.147 1316.25 893.023L1320.77 890.44C1320.98 890.316 1321.06 890.043 1320.93 889.829C1320.85 889.694 1320.72 889.615 1320.57 889.605ZM1269.13 892.271C1268.95 892.267 1268.78 892.367 1268.71 892.537C1268.61 892.763 1268.71 893.027 1268.94 893.128L1270.94 894.013C1271.17 894.114 1271.43 894.013 1271.53 893.787C1271.64 893.56 1271.53 893.296 1271.31 893.195L1269.3 892.31C1269.25 892.285 1269.19 892.272 1269.13 892.271ZM1321.88 892.29C1321.82 892.291 1321.76 892.303 1321.7 892.329L1319.7 893.212C1319.47 893.313 1319.37 893.577 1319.47 893.803C1319.57 894.03 1319.84 894.131 1320.07 894.03L1322.07 893.147C1322.3 893.046 1322.4 892.782 1322.3 892.556C1322.22 892.386 1322.06 892.286 1321.88 892.29ZM1267.97 895.058C1267.8 895.072 1267.64 895.188 1267.58 895.365C1267.5 895.601 1267.63 895.853 1267.87 895.93L1272.82 897.53C1273.06 897.607 1273.32 897.479 1273.39 897.243C1273.47 897.007 1273.34 896.755 1273.1 896.678L1268.15 895.078C1268.09 895.059 1268.03 895.053 1267.97 895.058ZM1323.04 895.077C1322.98 895.071 1322.92 895.078 1322.86 895.097L1317.9 896.694C1317.66 896.771 1317.53 897.022 1317.61 897.258C1317.69 897.494 1317.94 897.622 1318.18 897.546L1323.14 895.949C1323.37 895.872 1323.5 895.621 1323.43 895.385C1323.37 895.208 1323.21 895.091 1323.04 895.077ZM1267.25 897.982C1267.04 897.98 1266.85 898.125 1266.81 898.337C1266.75 898.58 1266.91 898.817 1267.15 898.868L1269.3 899.32C1269.54 899.372 1269.78 899.218 1269.83 898.975C1269.88 898.732 1269.73 898.496 1269.48 898.444L1267.34 897.992C1267.31 897.986 1267.28 897.982 1267.25 897.982ZM1323.75 897.987C1323.72 897.987 1323.69 897.991 1323.66 897.996L1321.52 898.448C1321.27 898.499 1321.12 898.736 1321.17 898.978C1321.22 899.221 1321.46 899.375 1321.7 899.324L1323.85 898.872C1324.09 898.821 1324.25 898.584 1324.2 898.341C1324.15 898.129 1323.96 897.985 1323.75 897.987ZM1266.7 900.924C1266.49 900.944 1266.32 901.107 1266.3 901.323C1266.27 901.57 1266.45 901.789 1266.7 901.815L1271.88 902.358C1272.13 902.385 1272.35 902.207 1272.38 901.96C1272.4 901.714 1272.22 901.494 1271.98 901.468L1266.8 900.925C1266.76 900.922 1266.73 900.922 1266.7 900.924ZM1324.3 900.963C1324.27 900.96 1324.24 900.96 1324.21 900.963L1319.03 901.499C1318.78 901.525 1318.6 901.745 1318.63 901.991C1318.65 902.238 1318.87 902.416 1319.12 902.39L1324.3 901.854C1324.55 901.828 1324.73 901.609 1324.71 901.362C1324.68 901.146 1324.51 900.983 1324.3 900.963ZM1266.62 903.936C1266.37 903.936 1266.16 904.136 1266.16 904.384C1266.16 904.632 1266.37 904.831 1266.62 904.831H1268.81C1269.06 904.831 1269.26 904.632 1269.26 904.384C1269.26 904.136 1269.06 903.936 1268.81 903.936H1266.62ZM1322.19 903.936C1321.94 903.936 1321.74 904.136 1321.74 904.384C1321.74 904.632 1321.94 904.831 1322.19 904.831H1324.38C1324.63 904.831 1324.84 904.632 1324.84 904.384C1324.84 904.136 1324.63 903.936 1324.38 903.936H1322.19ZM1271.97 906.377C1271.94 906.374 1271.91 906.374 1271.88 906.377L1266.7 906.913C1266.45 906.939 1266.27 907.158 1266.29 907.405C1266.32 907.652 1266.54 907.83 1266.79 907.804L1271.97 907.268C1272.22 907.242 1272.4 907.023 1272.37 906.776C1272.35 906.56 1272.18 906.397 1271.97 906.377ZM1319.03 906.409C1318.82 906.428 1318.65 906.591 1318.62 906.807C1318.6 907.054 1318.78 907.274 1319.02 907.3L1324.2 907.843C1324.45 907.869 1324.68 907.691 1324.7 907.444C1324.73 907.198 1324.55 906.978 1324.3 906.952L1319.12 906.409C1319.09 906.406 1319.06 906.406 1319.03 906.409ZM1269.39 909.434C1269.36 909.434 1269.33 909.437 1269.3 909.443L1267.15 909.895C1266.91 909.946 1266.75 910.183 1266.8 910.426C1266.86 910.668 1267.1 910.822 1267.34 910.771L1269.48 910.319C1269.73 910.268 1269.88 910.031 1269.83 909.788C1269.79 909.576 1269.6 909.432 1269.39 909.434ZM1321.61 909.438C1321.4 909.436 1321.21 909.58 1321.17 909.793C1321.12 910.035 1321.27 910.272 1321.52 910.324L1323.66 910.775C1323.9 910.827 1324.14 910.673 1324.19 910.43C1324.25 910.188 1324.09 909.951 1323.85 909.899L1321.7 909.448C1321.67 909.441 1321.64 909.438 1321.61 909.438ZM1273 911.201C1272.94 911.196 1272.88 911.202 1272.82 911.222L1267.86 912.819C1267.63 912.895 1267.5 913.147 1267.57 913.383C1267.65 913.619 1267.91 913.747 1268.14 913.67L1273.1 912.074C1273.34 911.997 1273.47 911.745 1273.39 911.509C1273.33 911.332 1273.17 911.216 1273 911.201ZM1318 911.217C1317.82 911.232 1317.67 911.348 1317.61 911.525C1317.53 911.761 1317.66 912.012 1317.9 912.089L1322.85 913.689C1323.09 913.766 1323.34 913.638 1323.42 913.402C1323.5 913.167 1323.37 912.915 1323.13 912.838L1318.18 911.238C1318.12 911.219 1318.06 911.212 1318 911.217ZM1271.11 914.698C1271.05 914.699 1270.99 914.712 1270.93 914.737L1268.93 915.621C1268.7 915.722 1268.6 915.985 1268.7 916.212C1268.8 916.439 1269.07 916.54 1269.3 916.439L1271.3 915.555C1271.53 915.455 1271.63 915.191 1271.53 914.964C1271.45 914.794 1271.28 914.695 1271.11 914.698ZM1319.89 914.715C1319.71 914.711 1319.54 914.811 1319.47 914.981C1319.36 915.208 1319.47 915.471 1319.69 915.572L1321.7 916.457C1321.92 916.558 1322.19 916.457 1322.29 916.231C1322.39 916.004 1322.29 915.741 1322.06 915.64L1320.06 914.754C1320 914.729 1319.95 914.717 1319.89 914.715ZM1275 915.686C1274.92 915.679 1274.83 915.699 1274.75 915.745L1270.24 918.327C1270.02 918.452 1269.94 918.724 1270.07 918.939C1270.19 919.154 1270.47 919.227 1270.69 919.103L1275.2 916.521C1275.42 916.397 1275.49 916.124 1275.36 915.909C1275.29 915.775 1275.15 915.696 1275 915.686ZM1316 915.686C1315.85 915.695 1315.71 915.775 1315.64 915.909C1315.51 916.124 1315.58 916.397 1315.8 916.521L1320.31 919.103C1320.53 919.227 1320.81 919.154 1320.93 918.939C1321.06 918.724 1320.98 918.451 1320.77 918.327L1316.25 915.745C1316.17 915.699 1316.08 915.68 1316 915.686ZM1273.88 919.475C1273.79 919.479 1273.71 919.506 1273.63 919.561L1271.86 920.837C1271.65 920.982 1271.61 921.261 1271.76 921.462C1271.9 921.663 1272.18 921.707 1272.39 921.562L1274.16 920.286C1274.36 920.14 1274.41 919.861 1274.26 919.66C1274.17 919.535 1274.02 919.47 1273.88 919.475ZM1317.11 919.49C1316.97 919.485 1316.82 919.55 1316.73 919.675C1316.58 919.876 1316.63 920.155 1316.83 920.301L1318.6 921.578C1318.8 921.724 1319.09 921.679 1319.23 921.479C1319.38 921.278 1319.34 920.999 1319.13 920.853L1317.36 919.576C1317.28 919.522 1317.2 919.494 1317.11 919.49ZM1277.9 919.645C1277.78 919.639 1277.66 919.677 1277.57 919.76L1273.7 923.212C1273.51 923.378 1273.49 923.66 1273.66 923.845C1273.83 924.029 1274.11 924.044 1274.3 923.878L1278.17 920.426C1278.36 920.26 1278.38 919.978 1278.21 919.793C1278.12 919.701 1278.01 919.651 1277.9 919.645ZM1313.09 919.657C1312.98 919.664 1312.86 919.713 1312.78 919.805C1312.61 919.99 1312.63 920.272 1312.81 920.438L1316.69 923.893C1316.87 924.059 1317.16 924.044 1317.32 923.86C1317.49 923.676 1317.48 923.394 1317.29 923.228L1313.42 919.772C1313.33 919.689 1313.21 919.651 1313.09 919.657ZM1281.57 922.938C1281.43 922.932 1281.28 922.997 1281.19 923.122L1278.13 927.298C1277.98 927.499 1278.02 927.778 1278.23 927.924C1278.43 928.07 1278.71 928.026 1278.86 927.825L1281.92 923.649C1282.07 923.448 1282.02 923.169 1281.82 923.023C1281.75 922.969 1281.66 922.941 1281.57 922.938ZM1309.4 922.956C1309.32 922.96 1309.23 922.987 1309.15 923.042C1308.95 923.187 1308.91 923.466 1309.05 923.667L1312.11 927.848C1312.26 928.048 1312.54 928.093 1312.74 927.947C1312.94 927.802 1312.99 927.523 1312.84 927.322L1309.78 923.141C1309.69 923.016 1309.55 922.951 1309.4 922.956ZM1277.62 923.601C1277.5 923.608 1277.39 923.657 1277.3 923.749L1275.84 925.364C1275.67 925.548 1275.68 925.83 1275.87 925.996C1276.06 926.162 1276.34 926.147 1276.51 925.963L1277.97 924.349C1278.14 924.164 1278.13 923.882 1277.94 923.716C1277.85 923.633 1277.73 923.595 1277.62 923.601ZM1313.38 923.604C1313.27 923.597 1313.15 923.635 1313.06 923.718C1312.87 923.884 1312.85 924.166 1313.02 924.351L1314.49 925.965C1314.66 926.15 1314.94 926.165 1315.13 925.999C1315.31 925.833 1315.33 925.55 1315.16 925.366L1313.69 923.752C1313.61 923.659 1313.5 923.61 1313.38 923.604ZM1285.85 925.395C1285.68 925.39 1285.51 925.49 1285.43 925.66L1283.31 930.377C1283.21 930.603 1283.31 930.867 1283.54 930.968C1283.77 931.069 1284.03 930.968 1284.13 930.742L1286.26 926.025C1286.36 925.798 1286.26 925.535 1286.03 925.434C1285.97 925.408 1285.91 925.396 1285.85 925.395ZM1305.12 925.408C1305.06 925.409 1305 925.421 1304.94 925.446C1304.72 925.547 1304.61 925.811 1304.71 926.037L1306.83 930.757C1306.93 930.983 1307.2 931.085 1307.43 930.984C1307.66 930.883 1307.76 930.62 1307.66 930.393L1305.54 925.674C1305.46 925.504 1305.3 925.404 1305.12 925.408ZM1282.12 926.853C1281.98 926.862 1281.84 926.942 1281.76 927.076L1280.67 928.958C1280.54 929.172 1280.62 929.445 1280.83 929.569C1281.05 929.693 1281.32 929.62 1281.45 929.405L1282.54 927.524C1282.67 927.309 1282.6 927.036 1282.38 926.912C1282.3 926.866 1282.21 926.847 1282.12 926.853ZM1308.88 926.853C1308.79 926.846 1308.7 926.866 1308.62 926.912C1308.4 927.036 1308.33 927.309 1308.46 927.524L1309.55 929.405C1309.68 929.62 1309.95 929.693 1310.17 929.569C1310.38 929.445 1310.46 929.172 1310.33 928.958L1309.24 927.076C1309.16 926.942 1309.02 926.863 1308.88 926.853ZM1290.58 926.92C1290.37 926.918 1290.18 927.063 1290.13 927.275L1289.05 932.327C1289 932.57 1289.15 932.807 1289.4 932.858C1289.64 932.91 1289.88 932.756 1289.93 932.513L1291.02 927.461C1291.07 927.219 1290.91 926.982 1290.67 926.93C1290.64 926.924 1290.61 926.92 1290.58 926.92ZM1300.41 926.923C1300.38 926.924 1300.35 926.927 1300.32 926.933C1300.07 926.984 1299.92 927.221 1299.97 927.464L1301.05 932.517C1301.1 932.759 1301.34 932.913 1301.58 932.862C1301.83 932.811 1301.98 932.574 1301.93 932.331L1300.85 927.279C1300.81 927.066 1300.62 926.922 1300.41 926.923ZM1295.5 927.433C1295.25 927.433 1295.05 927.633 1295.05 927.881V933.046C1295.05 933.294 1295.25 933.493 1295.5 933.493C1295.75 933.493 1295.95 933.294 1295.95 933.046V927.881C1295.95 927.633 1295.75 927.433 1295.5 927.433ZM1287.21 929.102C1287.03 929.117 1286.88 929.233 1286.82 929.41L1286.14 931.476C1286.06 931.712 1286.19 931.964 1286.43 932.041C1286.67 932.117 1286.92 931.989 1287 931.753L1287.68 929.687C1287.75 929.451 1287.63 929.199 1287.39 929.123C1287.33 929.104 1287.27 929.097 1287.21 929.102ZM1303.79 929.103C1303.73 929.098 1303.67 929.104 1303.61 929.124C1303.37 929.2 1303.24 929.452 1303.32 929.688L1304 931.754C1304.07 931.99 1304.33 932.118 1304.57 932.041C1304.8 931.965 1304.93 931.713 1304.86 931.477L1304.18 929.411C1304.12 929.234 1303.96 929.118 1303.79 929.103ZM1292.66 930.254C1292.46 930.274 1292.28 930.437 1292.26 930.653L1292.03 932.813C1292 933.06 1292.18 933.279 1292.43 933.305C1292.68 933.331 1292.9 933.154 1292.93 932.907L1293.16 930.746C1293.18 930.5 1293.01 930.28 1292.76 930.254C1292.73 930.251 1292.69 930.251 1292.66 930.254ZM1298.32 930.256C1298.29 930.253 1298.26 930.253 1298.23 930.256C1297.98 930.282 1297.8 930.501 1297.82 930.748L1298.05 932.909C1298.08 933.156 1298.3 933.334 1298.55 933.308C1298.8 933.282 1298.97 933.063 1298.95 932.816L1298.72 930.655C1298.7 930.439 1298.53 930.276 1298.32 930.256Z"
      fill="#F4F2F3" />
    <g opacity="0.409" filter="url(#filter1_f_234_4)">
      <path d="M1316.67 886.472L1291.96 900.706L1276.33 925.09L1299.19 908.307L1316.67 886.472Z" fill="black" />
    </g>
    <path d="M1299.04 908.06L1291.96 900.706L1317.09 883.95L1299.04 908.06Z" fill="#FF5150" />
    <path d="M1299.04 908.06L1291.96 900.706L1273.91 924.816L1299.04 908.06Z" fill="#F1F1F1" />
    <path opacity="0.243" d="M1273.91 924.816L1299.04 908.06L1317.09 883.95L1273.91 924.816Z" fill="black" />
  </g>
  <path
    d="M1049.58 928.624C1020.69 942.374 1002.76 930.87 991.28 923.882C990.57 923.442 989.363 923.985 990.41 925.188C994.234 929.825 1006.77 941 1023.12 941C1039.49 941 1049.23 932.069 1050.45 930.511C1051.66 928.966 1050.8 928.113 1049.58 928.624H1049.58ZM1057.69 924.143C1056.92 923.132 1052.98 922.944 1050.5 923.249C1048.01 923.545 1044.28 925.063 1044.61 925.975C1044.77 926.317 1045.11 926.163 1046.82 926.01C1048.53 925.839 1053.33 925.234 1054.32 926.54C1055.33 927.855 1052.8 934.12 1052.33 935.13C1051.89 936.14 1052.5 936.401 1053.34 935.728C1054.17 935.055 1055.67 933.313 1056.68 930.848C1057.68 928.37 1058.28 924.912 1057.69 924.143Z"
    fill="#FF9900" />
  <path fill-rule="evenodd" clip-rule="evenodd"
    d="M1030.15 900.567C1030.15 904.174 1030.25 907.183 1028.42 910.387C1026.95 912.992 1024.62 914.594 1022.01 914.594C1018.46 914.594 1016.39 911.885 1016.39 907.887C1016.39 899.993 1023.46 898.561 1030.15 898.561V900.567ZM1039.49 923.139C1038.88 923.686 1037.99 923.725 1037.3 923.36C1034.23 920.807 1033.68 919.622 1031.99 917.186C1026.91 922.37 1023.32 923.92 1016.73 923.92C1008.94 923.92 1002.87 919.114 1002.87 909.489C1002.87 901.973 1006.94 896.854 1012.74 894.354C1017.77 892.139 1024.79 891.749 1030.15 891.137V889.938C1030.15 887.737 1030.32 885.132 1029.03 883.231C1027.9 881.524 1025.74 880.821 1023.84 880.821C1020.31 880.821 1017.15 882.631 1016.39 886.382C1016.23 887.216 1015.62 888.037 1014.78 888.076L1005.8 887.112C1005.04 886.942 1004.21 886.33 1004.42 885.171C1006.49 874.282 1016.32 871 1025.13 871C1029.63 871 1035.52 872.198 1039.08 875.611C1043.58 879.818 1043.15 885.432 1043.15 891.54V905.972C1043.15 910.309 1044.95 912.211 1046.64 914.555C1047.24 915.389 1047.37 916.392 1046.62 917.017C1044.73 918.593 1041.37 921.524 1039.52 923.165L1039.49 923.139"
    fill="black" />
  <path
    d="M1049.58 928.624C1020.69 942.374 1002.76 930.87 991.28 923.882C990.57 923.442 989.363 923.985 990.41 925.188C994.234 929.825 1006.77 941 1023.12 941C1039.49 941 1049.23 932.069 1050.45 930.511C1051.66 928.966 1050.8 928.113 1049.58 928.624H1049.58ZM1057.69 924.143C1056.92 923.132 1052.98 922.944 1050.5 923.249C1048.01 923.545 1044.28 925.063 1044.61 925.975C1044.77 926.317 1045.11 926.163 1046.82 926.01C1048.53 925.839 1053.33 925.234 1054.32 926.54C1055.33 927.855 1052.8 934.12 1052.33 935.13C1051.89 936.14 1052.5 936.401 1053.34 935.728C1054.17 935.055 1055.67 933.313 1056.68 930.848C1057.68 928.37 1058.28 924.912 1057.69 924.143Z"
    fill="#FF9900" />
  <path fill-rule="evenodd" clip-rule="evenodd"
    d="M1030.15 900.567C1030.15 904.174 1030.25 907.183 1028.42 910.387C1026.95 912.992 1024.62 914.594 1022.01 914.594C1018.46 914.594 1016.39 911.885 1016.39 907.887C1016.39 899.993 1023.46 898.561 1030.15 898.561V900.567ZM1039.49 923.139C1038.88 923.686 1037.99 923.725 1037.3 923.36C1034.23 920.807 1033.68 919.622 1031.99 917.186C1026.91 922.37 1023.32 923.92 1016.73 923.92C1008.94 923.92 1002.87 919.114 1002.87 909.489C1002.87 901.973 1006.94 896.854 1012.74 894.354C1017.77 892.139 1024.79 891.749 1030.15 891.137V889.938C1030.15 887.737 1030.32 885.132 1029.03 883.231C1027.9 881.524 1025.74 880.821 1023.84 880.821C1020.31 880.821 1017.15 882.631 1016.39 886.382C1016.23 887.216 1015.62 888.037 1014.78 888.076L1005.8 887.112C1005.04 886.942 1004.21 886.33 1004.42 885.171C1006.49 874.282 1016.32 871 1025.13 871C1029.63 871 1035.52 872.198 1039.08 875.611C1043.58 879.818 1043.15 885.432 1043.15 891.54V905.972C1043.15 910.309 1044.95 912.211 1046.64 914.555C1047.24 915.389 1047.37 916.392 1046.62 917.017C1044.73 918.593 1041.37 921.524 1039.52 923.165L1039.49 923.139"
    fill="black" />
  <g clip-path="url(#clip1_234_4)">
    <path
      d="M1158 921.492C1167.66 921.492 1175.5 913.657 1175.5 903.992C1175.5 894.327 1167.66 886.492 1158 886.492C1148.34 886.492 1140.5 894.327 1140.5 903.992C1140.5 913.657 1148.34 921.492 1158 921.492Z"
      fill="white" />
    <path
      d="M1158 886.5H1188.31C1185.23 881.179 1180.82 876.761 1175.5 873.689C1170.18 870.617 1164.14 869 1158 869C1151.85 869 1145.82 870.618 1140.5 873.691C1135.18 876.764 1130.76 881.183 1127.69 886.504L1142.84 912.75L1142.86 912.747C1141.32 910.088 1140.5 907.071 1140.5 903.998C1140.5 900.925 1141.3 897.906 1142.84 895.244C1144.37 892.583 1146.58 890.373 1149.25 888.838C1151.91 887.303 1154.93 886.496 1158 886.5Z"
      fill="url(#paint2_linear_234_4)" />
    <path
      d="M1158 917.854C1165.65 917.854 1171.85 911.651 1171.85 904C1171.85 896.348 1165.65 890.146 1158 890.146C1150.35 890.146 1144.15 896.348 1144.15 904C1144.15 911.651 1150.35 917.854 1158 917.854Z"
      fill="#1A73E8" />
    <path
      d="M1173.15 912.754L1158 939C1164.14 939.001 1170.18 937.384 1175.5 934.313C1180.82 931.241 1185.24 926.823 1188.31 921.502C1191.38 916.182 1193 910.146 1193 904.003C1193 897.859 1191.38 891.824 1188.3 886.505H1158L1157.99 886.518C1161.07 886.512 1164.09 887.317 1166.75 888.85C1169.41 890.383 1171.62 892.592 1173.16 895.252C1174.7 897.913 1175.51 900.932 1175.51 904.004C1175.51 907.077 1174.69 910.095 1173.15 912.754Z"
      fill="url(#paint3_linear_234_4)" />
    <path
      d="M1142.85 912.755L1127.69 886.509C1124.62 891.829 1123 897.864 1123 904.007C1123 910.151 1124.62 916.186 1127.69 921.507C1130.76 926.827 1135.18 931.244 1140.5 934.315C1145.82 937.386 1151.86 939.002 1158 939L1173.16 912.754L1173.15 912.744C1171.62 915.408 1169.41 917.622 1166.75 919.161C1164.09 920.7 1161.07 921.511 1158 921.512C1154.93 921.514 1151.91 920.704 1149.25 919.167C1146.59 917.629 1144.38 915.418 1142.85 912.755Z"
      fill="url(#paint4_linear_234_4)" />
  </g>
  <g clip-path="url(#clip2_234_4)">
    <path
      d="M770.931 879.931C769.793 875.628 766.438 872.24 762.179 871.09C754.458 869 723.5 869 723.5 869C723.5 869 692.542 869 684.821 871.09C680.562 872.24 677.207 875.628 676.069 879.931C674 887.729 674 904 674 904C674 904 674 920.271 676.069 928.07C677.207 932.372 680.562 935.76 684.821 936.911C692.542 939 723.5 939 723.5 939C723.5 939 754.458 939 762.179 936.911C766.438 935.76 769.793 932.372 770.931 928.07C773 920.271 773 904 773 904C773 904 773 887.729 770.931 879.931Z"
      fill="#ED1D24" />
    <path d="M713.375 918.773L739.25 904.001L713.375 889.227V918.773Z" fill="white" />
  </g>
  <g clip-path="url(#clip3_234_4)">
    <g clip-path="url(#clip4_234_4)">
      <path
        d="M910.813 885.298C910.813 882.974 908.93 881.098 906.615 881.098C904.3 881.098 902.415 882.974 902.415 885.298C902.415 887.613 904.3 889.489 906.615 889.489C908.93 889.489 910.813 887.613 910.813 885.298Z"
        fill="url(#paint5_linear_234_4)" />
      <path
        d="M916.406 918.08C916.251 921.489 915.681 923.34 915.208 924.57C914.572 926.201 913.813 927.367 912.583 928.59C911.367 929.814 910.201 930.57 908.57 931.199C907.34 931.679 905.482 932.251 902.073 932.413C898.388 932.576 897.296 932.611 887.952 932.611C878.616 932.611 877.516 932.576 873.831 932.413C870.423 932.251 868.572 931.679 867.342 931.199C865.703 930.57 864.545 929.814 863.322 928.59C862.09 927.367 861.332 926.201 860.705 924.57C860.232 923.34 859.653 921.489 859.506 918.08C859.326 914.395 859.293 913.286 859.293 903.961C859.293 894.616 859.326 893.516 859.506 889.831C859.653 886.422 860.232 884.572 860.705 883.332C861.332 881.703 862.09 880.544 863.322 879.32C864.545 878.099 865.703 877.341 867.342 876.705C868.572 876.223 870.423 875.66 873.831 875.497C877.516 875.335 878.616 875.293 887.952 875.293C897.296 875.293 898.388 875.335 902.073 875.497C905.482 875.66 907.34 876.223 908.57 876.705C910.201 877.341 911.367 878.099 912.583 879.32C913.813 880.544 914.572 881.703 915.208 883.332C915.681 884.572 916.251 886.422 916.406 889.831C916.578 893.516 916.619 894.616 916.619 903.961C916.619 913.286 916.578 914.395 916.406 918.08ZM922.7 889.544C922.529 885.819 921.942 883.275 921.069 881.058C920.181 878.759 918.991 876.81 917.042 874.862C915.102 872.922 913.154 871.731 910.854 870.833C908.629 869.969 906.093 869.375 902.367 869.212C898.64 869.033 897.45 869 887.952 869C878.462 869 877.264 869.033 873.537 869.212C869.82 869.375 867.285 869.969 865.05 870.833C862.759 871.731 860.81 872.922 858.87 874.862C856.922 876.81 855.731 878.759 854.835 881.058C853.971 883.275 853.384 885.819 853.204 889.544C853.041 893.271 853 894.462 853 903.961C853 913.45 853.041 914.64 853.204 918.367C853.384 922.084 853.971 924.627 854.835 926.854C855.731 929.145 856.922 931.102 858.87 933.042C860.81 934.982 862.759 936.181 865.05 937.078C867.285 937.942 869.82 938.529 873.537 938.7C877.264 938.871 878.462 938.913 887.952 938.913C897.45 938.913 898.64 938.871 902.367 938.7C906.093 938.529 908.629 937.942 910.854 937.078C913.154 936.181 915.102 934.982 917.042 933.042C918.991 931.102 920.181 929.145 921.069 926.854C921.942 924.627 922.529 922.084 922.7 918.367C922.871 914.64 922.913 913.45 922.913 903.961C922.913 894.462 922.871 893.271 922.7 889.544Z"
        fill="url(#paint6_linear_234_4)" />
      <path
        d="M887.952 915.603C881.52 915.603 876.301 910.392 876.301 903.961C876.301 897.518 881.52 892.301 887.952 892.301C894.386 892.301 899.611 897.518 899.611 903.961C899.611 910.392 894.386 915.603 887.952 915.603ZM887.952 885.999C878.037 885.999 870.008 894.046 870.008 903.961C870.008 913.866 878.037 921.905 887.952 921.905C897.866 921.905 905.905 913.866 905.905 903.961C905.905 894.046 897.866 885.999 887.952 885.999Z"
        fill="url(#paint7_linear_234_4)" />
    </g>
  </g>
  <defs>
    <filter id="filter0_f_234_4" x="1254.17" y="867.248" width="82.6693" height="79.7291" filterUnits="userSpaceOnUse"
      color-interpolation-filters="sRGB">
      <feFlood flood-opacity="0" result="BackgroundImageFix" />
      <feBlend mode="normal" in="SourceGraphic" in2="BackgroundImageFix" result="shape" />
      <feGaussianBlur stdDeviation="4.47676" result="effect1_foregroundBlur_234_4" />
    </filter>
    <filter id="filter1_f_234_4" x="1273.79" y="883.928" width="45.4261" height="43.7073" filterUnits="userSpaceOnUse"
      color-interpolation-filters="sRGB">
      <feFlood flood-opacity="0" result="BackgroundImageFix" />
      <feBlend mode="normal" in="SourceGraphic" in2="BackgroundImageFix" result="shape" />
      <feGaussianBlur stdDeviation="1.27242" result="effect1_foregroundBlur_234_4" />
    </filter>
    <linearGradient id="paint0_linear_234_4" x1="1295.5" y1="937.705" x2="1295.5" y2="871.06"
      gradientUnits="userSpaceOnUse">
      <stop stop-color="#BDBDBD" />
      <stop offset="1" stop-color="white" />
    </linearGradient>
    <radialGradient id="paint1_radial_234_4" cx="0" cy="0" r="1" gradientUnits="userSpaceOnUse"
      gradientTransform="translate(1295.64 899.905) scale(33.6137 33.3226)">
      <stop stop-color="#06C2E7" />
      <stop offset="0.25" stop-color="#0DB8EC" />
      <stop offset="0.5" stop-color="#12AEF1" />
      <stop offset="0.75" stop-color="#1F86F9" />
      <stop offset="1" stop-color="#107DDD" />
    </radialGradient>
    <linearGradient id="paint2_linear_234_4" x1="1127.69" y1="890.875" x2="1188.31" y2="890.875"
      gradientUnits="userSpaceOnUse">
      <stop stop-color="#D93025" />
      <stop offset="1" stop-color="#EA4335" />
    </linearGradient>
    <linearGradient id="paint3_linear_234_4" x1="1153.22" y1="938.532" x2="1183.53" y2="886.039"
      gradientUnits="userSpaceOnUse">
      <stop stop-color="#FCC934" />
      <stop offset="1" stop-color="#FBBC04" />
    </linearGradient>
    <linearGradient id="paint4_linear_234_4" x1="1161.79" y1="936.815" x2="1131.48" y2="884.321"
      gradientUnits="userSpaceOnUse">
      <stop stop-color="#1E8E3E" />
      <stop offset="1" stop-color="#34A853" />
    </linearGradient>
    <linearGradient id="paint5_linear_234_4" x1="853.631" y1="938.19" x2="917.09" y2="874.731"
      gradientUnits="userSpaceOnUse">
      <stop stop-color="#FFD521" />
      <stop offset="0.05" stop-color="#FFD521" />
      <stop offset="0.501119" stop-color="#F50000" />
      <stop offset="0.95" stop-color="#B900B4" />
      <stop offset="0.950079" stop-color="#B900B4" />
      <stop offset="1" stop-color="#B900B4" />
    </linearGradient>
    <linearGradient id="paint6_linear_234_4" x1="853.631" y1="938.277" x2="917.142" y2="874.766"
      gradientUnits="userSpaceOnUse">
      <stop stop-color="#FFD521" />
      <stop offset="0.05" stop-color="#FFD521" />
      <stop offset="0.501119" stop-color="#F50000" />
      <stop offset="0.95" stop-color="#B900B4" />
      <stop offset="0.950079" stop-color="#B900B4" />
      <stop offset="1" stop-color="#B900B4" />
    </linearGradient>
    <linearGradient id="paint7_linear_234_4" x1="853.647" y1="938.279" x2="917.143" y2="874.783"
      gradientUnits="userSpaceOnUse">
      <stop stop-color="#FFD521" />
      <stop offset="0.05" stop-color="#FFD521" />
      <stop offset="0.501119" stop-color="#F50000" />
      <stop offset="0.95" stop-color="#B900B4" />
      <stop offset="0.950079" stop-color="#B900B4" />
      <stop offset="1" stop-color="#B900B4" />
    </linearGradient>
    <clipPath id="clip0_234_4">
      <rect width="71" height="70" fill="white" transform="translate(1260 871)" />
    </clipPath>
    <clipPath id="clip1_234_4">
      <rect width="70" height="70" fill="white" transform="translate(1123 869)" />
    </clipPath>
    <clipPath id="clip2_234_4">
      <rect width="99" height="70" fill="white" transform="translate(674 869)" />
    </clipPath>
    <clipPath id="clip3_234_4">
      <rect width="70" height="70" fill="white" transform="translate(853 869)" />
    </clipPath>
    <clipPath id="clip4_234_4">
      <rect width="70" height="70" fill="white" transform="translate(853 869)" />
    </clipPath>
  </defs>
</svg>