<svg width="88" height="153" viewBox="0 0 88 153" fill="none" xmlns="http://www.w3.org/2000/svg">
  <path
    d="M49.971 60.2524C35.3212 52.7268 13.1704 30.4781 41.7655 1.68819C42.1875 33.8191 50.103 26.6188 49.971 60.2524Z"
    fill="#3970FF" />
  <path
    d="M45.785 1.26322C59.8866 9.77164 80.4663 33.4811 49.9719 60.2511C51.7451 28.1663 43.3564 34.8093 45.785 1.26322Z"
    fill="#2fcdfa" />
  <path
    d="M43.8445 93.459C35.4383 79.2962 28.5075 48.6755 68.0332 39.4961C51.3068 66.9333 61.8391 65.0437 43.8445 93.459Z"
    fill="#3970FF" />
  <path
    d="M71.6636 41.2733C79.0829 55.9772 83.9064 86.9996 43.8462 93.4584C62.4072 67.2275 51.7705 68.3934 71.6636 41.2733Z"
    fill="#1d4ed8" />
  <path d="M22.873 122.431C22.4101 105.968 31.2356 75.8387 70.2402 87.0271C42.287 102.876 52.41 106.344 22.873 122.431Z"
    fill="#3970FF" />
  <path
    d="M72.5492 90.3449C71.8868 106.801 61.0244 136.257 22.8749 122.432C51.8452 108.529 41.9826 104.378 72.5492 90.3449Z"
    fill="#2fcdfa" />
  <path
    d="M1.21843 134.839C9.76231 120.759 33.5235 100.239 60.2166 130.8C28.1365 128.946 34.7583 137.352 1.21843 134.839Z"
    fill="#3970FF" />
  <path d="M60.356 134.84C50.8705 148.304 25.7635 167.153 1.21971 134.84C33.0984 138.88 27.066 130.042 60.356 134.84Z"
    fill="#1d4ed8" />
</svg>