<svg width="256" height="65" viewBox="0 0 256 65" fill="none" xmlns="http://www.w3.org/2000/svg"><path d="M0 9.59H9.99V45.99H28.49V55.21H0V9.59Z" fill="#0A66C2" /><path
    d="M32.91 24.28H42.51V55.19H32.91V24.28ZM37.71 8.91C38.81 8.91 39.89 9.23 40.80 9.84C41.72 10.46 42.43 11.33 42.86 12.34C43.28 13.36 43.39 14.48 43.17 15.56C42.96 16.64 42.43 17.63 41.65 18.41C40.87 19.19 39.88 19.72 38.80 19.94C37.72 20.15 36.60 20.04 35.58 19.62C34.56 19.20 33.69 18.48 33.08 17.57C32.47 16.65 32.14 15.58 32.14 14.47C32.14 13.74 32.29 13.02 32.57 12.34C32.85 11.67 33.26 11.05 33.77 10.54C34.29 10.02 34.90 9.61 35.58 9.33C36.26 9.05 36.98 8.91 37.71 8.91Z"
    fill="#0A66C2" /><path
    d="M82.67 9.58H92.27V36.84L103.15 24.26H114.92L102.32 38.58L114.65 55.20H102.59L92.40 39.92H92.27V55.20H82.67L82.67 9.58Z"
    fill="#0A66C2" /><path
    d="M47.83 24.28H57.05V28.50H57.18C58.10 26.93 59.44 25.63 61.04 24.75C62.64 23.87 64.45 23.44 66.27 23.51C76.01 23.51 77.80 29.91 77.80 38.24V55.19H68.20V40.16C68.20 36.57 68.14 31.96 63.20 31.96C58.21 31.96 57.44 35.87 57.44 39.90V55.19H47.84L47.83 24.28Z"
    fill="#0A66C2" /><path
    d="M135.14 36.14C135.15 35.36 135.01 34.58 134.72 33.86C134.44 33.14 134.00 32.48 133.45 31.93C132.90 31.38 132.24 30.95 131.52 30.66C130.79 30.37 130.02 30.23 129.24 30.25C127.56 30.14 125.91 30.70 124.64 31.80C123.38 32.91 122.59 34.46 122.46 36.14H135.14ZM143.27 49.84C141.67 51.77 139.67 53.33 137.40 54.39C135.13 55.46 132.65 56.00 130.14 55.99C120.54 55.99 112.85 49.58 112.85 39.66C112.85 29.73 120.54 23.33 130.14 23.33C139.11 23.33 144.74 29.73 144.74 39.66V42.67H122.46C122.73 44.38 123.62 45.92 124.95 47.03C126.28 48.14 127.96 48.72 129.69 48.69C131.06 48.68 132.40 48.33 133.60 47.67C134.79 47.01 135.81 46.06 136.54 44.91L143.27 49.84Z"
    fill="#0A66C2" /><path
    d="M164.75 31.75C159.95 31.75 157.07 34.95 157.07 39.62C157.07 44.29 159.95 47.50 164.75 47.50C169.55 47.50 172.44 44.30 172.44 39.62C172.44 34.95 169.56 31.75 164.75 31.75ZM181.28 55.19H172.44V51.09H172.31C171.20 52.58 169.76 53.79 168.10 54.64C166.45 55.48 164.62 55.93 162.76 55.95C153.54 55.95 147.46 49.30 147.46 39.88C147.46 31.24 152.84 23.30 161.68 23.30C165.65 23.30 169.36 24.39 171.54 27.40H171.66V9.58H181.27L181.28 55.19Z"
    fill="#0A66C2" /><path
    d="M246.08 55.20H236.48V40.17C236.48 36.58 236.42 31.97 231.49 31.97C226.49 31.97 225.73 35.88 225.73 39.91V55.20H216.13V24.29H225.34V28.51H225.47C226.39 26.93 227.73 25.64 229.33 24.76C230.93 23.88 232.74 23.45 234.56 23.52C244.29 23.52 246.09 29.92 246.09 38.24L246.08 55.20ZM205.29 20.06C204.19 20.06 203.12 19.73 202.20 19.12C201.28 18.51 200.57 17.64 200.15 16.62C199.72 15.60 199.61 14.48 199.83 13.40C200.04 12.32 200.57 11.33 201.35 10.55C202.13 9.77 203.12 9.24 204.21 9.03C205.29 8.81 206.41 8.92 207.42 9.34C208.44 9.76 209.31 10.48 209.92 11.39C210.54 12.31 210.86 13.39 210.86 14.49C210.86 15.22 210.72 15.95 210.44 16.62C210.16 17.30 209.75 17.91 209.23 18.43C208.72 18.95 208.10 19.36 207.43 19.64C206.75 19.92 206.03 20.06 205.29 20.06ZM210.09 55.20H200.48V24.29H210.09V55.20ZM250.87 0.00H195.66C194.41 -0.01 193.20 0.47 192.30 1.35C191.41 2.23 190.89 3.42 190.88 4.67V60.11C190.89 61.37 191.41 62.56 192.30 63.44C193.20 64.32 194.41 64.80 195.66 64.79H250.87C252.13 64.80 253.34 64.32 254.24 63.44C255.14 62.57 255.65 61.37 255.67 60.11V4.67C255.65 3.41 255.14 2.22 254.24 1.34C253.34 0.47 252.13 -0.02 250.87 -7.57e-05"
    fill="#0A66C2" /></svg>