<svg width="256" height="65" viewBox="0 0 256 65" fill="none" xmlns="http://www.w3.org/2000/svg">
  <path d="M0 9.58691H9.993V45.9869H28.493V55.2089H0V9.58691Z" fill="#0A66C2" />
  <path
    d="M32.9111 24.2759H42.5111V55.1919H32.9111V24.2759ZM37.7111 8.90594C38.8125 8.90614 39.8891 9.23293 40.8048 9.84498C41.7205 10.457 42.4341 11.3269 42.8555 12.3445C43.2768 13.3621 43.387 14.4818 43.172 15.562C42.957 16.6422 42.4265 17.6344 41.6476 18.4132C40.8688 19.1919 39.8765 19.7222 38.7962 19.937C37.716 20.1518 36.5962 20.0415 35.5787 19.6199C34.5612 19.1984 33.6915 18.4846 33.0796 17.5688C32.4677 16.653 32.1411 15.5763 32.1411 14.4749C32.1411 13.7435 32.2852 13.0193 32.5651 12.3436C32.8451 11.6678 33.2553 11.0539 33.7726 10.5367C34.2898 10.0196 34.9039 9.60938 35.5797 9.32957C36.2554 9.04977 36.9797 8.90581 37.7111 8.90594Z"
    fill="#0A66C2" />
  <path
    d="M82.6689 9.57996H92.2689V36.845L103.149 24.262H114.919L102.319 38.575L114.654 55.2049H102.588L92.397 39.923H92.2709V55.2029H82.6709L82.6689 9.57996Z"
    fill="#0A66C2" />
  <path
    d="M47.834 24.2789H57.053V28.5039H57.184C58.1048 26.9263 59.4368 25.6284 61.0378 24.7489C62.6388 23.8693 64.4486 23.4411 66.274 23.5099C76.009 23.5099 77.801 29.9149 77.801 38.2359V55.1899H68.201V40.1589C68.201 36.5709 68.135 31.9589 63.201 31.9589C58.211 31.9589 57.441 35.8659 57.441 39.8979V55.1859H47.841L47.834 24.2789Z"
    fill="#0A66C2" />
  <path
    d="M135.136 36.138C135.154 35.3591 135.014 34.5847 134.725 33.8615C134.435 33.1383 134.001 32.4815 133.45 31.9308C132.899 31.3801 132.242 30.947 131.519 30.6577C130.795 30.3685 130.021 30.2291 129.242 30.248C127.565 30.1436 125.913 30.7026 124.644 31.8044C123.375 32.9062 122.59 34.4626 122.458 36.138H135.136ZM143.268 49.838C141.673 51.7725 139.667 53.328 137.397 54.3918C135.126 55.4556 132.647 56.0012 130.14 55.989C120.54 55.989 112.854 49.581 112.854 39.658C112.854 29.735 120.539 23.33 130.14 23.33C139.113 23.33 144.74 29.73 144.74 39.658V42.668H122.458C122.735 44.375 123.62 45.9243 124.95 47.0304C126.279 48.1365 127.964 48.7248 129.693 48.687C131.059 48.6785 132.402 48.3284 133.599 47.6685C134.795 47.0087 135.808 46.0601 136.544 44.909L143.268 49.838Z"
    fill="#0A66C2" />
  <path
    d="M164.75 31.749C159.95 31.749 157.07 34.954 157.07 39.624C157.07 44.294 159.949 47.502 164.75 47.502C169.551 47.502 172.437 44.302 172.437 39.624C172.437 34.946 169.556 31.749 164.75 31.749ZM181.275 55.186H172.437V51.086H172.306C171.197 52.5773 169.759 53.7925 168.104 54.6368C166.448 55.4812 164.62 55.932 162.762 55.954C153.538 55.954 147.462 49.297 147.462 39.883C147.462 31.237 152.839 23.298 161.678 23.298C165.651 23.298 169.362 24.385 171.539 27.398H171.665V9.57697H181.274L181.275 55.186Z"
    fill="#0A66C2" />
  <path
    d="M246.084 55.2039H236.484V40.1699C236.484 36.5849 236.42 31.9699 231.491 31.9699C226.491 31.9699 225.726 35.8759 225.726 39.9089V55.2029H216.126V24.2869H225.342V28.5119H225.471C226.393 26.935 227.726 25.6377 229.327 24.7583C230.928 23.8788 232.738 23.4502 234.564 23.5179C244.294 23.5179 246.088 29.9179 246.088 38.2439L246.084 55.2039ZM205.294 20.0609C204.192 20.0611 203.115 19.7346 202.199 19.1226C201.282 18.5106 200.568 17.6407 200.146 16.6228C199.725 15.6049 199.614 14.4848 199.829 13.4041C200.043 12.3234 200.574 11.3306 201.353 10.5513C202.132 9.77208 203.124 9.24132 204.205 9.02617C205.286 8.81101 206.406 8.92114 207.424 9.34261C208.442 9.76408 209.312 10.478 209.924 11.394C210.537 12.31 210.864 13.3871 210.864 14.4889C210.864 15.2205 210.72 15.945 210.44 16.6209C210.16 17.2969 209.75 17.9111 209.233 18.4285C208.716 18.9459 208.102 19.3564 207.426 19.6365C206.75 19.9166 206.025 20.0608 205.294 20.0609ZM210.094 55.2039H200.484V24.2869H210.094V55.2039ZM250.87 0.00392588H195.66C194.407 -0.0102155 193.199 0.473721 192.303 1.34939C191.406 2.22506 190.894 3.42083 190.879 4.67392V60.1129C190.894 61.3666 191.405 62.5632 192.302 63.4398C193.198 64.3164 194.406 64.8013 195.66 64.7879H250.87C252.126 64.8037 253.337 64.3202 254.237 63.4436C255.137 62.5671 255.652 61.3691 255.67 60.1129V4.66993C255.652 3.41434 255.136 2.21722 254.236 1.34157C253.336 0.465918 252.125 -0.0166353 250.87 -7.57339e-05"
    fill="#0A66C2" />
</svg>