<svg width="431" height="141" viewBox="0 0 431 141" fill="none" xmlns="http://www.w3.org/2000/svg">
<path d="M99.9575 21.9397C101.885 22.9252 103.929 23.4182 106.085 23.4182C108.173 23.4631 110.235 22.9549 112.043 21.9397C113.859 20.8361 115.278 19.4089 116.295 17.6484C117.433 15.78 118 13.7984 118 11.7091C118 9.51202 117.433 7.5306 116.295 5.76987C115.272 4.01426 113.859 2.63852 112.043 1.64267C110.343 0.549279 108.356 0 106.085 0C103.929 0 101.885 0.549278 99.9575 1.64779C98.1466 2.63852 96.669 4.01426 95.5357 5.76987C94.5134 7.5306 94 9.51202 94 11.7091C93.9965 13.7816 94.5243 15.8223 95.5357 17.6484C96.6493 19.3894 98.1627 20.8581 99.9575 21.9397Z" fill="black"/>
<path fill-rule="evenodd" clip-rule="evenodd" d="M18.0032 141H0V65.3779C0 57.597 1.85415 50.612 5.5616 44.4327C9.30938 38.3179 14.6084 33.2505 20.9468 29.7214C27.4962 26.0997 34.8603 24.2884 43.0445 24.2884C51.2236 24.2884 58.5368 26.1542 64.974 29.8856C71.3045 33.5091 76.5527 38.6893 80.1963 44.9105C84.0159 51.0943 85.9204 57.9155 85.9204 65.3779C85.9204 73.373 84.123 80.5123 80.5223 86.8008C76.9913 92.9152 71.8499 97.9949 65.6307 101.512C59.3007 105.134 52.0433 106.945 43.8591 106.945C37.7942 106.984 31.8208 105.499 26.513 102.632C23.3022 100.839 20.466 98.7384 18.0032 96.3311V79.4476L8.83627 75.9305C8.83627 81.3681 10.4198 86.4277 13.5828 91.1195C14.8911 92.992 16.3645 94.7294 18.0032 96.3311V141ZM43.0445 90.3183C47.8418 90.3183 52.0992 89.199 55.8071 86.96C59.5561 84.7929 62.6602 81.7059 64.811 78.0049C66.9849 74.1947 68.1113 69.8994 68.0806 65.5371C68.1256 61.2225 66.9971 56.9731 64.811 53.2237C62.6594 49.5235 59.5557 46.4365 55.8071 44.2685C52.0992 42.03 47.8418 40.9156 43.0445 40.9156C38.2421 40.9156 33.9284 42.0349 30.1087 44.2735C26.4336 46.4784 23.3934 49.56 21.2729 53.2286C19.0876 56.9768 17.9595 61.2241 18.0032 65.5371C18.0032 70.0147 19.0931 74.1693 21.2729 78.0049C23.3938 81.6747 26.4366 84.7568 30.1138 86.96C33.9334 89.199 38.2421 90.3183 43.0445 90.3183Z" fill="black"/>
<path fill-rule="evenodd" clip-rule="evenodd" d="M18.0032 79.4476V96.3311C16.3645 94.7294 14.8911 92.992 13.5828 91.1195C10.4198 86.4277 8.83627 81.3681 8.83627 75.9305L18.0032 79.4476Z" fill="black"/>
<path d="M106 29.6983C102.797 29.6983 99.6662 28.7218 97 26.8907V106.695H115V26.8907C112.334 28.7218 109.202 29.6983 106 29.6983Z" fill="black"/>
<path d="M374.342 104.014C380.483 106.958 387.743 108.43 396.12 108.43C402.38 108.43 408.162 107.396 413.476 105.323C418.786 103.25 423.036 100.3 426.227 96.4799C429.409 92.6644 431 88.1871 431 83.0575C431 77.9279 429.827 73.8881 427.459 70.9488C425.063 67.9764 421.899 65.6112 418.254 64.0722C414.467 62.3946 410.49 61.1297 406.389 60.3026C402.262 59.4264 398.307 58.6115 394.525 57.8475C390.866 56.9763 387.797 55.8862 385.32 54.5721C382.961 53.1558 381.774 51.1895 381.774 48.6835C381.774 46.7171 382.424 45.0819 383.724 43.7678C385.111 42.2944 386.879 41.169 388.861 40.4974C390.984 39.6212 393.288 39.1883 395.766 39.1883C399.784 39.1883 403.38 39.8965 406.567 41.3123C409.871 42.7336 412.349 45.1328 414.003 48.5154L428.7 40.8235C426.841 37.662 424.381 34.8345 421.44 32.4744C418.372 29.963 414.653 28.0021 410.29 26.5808C406.035 25.0524 401.075 24.2884 395.411 24.2884C388.925 24.2884 383.192 25.3785 378.233 27.5638C373.274 29.7441 369.382 32.6934 366.55 36.4017C363.714 40.1154 362.3 44.3179 362.3 49.0092C362.3 54.1388 363.482 58.2295 365.841 61.286C368.287 64.2101 371.442 66.5648 375.046 68.1625C378.869 69.7049 382.842 70.9106 386.911 71.7641C391.166 72.6403 395.116 73.4552 398.775 74.2192C402.553 74.9832 405.621 76.0175 407.985 77.3265C410.462 78.6407 411.699 80.6579 411.699 83.3832C411.699 85.5685 410.994 87.4226 409.576 88.9511C408.162 90.3724 406.212 91.5184 403.735 92.3896C400.984 93.1906 398.116 93.5776 395.239 93.5356C390.511 93.5356 386.438 92.7153 383.015 91.0801C379.71 89.4399 376.937 86.7149 374.696 82.8944L360 90.4232C363.541 96.424 368.319 100.958 374.342 104.014Z" fill="black"/>
<path d="M128 106.925V61.6132C128 35.6977 139.119 24.2884 158.317 24.2884C169.517 24.2884 173.556 28.6891 179.476 37.1646C185.395 28.6891 189.275 24.2884 200.634 24.2884C219.833 24.2884 231.122 35.6977 231.122 61.6132V106.925H212.953V55.5162C212.953 44.7589 207.833 41.0101 200.634 41.0101C193.594 41.0101 188.475 44.7589 188.475 55.5162V106.925H170.477V55.5162C170.477 44.7589 165.357 41.0101 158.317 41.0101C151.118 41.0101 145.998 44.7589 145.998 55.5162V106.925H128Z" fill="black"/>
<path d="M244 106.925V61.6132C244 35.6977 255.119 24.2884 274.317 24.2884C285.517 24.2884 289.556 28.6891 295.476 37.1646C301.395 28.6891 305.275 24.2884 316.634 24.2884C335.833 24.2884 347.122 35.6977 347.122 61.6132V106.925H328.953V55.5162C328.953 44.7589 323.833 41.0101 316.634 41.0101C309.594 41.0101 304.475 44.7589 304.475 55.5162V106.925H286.477V55.5162C286.477 44.7589 281.357 41.0101 274.317 41.0101C267.118 41.0101 261.998 44.7589 261.998 55.5162V106.925H244Z" fill="black"/>
</svg>
