<svg width="431" height="141" viewBox="0 0 431 141" fill="none" xmlns="http://www.w3.org/2000/svg"><path d="M99.96 21.94C101.89 22.93 103.93 23.42 106.08 23.42C108.17 23.46 110.23 22.95 112.04 21.94C113.86 20.84 115.28 19.41 116.30 17.65C117.43 15.78 118 13.80 118 11.71C118 9.51 117.43 7.53 116.30 5.77C115.27 4.01 113.86 2.64 112.04 1.64C110.34 0.55 108.36 0 106.08 0C103.93 0 101.89 0.55 99.96 1.65C98.15 2.64 96.67 4.01 95.54 5.77C94.51 7.53 94 9.51 94 11.71C94.00 13.78 94.52 15.82 95.54 17.65C96.65 19.39 98.16 20.86 99.96 21.94Z" fill="black"/><path fill-rule="evenodd" clip-rule="evenodd" d="M18.00 141H0V65.38C0 57.60 1.85 50.61 5.56 44.43C9.31 38.32 14.61 33.25 20.95 29.72C27.50 26.10 34.86 24.29 43.04 24.29C51.22 24.29 58.54 26.15 64.97 29.89C71.30 33.51 76.55 38.69 80.20 44.91C84.02 51.09 85.92 57.92 85.92 65.38C85.92 73.37 84.12 80.51 80.52 86.80C76.99 92.92 71.85 97.99 65.63 101.51C59.30 105.13 52.04 106.94 43.86 106.94C37.79 106.98 31.82 105.50 26.51 102.63C23.30 100.84 20.47 98.74 18.00 96.33V79.45L8.84 75.93C8.84 81.37 10.42 86.43 13.58 91.12C14.89 92.99 16.36 94.73 18.00 96.33V141ZM43.04 90.32C47.84 90.32 52.10 89.20 55.81 86.96C59.56 84.79 62.66 81.71 64.81 78.00C66.98 74.19 68.11 69.90 68.08 65.54C68.13 61.22 67.00 56.97 64.81 53.22C62.66 49.52 59.56 46.44 55.81 44.27C52.10 42.03 47.84 40.92 43.04 40.92C38.24 40.92 33.93 42.03 30.11 44.27C26.43 46.48 23.39 49.56 21.27 53.23C19.09 56.98 17.96 61.22 18.00 65.54C18.00 70.01 19.09 74.17 21.27 78.00C23.39 81.67 26.44 84.76 30.11 86.96C33.93 89.20 38.24 90.32 43.04 90.32Z" fill="black"/><path fill-rule="evenodd" clip-rule="evenodd" d="M18.00 79.45V96.33C16.36 94.73 14.89 92.99 13.58 91.12C10.42 86.43 8.84 81.37 8.84 75.93L18.00 79.45Z" fill="black"/><path d="M106 29.70C102.80 29.70 99.67 28.72 97 26.89V106.69H115V26.89C112.33 28.72 109.20 29.70 106 29.70Z" fill="black"/><path d="M374.34 104.01C380.48 106.96 387.74 108.43 396.12 108.43C402.38 108.43 408.16 107.40 413.48 105.32C418.79 103.25 423.04 100.3 426.23 96.48C429.41 92.66 431 88.19 431 83.06C431 77.93 429.83 73.89 427.46 70.95C425.06 67.98 421.90 65.61 418.25 64.07C414.47 62.39 410.49 61.13 406.39 60.30C402.26 59.43 398.31 58.61 394.52 57.85C390.87 56.98 387.80 55.89 385.32 54.57C382.96 53.16 381.77 51.19 381.77 48.68C381.77 46.72 382.42 45.08 383.72 43.77C385.11 42.29 386.88 41.17 388.86 40.50C390.98 39.62 393.29 39.19 395.77 39.19C399.78 39.19 403.38 39.90 406.57 41.31C409.87 42.73 412.35 45.13 414.00 48.52L428.7 40.82C426.84 37.66 424.38 34.83 421.44 32.47C418.37 29.96 414.65 28.00 410.29 26.58C406.04 25.05 401.07 24.29 395.41 24.29C388.93 24.29 383.19 25.38 378.23 27.56C373.27 29.74 369.38 32.69 366.55 36.40C363.71 40.12 362.3 44.32 362.3 49.01C362.3 54.14 363.48 58.23 365.84 61.29C368.29 64.21 371.44 66.56 375.05 68.16C378.87 69.70 382.84 70.91 386.91 71.76C391.17 72.64 395.12 73.46 398.77 74.22C402.55 74.98 405.62 76.02 407.99 77.33C410.46 78.64 411.70 80.66 411.70 83.38C411.70 85.57 410.99 87.42 409.58 88.95C408.16 90.37 406.21 91.52 403.74 92.39C400.98 93.19 398.12 93.58 395.24 93.54C390.51 93.54 386.44 92.72 383.01 91.08C379.71 89.44 376.94 86.71 374.70 82.89L360 90.42C363.54 96.42 368.32 100.96 374.34 104.01Z" fill="black"/><path d="M128 106.92V61.61C128 35.70 139.12 24.29 158.32 24.29C169.52 24.29 173.56 28.69 179.48 37.16C185.40 28.69 189.28 24.29 200.63 24.29C219.83 24.29 231.12 35.70 231.12 61.61V106.92H212.95V55.52C212.95 44.76 207.83 41.01 200.63 41.01C193.59 41.01 188.47 44.76 188.47 55.52V106.92H170.48V55.52C170.48 44.76 165.36 41.01 158.32 41.01C151.12 41.01 146.00 44.76 146.00 55.52V106.92H128Z" fill="black"/><path d="M244 106.92V61.61C244 35.70 255.12 24.29 274.32 24.29C285.52 24.29 289.56 28.69 295.48 37.16C301.39 28.69 305.27 24.29 316.63 24.29C335.83 24.29 347.12 35.70 347.12 61.61V106.92H328.95V55.52C328.95 44.76 323.83 41.01 316.63 41.01C309.59 41.01 304.48 44.76 304.48 55.52V106.92H286.48V55.52C286.48 44.76 281.36 41.01 274.32 41.01C267.12 41.01 262.00 44.76 262.00 55.52V106.92H244Z" fill="black"/></svg>