<svg width="1000" height="199" viewBox="0 0 1000 199" fill="none" xmlns="http://www.w3.org/2000/svg">
  <path
    d="M885.632 54.9919C885.632 59.966 888.467 63.9269 894.136 66.8746C899.806 69.638 906.844 71.5724 915.25 72.6777C923.657 73.7831 932.845 75.5332 942.816 77.9282C952.787 80.3232 961.975 83.2708 970.382 86.7711C978.788 90.2714 985.827 96.0746 991.496 104.181C997.166 112.287 1000 122.327 1000 134.302C1000 154.014 992.083 169.673 976.247 181.28C960.411 192.702 939.883 198.413 914.664 198.413C888.857 198.413 867.743 192.702 851.321 181.28C834.899 169.858 825.222 153.001 822.289 130.709H885.338C886.316 138.631 889.444 144.803 894.723 149.224C900.001 153.461 906.844 155.58 915.25 155.58C930.89 155.58 938.711 150.79 938.711 141.21C938.711 136.973 936.56 133.473 932.259 130.709C928.153 127.762 922.679 125.459 915.837 123.801C909.19 122.143 901.761 120.577 893.55 119.103C885.534 117.629 877.421 115.603 869.21 113.024C861.194 110.444 853.765 107.22 846.922 103.352C840.275 99.4828 834.801 93.956 830.5 86.7711C826.395 79.5862 824.342 71.0197 824.342 61.0714C824.342 43.2013 831.673 28.5553 846.336 17.1332C860.998 5.71105 881.135 0 906.746 0C930.011 0 949.756 5.43471 965.983 16.3041C982.21 27.1736 991.594 43.3856 994.135 64.9402H930.206C927.469 50.202 918.769 42.8329 904.107 42.8329C898.633 42.8329 894.136 43.9382 890.617 46.149C887.293 48.3597 885.632 51.3073 885.632 54.9919Z"
    fill="white" />
  <path
    d="M554.693 193.864V5.95239H632.112L664.37 99.9084L674.341 135.004L684.311 99.9084L716.569 5.95239H792.228V193.864H732.405L736.217 69.2345L720.675 120.358L695.162 193.864H651.76L625.661 119.252L610.705 69.7872L614.517 193.864H554.693Z"
    fill="white" />
  <path
    d="M289.083 193.864V5.95239H366.502L398.76 99.9083L408.73 135.004L418.701 99.9083L450.959 5.95239H526.618V193.864H466.794L470.607 69.2345L455.064 120.358L429.551 193.864H386.15L360.05 119.252L345.094 69.7872L348.907 193.864H289.083Z"
    fill="white" />
  <path d="M205.152 193.864V5.95239H264.975V193.864H205.152Z" fill="white" />
  <path
    d="M7.93652 193.162V5.25049H91.8069C117.809 5.25049 138.141 11.0537 152.804 22.66C167.662 34.0821 175.091 50.1098 175.091 70.7433C175.091 91.3768 167.662 107.497 152.804 119.103C138.141 130.525 118.004 136.236 92.3934 136.236H67.7601V193.162H7.93652ZM90.6339 49.465H67.7601V92.0216H89.1676C105.59 92.0216 113.801 84.9288 113.801 70.7433C113.801 56.5578 106.079 49.465 90.6339 49.465Z"
    fill="white" />
  <path
    d="M881.663 54.9919C881.663 59.966 884.498 63.9269 890.168 66.8746C895.837 69.638 902.875 71.5724 911.282 72.6777C919.689 73.7831 928.877 75.5332 938.848 77.9282C948.818 80.3232 958.007 83.2708 966.414 86.7711C974.82 90.2714 981.858 96.0746 987.528 104.181C993.197 112.287 996.032 122.327 996.032 134.302C996.032 154.014 988.114 169.673 972.279 181.28C956.443 192.702 935.915 198.413 910.695 198.413C884.889 198.413 863.775 192.702 847.353 181.28C830.931 169.858 821.253 153.001 818.321 130.709H881.37C882.348 138.631 885.476 144.803 890.754 149.224C896.033 153.461 902.875 155.58 911.282 155.58C926.922 155.58 934.742 150.79 934.742 141.21C934.742 136.973 932.592 133.473 928.291 130.709C924.185 127.762 918.711 125.459 911.869 123.801C905.221 122.143 897.792 120.577 889.581 119.103C881.566 117.629 873.452 115.603 865.241 113.024C857.226 110.444 849.797 107.22 842.954 103.352C836.307 99.4828 830.833 93.956 826.532 86.7711C822.426 79.5862 820.374 71.0197 820.374 61.0714C820.374 43.2013 827.705 28.5553 842.368 17.1332C857.03 5.71105 877.167 0 902.778 0C926.042 0 945.788 5.43471 962.015 16.3041C978.241 27.1736 987.626 43.3856 990.167 64.9402H926.238C923.501 50.202 914.801 42.8329 900.138 42.8329C894.664 42.8329 890.168 43.9382 886.649 46.149C883.325 48.3597 881.663 51.3073 881.663 54.9919Z"
    fill="white" />
  <path
    d="M552.709 193.864V5.95239H630.128L662.386 99.9084L672.356 135.004L682.327 99.9084L714.585 5.95239H790.244V193.864H730.42L734.233 69.2345L718.69 120.358L693.177 193.864H649.776L623.676 119.252L608.72 69.7872L612.533 193.864H552.709Z"
    fill="white" />
  <path
    d="M287.099 193.864V5.95239H364.517L396.775 99.9083L406.746 135.004L416.716 99.9083L448.974 5.95239H524.634V193.864H464.81L468.622 69.2345L453.08 120.358L427.567 193.864H384.165L358.066 119.252L343.11 69.7872L346.922 193.864H287.099Z"
    fill="white" />
  <path d="M199.199 193.864V5.95239H259.023V193.864H199.199Z" fill="white" />
  <path
    d="M3.96826 193.162V5.25049H87.8386C113.84 5.25049 134.173 11.0537 148.835 22.66C163.693 34.0821 171.122 50.1098 171.122 70.7433C171.122 91.3768 163.693 107.497 148.835 119.103C134.173 130.525 114.036 136.236 88.4251 136.236H63.7919V193.162H3.96826ZM86.6656 49.465H63.7919V92.0216H85.1993C101.622 92.0216 109.833 84.9288 109.833 70.7433C109.833 56.5578 102.11 49.465 86.6656 49.465Z"
    fill="white" />
  <path
    d="M869.759 54.9919C869.759 59.966 872.593 63.9269 878.263 66.8746C883.933 69.638 890.971 71.5724 899.377 72.6777C907.784 73.7831 916.972 75.5332 926.943 77.9282C936.914 80.3232 946.102 83.2708 954.509 86.7711C962.915 90.2714 969.953 96.0746 975.623 104.181C981.293 112.287 984.127 122.327 984.127 134.302C984.127 154.014 976.209 169.673 960.374 181.28C944.538 192.702 924.01 198.413 898.791 198.413C872.984 198.413 851.87 192.702 835.448 181.28C819.026 169.858 809.349 153.001 806.416 130.709H869.465C870.443 138.631 873.571 144.803 878.849 149.224C884.128 153.461 890.971 155.58 899.377 155.58C915.017 155.58 922.837 150.79 922.837 141.21C922.837 136.973 920.687 133.473 916.386 130.709C912.28 127.762 906.806 125.459 899.964 123.801C893.317 122.143 885.888 120.577 877.677 119.103C869.661 117.629 861.548 115.603 853.337 113.024C845.321 110.444 837.892 107.22 831.049 103.352C824.402 99.4828 818.928 93.956 814.627 86.7711C810.522 79.5862 808.469 71.0197 808.469 61.0714C808.469 43.2013 815.8 28.5553 830.463 17.1332C845.125 5.71105 865.262 0 890.873 0C914.138 0 933.883 5.43471 950.11 16.3041C966.337 27.1736 975.721 43.3856 978.262 64.9402H914.333C911.596 50.202 902.896 42.8329 888.234 42.8329C882.76 42.8329 878.263 43.9382 874.744 46.149C871.42 48.3597 869.759 51.3073 869.759 54.9919Z"
    fill="white" />
  <path
    d="M550.725 193.864V5.95239H628.144L660.402 99.9084L670.372 135.004L680.343 99.9084L712.601 5.95239H788.26V193.864H728.436L732.249 69.2345L716.706 120.358L691.193 193.864H647.792L621.692 119.252L606.736 69.7872L610.549 193.864H550.725Z"
    fill="white" />
  <path
    d="M285.115 193.864V5.95239H362.534L394.791 99.9083L404.762 135.004L414.733 99.9083L446.99 5.95239H522.65V193.864H462.826L466.638 69.2345L451.096 120.358L425.583 193.864H382.181L356.082 119.252L341.126 69.7872L344.938 193.864H285.115Z"
    fill="white" />
  <path d="M191.263 193.864V5.95239H251.086V193.864H191.263Z" fill="white" />
  <path
    d="M0 193.162V5.25049H83.8704C109.872 5.25049 130.204 11.0537 144.867 22.66C159.725 34.0821 167.154 50.1098 167.154 70.7433C167.154 91.3768 159.725 107.497 144.867 119.103C130.204 130.525 110.068 136.236 84.4569 136.236H59.8236V193.162H0ZM82.6973 49.465H59.8236V92.0216H81.2311C97.6532 92.0216 105.864 84.9288 105.864 70.7433C105.864 56.5578 98.142 49.465 82.6973 49.465Z"
    fill="white" />
</svg>