<svg width="1000" height="179" viewBox="0 0 1000 179" fill="none" xmlns="http://www.w3.org/2000/svg">
  <path
    d="M883.393 49.6122C883.393 54.0997 886.283 57.6731 892.064 60.3324C897.844 62.8255 905.02 64.5706 913.591 65.5679C922.163 66.5651 931.531 68.144 941.697 70.3047C951.863 72.4654 961.231 75.1246 969.802 78.2825C978.373 81.4404 985.549 86.6759 991.33 93.9889C997.11 101.302 1000 110.36 1000 121.163C1000 138.947 991.928 153.075 975.782 163.546C959.636 173.85 938.707 179.003 912.993 179.003C886.682 179.003 865.154 173.85 848.411 163.546C831.667 153.241 821.8 138.033 818.811 117.922H883.094C884.091 125.069 887.28 130.637 892.662 134.626C898.044 138.449 905.02 140.36 913.591 140.36C929.538 140.36 937.511 136.039 937.511 127.396C937.511 123.573 935.318 120.415 930.933 117.922C926.747 115.263 921.166 113.186 914.189 111.69C907.412 110.194 899.838 108.781 891.466 107.452C883.294 106.122 875.021 104.294 866.65 101.967C858.477 99.6399 850.902 96.7313 843.926 93.241C837.149 89.7507 831.568 84.7645 827.182 78.2825C822.996 71.8005 820.903 64.072 820.903 55.097C820.903 38.9751 828.378 25.7618 843.328 15.4571C858.278 5.15236 878.809 0 904.921 0C928.641 0 948.773 4.90305 965.317 14.7091C981.862 24.5152 991.429 39.1413 994.021 58.5873H928.84C926.05 45.2909 917.179 38.6427 902.23 38.6427C896.649 38.6427 892.064 39.6399 888.476 41.6344C885.087 43.6288 883.393 46.2881 883.393 49.6122Z"
    fill="white" />
  <path
    d="M555.649 174.266V4.73691H634.583L667.472 89.5014L677.638 121.163L687.804 89.5014L720.693 4.73691H797.834V174.266H736.839L740.726 61.8283L724.879 107.95L698.867 174.266H654.616L628.005 106.953L612.757 62.3269L616.644 174.266H555.649Z"
    fill="white" />
  <path
    d="M283.518 174.266V4.73691H362.452L395.342 89.5014L405.507 121.163L415.673 89.5014L448.562 4.73691H525.703V174.266H464.708L468.595 61.8283L452.748 107.95L426.736 174.266H382.485L355.874 106.953L340.626 62.3269L344.513 174.266H283.518Z"
    fill="white" />
  <path d="M192.711 174.266V4.73691H253.706V174.266H192.711Z" fill="white" />
  <path
    d="M0 174.266V4.73691H85.5121C112.023 4.73691 132.753 9.97236 147.703 20.4433C162.852 30.748 170.426 45.2078 170.426 63.8228C170.426 82.4377 162.852 96.9806 147.703 107.452C132.753 117.756 112.222 122.909 86.1101 122.909H60.9947V174.266H0ZM84.3162 44.6261H60.9947V83.0194H82.8212C99.5648 83.0194 107.937 76.6205 107.937 63.8228C107.937 51.025 100.063 44.6261 84.3162 44.6261Z"
    fill="white" />
</svg>