<svg width="1000" height="199" viewBox="0 0 1000 199" fill="none" xmlns="http://www.w3.org/2000/svg"><path
    d="M885.63 54.99C885.63 59.97 888.47 63.93 894.14 66.87C899.81 69.64 906.84 71.57 915.25 72.68C923.66 73.78 932.85 75.53 942.82 77.93C952.79 80.32 961.98 83.27 970.38 86.77C978.79 90.27 985.83 96.07 991.50 104.18C997.17 112.29 1000 122.33 1000 134.30C1000 154.01 992.08 169.67 976.25 181.28C960.41 192.70 939.88 198.41 914.66 198.41C888.86 198.41 867.74 192.70 851.32 181.28C834.90 169.86 825.22 153.00 822.29 130.71H885.34C886.32 138.63 889.44 144.80 894.72 149.22C900.00 153.46 906.84 155.58 915.25 155.58C930.89 155.58 938.71 150.79 938.71 141.21C938.71 136.97 936.56 133.47 932.26 130.71C928.15 127.76 922.68 125.46 915.84 123.80C909.19 122.14 901.76 120.58 893.55 119.10C885.53 117.63 877.42 115.60 869.21 113.02C861.19 110.44 853.76 107.22 846.92 103.35C840.27 99.48 834.80 93.96 830.5 86.77C826.39 79.59 824.34 71.02 824.34 61.07C824.34 43.20 831.67 28.56 846.34 17.13C861.00 5.71 881.13 0 906.75 0C930.01 0 949.76 5.43 965.98 16.30C982.21 27.17 991.59 43.39 994.13 64.94H930.21C927.47 50.20 918.77 42.83 904.11 42.83C898.63 42.83 894.14 43.94 890.62 46.15C887.29 48.36 885.63 51.31 885.63 54.99Z"
    fill="white" /><path
    d="M554.69 193.86V5.95H632.11L664.37 99.91L674.34 135.00L684.31 99.91L716.57 5.95H792.23V193.86H732.40L736.22 69.23L720.67 120.36L695.16 193.86H651.76L625.66 119.25L610.71 69.79L614.52 193.86H554.69Z"
    fill="white" /><path
    d="M289.08 193.86V5.95H366.50L398.76 99.91L408.73 135.00L418.70 99.91L450.96 5.95H526.62V193.86H466.79L470.61 69.23L455.06 120.36L429.55 193.86H386.15L360.05 119.25L345.09 69.79L348.91 193.86H289.08Z"
    fill="white" /><path d="M205.15 193.86V5.95H264.98V193.86H205.15Z" fill="white" /><path
    d="M7.94 193.16V5.25H91.81C117.81 5.25 138.14 11.05 152.80 22.66C167.66 34.08 175.09 50.11 175.09 70.74C175.09 91.38 167.66 107.50 152.80 119.10C138.14 130.53 118.00 136.24 92.39 136.24H67.76V193.16H7.94ZM90.63 49.47H67.76V92.02H89.17C105.59 92.02 113.80 84.93 113.80 70.74C113.80 56.56 106.08 49.47 90.63 49.47Z"
    fill="white" /><path
    d="M881.66 54.99C881.66 59.97 884.50 63.93 890.17 66.87C895.84 69.64 902.88 71.57 911.28 72.68C919.69 73.78 928.88 75.53 938.85 77.93C948.82 80.32 958.01 83.27 966.41 86.77C974.82 90.27 981.86 96.07 987.53 104.18C993.20 112.29 996.03 122.33 996.03 134.30C996.03 154.01 988.11 169.67 972.28 181.28C956.44 192.70 935.91 198.41 910.70 198.41C884.89 198.41 863.77 192.70 847.35 181.28C830.93 169.86 821.25 153.00 818.32 130.71H881.37C882.35 138.63 885.48 144.80 890.75 149.22C896.03 153.46 902.88 155.58 911.28 155.58C926.92 155.58 934.74 150.79 934.74 141.21C934.74 136.97 932.59 133.47 928.29 130.71C924.18 127.76 918.71 125.46 911.87 123.80C905.22 122.14 897.79 120.58 889.58 119.10C881.57 117.63 873.45 115.60 865.24 113.02C857.23 110.44 849.80 107.22 842.95 103.35C836.31 99.48 830.83 93.96 826.53 86.77C822.43 79.59 820.37 71.02 820.37 61.07C820.37 43.20 827.71 28.56 842.37 17.13C857.03 5.71 877.17 0 902.78 0C926.04 0 945.79 5.43 962.01 16.30C978.24 27.17 987.63 43.39 990.17 64.94H926.24C923.50 50.20 914.80 42.83 900.14 42.83C894.66 42.83 890.17 43.94 886.65 46.15C883.33 48.36 881.66 51.31 881.66 54.99Z"
    fill="white" /><path
    d="M552.71 193.86V5.95H630.13L662.39 99.91L672.36 135.00L682.33 99.91L714.59 5.95H790.24V193.86H730.42L734.23 69.23L718.69 120.36L693.18 193.86H649.78L623.68 119.25L608.72 69.79L612.53 193.86H552.71Z"
    fill="white" /><path
    d="M287.10 193.86V5.95H364.52L396.77 99.91L406.75 135.00L416.72 99.91L448.97 5.95H524.63V193.86H464.81L468.62 69.23L453.08 120.36L427.57 193.86H384.17L358.07 119.25L343.11 69.79L346.92 193.86H287.10Z"
    fill="white" /><path d="M199.20 193.86V5.95H259.02V193.86H199.20Z" fill="white" /><path
    d="M3.97 193.16V5.25H87.84C113.84 5.25 134.17 11.05 148.84 22.66C163.69 34.08 171.12 50.11 171.12 70.74C171.12 91.38 163.69 107.50 148.84 119.10C134.17 130.53 114.04 136.24 88.43 136.24H63.79V193.16H3.97ZM86.67 49.47H63.79V92.02H85.20C101.62 92.02 109.83 84.93 109.83 70.74C109.83 56.56 102.11 49.47 86.67 49.47Z"
    fill="white" /><path
    d="M869.76 54.99C869.76 59.97 872.59 63.93 878.26 66.87C883.93 69.64 890.97 71.57 899.38 72.68C907.78 73.78 916.97 75.53 926.94 77.93C936.91 80.32 946.10 83.27 954.51 86.77C962.91 90.27 969.95 96.07 975.62 104.18C981.29 112.29 984.13 122.33 984.13 134.30C984.13 154.01 976.21 169.67 960.37 181.28C944.54 192.70 924.01 198.41 898.79 198.41C872.98 198.41 851.87 192.70 835.45 181.28C819.03 169.86 809.35 153.00 806.42 130.71H869.47C870.44 138.63 873.57 144.80 878.85 149.22C884.13 153.46 890.97 155.58 899.38 155.58C915.02 155.58 922.84 150.79 922.84 141.21C922.84 136.97 920.69 133.47 916.39 130.71C912.28 127.76 906.81 125.46 899.96 123.80C893.32 122.14 885.89 120.58 877.68 119.10C869.66 117.63 861.55 115.60 853.34 113.02C845.32 110.44 837.89 107.22 831.05 103.35C824.40 99.48 818.93 93.96 814.63 86.77C810.52 79.59 808.47 71.02 808.47 61.07C808.47 43.20 815.8 28.56 830.46 17.13C845.13 5.71 865.26 0 890.87 0C914.14 0 933.88 5.43 950.11 16.30C966.34 27.17 975.72 43.39 978.26 64.94H914.33C911.60 50.20 902.90 42.83 888.23 42.83C882.76 42.83 878.26 43.94 874.74 46.15C871.42 48.36 869.76 51.31 869.76 54.99Z"
    fill="white" /><path
    d="M550.73 193.86V5.95H628.14L660.40 99.91L670.37 135.00L680.34 99.91L712.60 5.95H788.26V193.86H728.44L732.25 69.23L716.71 120.36L691.19 193.86H647.79L621.69 119.25L606.74 69.79L610.55 193.86H550.73Z"
    fill="white" /><path
    d="M285.12 193.86V5.95H362.53L394.79 99.91L404.76 135.00L414.73 99.91L446.99 5.95H522.65V193.86H462.83L466.64 69.23L451.10 120.36L425.58 193.86H382.18L356.08 119.25L341.13 69.79L344.94 193.86H285.12Z"
    fill="white" /><path d="M191.26 193.86V5.95H251.09V193.86H191.26Z" fill="white" /><path
    d="M0 193.16V5.25H83.87C109.87 5.25 130.20 11.05 144.87 22.66C159.72 34.08 167.15 50.11 167.15 70.74C167.15 91.38 159.72 107.50 144.87 119.10C130.20 130.53 110.07 136.24 84.46 136.24H59.82V193.16H0ZM82.70 49.47H59.82V92.02H81.23C97.65 92.02 105.86 84.93 105.86 70.74C105.86 56.56 98.14 49.47 82.70 49.47Z"
    fill="white" /></svg>