<svg width="1000" height="179" viewBox="0 0 1000 179" fill="none" xmlns="http://www.w3.org/2000/svg">
    <path
        d="M883.393 49.6122C883.393 54.0997 886.283 57.6731 892.063 60.3324C897.844 62.8255 905.02 64.5706 913.591 65.5679C922.162 66.5651 931.531 68.144 941.696 70.3047C951.862 72.4654 961.231 75.1246 969.802 78.2825C978.373 81.4404 985.549 86.6759 991.329 93.9889C997.11 101.302 1000 110.36 1000 121.163C1000 138.947 991.927 153.075 975.782 163.546C959.636 173.85 938.706 179.003 912.993 179.003C886.682 179.003 865.154 173.85 848.41 163.546C831.667 153.241 821.8 138.033 818.81 117.922H883.094C884.09 125.069 887.28 130.637 892.661 134.626C898.043 138.449 905.02 140.36 913.591 140.36C929.537 140.36 937.51 136.039 937.51 127.396C937.51 123.573 935.318 120.415 930.933 117.922C926.747 115.263 921.165 113.186 914.189 111.69C907.412 110.194 899.837 108.781 891.465 107.452C883.293 106.122 875.021 104.294 866.649 101.967C858.477 99.6399 850.902 96.7313 843.925 93.241C837.148 89.7507 831.567 84.7645 827.182 78.2825C822.996 71.8005 820.903 64.072 820.903 55.097C820.903 38.9751 828.378 25.7618 843.327 15.4571C858.277 5.15236 878.808 0 904.92 0C928.64 0 948.773 4.90305 965.317 14.7091C981.861 24.5152 991.429 39.1413 994.02 58.5873H928.84C926.049 45.2909 917.179 38.6427 902.229 38.6427C896.648 38.6427 892.063 39.6399 888.475 41.6344C885.087 43.6288 883.393 46.2881 883.393 49.6122Z"
        fill="#08272E" />
    <path
        d="M555.649 174.266V4.73688H634.583L667.472 89.5014L677.638 121.163L687.804 89.5014L720.693 4.73688H797.834V174.266H736.839L740.726 61.8283L724.879 107.95L698.867 174.266H654.616L628.005 106.953L612.757 62.3269L616.644 174.266H555.649Z"
        fill="#08272E" />
    <path
        d="M283.518 174.266V4.73688H362.452L395.342 89.5014L405.507 121.163L415.673 89.5014L448.562 4.73688H525.703V174.266H464.708L468.595 61.8283L452.748 107.95L426.736 174.266H382.485L355.874 106.953L340.626 62.3269L344.513 174.266H283.518Z"
        fill="#08272E" />
    <path d="M192.711 174.266V4.73688H253.706V174.266H192.711Z" fill="#08272E" />
    <path
        d="M0 174.266V4.73688H85.5121C112.023 4.73688 132.753 9.97233 147.703 20.4432C162.852 30.748 170.426 45.2078 170.426 63.8227C170.426 82.4377 162.852 96.9806 147.703 107.452C132.753 117.756 112.222 122.909 86.1101 122.909H60.9947V174.266H0ZM84.3162 44.6261H60.9947V83.0194H82.8212C99.5648 83.0194 107.937 76.6205 107.937 63.8227C107.937 51.0249 100.063 44.6261 84.3162 44.6261Z"
        fill="#08272E" />
</svg>