<svg xmlns="http://www.w3.org/2000/svg" height="18" fill="none" viewBox="0 0 380 36"><path fill="#635BFF"
    d="M46.75 4.84L40.73 6.12V1.25L46.75 0v4.84zM59.27 7.56c-2.34 0-3.87 1.09-4.71 1.85l-.302-1.48h-5.28v27.75l6.00-1.25.02-6.75c.858.63 2.13 1.51 4.24 1.51 4.29 0 8.21-3.43 8.21-10.96-.046-6.91-3.99-10.66-8.18-10.66zm-1.46 16.39c-1.41 0-2.25-.51-2.83-1.11l-.023-8.83c.626-.696 1.48-1.16 2.85-1.16 2.18 0 3.69 2.43 3.69 5.54.02 3.18-1.46 5.56-3.69 5.56zm28.53-5.49c0-6.10-2.97-10.89-8.67-10.89s-9.15 4.80-9.15 10.85c0 7.16 4.08 10.78 9.92 10.78 2.85 0 5.01-.65 6.65-1.55v-4.75c-1.62.81-3.5 1.30-5.87 1.30-2.32 0-4.38-.811-4.66-3.62h11.73c0-.14 0-.44.02-.765 0-.464.02-1.2.02-1.34zm-11.84-2.27c0-2.69 1.65-3.80 3.17-3.80 1.46 0 3.01 1.11 3.01 3.80h-6.19zM46.75 7.95h-6.03v20.84h6.03V7.95zm-12.86 0l.394 1.76c1.41-2.57 4.22-2.04 4.98-1.76v5.47c-.742-.254-3.15-.602-4.57 1.23v14.12h-6.00V7.95h5.19zM22.27 2.78L16.43 4.01l-.023 19.08c0 3.52 2.67 6.12 6.21 6.12 1.97 0 3.41-.348 4.20-.788v-4.82c-.765.30-4.57 1.41-4.57-2.11v-8.46h4.57V7.95h-4.57l.023-5.17zM8.11 12.70c-1.27 0-2.4.35-2.04 1.27 0 1.02 1.32 1.46 2.97 2.02 2.67.90 6.19 2.09 6.21 6.49 0 4.26-3.43 6.72-8.41 6.72-2.06 0-4.31-.394-6.54-1.37v-5.66c2.02 1.09 4.57 1.9 6.54 1.9 1.34 0 2.29-.348 2.29-1.46 0-1.11-1.44-1.65-3.15-2.25C3.31 19.45 0 18.24 0 14.28c0-4.22 3.25-6.75 8.11-6.75 1.99 0 3.96.30 5.96 1.09v5.59c-1.83-.95-4.15-1.51-5.96-1.51zM364.89 7.94v20.86h14.41v-3.69h-10.20v-5.17h8.54v-3.66h-8.54v-4.65h10.20v-3.69h-14.41zm-16.67 10.43c0-4.24 2.24-7 5.43-7 2.27 0 3.92 1.42 4.50 3.75l4.01-1.34c-1.22-3.78-4.18-6.16-8.51-6.16-5.64 0-9.73 4.44-9.73 10.75 0 6.30 4.09 10.75 9.73 10.75 4.33 0 7.29-2.38 8.51-6.16l-4.01-1.34c-.581 2.32-2.24 3.75-4.50 3.75-3.20 0-5.43-2.76-5.43-7zM331.50 7.94l-7.78 20.86h4.24l1.66-4.47h8.60l1.66 4.47h4.33l-7.81-20.86h-4.88zm2.38 4.74l2.96 8.02h-5.90l2.93-8.02zm-40.71 8.39h4.27c4.79 0 7.79-2.29 7.79-6.59 0-4.33-2.99-6.59-7.79-6.59h-8.54v20.86h4.27v-7.67zm0-3.63v-5.93h4.04c2.50 0 3.78 1.07 3.78 2.96 0 1.86-1.28 2.96-3.78 2.96h-4.04zm14.90 11.36h13.86v-3.69h-9.59V7.94h-4.27v20.86zM286.57 11.57V7.88h-17.37v3.69h6.57v17.17h4.27V11.57h6.54zM252.41 7.88v20.86h14.41v-3.69h-10.20v-5.17h8.54v-3.66h-8.54V11.57h10.20V7.88H252.41zm-15.88.06h-4.27v20.86h4.27v-5.98l2.41-2.73 6.13 8.71h5.00l-8.31-11.94 7.81-8.92h-5.00l-8.05 9.47v-9.47zm-19.93 13.10h2.90l4.82 7.75h4.88l-5.20-8.16c2.93-.842 4.65-2.96 4.65-6.13 0-4.30-2.99-6.57-7.78-6.57h-8.54v20.86h4.27V21.04zm0-3.57v-5.90h4.04c2.50 0 3.78 1.07 3.78 2.96 0 1.86-1.28 2.93-3.78 2.93h-4.04zm-19.22-9.53l-7.79 20.86h4.24l1.66-4.47h8.60l1.66 4.47h4.33l-7.81-20.86h-4.88zm2.38 4.74l2.96 8.02h-5.90l2.93-8.02zM178.25 28.79l5.03-15.28v15.28h4.07V7.94h-5.84l-4.79 14.84-4.82-14.84h-5.92v20.86h4.01V13.52l5.03 15.28h3.25zM104.40 7.95l-7.79 20.84h4.24l1.65-4.47h8.6l1.65 4.47h4.33L109.27 7.95h-4.87zm2.36 4.73l2.97 8.02h-5.89l2.92-8.02zm16.88 8.44h4.26c4.80 0 7.79-2.29 7.79-6.58 0-4.33-2.99-6.58-7.79-6.58h-8.53v20.84h4.26v-7.67zm0-3.62v-5.93h4.03c2.50 0 3.78 1.07 3.78 2.97 0 1.85-1.27 2.97-3.78 2.97h-4.03zm19.38 3.62h4.26c4.80 0 7.79-2.29 7.79-6.58 0-4.33-2.99-6.58-7.79-6.58h-8.53v20.84h4.26v-7.67zm0-3.62v-5.93h4.03c2.50 0 3.78 1.07 3.78 2.97 0 1.85-1.27 2.97-3.78 2.97h-4.03z"></path></svg>