<svg xmlns:dc="http://purl.org/dc/elements/1.1/" xmlns:cc="http://creativecommons.org/ns#" xmlns:rdf="http://www.w3.org/1999/02/22-rdf-syntax-ns#" xmlns:svg="http://www.w3.org/2000/svg" xmlns="http://www.w3.org/2000/svg" xmlns:sodipodi="http://sodipodi.sourceforge.net/DTD/sodipodi-0.dtd" xmlns:inkscape="http://www.inkscape.org/namespaces/inkscape" version="1.1" id="svg2" xml:space="preserve" width="507.89" height="113.39" viewBox="0 0 507.89 113.39" xmlns:xlink="http://www.w3.org/1999/xlink"><metadata id="metadata8"><rdf:RDF><cc:Work rdf:about=""><dc:format>
     image/svg+xml
    </dc:format><dc:type rdf:resource="http://purl.org/dc/dcmitype/StillImage"></dc:type></cc:Work></rdf:RDF></metadata><defs id="defs6"></defs><sodipodi:namedview pagecolor="#ffffff" bordercolor="#666666" borderopacity="1" objecttolerance="10" gridtolerance="10" guidetolerance="10" inkscape:pageopacity="0" inkscape:pageshadow="2" inkscape:window-width="640" inkscape:window-height="480" id="namedview4"></sodipodi:namedview><g id="g10" inkscape:groupmode="layer" inkscape:label="ink_ext_XXXXXX" transform="matrix(1.33,0,0,-1.33,0,113.39)"><g id="g12" transform="scale(0.1)"><path d="m 1189.46,717.61 c -13.97,52.27 -55.13,93.43 -107.4,107.40 -94.74,25.39 -474.64,25.39 -474.64,25.39 0,0 -379.89,0 -474.63,-25.39 C 80.52,811.04 39.36,769.87 25.39,717.61 0,622.86 0,425.20 0,425.20 c 0,0 0,-197.67 25.39,-292.41 C 39.36,80.53 80.52,39.36 132.79,25.39 227.53,-0.00 607.42,-0.00 607.42,-0.00 c 0,0 379.89,0 474.64,25.39 52.27,13.96 93.43,55.14 107.4,107.40 25.39,94.74 25.39,292.41 25.39,292.41 0,0 0,197.66 -25.39,292.41" style="fill:#ed1d24;fill-opacity:1;fill-rule:nonzero;stroke:none" id="path14"></path><path d="M 485.94,242.97 801.55,425.19 485.94,607.43 Z" style="fill:#ffffff;fill-opacity:1;fill-rule:nonzero;stroke:none" id="path16"></path><path d="m 1898.01,160.16 c 6.65,17.36 9.99,45.74 9.99,85.13 v 165.94 c 0,38.22 -3.34,66.16 -9.99,83.83 -6.66,17.66 -18.39,26.5 -35.18,26.5 -16.22,0 -27.67,-8.84 -34.32,-26.5 -6.66,-17.67 -9.99,-45.61 -9.99,-83.83 V 245.29 c 0,-39.38 3.18,-67.76 9.56,-85.13 6.36,-17.38 17.94,-26.06 34.75,-26.06 16.79,0 28.52,8.68 35.18,26.06 z M 1763.36,76.76 c -24.05,16.20 -41.14,41.40 -51.26,75.59 -10.14,34.16 -15.2,79.63 -15.2,136.39 v 77.32 c 0,57.34 5.78,103.39 17.37,138.13 11.58,34.75 29.67,60.08 54.3,76.02 24.61,15.92 56.9,23.89 96.87,23.89 39.38,0 70.94,-8.11 94.69,-24.32 23.74,-16.21 41.12,-41.56 52.13,-76.02 10.99,-34.47 16.5,-80.36 16.5,-137.70 v -77.32 c 0,-56.76 -5.36,-102.38 -16.07,-136.83 -10.72,-34.46 -28.1,-59.66 -52.13,-75.58 -24.04,-15.93 -56.61,-23.89 -97.73,-23.89 -42.29,0 -75.45,8.12 -99.47,24.33" style="fill:#252323;fill-opacity:1;fill-rule:nonzero;stroke:none" id="path18"></path><path d="m 3623.76,511.61 c -6.07,-7.53 -10.14,-19.84 -12.16,-36.92 -2.04,-17.09 -3.03,-43.00 -3.03,-77.75 v -38.23 h 87.73 v 38.23 c 0,34.16 -1.16,60.08 -3.47,77.75 -2.32,17.66 -6.51,30.11 -12.59,37.35 -6.09,7.24 -15.5,10.86 -28.24,10.86 -12.75,0 -22.16,-3.77 -28.24,-11.30 z m -15.19,-224.14 v -26.93 c 0,-34.18 0.99,-59.80 3.03,-76.88 2.02,-17.09 6.21,-29.54 12.6,-37.37 6.37,-7.81 16.2,-11.73 29.54,-11.73 17.94,0 30.26,6.95 36.92,20.86 6.65,13.90 10.27,37.06 10.85,69.50 l 103.39,-6.09 c 0.58,-4.65 0.87,-11.02 0.87,-19.11 0,-49.24 -13.46,-86.02 -40.4,-110.34 -26.92,-24.32 -65.02,-36.48 -114.24,-36.48 -59.07,0 -100.49,18.53 -124.23,55.61 -23.76,37.05 -35.63,94.39 -35.63,172.01 v 92.96 c 0,79.93 12.31,138.27 36.93,175.06 24.61,36.77 66.75,55.16 126.41,55.16 41.11,0 72.68,-7.53 94.69,-22.59 22,-15.07 37.5,-38.53 46.48,-70.37 8.98,-31.86 13.47,-75.88 13.47,-132.06 v -91.22 h -200.68" style="fill:#252323;fill-opacity:1;fill-rule:nonzero;stroke:none" id="path20"></path><path d="m 1471.42,297.44 -136.4,492.60 h 119.02 l 47.78,-223.28 c 12.17,-55.03 21.14,-101.95 26.93,-140.74 h 3.48 c 4.05,27.80 13.03,74.42 26.93,139.87 l 49.52,224.15 H 1727.7 L 1589.57,297.44 V 61.12 H 1471.42 V 297.44" style="fill:#252323;fill-opacity:1;fill-rule:nonzero;stroke:none" id="path22"></path><path d="M 2415.86,593.68 V 61.12 h -93.83 l -10.43,65.16 h -2.6 c -25.49,-49.23 -63.72,-73.84 -114.68,-73.84 -35.33,0 -61.39,11.57 -78.19,34.75 -16.8,23.15 -25.19,59.36 -25.19,108.59 v 397.89 h 119.89 V 202.73 c 0,-23.76 2.61,-40.70 7.82,-50.82 5.21,-10.14 13.9,-15.20 26.06,-15.20 10.43,0 20.42,3.18 29.97,9.56 9.56,6.37 16.65,14.46 21.29,24.31 v 423.09 h 119.89" style="fill:#252323;fill-opacity:1;fill-rule:nonzero;stroke:none" id="path24"></path><path d="M 3030.82,593.68 V 61.12 h -93.83 l -10.43,65.16 h -2.59 c -25.51,-49.23 -63.73,-73.84 -114.69,-73.84 -35.33,0 -61.39,11.57 -78.19,34.75 -16.8,23.15 -25.19,59.36 -25.19,108.59 v 397.89 h 119.89 V 202.73 c 0,-23.76 2.6,-40.70 7.81,-50.82 5.22,-10.14 13.91,-15.20 26.07,-15.20 10.43,0 20.42,3.18 29.97,9.56 9.56,6.37 16.65,14.46 21.29,24.31 v 423.09 h 119.89" style="fill:#252323;fill-opacity:1;fill-rule:nonzero;stroke:none" id="path26"></path><path d="M 2741.64,693.59 H 2622.62 V 61.12 H 2505.34 V 693.59 h -119.02 v 96.44 h 355.32 v -96.44" style="fill:#252323;fill-opacity:1;fill-rule:nonzero;stroke:none" id="path28"></path><path d="m 3317.72,291.32 c 0,-38.81 -1.61,-69.22 -4.79,-91.22 -3.18,-22.02 -8.54,-37.66 -16.07,-46.91 -7.53,-9.27 -17.68,-13.90 -30.4,-13.90 -9.86,0 -18.98,2.31 -27.37,6.95 -8.41,4.63 -15.2,11.57 -20.42,20.85 v 302.33 c 4.05,14.47 11,26.35 20.85,35.62 9.85,9.25 20.55,13.90 32.14,13.90 12.17,0 21.57,-4.78 28.24,-14.33 6.65,-9.55 11.29,-25.63 13.9,-48.22 2.61,-22.58 3.92,-54.73 3.92,-96.43 z m 109.89,217.23 c -7.25,33.58 -18.98,57.91 -35.19,72.98 -16.22,15.05 -38.52,22.58 -66.89,22.58 -22.01,0 -42.57,-6.23 -61.68,-18.68 -19.11,-12.46 -33.89,-28.82 -44.31,-49.09 h -0.88 l 0.01,280.62 H 3103.13 V 61.13 h 99.03 l 12.17,50.38 h 2.6 c 9.26,-17.95 23.16,-32.14 41.7,-42.57 18.53,-10.42 39.1,-15.64 61.69,-15.64 40.53,0 70.36,18.68 89.48,56.04 19.11,37.36 28.67,95.70 28.67,175.06 v 84.27 c 0,59.65 -3.63,106.27 -10.86,139.88" style="fill:#252323;fill-opacity:1;fill-rule:nonzero;stroke:none" id="path30"></path></g></g></svg>