<svg width="500" height="136" viewBox="0 0 500 136" fill="none" xmlns="http://www.w3.org/2000/svg"><path
    d="M117.41 92.84L117.34 92.62L161.80 51.92V32.31H90.48V51.92H133.08L133.15 52.11L89.13 92.84V112.45H162.52V92.84H117.41Z"
    fill="#201515" /><path
    d="M206.30 30.44C198.07 30.44 191.36 31.68 186.18 34.17C181.35 36.33 177.29 39.89 174.51 44.39C171.85 48.93 170.18 53.97 169.61 59.19L191.25 62.23C192.04 57.62 193.60 54.35 195.95 52.43C198.62 50.41 201.91 49.39 205.25 49.55C209.64 49.55 212.83 50.72 214.81 53.07C216.77 55.42 217.77 58.67 217.77 62.96V65.10H196.96C186.37 65.10 178.76 67.44 174.13 72.14C169.51 76.84 167.20 83.04 167.21 90.74C167.21 98.63 169.51 104.50 174.13 108.36C178.75 112.21 184.56 114.12 191.56 114.10C200.24 114.10 206.92 111.11 211.59 105.14C214.35 101.47 216.32 97.27 217.38 92.80H218.17L221.15 112.41H240.76V62.75C240.76 52.48 238.06 44.53 232.65 38.90C227.24 33.26 218.45 30.44 206.30 30.44ZM213.15 91.66C210.04 94.25 205.97 95.54 200.90 95.54C196.71 95.54 193.81 94.81 192.18 93.35C191.39 92.66 190.76 91.80 190.33 90.83C189.91 89.87 189.70 88.82 189.73 87.77C189.68 86.78 189.84 85.79 190.19 84.86C190.54 83.92 191.07 83.07 191.76 82.36C192.50 81.66 193.38 81.12 194.34 80.77C195.30 80.42 196.32 80.27 197.34 80.33H217.80V81.68C217.85 83.59 217.45 85.48 216.64 87.21C215.84 88.94 214.64 90.46 213.15 91.66Z"
    fill="#201515" /><path d="M359.33 32.31H336.16V112.47H359.33V32.31Z" fill="#201515" /><path
    d="M496.11 32.31C489.56 32.31 484.41 34.62 480.63 39.24C477.92 42.56 475.87 47.46 474.46 53.95H473.77L470.75 32.31H450.96V112.45H474.13V71.35C474.13 66.17 475.34 62.20 477.77 59.44C480.19 56.67 484.67 55.29 491.20 55.29H500.00V32.31H496.11Z"
    fill="#201515" /><path
    d="M427.99 34.93C422.58 31.71 415.76 30.11 407.52 30.12C394.56 30.12 384.42 33.81 377.09 41.19C369.76 48.57 366.10 58.75 366.10 71.72C365.91 79.56 367.62 87.33 371.09 94.37C374.26 100.64 379.20 105.85 385.30 109.34C391.43 112.89 398.73 114.67 407.19 114.67C414.51 114.67 420.63 113.55 425.54 111.29C430.15 109.27 434.17 106.09 437.21 102.08C440.10 98.13 442.25 93.69 443.55 88.97L423.59 83.38C422.75 86.45 421.13 89.25 418.89 91.51C416.64 93.76 412.86 94.89 407.56 94.89C401.26 94.89 396.56 93.08 393.47 89.47C391.23 86.87 389.82 83.15 389.19 78.32H443.86C444.08 76.07 444.20 74.17 444.20 72.65V67.66C444.33 60.95 442.94 54.31 440.14 48.21C437.53 42.66 433.29 38.03 427.99 34.93ZM406.86 49.22C416.25 49.22 421.58 53.84 422.84 63.09H389.61C390.13 60.00 391.41 57.10 393.33 54.62C396.37 51.01 400.88 49.21 406.86 49.22Z"
    fill="#201515" /><path
    d="M347.99 0.01C346.25 -0.05 344.51 0.24 342.88 0.87C341.26 1.49 339.77 2.44 338.52 3.65C337.28 4.87 336.31 6.34 335.67 7.95C335.03 9.57 334.73 11.30 334.80 13.04C334.73 14.79 335.03 16.53 335.67 18.16C336.31 19.79 337.28 21.27 338.52 22.51C339.76 23.75 341.24 24.72 342.87 25.36C344.5 26.00 346.24 26.29 347.99 26.23C349.73 26.29 351.46 26.00 353.08 25.36C354.70 24.72 356.17 23.74 357.39 22.51C358.60 21.25 359.55 19.77 360.17 18.14C360.79 16.52 361.08 14.78 361.01 13.04C361.10 11.31 360.81 9.58 360.19 7.97C359.56 6.35 358.61 4.88 357.38 3.66C356.16 2.43 354.69 1.48 353.08 0.85C351.46 0.22 349.74 -0.06 348.00 0.02L347.99 0.01Z"
    fill="#201515" /><path
    d="M300.14 30.12C292.25 30.12 285.91 32.59 281.12 37.55C277.57 41.22 274.97 46.70 273.31 53.99H272.57L269.54 32.35H249.75V135.49H272.92V93.01H273.77C274.47 95.84 275.46 98.60 276.73 101.23C278.69 105.52 281.9 109.11 285.94 111.54C290.14 113.83 294.86 114.97 299.63 114.84C309.33 114.84 316.72 111.06 321.79 103.51C326.87 95.95 329.40 85.41 329.40 71.88C329.40 58.82 326.95 48.59 322.04 41.20C317.13 33.81 309.83 30.12 300.14 30.12ZM302.49 88.19C299.79 92.11 295.56 94.07 289.81 94.07C287.44 94.18 285.07 93.72 282.91 92.73C280.75 91.75 278.86 90.26 277.38 88.39C274.38 84.63 272.89 79.47 272.90 72.93V71.40C272.90 64.76 274.39 59.67 277.38 56.14C280.37 52.61 284.51 50.86 289.81 50.90C295.66 50.90 299.92 52.76 302.57 56.48C305.23 60.20 306.55 65.38 306.55 72.04C306.57 78.92 305.22 84.30 302.51 88.19H302.49Z"
    fill="#201515" /><path d="M80.15 92.84H0V112.48H80.15V92.84Z" fill="#FF4F00" /></svg>