<svg width="500" height="500" viewBox="0 0 500 500" fill="none" xmlns="http://www.w3.org/2000/svg"><circle cx="250" cy="250" r="250" fill="#0B996E"/><path d="M194.84 249.70V141.96H260.36C282.49 141.96 297.10 154.76 297.10 174.19C297.10 196.25 278.07 213.03 239.12 225.83C212.56 234.21 200.61 241.28 196.18 249.68L194.84 249.69V249.70ZM194.84 357.86V312.83C194.84 292.97 211.67 273.54 235.13 266.03C255.94 258.97 273.19 251.90 287.81 244.41C307.29 255.90 319.23 275.74 319.23 296.5C319.23 331.81 285.58 357.86 239.99 357.86H194.84ZM155 395.82H243.53C310.83 395.82 361.28 353.88 361.28 298.26C361.28 267.79 345.79 240.43 318.34 222.76C332.51 208.63 339.15 192.29 339.15 172.43C339.15 131.38 309.49 104 264.79 104H155V395.82Z" fill="white"/></svg>