<svg width="500" height="500" viewBox="0 0 500 500" fill="none" xmlns="http://www.w3.org/2000/svg"><circle cx="250" cy="250" r="250" fill="white"/><path d="M89.83 288.32C67.11 288.32 50 270.37 50 248.20C50 225.95 66.24 207.85 89.83 207.85C102.36 207.85 111.03 211.69 117.80 220.49L106.88 229.57C102.29 224.70 96.75 222.26 89.83 222.26C74.47 222.26 66.02 234.01 66.02 248.20C66.02 262.38 75.27 273.91 89.83 273.91C96.68 273.91 102.51 271.47 107.09 266.60L117.87 276.06C111.39 284.48 102.51 288.32 89.83 288.32Z" fill="#292929"/><path d="M164.91 229.28H179.63V286.92H164.91V278.49C161.86 284.48 156.76 288.47 147.00 288.47C131.42 288.47 118.96 274.94 118.96 258.32C118.96 241.69 131.42 228.17 147.00 228.17C156.69 228.17 161.86 232.16 164.91 238.14V229.28ZM165.35 258.32C165.35 249.30 159.16 241.84 149.40 241.84C140.01 241.84 133.89 249.38 133.89 258.32C133.89 267.04 140.01 274.80 149.40 274.80C159.09 274.80 165.35 267.26 165.35 258.32Z" fill="#292929"/><path d="M190.04 206H204.75V286.84H190.04V206Z" fill="#292929"/><path d="M211.30 279.23C211.30 274.50 215.09 270.51 220.26 270.51C225.43 270.51 229.07 274.50 229.07 279.23C229.07 284.11 225.36 288.10 220.26 288.10C215.16 288.10 211.30 284.11 211.30 279.23Z" fill="#292929"/><path d="M285.37 277.60C279.90 284.25 271.60 288.47 261.77 288.47C244.22 288.47 231.33 274.94 231.33 258.32C231.33 241.69 244.22 228.17 261.77 228.17C271.24 228.17 279.47 232.16 284.93 238.44L273.57 247.97C270.73 244.43 267.01 241.76 261.77 241.76C252.38 241.76 246.26 249.30 246.26 258.24C246.26 267.19 252.38 274.72 261.77 274.72C267.45 274.72 271.38 271.77 274.30 267.78L285.37 277.60Z" fill="#292929"/><path d="M286.60 258.32C286.60 241.69 299.49 228.17 317.04 228.17C334.59 228.17 347.48 241.69 347.48 258.32C347.48 274.94 334.59 288.47 317.04 288.47C299.49 288.39 286.60 274.94 286.60 258.32ZM332.55 258.32C332.55 249.30 326.44 241.84 317.04 241.84C307.65 241.76 301.53 249.30 301.53 258.32C301.53 267.26 307.65 274.80 317.04 274.80C326.44 274.80 332.55 267.26 332.55 258.32Z" fill="#292929"/><path d="M446.96 251.67V286.84H432.25V255.29C432.25 245.31 427.59 241.03 420.60 241.03C414.04 241.03 409.38 244.28 409.38 255.29V286.84H394.67V255.29C394.67 245.31 389.94 241.03 383.02 241.03C376.47 241.03 370.71 244.28 370.71 255.29V286.84H356.00V229.20H370.71V237.18C373.77 230.98 379.31 227.87 387.83 227.87C395.91 227.87 402.68 231.86 406.40 238.59C410.11 231.72 415.57 227.87 425.48 227.87C437.56 227.95 446.96 237.11 446.96 251.67Z" fill="#292929"/></svg>