<svg width="180" height="181" viewBox="0 0 180 181" fill="none" xmlns="http://www.w3.org/2000/svg"><path fill-rule="evenodd" clip-rule="evenodd" d="M32.05 0.92H147.95C165.65 0.92 180 15.27 180 32.97V148.87C180 166.57 165.65 180.92 147.95 180.92H32.05C14.35 180.92 0 166.57 0 148.87V32.97C0 15.27 14.35 0.92 32.05 0.92ZM119.56 82.89H85.08C82.47 82.89 80.36 85.00 80.36 87.61V94.23C80.36 96.84 82.47 98.96 85.08 98.96H119.56C122.17 98.96 124.29 96.84 124.29 94.23V87.61C124.29 85.00 122.17 82.89 119.56 82.89ZM85.08 49.13H127.06C129.67 49.13 131.78 51.25 131.78 53.86V60.48C131.78 63.09 129.67 65.21 127.06 65.21H85.08C82.47 65.21 80.36 63.09 80.36 60.48V53.86C80.36 51.25 82.47 49.13 85.08 49.13ZM131.78 127.98V121.36C131.78 118.75 129.67 116.63 127.06 116.63H76.57C69.78 116.63 64.29 111.14 64.29 104.35V53.86C64.29 51.25 62.17 49.13 59.56 49.13H52.94C50.33 49.13 48.21 51.25 48.21 53.86V114.20C48.85 124.13 56.79 132.07 66.72 132.71H127.06C129.67 132.71 131.78 130.59 131.78 127.98Z" fill="#316BFF"/><path d="M85.08 49.13H127.06C129.67 49.13 131.78 51.25 131.78 53.86V60.48C131.78 63.09 129.67 65.21 127.06 65.21H85.08C82.47 65.21 80.36 63.09 80.36 60.48V53.86C80.36 51.25 82.47 49.13 85.08 49.13Z" fill="white"/><path d="M85.08 82.89H119.56C122.17 82.89 124.29 85.00 124.29 87.61V94.23C124.29 96.84 122.17 98.96 119.56 98.96H85.08C82.47 98.96 80.36 96.84 80.36 94.23V87.61C80.36 85.00 82.47 82.89 85.08 82.89Z" fill="white"/><path d="M131.78 121.36V127.98C131.78 130.59 129.67 132.71 127.06 132.71H66.72C56.79 132.07 48.85 124.13 48.21 114.20V53.86C48.21 51.25 50.33 49.13 52.94 49.13H59.56C62.17 49.13 64.29 51.25 64.29 53.86V104.35C64.29 111.14 69.78 116.63 76.57 116.63H127.06C129.67 116.63 131.78 118.75 131.78 121.36Z" fill="white"/></svg>