<svg version="1.1" id="Vrstva_1" xmlns:x="ns_extend;" xmlns:i="ns_ai;" xmlns:graph="ns_graphs;" xmlns="http://www.w3.org/2000/svg" xmlns:xlink="http://www.w3.org/1999/xlink" x="0px" y="0px" viewBox="0 0 91.1 66.1" style="enable-background:new 0 0 91.1 66.1;" xml:space="preserve"><style type="text/css">
  .st0{clip-path:url(#SVGID_2_);}
	.st1{fill:url(#SVGID_3_);}
	.st2{clip-path:url(#SVGID_5_);}
	.st3{fill:url(#SVGID_6_);}
	.st4{clip-path:url(#SVGID_8_);}
	.st5{fill:url(#SVGID_9_);}
 </style><metadata><sfw xmlns="ns_sfw;"><slices></slices><sliceSourceBounds bottomLeftOrigin="true" height="97" width="134.8" x="446.5" y="-15.7"></sliceSourceBounds></sfw></metadata><g><g><defs><path id="SVGID_1_" d="M72.8,1.7h15.8c1.2,0,2.2,1,2.2,2.2v58.4c0,1.2-1,2.2-2.2,2.2H72.8c-1.2,0-2.2-1-2.2-2.2V3.9
				C70.6,2.7,71.6,1.7,72.8,1.7z"></path></defs><clipPath id="SVGID_2_"><use href="#SVGID_1_" style="overflow:visible;"></use></clipPath><g class="st0"><linearGradient id="SVGID_3_" gradientUnits="userSpaceOnUse" x1="-395.38" y1="-292.43" x2="-394.92" y2="-292.43" gradientTransform="matrix(91.43 -33.71 33.71 91.43 46060.58 13452.03)"><stop offset="0" style="stop-color:#B02DE9"></stop><stop offset="2.00e-02" style="stop-color:#B02DE9"></stop><stop offset="0.8" style="stop-color:#6D00CC"></stop><stop offset="1" style="stop-color:#6D00CC"></stop></linearGradient><polygon class="st1" points="50.3,9.3 88.4,-4.8 111.2,57 73.1,71 			"></polygon></g></g><g><defs><path id="SVGID_4_" d="M26.4,2.5L0.2,54.7c-0.5,1.1-0.1,2.4,1,2.9l14.1,7.1c1.1,0.5,2.4,0.1,2.9-1l26.2-52.2
				c0.5-1.1,0.1-2.4-1-2.9L29.4,1.5c-0.3-0.2-0.6-0.2-1-0.2C27.6,1.3,26.8,1.8,26.4,2.5"></path></defs><clipPath id="SVGID_5_"><use xlink:href="#SVGID_4_" style="overflow:visible;"></use></clipPath><g class="st2"><linearGradient id="SVGID_6_" gradientUnits="userSpaceOnUse" x1="-395.25" y1="-292.33" x2="-394.78" y2="-292.33" gradientTransform="matrix(98.29 -42.49 42.49 98.29 51283.58 11974.01)"><stop offset="0" style="stop-color:#FF00FF"></stop><stop offset="0" style="stop-color:#FF00FF"></stop><stop offset="0.17" style="stop-color:#E90CF9"></stop><stop offset="0.54" style="stop-color:#C023ED"></stop><stop offset="0.73" style="stop-color:#B02DE9"></stop><stop offset="1" style="stop-color:#B02DE9"></stop></linearGradient><polygon class="st3" points="-23.6,11.4 37.9,-15.2 68.3,55.2 6.8,81.8 			"></polygon></g></g><g><defs><path id="SVGID_7_" d="M48.5,2.7L37.3,59.6c-0.2,1.2,0.5,2.3,1.7,2.6l15.5,3.1c1.2,0.2,2.3-0.5,2.6-1.7L68.3,6.7
				c0.2-1.2-0.5-2.3-1.7-2.6L51.1,1c-0.1,0-0.3,0-0.4,0C49.6,0.9,48.7,1.7,48.5,2.7"></path></defs><clipPath id="SVGID_8_"><use xlink:href="#SVGID_7_" style="overflow:visible;"></use></clipPath><g class="st4"><linearGradient id="SVGID_9_" gradientUnits="userSpaceOnUse" x1="-395.77" y1="-293.43" x2="-395.30" y2="-293.43" gradientTransform="matrix(201.48 -74.17 74.17 201.48 101507.72 29818.51)"><stop offset="0" style="stop-color:#FF00FF"></stop><stop offset="2.00e-02" style="stop-color:#FF00FF"></stop><stop offset="9.00e-02" style="stop-color:#E90CF9"></stop><stop offset="0.23" style="stop-color:#C023ED"></stop><stop offset="0.3" style="stop-color:#B02DE9"></stop><stop offset="0.42" style="stop-color:#A42BE3"></stop><stop offset="0.63" style="stop-color:#8626D5"></stop><stop offset="0.85" style="stop-color:#6021C3"></stop><stop offset="1" style="stop-color:#6021C3"></stop></linearGradient><polygon class="st5" points="16.1,8.6 64.8,-9.3 89.4,57.8 40.8,75.7 			"></polygon></g></g></g></svg>