<svg viewBox="0 0 31 35" xmlns="http://www.w3.org/2000/svg" xmlns:xlink="http://www.w3.org/1999/xlink"><path d="M21.81 34.38l-.078-29.99c-.202-.202-.596-.141-.75-.096l-1.3.32a7.17 7.17 0 00-.491-1.21c-.728-1.39-1.79-2.13-3.08-2.13h-.004c-.086 0-.171.01-.257.01l-.1.00a2.81 2.81 0 00-.116-.134c-.56-.6-1.28-.893-2.14-.868-1.66.05-3.32 1.25-4.66 3.38-.945 1.50-1.66 3.39-1.87 4.85L4.06 9.54c-.963.30-.993.33-1.12 1.24-.95.69-2.62 20.21-2.62 20.21l21.13 3.66.36-.27zM14.89 1.66c-.281-.185-.61-.271-1-.263-2.57.07-4.80 4.09-5.38 6.76l2.46-.762.44-.136c.322-1.70 1.13-3.46 2.19-4.59a4.82 4.82 0 011.29-1.01zm-2.26 5.22l3.53-1.09c.011-.92-.089-2.28-.549-3.24-.49.20-.902.56-1.20.87-.793.85-1.44 2.15-1.78 3.46zm4.63-1.44l1.64-.509c-.262-.852-.884-2.28-2.15-2.52.39 1.1.49 2.19.50 3.03z" fill="#95BF47" fill-rule="evenodd"></path><path d="M26.55 6.62c-.126-.01-2.57-.048-2.57-.048s-2.04-1.99-2.25-2.19a.503.50 0 00-.283-.13v30.39l9.15-2.28s-3.74-25.29-3.76-25.46a.333.33 0 00-.3-.28z" fill="#5E8E3E"></path><path d="M16.38 11.34l-1.06 3.98s-1.19-.541-2.59-.452c-2.06.13-2.08 1.43-2.06 1.76.11 1.78 4.79 2.17 5.06 6.34.21 3.28-1.74 5.53-4.54 5.71-3.37.21-5.22-1.77-5.22-1.77l.713-3.04s1.86 1.41 3.36 1.31c.976-.061 1.32-.855 1.29-1.42-.147-2.32-3.96-2.19-4.2-6.00-.202-3.21 1.91-6.47 6.56-6.76 1.79-.114 2.71.34 2.71.34" fill="#fff"></path></svg>