<svg xmlns="http://www.w3.org/2000/svg" viewBox="0 0 32 32" width="64" height="64" fill="#6772e5"><path d="M111.33 15.60c0-4.97-2.42-8.9-7.01-8.9s-7.42 3.92-7.42 8.86c0 5.85 3.32 8.8 8.04 8.8 2.32 0 4.06-.528 5.38-1.26V19.22a10.25 10.25 0 0 1-4.76 1.07c-1.9 0-3.56-.67-3.77-2.94h9.50a39.64 39.64 0 0 0 .063-1.75zm-9.61-1.83c0-2.19 1.35-3.1 2.56-3.1s2.45.91 2.45 3.1zM89.4 6.71a5.43 5.43 0 0 0-3.80 1.51l-.254-1.21h-4.27v22.64l4.85-1.03v-5.49a5.43 5.43 0 0 0 3.44 1.26c3.47 0 6.64-2.79 6.64-8.96.00-5.66-3.21-8.73-6.61-8.73zM88.23 20.1a2.90 2.90 0 0 1-2.29-.906l-.03-7.2a2.93 2.93 0 0 1 2.31-.96c1.77 0 3.00 2 3.00 4.53.00 2.59-1.20 4.55-3.00 4.55zM79.25.57l-4.87 1.03v3.95l4.87-1.03z" fill-rule="evenodd"/><path d="M74.38 7.04h4.87V24.04h-4.87z"/><path d="M69.16 8.47l-.302-1.43h-4.20V24.04h4.85V12.5c1.15-1.5 3.08-1.21 3.70-1.02V7.04c-.646-.232-2.91-.658-4.05 1.43zm-9.73-5.65L54.70 3.83l-.02 15.56c0 2.87 2.16 4.99 5.04 4.99 1.58 0 2.76-.302 3.40-.643v-3.95c-.622.25-3.68 1.14-3.68-1.72v-6.9h3.68V7.04h-3.68zM46.3 11.97c0-.758.63-1.05 1.65-1.05a10.87 10.87 0 0 1 4.83 1.25V7.6a12.81 12.81 0 0 0-4.83-.888c-3.92 0-6.56 2.06-6.56 5.49 0 5.37 7.38 4.50 7.38 6.81 0 .906-.78 1.19-1.86 1.19-1.61 0-3.68-.664-5.31-1.55v4.63a13.46 13.46 0 0 0 5.31 1.12c4.03 0 6.81-1.99 6.81-5.49 0-5.80-7.42-4.76-7.42-6.94zM13.88 9.52c0-1.37 1.14-1.9 2.98-1.9A19.66 19.66 0 0 1 25.6 9.88v-8.27A23.18 23.18 0 0 0 16.86.00C9.76.00 5 3.72 5 9.93c0 9.72 13.34 8.14 13.34 12.33 0 1.64-1.4 2.15-3.37 2.15-2.90 0-6.66-1.20-9.6-2.80v8.38A24.35 24.35 0 0 0 14.97 32C22.27 32 27.3 28.39 27.3 22.08c0-10.49-13.42-8.61-13.42-12.56z" fill-rule="evenodd"/></svg>