<svg width="254" height="100" viewBox="0 0 254 100" fill="none" xmlns="http://www.w3.org/2000/svg"><path d="M238.63 5.38C238.63 7.60 237.81 10.66 236.60 14.76L235.74 17.92L238.48 16.13C243.69 12.48 246.84 11.10 248.92 11.10C251.29 11.10 253.74 12.79 253.74 16.16C253.74 20.43 249.17 21.65 240.33 21.80L237.03 21.95L239.64 24.02C245.82 28.78 247.96 31.11 247.96 34.06C247.96 36.39 245.80 38.81 243.12 38.81C239.08 38.81 237.26 34.63 234.81 27.53L233.55 24.44L232.38 27.53C229.62 35.59 227.50 38.73 223.99 38.73C221.16 38.73 219.14 36.17 219.14 33.99C219.14 30.74 222.10 28.04 227.55 24.02L230.15 21.95L226.92 21.80C217.54 21.72 213.51 20.38 213.51 16.08C213.51 12.72 216.03 11.03 218.36 11.03C221.17 11.03 224.23 12.92 228.78 16.13L231.52 17.92L230.65 14.76C229.34 10.43 228.72 7.26 228.72 5.38C228.72 2.44 230.38 0 233.63 0C236.94 -1e-07 238.63 2.44 238.63 5.38ZM85.06 69.79C83.58 69.79 82.74 68.81 82.74 66.78V43.73C82.74 29.96 77.52 24.38 64.34 24.38C49.53 24.38 40.57 28.85 40.57 37.56C40.57 41.04 43.97 43.47 47.64 43.47C51.60 43.47 54.79 41.12 55.18 34.29C55.29 32.35 55.19 30.93 55.02 29.90C56.28 29.74 57.39 29.68 58.47 29.68C65.03 29.68 66.80 32.37 66.80 41.48V44.84C63.89 45.61 61.07 46.38 58.98 46.99C43.13 51.59 39.08 56.73 39.08 64.05C39.08 72.50 44.61 77.19 52.56 77.19C59.58 77.19 62.83 74.38 67.34 69.64C68.82 74.38 72.50 77.11 78.53 77.11C84.77 77.11 88.43 74.96 90.90 69.34L88.18 67.53C86.97 69.23 86.14 69.79 85.06 69.79ZM60.45 68.88C56.98 68.88 54.27 66.50 54.27 61.35C54.27 56.51 57.30 53.05 61.96 51.08C63.21 50.51 64.90 49.91 66.80 49.33V66.03C63.86 68.13 62.30 68.88 60.45 68.88ZM191.00 25.94V30.43L197.8 31.65L187.99 59.44L177.96 31.64L184.9 30.38V25.94H155.61V30.43L160.45 31.27L180.97 79.56L180.94 79.61C179.10 84.87 176.23 89.36 172.82 92.51C171.06 88.49 169.02 84.57 164.43 84.57C158.79 84.57 155.89 87.95 155.89 91.38C155.89 95.52 159.41 100 166.56 100C176.10 100 180.75 93.00 185.81 79.84L204.42 31.47L210.40 30.43V25.94H191.00ZM120.77 68.79C117.72 68.79 115.73 66.60 115.7 61.78V2.02L114.20 0.97L92.69 5.60V9.94L99.06 10.96V62.91C99.06 73.05 104.51 77.19 113.83 77.19C121.34 77.19 126.15 74.20 128.87 68.98L126.35 66.50C124.35 68.01 122.66 68.79 120.77 68.79ZM162.07 68.98L159.56 66.50C157.55 68.01 155.86 68.79 153.97 68.79C150.92 68.79 148.93 66.60 148.90 61.78V2.02L147.41 0.97L125.89 5.60V9.94L132.26 10.96V62.91C132.26 73.05 137.71 77.19 147.03 77.19C154.54 77.19 159.35 74.20 162.07 68.98ZM28.51 68.79C25.46 68.79 23.27 66.60 23.27 61.78V32.99H34.05V25.94H23.32L23.50 11.52H13.02C11.34 17.50 8.91 25.92 0.26 26.87V32.99H6.84V62.91C6.84 73.05 12.25 77.19 21.57 77.19C29.08 77.19 33.89 74.20 36.61 68.98L34.09 66.50C32.09 68.01 30.40 68.79 28.51 68.79Z" fill="black"/></svg>