<svg height="336" id="svg2" version="1.1" viewBox="0 0 336 336" width="336" xml:space="preserve" xmlns="http://www.w3.org/2000/svg" xmlns:cc="http://creativecommons.org/ns#" xmlns:dc="http://purl.org/dc/elements/1.1/" xmlns:rdf="http://www.w3.org/1999/02/22-rdf-syntax-ns#" xmlns:svg="http://www.w3.org/2000/svg" xmlns:xlink="http://www.w3.org/1999/xlink"><metadata id="metadata8"></metadata><defs id="defs6"><clipPath clipPathunits="userSpaceOnUse" id="clipPath18"><path d="M 0,252 H 252 V 0 H 0 Z" id="path16"></path></clipPath></defs><g id="g10" transform="matrix(1.33,0,0,-1.33,0,336)"><g id="g12"><g clip-path="url(#clipPath18)" id="g14"><g id="g20" transform="translate(201.16,166.15)"><path d="m 0,0 c 6.63,-12.10 10.41,-25.99 10.41,-40.76 0,-31.34 -16.99,-58.71 -42.25,-73.44 l 25.95,75.03 c 4.85,12.12 6.46,21.81 6.46,30.43 C 0.57,-5.61 0.36,-2.71 0,0 m -62.85,-0.93 c 5.12,0.27 9.72,0.81 9.72,0.81 4.58,0.54 4.04,7.27 -0.54,7.00 0,0 -13.76,-1.08 -22.65,-1.08 -8.35,0 -22.38,1.08 -22.38,1.08 -4.58,0.27 -5.12,-6.73 -0.54,-7.00 0,0 4.33,-0.54 8.91,-0.81 l 13.24,-36.27 -18.60,-55.76 -30.94,92.03 c 5.12,0.27 9.72,0.81 9.72,0.81 4.58,0.54 4.04,7.27 -0.54,7.00 0,0 -13.76,-1.08 -22.64,-1.08 -1.59,0 -3.47,0.04 -5.47,0.10 15.19,23.06 41.30,38.30 70.99,38.30 22.12,0 42.26,-8.46 57.37,-22.31 -0.37,0.02 -0.72,0.07 -1.1,0.07 -8.35,0 -14.27,-7.27 -14.27,-15.08 0,-7.00 4.04,-12.93 8.35,-19.93 3.23,-5.66 7.00,-12.93 7.00,-23.43 0,-7.27 -2.80,-15.71 -6.46,-27.47 l -8.48,-28.32 z m -11.71,-124.80 c -8.34,0 -16.39,1.22 -24.00,3.46 l 25.50,74.08 26.11,-71.55 c 0.17,-0.42 0.38,-0.81 0.61,-1.17 -8.83,-3.11 -18.32,-4.82 -28.21,-4.82 m -84.96,84.97 c 0,12.32 2.64,24.01 7.36,34.58 l 40.53,-111.04 c -28.34,13.77 -47.89,42.84 -47.89,76.47 m 84.96,94.50 c -52.11,0 -94.50,-42.39 -94.50,-94.50 0,-52.11 42.39,-94.50 94.50,-94.50 52.11,0 94.5,42.40 94.5,94.50 0,52.11 -42.39,94.50 -94.5,94.50" id="path22" style="fill:#3f3c3c;fill-opacity:1;fill-rule:nonzero;stroke:none"></path></g></g></g></g></svg>