<svg width="254" height="100" viewBox="0 0 254 100" fill="none" xmlns="http://www.w3.org/2000/svg">
<path d="M238.635 5.37805C238.635 7.59952 237.813 10.6558 236.602 14.7627L235.735 17.9171L238.478 16.1291C243.692 12.4751 246.84 11.1037 248.924 11.1037C251.295 11.1037 253.742 12.7943 253.742 16.1567C253.742 20.4338 249.167 21.6489 240.334 21.7987L237.031 21.9536L239.636 24.0231C245.819 28.7801 247.963 31.1107 247.963 34.0637C247.963 36.3877 245.799 38.8083 243.116 38.8083C239.084 38.8083 237.262 34.6272 234.806 27.5287L233.554 24.4434L232.376 27.5287C229.623 35.5914 227.504 38.7342 223.991 38.7342C221.16 38.7342 219.144 36.1651 219.144 33.9895C219.144 30.7398 222.104 28.0384 227.546 24.0231L230.15 21.9536L226.922 21.7987C217.54 21.7231 213.512 20.3764 213.512 16.0825C213.512 12.7202 216.035 11.0295 218.36 11.0295C221.169 11.0295 224.231 12.9201 228.778 16.1291L231.52 17.9171L230.654 14.7627C229.34 10.4333 228.724 7.25702 228.724 5.37805C228.724 2.43671 230.385 0 233.628 0C236.945 -1e-07 238.635 2.43671 238.635 5.37805ZM85.0558 69.7881C83.5811 69.7881 82.7354 68.8108 82.7354 66.7806V43.7253C82.7354 29.9566 77.521 24.383 64.3369 24.383C49.532 24.383 40.5677 28.8451 40.5677 37.5641C40.5677 41.0427 43.9729 43.469 47.6385 43.469C51.6008 43.469 54.7922 41.121 55.1806 34.2883C55.2906 32.3527 55.1867 30.9293 55.0214 29.897C56.2804 29.7397 57.3915 29.6767 58.4695 29.6767C65.0314 29.6767 66.7976 32.3664 66.7976 41.477V44.8383C63.8912 45.6058 61.0668 46.3823 58.9807 46.9946C43.128 51.5866 39.0799 56.732 39.0799 64.0464C39.0799 72.5048 44.6092 77.1935 52.5584 77.1935C59.5808 77.1935 62.8281 74.3763 67.3424 69.6412C68.8171 74.3786 72.5023 77.1077 78.5259 77.1077C84.7657 77.1077 88.432 74.9553 90.8985 69.3431L88.176 67.5259C86.9704 69.2333 86.1357 69.7881 85.0558 69.7881ZM60.4474 68.8792C56.9788 68.8792 54.2709 66.4984 54.2709 61.3465C54.2709 56.5109 57.3017 53.0497 61.9555 51.0827C63.2054 50.509 64.9045 49.9139 66.7976 49.326V66.0289C63.8625 68.1328 62.3045 68.8792 60.4474 68.8792ZM190.995 25.942V30.43L197.8 31.6507L187.99 59.4429L177.957 31.6359L184.9 30.3849V25.942H155.611V30.43L160.447 31.2674L180.965 79.5584L180.945 79.6149C179.102 84.8662 176.233 89.3611 172.816 92.5129C171.059 88.4885 169.02 84.5727 164.433 84.5727C158.788 84.5727 155.892 87.9467 155.892 91.3847C155.892 95.5186 159.407 100 166.558 100C176.101 100 180.745 93.0026 185.807 79.8389L204.423 31.4747L210.402 30.43V25.942H190.995ZM120.772 68.7897C117.721 68.7897 115.726 66.6023 115.7 61.7755V2.01562L114.205 0.970703L92.6902 5.59615V9.93655L99.0598 10.964V62.9063C99.0598 73.0472 104.507 77.1935 113.826 77.1935C121.339 77.1935 126.147 74.2019 128.866 68.9839L126.353 66.505C124.348 68.0131 122.662 68.7897 120.772 68.7897ZM162.068 68.9839L159.555 66.505C157.55 68.0131 155.864 68.7897 153.974 68.7897C150.923 68.7897 148.928 66.6023 148.902 61.7755V2.01562L147.407 0.970703L125.892 5.59615V9.93655L132.262 10.964V62.9063C132.262 73.0472 137.709 77.1935 147.028 77.1935C154.541 77.1935 159.349 74.2019 162.068 68.9839ZM28.5114 68.7897C25.461 68.7897 23.2737 66.6024 23.2737 61.7755V32.994H34.0487V25.942H23.3242L23.5027 11.5159H13.0157C11.3439 17.5027 8.91 25.9181 0.25769 26.8677V32.994H6.8392V62.9063C6.8392 73.0472 12.2471 77.1935 21.5656 77.1935C29.0786 77.1935 33.8872 74.2019 36.6053 68.9839L34.093 66.505C32.0875 68.0131 30.402 68.7897 28.5114 68.7897Z" fill="black"/>
</svg>
