<svg xmlns="http://www.w3.org/2000/svg" viewBox="0 0 500 500" width="50" height="50" role="img" aria-label="T.LY Logo">
  <title>T.LY Logo</title>
  <path d="M269.00,8.00 L268.00,8.00 L261.00,23.00 L256.00,38.00 L255.00,46.00 L254.00,47.00 L254.00,53.00 L253.00,54.00 L253.00,69.00 L254.00,70.00 L254.00,75.00 L256.00,81.00 L253.00,82.00 L247.00,78.00 L236.00,68.00 L233.00,63.00 L233.00,61.00 L232.00,61.00 L226.00,79.00 L225.00,86.00 L224.00,87.00 L223.00,97.00 L222.00,98.00 L222.00,123.00 L223.00,124.00 L224.00,133.00 L227.00,142.00 L232.00,152.00 L234.00,154.00 L234.00,156.00 L231.00,157.00 L220.00,149.00 L206.00,142.00 L193.00,138.00 L183.00,133.00 L176.00,126.00 L175.00,129.00 L175.00,144.00 L177.00,150.00 L181.00,156.00 L180.00,159.00 L176.00,159.00 L170.00,157.00 L163.00,157.00 L162.00,156.00 L152.00,156.00 L151.00,157.00 L141.00,158.00 L135.00,161.00 L133.00,161.00 L126.00,165.00 L106.00,182.00 L106.00,183.00 L110.00,183.00 L111.00,182.00 L127.00,183.00 L128.00,184.00 L131.00,184.00 L139.00,188.00 L144.00,192.00 L149.00,194.00 L153.00,194.00 L154.00,195.00 L160.00,195.00 L163.00,194.00 L164.00,195.00 L163.00,199.00 L159.00,204.00 L154.00,214.00 L153.00,220.00 L152.00,221.00 L152.00,230.00 L154.00,235.00 L156.00,236.00 L158.00,227.00 L164.00,220.00 L168.00,218.00 L175.00,218.00 L181.00,220.00 L190.00,226.00 L190.00,229.00 L186.00,234.00 L182.00,243.00 L182.00,246.00 L180.00,251.00 L180.00,256.00 L179.00,257.00 L179.00,263.00 L178.00,264.00 L175.00,264.00 L167.00,257.00 L159.00,253.00 L147.00,249.00 L137.00,249.00 L136.00,248.00 L133.00,248.00 L132.00,249.00 L126.00,249.00 L125.00,250.00 L121.00,250.00 L120.00,251.00 L114.00,252.00 L106.00,256.00 L105.00,258.00 L120.00,269.00 L121.00,272.00 L118.00,274.00 L108.00,274.00 L107.00,275.00 L103.00,275.00 L97.00,277.00 L86.00,283.00 L74.00,294.00 L55.00,318.00 L46.00,326.00 L48.00,329.00 L55.00,334.00 L63.00,338.00 L69.00,340.00 L72.00,340.00 L73.00,341.00 L84.00,341.00 L85.00,340.00 L92.00,339.00 L101.00,335.00 L103.00,335.00 L117.00,328.00 L120.00,328.00 L121.00,331.00 L113.00,341.00 L108.00,356.00 L108.00,369.00 L109.00,370.00 L109.00,374.00 L110.00,374.00 L110.00,372.00 L115.00,364.00 L123.00,356.00 L130.00,352.00 L133.00,352.00 L134.00,351.00 L147.00,351.00 L148.00,350.00 L165.00,350.00 L174.00,347.00 L178.00,347.00 L179.00,350.00 L175.00,355.00 L172.00,361.00 L170.00,367.00 L170.00,370.00 L169.00,371.00 L169.00,376.00 L168.00,377.00 L168.00,387.00 L169.00,388.00 L169.00,392.00 L170.00,394.00 L171.00,394.00 L183.00,385.00 L186.00,386.00 L186.00,388.00 L183.00,394.00 L183.00,398.00 L182.00,399.00 L182.00,411.00 L183.00,412.00 L183.00,416.00 L184.00,417.00 L184.00,420.00 L186.00,426.00 L191.00,436.00 L199.00,447.00 L200.00,447.00 L200.00,447.00 L200.00,435.00 L201.00,434.00 L201.00,430.00 L203.00,424.00 L209.00,413.00 L222.00,398.00 L224.00,398.00 L225.00,399.00 L225.00,403.00 L228.00,408.00 L231.00,410.00 L234.00,401.00 L235.00,394.00 L236.00,393.00 L237.00,382.00 L238.00,381.00 L238.00,368.00 L237.00,367.00 L236.00,355.00 L230.00,340.00 L223.00,330.00 L217.00,324.00 L208.00,317.00 L193.00,309.00 L181.00,305.00 L170.00,304.00 L164.00,301.00 L164.00,297.00 L169.00,294.00 L179.00,294.00 L180.00,295.00 L187.00,296.00 L203.00,303.00 L208.00,307.00 L218.00,312.00 L220.00,311.00 L224.00,311.00 L228.00,309.00 L236.00,302.00 L239.00,297.00 L241.00,291.00 L241.00,286.00 L242.00,285.00 L242.00,273.00 L241.00,272.00 L241.00,266.00 L240.00,265.00 L240.00,261.00 L238.00,256.00 L238.00,252.00 L239.00,251.00 L244.00,251.00 L245.00,250.00 L258.00,249.00 L265.00,246.00 L272.00,240.00 L277.00,232.00 L280.00,223.00 L280.00,219.00 L281.00,218.00 L281.00,203.00 L280.00,202.00 L280.00,196.00 L279.00,195.00 L279.00,181.00 L282.00,177.00 L284.00,177.00 L287.00,180.00 L289.00,184.00 L290.00,190.00 L291.00,191.00 L291.00,195.00 L292.00,196.00 L292.00,204.00 L293.00,205.00 L292.00,221.00 L284.00,244.00 L283.00,253.00 L285.00,258.00 L287.00,260.00 L294.00,263.00 L306.00,264.00 L307.00,265.00 L307.00,267.00 L303.00,272.00 L295.00,287.00 L292.00,296.00 L292.00,301.00 L291.00,302.00 L292.00,310.00 L294.00,313.00 L303.00,316.00 L304.00,315.00 L313.00,314.00 L331.00,307.00 L339.00,306.00 L340.00,305.00 L345.00,305.00 L346.00,304.00 L357.00,304.00 L364.00,307.00 L364.00,309.00 L362.00,311.00 L359.00,312.00 L348.00,312.00 L347.00,313.00 L341.00,313.00 L340.00,314.00 L330.00,316.00 L311.00,326.00 L304.00,333.00 L301.00,339.00 L301.00,350.00 L306.00,359.00 L307.00,359.00 L315.00,367.00 L318.00,375.00 L317.00,388.00 L316.00,389.00 L316.00,393.00 L313.00,402.00 L325.00,399.00 L335.00,393.00 L339.00,389.00 L346.00,378.00 L348.00,372.00 L348.00,369.00 L349.00,368.00 L349.00,362.00 L350.00,361.00 L352.00,361.00 L357.00,366.00 L364.00,369.00 L367.00,369.00 L368.00,370.00 L378.00,370.00 L379.00,369.00 L384.00,369.00 L390.00,367.00 L394.00,364.00 L396.00,364.00 L405.00,359.00 L411.00,358.00 L412.00,357.00 L416.00,357.00 L417.00,358.00 L420.00,358.00 L422.00,360.00 L424.00,360.00 L425.00,355.00 L422.00,348.00 L410.00,338.00 L411.00,335.00 L420.00,335.00 L421.00,336.00 L424.00,336.00 L435.00,342.00 L442.00,349.00 L448.00,358.00 L449.00,361.00 L450.00,361.00 L453.00,353.00 L453.00,347.00 L454.00,344.00 L453.00,343.00 L452.00,332.00 L446.00,319.00 L437.00,309.00 L428.00,303.00 L418.00,299.00 L414.00,299.00 L409.00,297.00 L409.00,295.00 L414.00,291.00 L422.00,287.00 L428.00,286.00 L424.00,281.00 L414.00,277.00 L407.00,277.00 L406.00,276.00 L387.00,277.00 L386.00,278.00 L376.00,280.00 L370.00,283.00 L362.00,289.00 L360.00,289.00 L359.00,291.00 L356.00,290.00 L356.00,288.00 L359.00,287.00 L371.00,272.00 L377.00,259.00 L377.00,256.00 L378.00,255.00 L378.00,246.00 L391.00,237.00 L400.00,228.00 L400.00,226.00 L399.00,227.00 L385.00,226.00 L379.00,223.00 L377.00,223.00 L370.00,219.00 L361.00,216.00 L353.00,216.00 L352.00,213.00 L369.00,202.00 L391.00,192.00 L394.00,192.00 L399.00,190.00 L415.00,190.00 L421.00,192.00 L425.00,195.00 L425.00,192.00 L420.00,183.00 L411.00,173.00 L403.00,167.00 L392.00,162.00 L384.00,161.00 L383.00,160.00 L368.00,160.00 L353.00,165.00 L352.00,162.00 L354.00,160.00 L357.00,152.00 L357.00,141.00 L355.00,136.00 L348.00,130.00 L347.00,130.00 L347.00,134.00 L345.00,138.00 L333.00,149.00 L326.00,153.00 L314.00,165.00 L312.00,169.00 L309.00,168.00 L309.00,160.00 L310.00,159.00 L310.00,156.00 L315.00,146.00 L332.00,122.00 L340.00,104.00 L341.00,95.00 L342.00,94.00 L342.00,72.00 L341.00,71.00 L340.00,61.00 L338.00,57.00 L334.00,69.00 L328.00,75.00 L323.00,76.00 L316.00,80.00 L310.00,88.00 L307.00,88.00 L306.00,87.00 L305.00,75.00 L304.00,74.00 L304.00,71.00 L303.00,70.00 L303.00,67.00 L301.00,61.00 L294.00,48.00 L287.00,39.00 L278.00,30.00 L273.00,23.00 L270.00,16.00 Z" fill="currentColor"/>
  <path d="M278.00,275.00 L277.00,275.00 L272.00,280.00 L272.00,281.00 L269.00,284.00 L269.00,285.00 L268.00,286.00 L268.00,287.00 L266.00,289.00 L266.00,290.00 L265.00,291.00 L265.00,293.00 L264.00,294.00 L264.00,295.00 L263.00,296.00 L263.00,298.00 L262.00,299.00 L262.00,301.00 L261.00,302.00 L261.00,304.00 L260.00,305.00 L260.00,309.00 L259.00,310.00 L259.00,314.00 L258.00,315.00 L258.00,324.00 L257.00,325.00 L257.00,328.00 L256.00,329.00 L253.00,329.00 L251.00,327.00 L250.00,327.00 L248.00,325.00 L247.00,325.00 L246.00,324.00 L245.00,324.00 L244.00,323.00 L243.00,323.00 L242.00,322.00 L240.00,322.00 L239.00,321.00 L238.00,321.00 L237.00,320.00 L234.00,320.00 L234.00,321.00 L235.00,322.00 L235.00,323.00 L237.00,325.00 L237.00,326.00 L238.00,327.00 L238.00,328.00 L239.00,329.00 L239.00,330.00 L240.00,331.00 L240.00,332.00 L241.00,333.00 L241.00,335.00 L242.00,336.00 L242.00,337.00 L243.00,338.00 L243.00,340.00 L244.00,341.00 L244.00,343.00 L245.00,344.00 L245.00,346.00 L246.00,347.00 L246.00,350.00 L247.00,351.00 L247.00,355.00 L248.00,356.00 L248.00,360.00 L249.00,361.00 L249.00,366.00 L250.00,367.00 L250.00,374.00 L251.00,375.00 L251.00,385.00 L252.00,386.00 L252.00,435.00 L251.00,436.00 L251.00,450.00 L250.00,451.00 L250.00,462.00 L249.00,463.00 L249.00,470.00 L248.00,471.00 L248.00,474.00 L247.00,475.00 L247.00,477.00 L246.00,478.00 L246.00,479.00 L245.00,480.00 L245.00,481.00 L244.00,482.00 L244.00,483.00 L243.00,484.00 L243.00,485.00 L241.00,487.00 L241.00,488.00 L239.00,490.00 L239.00,492.00 L293.00,492.00 L293.00,491.00 L288.00,486.00 L288.00,485.00 L286.00,483.00 L286.00,482.00 L285.00,481.00 L285.00,480.00 L284.00,479.00 L284.00,478.00 L283.00,477.00 L283.00,474.00 L282.00,473.00 L282.00,471.00 L281.00,470.00 L281.00,465.00 L280.00,464.00 L280.00,460.00 L279.00,459.00 L279.00,454.00 L278.00,453.00 L278.00,447.00 L277.00,446.00 L277.00,439.00 L276.00,438.00 L276.00,431.00 L275.00,430.00 L275.00,420.00 L274.00,419.00 L274.00,374.00 L275.00,373.00 L275.00,367.00 L276.00,366.00 L276.00,361.00 L277.00,360.00 L277.00,356.00 L278.00,355.00 L278.00,353.00 L279.00,352.00 L279.00,350.00 L280.00,349.00 L280.00,347.00 L281.00,346.00 L281.00,344.00 L282.00,343.00 L282.00,342.00 L283.00,341.00 L283.00,340.00 L284.00,339.00 L284.00,338.00 L285.00,337.00 L285.00,336.00 L287.00,334.00 L287.00,333.00 L290.00,330.00 L290.00,329.00 L294.00,325.00 L295.00,325.00 L297.00,323.00 L295.00,323.00 L294.00,322.00 L293.00,323.00 L288.00,323.00 L287.00,324.00 L284.00,324.00 L283.00,325.00 L282.00,325.00 L280.00,327.00 L279.00,327.00 L277.00,329.00 L276.00,329.00 L275.00,330.00 L273.00,330.00 L272.00,329.00 L272.00,325.00 L271.00,324.00 L271.00,306.00 L272.00,305.00 L272.00,297.00 L273.00,296.00 L273.00,291.00 L274.00,290.00 L274.00,287.00 L275.00,286.00 L275.00,283.00 L276.00,282.00 L276.00,279.00 L277.00,278.00 L277.00,277.00 L278.00,276.00 Z" fill="currentColor"/>
</svg>
