<svg width="512" height="512" viewBox="0 0 512 512" fill="none" xmlns="http://www.w3.org/2000/svg">
  <path d="M-0.00878906 0H511.991V512H-0.00878906V0Z" fill="#3971FF" />
  <path
    d="M433.39 235.296C433.39 237.584 434.694 239.406 437.302 240.762C439.91 242.033 443.148 242.923 447.015 243.432C450.882 243.94 455.108 244.745 459.695 245.847C464.281 246.949 468.508 248.305 472.375 249.915C476.242 251.525 479.48 254.194 482.088 257.923C484.696 261.652 486 266.27 486 271.779C486 280.846 482.357 288.05 475.073 293.389C467.789 298.643 458.346 301.27 446.745 301.27C434.874 301.27 425.161 298.643 417.607 293.389C410.053 288.134 405.601 280.38 404.252 270.126H433.255C433.705 273.77 435.144 276.609 437.572 278.643C440 280.592 443.148 281.567 447.015 281.567C454.209 281.567 457.806 279.363 457.806 274.957C457.806 273.008 456.817 271.397 454.839 270.126C452.95 268.77 450.432 267.711 447.284 266.948C444.227 266.186 440.809 265.465 437.032 264.787C433.345 264.109 429.613 263.177 425.836 261.991C422.149 260.804 418.731 259.321 415.584 257.542C412.526 255.762 410.008 253.22 408.03 249.915C406.141 246.61 405.197 242.669 405.197 238.093C405.197 229.873 408.569 223.135 415.314 217.881C422.059 212.627 431.322 210 443.103 210C453.804 210 462.887 212.5 470.352 217.5C477.816 222.5 482.133 229.957 483.302 239.872H453.894C452.635 233.093 448.633 229.703 441.889 229.703C439.37 229.703 437.302 230.212 435.683 231.229C434.154 232.245 433.39 233.601 433.39 235.296Z"
    fill="white" />
  <path
    d="M281.159 299.177V212.738H316.772L331.61 255.958L336.197 272.102L340.783 255.958L355.622 212.738H390.425V299.177H362.906L364.66 241.848L357.51 265.364L345.775 299.177H325.81L313.804 264.856L306.924 242.102L308.678 299.177H281.159Z"
    fill="white" />
  <path
    d="M158.979 299.177V212.738H194.591L209.43 255.958L214.016 272.102L218.603 255.958L233.441 212.738H268.245V299.177H240.726L242.479 241.848L235.33 265.364L223.594 299.177H203.629L191.623 264.856L184.744 242.102L186.497 299.177H158.979Z"
    fill="white" />
  <path d="M120.37 299.177V212.738H147.888V299.177H120.37Z" fill="white" />
  <path
    d="M29.6509 298.855V212.415H68.2312C80.192 212.415 89.5448 215.085 96.2897 220.424C103.124 225.678 106.542 233.051 106.542 242.542C106.542 252.033 103.124 259.448 96.2897 264.787C89.5448 270.041 80.282 272.669 68.501 272.669H57.1697V298.855H29.6509ZM67.6916 232.754H57.1697V252.33H67.0172C74.5714 252.33 78.3485 249.067 78.3485 242.542C78.3485 236.017 74.7962 232.754 67.6916 232.754Z"
    fill="white" />
  <path
    d="M431.565 235.296C431.565 237.584 432.869 239.406 435.477 240.762C438.085 242.033 441.322 242.923 445.189 243.432C449.056 243.94 453.283 244.745 457.87 245.847C462.456 246.949 466.683 248.305 470.55 249.915C474.417 251.525 477.654 254.194 480.262 257.923C482.87 261.652 484.174 266.27 484.174 271.779C484.174 280.846 480.532 288.05 473.248 293.389C465.963 298.643 456.521 301.27 444.92 301.27C433.049 301.27 423.336 298.643 415.782 293.389C408.228 288.134 403.776 280.38 402.427 270.126H431.43C431.88 273.77 433.319 276.609 435.747 278.643C438.175 280.592 441.322 281.567 445.189 281.567C452.384 281.567 455.981 279.363 455.981 274.957C455.981 273.008 454.992 271.397 453.013 270.126C451.125 268.77 448.607 267.711 445.459 266.948C442.402 266.186 438.984 265.465 435.207 264.787C431.52 264.109 427.788 263.177 424.011 261.991C420.324 260.804 416.906 259.321 413.759 257.542C410.701 255.762 408.183 253.22 406.204 249.915C404.316 246.61 403.372 242.669 403.372 238.093C403.372 229.873 406.744 223.135 413.489 217.881C420.234 212.627 429.496 210 441.277 210C451.979 210 461.062 212.5 468.526 217.5C475.991 222.5 480.307 229.957 481.477 239.872H452.069C450.81 233.093 446.808 229.703 440.063 229.703C437.545 229.703 435.477 230.212 433.858 231.229C432.329 232.245 431.565 233.601 431.565 235.296Z"
    fill="white" />
  <path
    d="M280.246 299.177V212.738H315.859L330.697 255.958L335.284 272.102L339.87 255.958L354.709 212.738H389.512V299.177H361.993L363.747 241.848L356.597 265.364L344.861 299.177H324.897L312.891 264.856L306.011 242.102L307.765 299.177H280.246Z"
    fill="white" />
  <path
    d="M158.065 299.177V212.738H193.678L208.517 255.958L213.103 272.102L217.69 255.958L232.528 212.738H267.331V299.177H239.813L241.566 241.848L234.417 265.364L222.681 299.177H202.716L190.71 264.856L183.831 242.102L185.584 299.177H158.065Z"
    fill="white" />
  <path d="M117.631 299.177V212.738H145.15V299.177H117.631Z" fill="white" />
  <path
    d="M27.8252 298.855V212.415H66.4055C78.3663 212.415 87.7192 215.085 94.464 220.424C101.299 225.678 104.716 233.051 104.716 242.542C104.716 252.033 101.299 259.448 94.464 264.787C87.7192 270.041 78.4563 272.669 66.6753 272.669H55.344V298.855H27.8252ZM65.866 232.754H55.344V252.33H65.1915C72.7457 252.33 76.5228 249.067 76.5228 242.542C76.5228 236.017 72.9705 232.754 65.866 232.754Z"
    fill="white" />
  <path
    d="M426.089 235.296C426.089 237.584 427.393 239.406 430.001 240.762C432.609 242.033 435.846 242.923 439.713 243.432C443.58 243.94 447.807 244.745 452.394 245.847C456.98 246.949 461.207 248.305 465.074 249.915C468.941 251.525 472.178 254.194 474.786 257.923C477.394 261.652 478.698 266.27 478.698 271.779C478.698 280.846 475.056 288.05 467.772 293.389C460.487 298.643 451.045 301.27 439.444 301.27C427.573 301.27 417.86 298.643 410.306 293.389C402.752 288.134 398.3 280.38 396.951 270.126H425.954C426.404 273.77 427.842 276.609 430.271 278.643C432.699 280.592 435.846 281.567 439.713 281.567C446.908 281.567 450.505 279.363 450.505 274.957C450.505 273.008 449.516 271.397 447.537 270.126C445.649 268.77 443.131 267.711 439.983 266.948C436.925 266.186 433.508 265.465 429.731 264.787C426.044 264.109 422.312 263.177 418.535 261.991C414.847 260.804 411.43 259.321 408.282 257.542C405.225 255.762 402.707 253.22 400.728 249.915C398.84 246.61 397.895 242.669 397.895 238.093C397.895 229.873 401.268 223.135 408.013 217.881C414.757 212.627 424.02 210 435.801 210C446.503 210 455.586 212.5 463.05 217.5C470.515 222.5 474.831 229.957 476 239.872H446.593C445.334 233.093 441.332 229.703 434.587 229.703C432.069 229.703 430.001 230.212 428.382 231.229C426.853 232.245 426.089 233.601 426.089 235.296Z"
    fill="white" />
  <path
    d="M279.333 299.177V212.738H314.946L329.784 255.958L334.371 272.102L338.957 255.958L353.796 212.738H388.599V299.177H361.08L362.834 241.848L355.684 265.364L343.948 299.177H323.984L311.978 264.856L305.098 242.102L306.852 299.177H279.333Z"
    fill="white" />
  <path
    d="M157.152 299.177V212.738H192.765L207.604 255.958L212.19 272.102L216.777 255.958L231.615 212.738H266.418V299.177H238.9L240.653 241.848L233.504 265.364L221.768 299.177H201.803L189.797 264.856L182.918 242.102L184.671 299.177H157.152Z"
    fill="white" />
  <path d="M113.981 299.177V212.738H141.5V299.177H113.981Z" fill="white" />
  <path
    d="M26 298.855V212.415H64.5803C76.5412 212.415 85.894 215.085 92.6388 220.424C99.4735 225.678 102.891 233.051 102.891 242.542C102.891 252.033 99.4735 259.448 92.6388 264.787C85.894 270.041 76.6311 272.669 64.8501 272.669H53.5188V298.855H26ZM64.0408 232.754H53.5188V252.33H63.3663C70.9205 252.33 74.6976 249.067 74.6976 242.542C74.6976 236.017 71.1453 232.754 64.0408 232.754Z"
    fill="white" />
</svg>