<svg width="512" height="512" viewBox="0 0 512 512" fill="none" xmlns="http://www.w3.org/2000/svg">
  <path d="M0 0H512V512H0V0Z" fill="#FFEAF1" />
  <path
    d="M56 136C56 91.8172 91.8172 56 136 56H376C420.183 56 456 91.8172 456 136V376C456 420.183 420.183 456 376 456H136C91.8172 456 56 420.183 56 376V136Z"
    fill="#DC2E65" />
  <path
    d="M149 361.911V150H256.041C289.226 150 315.175 156.544 333.889 169.633C352.852 182.514 362.333 200.589 362.333 223.857C362.333 247.126 352.852 265.305 333.889 278.393C315.175 291.274 289.476 297.715 256.789 297.715H225.351V361.911H149ZM254.544 199.861H225.351V247.853H252.673C273.632 247.853 284.111 239.854 284.111 223.857C284.111 207.86 274.255 199.861 254.544 199.861Z"
    fill="white" />
</svg>