<svg width="256px" height="276px" viewBox="0 0 256 276" version="1.1" xmlns="http://www.w3.org/2000/svg" xmlns:xlink="http://www.w3.org/1999/xlink" preserveAspectRatio="xMidYMid"><g><path d="M238.04,223.12 C236.11,237.47 226.46,249.88 212.94,255.40 C206.32,258.15 199.15,258.98 191.98,258.15 C185.09,257.32 178.19,255.12 171.02,250.98 C161.09,245.46 151.16,236.92 139.58,224.23 C157.78,201.89 168.81,181.48 172.95,163.28 C174.88,154.73 175.16,147.00 174.33,139.83 C173.23,132.94 170.75,126.59 166.88,121.08 C158.33,108.67 143.99,101.50 128.00,101.50 C112.00,101.50 97.66,108.94 89.11,121.08 C85.25,126.59 82.77,132.94 81.66,139.83 C80.56,147.00 80.83,155.00 83.04,163.28 C87.18,181.48 98.48,202.16 116.41,224.50 C105.11,237.19 94.90,245.74 84.97,251.26 C77.80,255.40 70.90,257.60 64.01,258.43 C56.56,259.26 49.39,258.15 43.05,255.67 C29.53,250.15 19.88,237.74 17.95,223.40 C17.12,216.50 17.68,209.61 20.43,201.89 C21.26,199.13 22.64,196.37 24.02,193.06 C25.95,188.65 28.16,183.96 30.36,179.27 L30.64,178.72 C49.67,137.62 70.08,95.70 91.32,54.89 L92.14,53.23 C94.35,49.10 96.55,44.68 98.76,40.55 C100.97,36.13 103.45,31.99 106.48,28.41 C112.27,21.79 120.00,18.20 128.55,18.20 C137.10,18.20 144.82,21.79 150.61,28.41 C153.64,31.99 156.13,36.13 158.33,40.55 C160.54,44.68 162.75,49.10 164.95,53.23 L165.78,54.89 C186.74,95.98 207.15,137.90 226.18,179.00 L226.18,179.27 C228.39,183.68 230.32,188.65 232.52,193.06 C233.90,196.37 235.28,199.13 236.11,201.89 C238.32,209.06 239.14,215.96 238.04,223.12 L238.04,223.12 Z M128.00,210.16 C113.10,191.41 103.45,173.75 100.14,158.86 C98.76,152.52 98.48,147.00 99.31,142.04 C99.86,137.62 101.52,133.76 103.72,130.45 C108.97,123.01 117.79,118.31 128.00,118.31 C138.20,118.31 147.30,122.73 152.27,130.45 C154.47,133.76 156.13,137.62 156.68,142.04 C157.50,147.00 157.23,152.80 155.85,158.86 C152.54,173.48 142.89,191.13 128.00,210.16 L128.00,210.16 Z M252.38,195.82 C251.00,192.51 249.62,188.92 248.25,185.89 C246.04,180.93 243.83,176.24 241.90,171.82 L241.63,171.55 C222.60,130.18 202.19,88.26 180.67,46.89 L179.85,45.23 C177.64,41.09 175.43,36.68 173.23,32.27 C170.47,27.30 167.71,22.07 163.30,17.10 C154.47,6.07 141.79,0 128.27,0 C114.48,0 102.07,6.07 92.97,16.55 C88.83,21.51 85.80,26.75 83.04,31.72 C80.83,36.13 78.63,40.55 76.42,44.68 L75.59,46.34 C54.36,87.71 33.67,129.63 14.64,171.00 L14.37,171.55 C12.44,175.96 10.23,180.65 8.02,185.62 C6.64,188.65 5.26,191.96 3.89,195.55 C0.30,205.75 -0.80,215.40 0.57,225.33 C3.61,246.02 17.40,263.39 36.43,271.11 C43.60,274.15 51.05,275.53 58.77,275.53 C60.98,275.53 63.74,275.25 65.94,274.97 C75.04,273.87 84.42,270.84 93.52,265.60 C104.83,259.26 115.59,250.15 127.72,236.92 C139.85,250.15 150.89,259.26 161.92,265.60 C171.02,270.84 180.40,273.87 189.50,274.97 C191.71,275.25 194.46,275.53 196.67,275.53 C204.39,275.53 212.11,274.15 219.01,271.11 C238.32,263.39 251.83,245.74 254.86,225.33 C257.07,215.68 255.97,206.03 252.38,195.82 L252.38,195.82 Z" fill="#FF385C"></path></g></svg>