<svg height="2500" viewBox="2.17 .438 251.04 259.97" width="2500" xmlns="http://www.w3.org/2000/svg"
  xmlns:xlink="http://www.w3.org/1999/xlink"><g fill="none" fill-rule="evenodd"><path
      d="m221.50 210.32c-105.23 50.08-170.54 8.18-212.35-17.27-2.59-1.60-6.98.38-3.17 4.76 13.93 16.89 59.57 57.59 119.15 57.59 59.62 0 95.09-32.53 99.53-38.21 4.41-5.63 1.29-8.73-3.16-6.87zm29.55-16.32c-2.83-3.68-17.18-4.37-26.22-3.26-9.05 1.08-22.63 6.61-21.45 9.93.61 1.24 1.84.69 8.6.13 6.23-.622 23.70-2.83 27.34 1.93 3.66 4.79-5.57 27.61-7.25 31.29-1.63 3.68.62 4.63 3.68 2.18 3.02-2.45 8.48-8.79 12.14-17.77 3.64-9.03 5.86-21.62 3.71-24.42z"
      fill="#f90" fill-rule="nonzero"></path><path
      d="m150.74 108.13c0 13.14.33 24.1-6.31 35.77-5.36 9.49-13.85 15.32-23.34 15.32-12.95 0-20.50-9.87-20.50-24.43 0-28.75 25.76-33.97 50.15-33.97zm34.02 82.22c-2.23 1.99-5.46 2.13-7.97.81-11.20-9.30-13.19-13.62-19.36-22.49-18.50 18.88-31.60 24.53-55.60 24.53-28.37 0-50.48-17.51-50.48-52.56 0-27.37 14.85-46.02 35.96-55.13 18.31-8.07 43.88-9.49 63.43-11.72v-4.37c0-8.2.62-17.51-4.08-24.43-4.13-6.21-12.00-8.78-18.93-8.78-12.86 0-24.34 6.59-27.14 20.26-.57 3.04-2.80 6.03-5.83 6.17l-32.73-3.51c-2.75-.618-5.79-2.85-5.03-7.07 7.54-39.66 43.36-51.62 75.43-51.62 16.41 0 37.86 4.37 50.81 16.80 16.41 15.32 14.85 35.77 14.85 58.02v52.56c0 15.80 6.55 22.72 12.71 31.26 2.18 3.04 2.66 6.69-.095 8.97-6.88 5.74-19.12 16.41-25.86 22.39l-.095-.095"
      fill="#000"></path><path
      d="m221.50 210.32c-105.23 50.08-170.54 8.18-212.35-17.27-2.59-1.60-6.98.38-3.17 4.76 13.93 16.89 59.57 57.59 119.15 57.59 59.62 0 95.09-32.53 99.53-38.21 4.41-5.63 1.29-8.73-3.16-6.87zm29.55-16.32c-2.83-3.68-17.18-4.37-26.22-3.26-9.05 1.08-22.63 6.61-21.45 9.93.61 1.24 1.84.69 8.6.13 6.23-.622 23.70-2.83 27.34 1.93 3.66 4.79-5.57 27.61-7.25 31.29-1.63 3.68.62 4.63 3.68 2.18 3.02-2.45 8.48-8.79 12.14-17.77 3.64-9.03 5.86-21.62 3.71-24.42z"
      fill="#f90" fill-rule="nonzero"></path><path
      d="m150.74 108.13c0 13.14.33 24.1-6.31 35.77-5.36 9.49-13.85 15.32-23.34 15.32-12.95 0-20.50-9.87-20.50-24.43 0-28.75 25.76-33.97 50.15-33.97zm34.02 82.22c-2.23 1.99-5.46 2.13-7.97.81-11.20-9.30-13.19-13.62-19.36-22.49-18.50 18.88-31.60 24.53-55.60 24.53-28.37 0-50.48-17.51-50.48-52.56 0-27.37 14.85-46.02 35.96-55.13 18.31-8.07 43.88-9.49 63.43-11.72v-4.37c0-8.2.62-17.51-4.08-24.43-4.13-6.21-12.00-8.78-18.93-8.78-12.86 0-24.34 6.59-27.14 20.26-.57 3.04-2.80 6.03-5.83 6.17l-32.73-3.51c-2.75-.618-5.79-2.85-5.03-7.07 7.54-39.66 43.36-51.62 75.43-51.62 16.41 0 37.86 4.37 50.81 16.80 16.41 15.32 14.85 35.77 14.85 58.02v52.56c0 15.80 6.55 22.72 12.71 31.26 2.18 3.04 2.66 6.69-.095 8.97-6.88 5.74-19.12 16.41-25.86 22.39l-.095-.095"
      fill="#000"></path></g></svg>