<svg xmlns="http://www.w3.org/2000/svg" xmlns:xlink="http://www.w3.org/1999/xlink" viewBox="0 0 48 48" height="48" width="48"><defs><linearGradient id="a" x1="3.22" y1="15" x2="44.78" y2="15" gradientUnits="userSpaceOnUse"><stop offset="0" stop-color="#d93025"/><stop offset="1" stop-color="#ea4335"/></linearGradient><linearGradient id="b" x1="20.72" y1="47.68" x2="41.50" y2="11.68" gradientUnits="userSpaceOnUse"><stop offset="0" stop-color="#fcc934"/><stop offset="1" stop-color="#fbbc04"/></linearGradient><linearGradient id="c" x1="26.60" y1="46.50" x2="5.82" y2="10.51" gradientUnits="userSpaceOnUse"><stop offset="0" stop-color="#1e8e3e"/><stop offset="1" stop-color="#34a853"/></linearGradient></defs><circle cx="24" cy="23.99" r="12" style="fill:#fff"/><path d="M3.22,36A24,24,0,1,0,12,3.22,24,24,0,0,0,3.22,36ZM34.39,18A12,12,0,1,1,18,13.61,12,12,0,0,1,34.39,18Z" style="fill:none"/><path d="M24,12H44.78a23.99,23.99,0,0,0-41.56.00L13.61,30l.0093-.0024A11.99,11.99,0,0,1,24,12Z" style="fill:url(#a)"/><circle cx="24" cy="24" r="9.5" style="fill:#1a73e8"/><path d="M34.39,30.00,24.00,48A23.99,23.99,0,0,0,44.78,12.00H24.00l-.25.01A11.98,11.98,0,0,1,34.39,30.00Z" style="fill:url(#b)"/><path d="M13.61,30.00,3.22,12.01A23.99,23.99,0,0,0,24.00,48L34.39,30.00l-.0067-.0068a11.99,11.99,0,0,1-20.78.01Z" style="fill:url(#c)"/></svg>