<svg width="98" height="96" xmlns="http://www.w3.org/2000/svg"><path fill-rule="evenodd" clip-rule="evenodd" d="M48.85 0C21.84 0 0 22 0 49.22c0 21.76 13.99 40.17 33.41 46.69 2.43.49 3.32-1.06 3.32-2.36 0-1.14-.08-5.05-.08-9.13-13.59 2.93-16.42-5.87-16.42-5.87-2.18-5.70-5.42-7.17-5.42-7.17-4.45-3.2.32-3.2.32-3.02 4.93.33 7.52 5.05 7.52 5.05 4.37 7.50 11.40 5.38 14.23 4.7.40-3.18 1.70-5.38 3.07-6.6-10.84-1.14-22.24-5.38-22.24-24.28 0-5.38 1.94-9.78 5.01-13.2-.485-1.22-2.18-6.28.49-13.04 0 0 4.13-1.30 13.43 5.05a46.97 46.97 0 0 1 12.21-1.63c4.13 0 8.33.57 12.21 1.63 9.30-6.36 13.43-5.05 13.43-5.05 2.67 6.76.97 11.82.48 13.04 3.15 3.42 5.01 7.82 5.01 13.2 0 18.91-11.40 23.06-22.32 24.28 1.78 1.55 3.32 4.48 3.32 9.13 0 6.6-.08 11.90-.08 13.53 0 1.30.89 2.85 3.32 2.36 19.41-6.52 33.41-24.93 33.41-46.69C97.71 22 75.79 0 48.85 0z" fill="#24292f"/></svg>