<svg width="65" height="65" viewBox="0 0 65 65" fill="none" xmlns="http://www.w3.org/2000/svg"><path
    d="M55.20 55.20H45.60V40.17C45.60 36.58 45.54 31.97 40.61 31.97C35.61 31.97 34.85 35.88 34.85 39.91V55.20H25.25V24.29H34.46V28.51H34.59C35.51 26.93 36.85 25.64 38.45 24.76C40.05 23.88 41.86 23.45 43.68 23.52C53.41 23.52 55.21 29.92 55.21 38.24L55.20 55.20ZM14.41 20.06C13.31 20.06 12.23 19.73 11.32 19.12C10.40 18.51 9.69 17.64 9.27 16.62C8.84 15.60 8.73 14.48 8.95 13.40C9.16 12.32 9.69 11.33 10.47 10.55C11.25 9.77 12.24 9.24 13.33 9.03C14.41 8.81 15.53 8.92 16.54 9.34C17.56 9.76 18.43 10.48 19.04 11.39C19.66 12.31 19.98 13.39 19.98 14.49C19.98 15.22 19.84 15.95 19.56 16.62C19.28 17.30 18.87 17.91 18.35 18.43C17.84 18.95 17.22 19.36 16.55 19.64C15.87 19.92 15.15 20.06 14.41 20.06ZM19.21 55.20H9.60V24.29H19.21V55.20ZM59.99 0.00H4.78C3.53 -0.01 2.32 0.47 1.42 1.35C0.53 2.23 0.01 3.42 -0.00 4.67V60.11C0.01 61.37 0.53 62.56 1.42 63.44C2.32 64.32 3.53 64.80 4.78 64.79H59.99C61.25 64.80 62.46 64.32 63.36 63.44C64.26 62.57 64.77 61.37 64.79 60.11V4.67C64.77 3.41 64.26 2.22 63.36 1.34C62.46 0.47 61.25 -0.02 59.99 -7.57e-05"
    fill="#0A66C2" /></svg>