<?xml version="1.0" encoding="UTF-8" standalone="no"?><svg xmlns="http://www.w3.org/2000/svg" xmlns:xlink="http://www.w3.org/1999/xlink" width="66.17mm" height="65.80mm" viewBox="0 0 66.17 65.80"><defs><linearGradient id="b"><stop offset="0" stop-color="#06c2e7"/><stop offset=".25000015" stop-color="#0db8ec"/><stop offset=".5000003" stop-color="#12aef1"/><stop offset=".75000012" stop-color="#1f86f9"/><stop offset="1" stop-color="#107ddd"/></linearGradient><linearGradient id="a"><stop offset="0" stop-color="#bdbdbd"/><stop offset="1" stop-color="#fff"/></linearGradient><linearGradient xlink:href="#a" id="d" x1="412.98" x2="412.98" y1="237.61" y2="59.39" gradientTransform="translate(206.79 159.77) scale(.35154)" gradientUnits="userSpaceOnUse"/><filter id="f" width="1.04" height="1.04" x="-.02090938" y="-.0223378" color-interpolation-filters="sRGB"><feGaussianBlur stdDeviation=".95767362"/></filter><filter id="c" width="1.10" height="1.10" x="-.048" y="-.048" color-interpolation-filters="sRGB"><feGaussianBlur stdDeviation="3.56"/></filter><radialGradient xlink:href="#b" id="e" cx="413.06" cy="136.82" r="82.13" fx="413.06" fy="136.82" gradientTransform="translate(194.54 155.58) scale(.38143)" gradientUnits="userSpaceOnUse"/></defs><path d="M502.08 148.5a89.11 89.11 0 0 1-89.11 89.11A89.11 89.11 0 0 1 323.87 148.5 89.11 89.11 0 0 1 412.98 59.39 89.11 89.11 0 0 1 502.08 148.5Z" filter="url(#c)" opacity=".52999998" paint-order="markers stroke fill" transform="matrix(.33865 0 0 .3261 -106.77 -14.48)"/><path fill="url(#d)" stroke="#cdcdcd" stroke-linecap="round" stroke-linejoin="round" stroke-width=".09301235" d="M383.29 211.98a31.33 31.33 0 0 1-31.33 31.33 31.33 31.33 0 0 1-31.33-31.33 31.33 31.33 0 0 1 31.33-31.33 31.33 31.33 0 0 1 31.33 31.33z" paint-order="markers stroke fill" transform="translate(-318.89 -180.60)"/><path fill="url(#e)" d="M380.84 211.98a28.87 28.87 0 0 1-28.87 28.87 28.87 28.87 0 0 1-28.87-28.87 28.87 28.87 0 0 1 28.87-28.87 28.87 28.87 0 0 1 28.87 28.87z" paint-order="markers stroke fill" transform="translate(-318.89 -180.60)"/><path fill="#f4f2f3" d="M33.08 4.02c-.23319 0-.42092.19-.42092.42V9.29c0 .2332.19.42.42.42.23 0 .42092-.18772.42-.42092V4.44c0-.2332-.18772-.42092-.42092-.42092zm-2.75.17c-.0279-.003-.0566-.003-.856.00-.23194.02-.39917.23-.37495.46l.21218 2.03c.242.23.23.40.46.37.23-.242.40-.2304.37-.46234l-.212-2.03c-.0212-.20295-.18177-.35637-.37695-.37532zm5.53.00c-.19519.02-.35578.17-.37714.38l-.21363 2.03c-.244.23.14.44.37.46.23.2.44-.14268.46-.3746l.21364-2.03c.0244-.23192-.14286-.43814-.37478-.46252-.029-.003-.0575-.003-.0854-.00052zm-8.36.41c-.28.00-.565.00-.85.01-.22814.05-.37294.27-.32464.50l1.01 4.75c.483.23.27.37.50.32.23-.483.37-.27072.32-.49886l-1.01-4.75c-.0423-.19963-.21792-.33543-.41401-.3339zm11.18.00c-.19609-.002-.3718.13-.41419.33l-1.01 4.75c-.485.23.96.45.32.50.23.5.45-.962.50-.32428l1.01-4.75c.0485-.2281-.0962-.45076-.32427-.49921-.0285-.006-.057-.009-.085-.009zM24.80 5.36c-.0545-.005-.11077.00-.16622.02-.22178.07-.34238.31-.27031.53l.6311 1.94c.721.22.31.34.53.27.22-.721.34-.30868.27-.53046l-.63109-1.94c-.054-.16634-.20059-.27568-.36407-.28958zm16.57.00c-.16348.01-.30999.12-.36406.29l-.63147 1.94c-.721.22.48.46.27.53.22.7.46-.484.53-.27013l.63146-1.94c.0721-.22178-.0484-.45837-.27014-.53046-.0554-.018-.11191-.0239-.1664-.0193zm-19.24.98c-.547.00-.11004.01-.16331.04-.21298.09-.30836.34-.21364.56l1.97 4.44c.947.21.34.31.56.21.21-.947.31-.34244.21-.55553l-1.97-4.44c-.071-.15983-.22817-.25351-.39221-.25033zm21.94.01c-.16403-.003-.32132.09-.39257.25l-1.98 4.43c-.95.21-.4.46.21.56.21.10.46.0.56-.21291L44.44 6.95c.095-.21297.00-.46089-.21291-.5559-.0532-.0237-.10864-.0357-.16332-.0369zM19.65 7.65c-.0808-.006-.16406.01-.23979.06-.20196.12-.27065.37-.15406.57l1.02 1.77c.1166.20.37.27.57.15.20-.1166.27-.37301.15-.57497L19.99 7.86c-.0729-.12623-.20047-.20041-.33517-.20983zm26.86 0c-.13468.01-.26211.08-.33498.21l-1.02 1.77c-.1166.20-.477.46.15.57.20.12.46.5.57-.15405l1.02-1.77c.1166-.20195.05-.45837-.15406-.57497-.0757-.0437-.15916-.0614-.23998-.0558zM17.25 9.15c-.81.00-.16211.03-.2329.08-.18875.14-.23048.40-.935.59l2.85 3.93c.13693.19.40.23.59.9.19-.13693.23-.39911.09-.58787l-2.85-3.93c-.0856-.11798-.22004-.17847-.35497-.17386zm31.70.02c-.13493-.005-.26941.06-.35516.17l-2.86 3.93c-.1372.19-.958.45.93.59.19.14.45.10.59-.0926l2.86-3.93c.13718-.18858.10-.45086-.0928-.58805-.0707-.0514-.15176-.0778-.23272-.0807zm-33.85 1.78c-.10744-.006-.21708.03-.30374.11-.17332.16-.18725.42-.312.59l1.37 1.52c.15601.17.42.19.59.3.17-.15602.19-.42127.03-.59459l-1.37-1.52c-.078-.0867-.18339-.13351-.29085-.13916zm35.98.00c-.10745.01-.21282.05-.29084.14l-1.37 1.52c-.15606.17-.14224.44.31.59.17.16.44.14.59-.0312l1.37-1.52c.15605-.17331.14-.43856-.0312-.59459-.0867-.078-.19611-.11354-.30357-.10791zm-38.04 1.98c-.10745.01-.21266.05-.29067.14-.15602.17-.14207.44.31.59l3.61 3.25c.17332.16.44.14.59-.312.16-.17331.14-.43839-.0311-.59441l-3.61-3.25c-.0867-.078-.1963-.11356-.30376-.10791zm40.11.01c-.10745-.006-.21722.03-.30393.11l-3.61 3.25c-.17342.16-.18768.42-.318.59.16.17.42.19.59.03l3.61-3.25c.17342-.1559.19-.42098.03-.59441-.078-.0867-.18322-.13361-.29066-.13933zm-41.82 2.19c-.13494-.005-.26949.06-.35515.17-.13707.19-.955.45.93.59l1.65 1.20c.18866.14.45.10.59-.93.14-.18866.10-.45098-.093-.58805l-1.65-1.20c-.0707-.0514-.15193-.0776-.23289-.0805zm43.54.02c-.81.00-.16211.03-.23289.08l-1.65 1.20c-.18875.14-.2305.40-.936.59.14.19.40.23.59.09l1.65-1.20c.18875-.13694.23-.39912.09-.58787-.0856-.11797-.22004-.17847-.35497-.17385zM9.72 17.49c-.13469.01-.26211.08-.33499.21-.1166.20-.479.46.15.57l4.20 2.43c.20195.12.46.5.57-.15405.12-.20195.05-.45837-.15405-.57497l-4.20-2.43c-.0757-.0437-.15917-.0614-.23998-.0558zm46.73 0c-.0808-.006-.16425.01-.23998.06l-4.20 2.43c-.20195.12-.27065.37-.15405.57.12.20.37.27.57.15l4.20-2.43c.20195-.1166.27-.37302.15-.57497-.0729-.12622-.20048-.20041-.33517-.20982zm-47.94 2.51c-.16403-.004-.32133.09-.39258.25-.95.21-.6.46.21.56l1.87.83c.21298.10.46.0.56-.2129.09-.21298-.00012-.46091-.21309-.5559l-1.87-.83202c-.0532-.0238-.10865-.0356-.16332-.0367zm49.16.02c-.547.00-.11024.01-.16351.04l-1.87.83c-.21304.09-.3083.34-.21346.56.95.21.34.31.56.21l1.87-.83076c.21303-.948.31-.34267.21-.55571-.0711-.15978-.22818-.25323-.39221-.24997zM7.43 22.62c-.16349.01-.31006.12-.36424.29-.722.22.48.46.27.53l4.62 1.50c.22171.7.46-.481.53-.26977.07-.22172-.048-.4584-.26977-.53064L7.59 22.63c-.0554-.0181-.11192-.024-.16641-.0194zm51.31.02c-.0545-.005-.11078.00-.16623.02l-4.62 1.50c-.22178.07-.34223.31-.27014.53.72.22.31.34.53.27l4.62-1.50c.22178-.721.34-.30869.27-.53046-.0541-.16633-.20077-.2757-.36424-.28957zM6.76 25.36c-.1961-.002-.37196.13-.41438.33-.485.23.96.45.32.50l2.0.42c.2281.5.45-.962.50-.32427.05-.22811-.0962-.45074-.32427-.49922l-2.00-.42455c-.0285-.006-.057-.009-.085-.009zm52.65.00c-.28.00-.563.00-.848.01l-2.0.42c-.2281.05-.37271.27-.32426.50.48.23.27.37.50.32l2.00-.42437c.2281-.485.37-.27111.32-.49922-.0424-.19959-.21829-.33537-.41437-.33371zM6.25 28.13c-.1952.02-.35587.17-.37731.37-.245.23.14.44.37.46l4.83.51c.2319.2.44-.1425.46-.37441.02-.2319-.1425-.43838-.37441-.46288l-4.83-.51048c-.029-.003-.0575-.003-.0854-.00035zm53.68.04c-.0279-.003-.0566-.003-.856.00l-4.83.50c-.23194.02-.39914.23-.37496.46.24.23.23.40.46.37l4.83-.50394c.23193-.242.40-.2304.37-.46234-.0212-.20294-.1816-.35634-.37678-.37532zM6.17 30.96c-.2332 0-.42091.19-.42091.42 0 .23319.19.42.42.42h2.04c.23319 0 .4211-.18772.42-.42091 0-.2332-.18791-.42092-.4211-.42092zm51.79 0c-.23319 0-.42092.19-.42092.42.1.23.19.42.42.42h2.04c.23319 0 .42092-.18772.42-.42091 0-.2332-.18773-.42092-.42092-.42092zM11.16 33.26c-.0279-.003-.0564-.003-.854.00l-4.83.50c-.23194.02-.39913.23-.37495.46.24.23.23.40.46.37l4.83-.50394c.23194-.242.40-.2304.37-.46234-.0212-.20294-.18177-.35634-.37695-.37531zm43.85.03c-.19521.02-.35588.17-.37732.37-.245.23.14.44.37.46l4.83.51c.23191.2.44-.14251.46-.37441.02-.2319-.14251-.43838-.37441-.46288l-4.83-.51048c-.029-.003-.0577-.003-.0856-.00035zm-46.26 2.84c-.28.00-.565.00-.85.01l-2.0.42c-.22811.05-.37271.27-.32427.50.48.23.27.37.50.32l2.00-.42419c.2281-.485.37-.27111.32-.49921-.0424-.1996-.2181-.33537-.41419-.33372zm48.67.00c-.19609-.002-.37177.13-.41419.33-.485.23.96.45.32.50l2.0.42c.22809.5.45-.96.50-.32409.05-.2281-.0962-.45092-.32426-.4994l-2.00-.42455c-.0285-.006-.057-.009-.085-.009zm-45.31 1.66c-.0545-.005-.11077.00-.16622.02L7.33 39.31c-.22178.07-.34223.31-.27014.53.72.22.31.34.53.27l4.62-1.50c.22178-.721.34-.30869.27-.53046-.0541-.16633-.20077-.2757-.36425-.28957zm41.94.01c-.16349.01-.31005.12-.36423.29-.722.22.48.46.27.53l4.62 1.50c.22172.7.46-.481.53-.26977.07-.22172-.048-.4584-.26977-.53065l-4.62-1.50c-.0554-.0181-.11191-.024-.16641-.0194zm-43.70 3.27c-.547.00-.11006.01-.16332.04l-1.87.83c-.21304.09-.30812.34-.21328.56.95.21.34.31.56.21l1.87-.83058c.21303-.948.31-.34267.21-.55571-.0711-.15978-.22837-.25323-.3924-.24997zm45.46.02c-.16403-.004-.32133.09-.39258.25-.95.21-.6.46.21.56l1.87.83c.21297.10.46.0.56-.21291.10-.21297.00-.4609-.21291-.55589l-1.87-.83203c-.0532-.0238-.10864-.0356-.16332-.0367zm-41.83.91c-.0808-.006-.16424.01-.23998.06L9.54 44.49c-.20195.12-.27065.37-.15405.57.12.20.37.27.57.15l4.20-2.43c.20195-.1166.27-.3732.15-.57515-.0729-.12622-.2003-.20041-.33499-.20982zm38.20 0c-.13469.01-.26229.08-.33517.21-.1166.20-.479.46.15.58l4.20 2.43c.20196.12.46.5.58-.15405.12-.20195.05-.45837-.15404-.57497l-4.20-2.43c-.0757-.0437-.15899-.0614-.2398-.0558zm-39.25 3.56c-.81.00-.16211.03-.2329.08l-1.65 1.20c-.18875.14-.2305.40-.936.59.14.19.40.23.59.09l1.65-1.20c.18877-.13693.23-.39911.09-.58786-.0856-.11797-.22022-.17866-.35516-.17404zm40.29.01c-.13494-.005-.26948.06-.35515.17-.13708.19-.955.45.93.59l1.65 1.20c.18866.14.45.10.59-.932.14-.18866.10-.4508-.093-.58787l-1.65-1.20c-.0707-.0514-.15193-.0778-.23289-.0807zm-36.54.15c-.10743-.006-.21702.03-.30374.11l-3.61 3.25c-.17342.16-.18751.42-.316.59.16.17.42.19.59.03l3.61-3.25c.17342-.15589.19-.42098.03-.59441-.0779-.0867-.18322-.13361-.29067-.13933zm32.80.01c-.10745.01-.21283.05-.29084.14-.15603.17-.14207.44.31.59l3.61 3.25c.17332.16.44.14.59-.312.16-.17331.14-.43839-.0312-.5944l-3.61-3.25c-.0867-.078-.19611-.11355-.30356-.10791zm-29.37 3.08c-.13493-.005-.2696.06-.35534.17l-2.86 3.93c-.13719.19-.959.45.93.59.19.14.45.10.59-.0927l2.86-3.93c.13718-.18857.10-.45086-.0926-.58805-.0707-.0514-.15175-.0778-.23271-.0806zm25.94.02c-.81.00-.16211.03-.2329.08-.18875.14-.23048.40-.936.59l2.85 3.93c.13693.19.40.23.59.9.19-.13693.23-.3991.09-.58786l-2.85-3.93c-.0856-.11797-.22004-.17846-.35498-.17385zm-29.62.61c-.10745.01-.21282.05-.29084.14l-1.37 1.52c-.15605.17-.14223.44.31.59.17.16.44.14.59-.0313l1.37-1.52c.15606-.1733.14-.43856-.0312-.59459-.0867-.078-.19611-.11354-.30357-.10791zm33.33.00c-.10745-.006-.21691.03-.30356.11-.17333.16-.18726.42-.313.59l1.37 1.52c.15602.17.42.19.59.3.17-.15601.19-.42126.03-.59459l-1.37-1.52c-.078-.0867-.18339-.13351-.29084-.13916zm-25.66 1.68c-.16403-.004-.32114.09-.39239.25l-1.98 4.43c-.95.21-.5.46.21.56.21.10.46.0.56-.21291l1.98-4.43c.095-.21296.00-.46089-.21292-.55589-.0532-.0238-.10881-.0356-.16349-.0367zm17.96.01c-.547.00-.11023.01-.1635.04-.21297.09-.30836.34-.21363.56l1.97 4.44c.947.21.34.31.56.21.21-.947.31-.34244.21-.55553l-1.97-4.44c-.071-.15973-.22818-.25329-.39221-.25015zM20.62 52.50c-.13468.01-.26212.08-.33498.21l-1.02 1.77c-.11659.20-.479.46.15.57.20.12.46.5.57-.15405l1.02-1.77c.11659-.20195.05-.45837-.15406-.57497-.0757-.0437-.15916-.0614-.23998-.0558zm24.93 0c-.0808-.006-.16406.01-.23979.06-.20195.12-.27065.37-.15405.57l1.02 1.77c.1166.20.37.27.57.15.20-.1166.27-.37302.15-.57497l-1.02-1.77c-.0729-.12622-.20049-.20041-.33518-.20982zm-17.5.06c-.19609-.002-.3718.13-.41419.33l-1.01 4.75c-.485.23.96.45.32.50.23.5.45-.962.50-.32427l1.01-4.75c.0485-.2281-.0962-.45076-.32427-.49921-.0285-.006-.057-.009-.085-.009zm9.16.00c-.28.00-.563.00-.848.01-.22814.05-.37294.27-.32465.50l1.01 4.75c.483.23.27.37.50.32.23-.483.37-.27089.32-.49903l-1.01-4.75c-.0423-.19963-.21793-.33543-.41402-.33391zm-4.57.48c-.23319 0-.42092.19-.42092.42v4.86c0 .2332.19.42.42.42.23 0 .42092-.18772.42-.42092v-4.86c0-.2332-.18772-.42092-.42092-.42092zm-7.73 1.57c-.16347.01-.31017.12-.36423.29l-.63129 1.94c-.721.22.48.46.27.53.22.7.46-.486.53-.27032l.63128-1.94c.0721-.22177-.0484-.45836-.27013-.53046-.0554-.018-.11173-.024-.16623-.0194zm15.45.00c-.0545-.005-.11078.00-.16622.02-.22178.07-.34238.31-.27033.53l.63111 1.94c.721.22.31.34.53.27.22-.721.34-.3085.27-.53028l-.63128-1.94c-.0541-.16634-.20058-.27568-.36406-.28957zm-10.37 1.08c-.1952.02-.356.17-.37732.37l-.21346 2.03c-.244.23.14.44.37.46.23.2.44-.14268.46-.3746l.21345-2.03c.0244-.23192-.14268-.4383-.37458-.4627-.029-.003-.0575-.003-.0854-.00035zm5.27.00c-.0279-.003-.0566-.003-.856.00-.23193.02-.39917.23-.37495.46l.21218 2.03c.242.23.23.40.46.37.23-.242.40-.23041.37-.46234l-.212-2.03c-.0212-.20295-.18178-.35637-.37697-.37533z" paint-order="markers stroke fill"/><path d="m469.10 100.61-65.51 38.06-41.42 65.21 60.59-44.88z" filter="url(#f)" opacity=".40900005" paint-order="markers stroke fill" transform="translate(-112.10 -20.82) scale(.35154)"/><path fill="#ff5150" d="m36.38 34.84-6.60-6.91 23.42-15.75z" paint-order="markers stroke fill"/><path fill="#f1f1f1" d="m36.38 34.84-6.60-6.91-16.82 22.66z" paint-order="markers stroke fill"/><path d="m12.97 50.59 23.42-15.75 16.82-22.66z" opacity=".243"/></svg>