<svg xmlns:dc="http://purl.org/dc/elements/1.1/" xmlns:cc="http://creativecommons.org/ns#" xmlns:rdf="http://www.w3.org/1999/02/22-rdf-syntax-ns#" xmlns:svg="http://www.w3.org/2000/svg" xmlns="http://www.w3.org/2000/svg" viewBox="0 0 226.73 226.73" height="226.73" width="226.73" xml:space="preserve" id="svg2" version="1.1" xmlns:xlink="http://www.w3.org/1999/xlink"><metadata id="metadata8"><rdf:RDF><cc:Work rdf:about=""><dc:format>
     image/svg+xml
    </dc:format><dc:type rdf:resource="http://purl.org/dc/dcmitype/StillImage"></dc:type></cc:Work></rdf:RDF></metadata><defs id="defs6"></defs><g transform="matrix(1.33,0,0,-1.33,0,226.73)" id="g10"><g transform="scale(0.1)" id="g12"><path id="path14" style="fill:#1ed760;fill-opacity:1;fill-rule:nonzero;stroke:none" d="m 1345.62,945.28 c -269.94,160.31 -715.20,175.05 -972.89,96.84 -41.38,-12.56 -85.14,10.81 -97.68,52.18 -12.54,41.41 10.79,85.14 52.21,97.72 295.81,89.79 787.56,72.45 1098.32,-112.02 37.22,-22.1 49.43,-70.17 27.37,-107.33 -22.08,-37.22 -70.19,-49.49 -107.32,-27.39 z m -8.84,-237.44 c -18.94,-30.73 -59.12,-40.37 -89.81,-21.5 -225.05,138.34 -568.22,178.41 -834.47,97.59 -34.53,-10.43 -71.00,9.04 -81.48,43.50 -10.40,34.53 9.07,70.93 43.54,81.43 304.15,92.30 682.26,47.59 940.74,-111.25 30.69,-18.90 40.35,-59.10 21.48,-89.76 z M 1234.31,479.81 c -15.05,-24.68 -47.18,-32.41 -71.77,-17.37 -196.65,120.19 -444.17,147.33 -735.67,80.75 -28.09,-6.44 -56.09,11.16 -62.49,39.25 -6.43,28.08 11.10,56.08 39.25,62.49 319.00,72.92 592.63,41.54 813.36,-93.34 24.61,-15.03 32.36,-47.18 17.32,-71.78 z M 850.25,1687.68 c -462.50,0 -837.43,-374.93 -837.43,-837.42 0,-462.54 374.94,-837.44 837.43,-837.44 462.51,0 837.43,374.90 837.43,837.44 0,462.49 -374.92,837.42 -837.43,837.42"></path></g></g></svg>