<svg width="360" height="362" viewBox="0 0 360 362" fill="none" xmlns="http://www.w3.org/2000/svg" xmlns:xlink="http://www.w3.org/1999/xlink"><path fill-rule="evenodd" clip-rule="evenodd" d="M307.55 52.57C273.71 18.68 228.71 0.02 180.76 0C81.95 0 1.54 80.40 1.50 179.24C1.49 210.83 9.75 241.67 25.43 268.84L0 361.74L95.02 336.81C121.20 351.10 150.68 358.62 180.68 358.63H180.76C279.54 358.63 359.97 278.21 360 179.38C360.02 131.48 341.39 86.45 307.55 52.57V52.57ZM180.76 328.35H180.70C153.97 328.35 127.74 321.16 104.86 307.59L99.42 304.36L43.03 319.15L58.08 264.17L54.54 258.53C39.63 234.81 31.75 207.39 31.77 179.24C31.80 97.10 98.63 30.27 180.82 30.27C220.61 30.29 258.01 45.80 286.14 73.97C314.28 102.12 329.75 139.56 329.74 179.36C329.70 261.51 262.87 328.35 180.76 328.35V328.35ZM262.48 216.78C258.00 214.53 235.98 203.70 231.87 202.21C227.76 200.71 224.78 199.97 221.80 204.45C218.81 208.94 210.23 219.03 207.62 222.01C205.00 225.00 202.39 225.37 197.91 223.13C193.43 220.88 179.00 216.16 161.89 200.90C148.58 189.02 139.59 174.36 136.97 169.88C134.36 165.39 136.7 162.97 138.93 160.74C140.94 158.73 143.41 155.50 145.66 152.89C147.90 150.28 148.64 148.41 150.13 145.42C151.63 142.43 150.88 139.82 149.76 137.58C148.65 135.33 139.69 113.29 135.95 104.32C132.32 95.59 128.62 96.78 125.88 96.63C123.27 96.50 120.28 96.48 117.29 96.48C114.30 96.48 109.45 97.59 105.35 102.08C101.24 106.57 89.67 117.40 89.67 139.44C89.67 161.48 105.72 182.78 107.96 185.78C110.20 188.77 139.54 234.00 184.47 253.41C195.15 258.02 203.50 260.78 210.00 262.85C220.73 266.26 230.49 265.78 238.21 264.62C246.82 263.33 264.71 253.79 268.44 243.33C272.17 232.87 272.17 223.89 271.05 222.03C269.94 220.16 266.94 219.04 262.47 216.79L262.48 216.78Z" fill="#25D366"></path></svg>