<svg xmlns:dc="http://purl.org/dc/elements/1.1/" xmlns:cc="http://creativecommons.org/ns#" xmlns:rdf="http://www.w3.org/1999/02/22-rdf-syntax-ns#" xmlns:svg="http://www.w3.org/2000/svg" xmlns="http://www.w3.org/2000/svg" xmlns:sodipodi="http://sodipodi.sourceforge.net/DTD/sodipodi-0.dtd" xmlns:inkscape="http://www.inkscape.org/namespaces/inkscape" version="1.1" id="svg2" xml:space="preserve" width="234.67" height="165.33" viewBox="0 0 234.67 165.33" xmlns:xlink="http://www.w3.org/1999/xlink"><metadata id="metadata8"><rdf:RDF><cc:Work rdf:about=""><dc:format>
     image/svg+xml
    </dc:format><dc:type rdf:resource="http://purl.org/dc/dcmitype/StillImage"></dc:type></cc:Work></rdf:RDF></metadata><defs id="defs6"></defs><sodipodi:namedview pagecolor="#ffffff" bordercolor="#666666" borderopacity="1" objecttolerance="10" gridtolerance="10" guidetolerance="10" inkscape:pageopacity="0" inkscape:pageshadow="2" inkscape:window-width="640" inkscape:window-height="480" id="namedview4"></sodipodi:namedview><g id="g10" inkscape:groupmode="layer" inkscape:label="ink_ext_XXXXXX" transform="matrix(1.33,0,0,-1.33,0,165.33)"><g id="g12" transform="scale(0.1)"><path d="m 1723.22,1046.37 c -20.24,76.22 -79.87,136.24 -155.6,156.61 C 1430.37,1240 880,1240 880,1240 c 0,0 -550.37,0 -687.62,-37.02 C 116.66,1182.61 57.02,1122.59 36.78,1046.37 0,908.23 0,620 0,620 0,620 0,331.78 36.78,193.62 57.02,117.41 116.66,57.39 192.38,37.01 329.63,0 880,0 880,0 c 0,0 550.37,0 687.62,37.01 75.73,20.38 135.36,80.40 155.6,156.61 C 1760,331.78 1760,620 1760,620 c 0,0 0,288.23 -36.78,426.37" style="fill:#ed1d24;fill-opacity:1;fill-rule:nonzero;stroke:none" id="path14"></path><path d="m 700,358.31 460,261.68 -460,261.7 z" style="fill:#ffffff;fill-opacity:1;fill-rule:nonzero;stroke:none" id="path16"></path></g></g></svg>