<svg id="Group_1280" data-name="Group 1280" xmlns="http://www.w3.org/2000/svg" width="267.50" height="65.33"
  viewBox="0 0 267.50 65.33" xmlns:xlink="http://www.w3.org/1999/xlink"><path id="Path_2514" data-name="Path 2514" d="M203.8,92.5h9.99v36.4h18.5v9.22H203.8Z"
    transform="translate(-203.8 -82.91)" fill="#0a66c2"></path><path id="Path_2515" data-name="Path 2515"
    d="M322.44,105.38h9.6V136.3h-9.6Zm4.8-15.37a5.57,5.57,0,1,1-5.57,5.57,5.57,5.57,0,0,1,5.57-5.57"
    transform="translate(-289.53 -81.11)" fill="#0a66c2"></path><path id="Path_2516" data-name="Path 2516"
    d="M506.95,92.49h9.6v27.27l10.88-12.58h11.77l-12.6,14.31,12.34,16.63H526.87l-10.19-15.28h-.126v15.28h-9.6Z"
    transform="translate(-424.28 -82.91)" fill="#0a66c2"></path><path id="Path_2517" data-name="Path 2517"
    d="M379.2,144.34h9.22v4.22h.131a10.09,10.09,0,0,1,9.09-4.99c9.73,0,11.53,6.41,11.53,14.73v16.95h-9.6V160.22c0-3.59-.066-8.2-5-8.2-4.99,0-5.76,3.91-5.76,7.94v15.29h-9.6Z"
    transform="translate(-331.37 -120.06)" fill="#0a66c2"></path><path id="Path_2518" data-name="Path 2518"
    d="M639.93,155.72a5.76,5.76,0,0,0-5.89-5.89,6.41,6.41,0,0,0-6.78,5.89Zm8.13,13.7a16.91,16.91,0,0,1-13.13,6.15c-9.6,0-17.29-6.41-17.29-16.33s7.68-16.33,17.29-16.33c8.97,0,14.6,6.4,14.6,16.33v3.01H627.25a7.17,7.17,0,0,0,7.24,6.02,8.19,8.19,0,0,0,6.85-3.78Z"
    transform="translate(-504.79 -119.58)" fill="#0a66c2"></path><path id="Path_2519" data-name="Path 2519"
    d="M761.84,114.64c-4.8,0-7.68,3.21-7.68,7.88s2.88,7.88,7.68,7.88,7.69-3.2,7.69-7.88-2.88-7.88-7.69-7.88m16.52,23.44h-8.84v-4.1H769.4a12.07,12.07,0,0,1-9.54,4.87c-9.22,0-15.3-6.66-15.3-16.07,0-8.65,5.38-16.59,14.22-16.59,3.97,0,7.68,1.09,9.86,4.1h.126V92.47h9.61Z"
    transform="translate(-597.09 -82.90)" fill="#0a66c2"></path><path id="Path_2520" data-name="Path 2520"
    d="M958.98,112.56h-9.6V97.53c0-3.58-.064-8.2-4.99-8.2-5,0-5.76,3.91-5.76,7.94v15.29h-9.6V81.64h9.22v4.22h.129a10.1,10.1,0,0,1,9.09-4.99c9.73,0,11.52,6.4,11.52,14.73ZM918.19,77.42a5.57,5.57,0,1,1,5.57-5.57,5.57,5.57,0,0,1-5.57,5.57m4.8,35.14h-9.61V81.64h9.61Zm40.78-55.2h-55.21a4.73,4.73,0,0,0-4.78,4.67v55.44a4.73,4.73,0,0,0,4.78,4.67h55.21a4.74,4.74,0,0,0,4.8-4.67V62.02a4.74,4.74,0,0,0-4.8-4.67"
    transform="translate(-712.90 -57.35)" fill="#0a66c2"></path></svg>