<svg xmlns="http://www.w3.org/2000/svg" xmlns:xlink="http://www.w3.org/1999/xlink" width="3660" height="771" viewBox="0 0 3660 771"><defs><clipPath id="clip-path"><rect id="Rectangle_2246" data-name="Rectangle 2246" width="3660" height="771" fill="#fff" stroke="#707070" stroke-width="1"/></clipPath></defs><g id="Groupe_244" data-name="Groupe 244" transform="translate(-16888 5678.87)"><g id="Groupe_241" data-name="Groupe 241" transform="translate(16888 -5678.87)"><g id="Groupe_de_masques_4" data-name="Groupe de masques 4" transform="translate(0 0)" clip-path="url(#clip-path)"><g id="Systemeio_logo_cmyk_color_mode_no_wheel" data-name="Systemeio_logo (cmyk color mode)no wheel" transform="translate(0.07 0.30)"><path id="Tracé_3529" data-name="Tracé 3529" d="M9286.49,9141.86a129.94,129.94,0,0,0-5.19-29.96,75.96,75.96,0,0,0-13.66-25.88,72.29,72.29,0,0,0-22.81-18.70,73.41,73.41,0,0,0-34.15-7.17,76.18,76.18,0,0,0-33.88,6.89,68.48,68.48,0,0,0-23.63,18.14,82.62,82.62,0,0,0-14.48,26.3,170,170,0,0,0-7.51,30.38Zm-275.38,46.27a269.56,269.56,0,0,1,16.8-99.3,213.47,213.47,0,0,1,44.53-70.33,184.31,184.31,0,0,1,63.38-42.9,193.05,193.05,0,0,1,73.49-14.06q88.11,0,139.33,55.56t51.09,163.15q0,10.55-.82,23.21c0,8.3-.957,15.75-1.5,22.22H9131.45a80.2,80.2,0,0,0,33.88,59.07,132.16,132.16,0,0,0,80.18,21.94,327.29,327.29,0,0,0,63.38-6.05,237.99,237.99,0,0,0,50.68-15.05l15.85,98.46a164.72,164.72,0,0,1-25.27,9.7,349.81,349.81,0,0,1-34.97,8.58c-12.84,2.39-26.64,4.36-40.98,6.05a418.92,418.92,0,0,1-43.98,2.39,253.62,253.62,0,0,1-97.26-17.02,189.28,189.28,0,0,1-68.3-46.55,185.8,185.8,0,0,1-40.02-70.33,282.86,282.86,0,0,1-13.53-88.75Zm-396.13-16.17q0-58.37-14.48-82.7a54.08,54.08,0,0,0-50-24.33,214.78,214.78,0,0,0-22.81,1.27c-7.79.84-15.44,1.69-22.81,2.81v328.98H8386.86V8986.31c9.97-2.67,21.58-5.49,34.97-8.44s27.32-5.63,42.48-8.16,30.32-4.22,46.03-5.63,31.28-1.97,46.44-1.97a189.15,189.15,0,0,1,72.81,11.67,165.67,165.67,0,0,1,46.03,28.13,215.26,215.26,0,0,1,118.02-39.66,202.14,202.14,0,0,1,81.96,14.06,124.82,124.82,0,0,1,50.81,40.23,153.98,153.98,0,0,1,25.95,61.46,415.69,415.69,0,0,1,6.97,79.47V9398.13h-117.2V9171.97q0-58.37-14.48-82.7a54.08,54.08,0,0,0-50-24.33,128.72,128.72,0,0,0-54.36,17.02,182.24,182.24,0,0,1,7.1,39.38c1.09,14.07,1.64,28.13,1.64,44.02v232.63H8614.7Zm-396.13-30.1a122.64,122.64,0,0,0-5.05-29.96,75.96,75.96,0,0,0-13.66-25.88,72.23,72.23,0,0,0-22.81-18.70,73.65,73.65,0,0,0-34.29-7.17,75.93,75.93,0,0,0-33.74,6.89,68.49,68.49,0,0,0-23.63,18.14,82.94,82.94,0,0,0-14.62,26.3,182.13,182.13,0,0,0-7.38,30.38Zm-275.38,46.27a269.41,269.41,0,0,1,16.94-99.3,213.52,213.52,0,0,1,44.53-70.33,185.01,185.01,0,0,1,63.25-42.9,194.23,194.23,0,0,1,73.63-14.06q88.11,0,139.33,55.56t51.09,163.15q0,10.55-.818,23.21c0,8.3-1.09,15.75-1.5,22.22H8063.26A80.49,80.49,0,0,0,8097,9284.77a132.81,132.81,0,0,0,80.32,21.94,328.41,328.41,0,0,0,63.38-6.05,237.98,237.98,0,0,0,50.68-15.05l15.71,98.46a157.05,157.05,0,0,1-25.13,9.71,350.14,350.14,0,0,1-34.97,8.58c-12.84,2.39-26.64,4.36-40.98,6.05a418.91,418.91,0,0,1-43.98,2.39,253.61,253.61,0,0,1-97.26-17.02,181.91,181.91,0,0,1-108.46-116.88,287.04,287.04,0,0,1-13.52-88.75ZM7644.72,8865.63l117.2-19.41V8971.4h140.83v100.42H7761.24v149.93a123.07,123.07,0,0,0,12.98,60.76c8.6,15.05,26.09,22.65,52.31,22.65a221.46,221.46,0,0,0,38.93-3.66,191.33,191.33,0,0,0,36.61-10.13l16.53,93.95a336.88,336.88,0,0,1-47.26,15.47,271.88,271.88,0,0,1-63.65,6.47,205.28,205.28,0,0,1-79.5-13.36,126.68,126.68,0,0,1-50.4-37.27,142.56,142.56,0,0,1-26.36-57.95,356.31,356.31,0,0,1-7.38-75.39Zm-224.16,445.58a112.78,112.78,0,0,0,45.63-6.47,25.04,25.04,0,0,0,13.66-25.04,30.79,30.79,0,0,0-17.35-25.6,316.97,316.97,0,0,0-52.73-24.61,522.9,522.9,0,0,1-49.86-21.94,146.91,146.91,0,0,1-38.25-27.15,110.82,110.82,0,0,1-24.32-37.69,143.52,143.52,0,0,1-8.74-52.6c-1.35-36.96,14.79-72.3,43.3-94.8q43.3-34.74,118.84-34.88a367.03,367.03,0,0,1,72.4,6.89,325.17,325.17,0,0,1,54.64,15.05l-20.49,93.95a402.98,402.98,0,0,0-44.39-12.94,233.96,233.96,0,0,0-54.64-5.77c-36.61,0-54.64,10.55-54.64,31.65a34.64,34.64,0,0,0,2.32,12.94,27.87,27.87,0,0,0,9.56,10.97,124.7,124.7,0,0,0,19.26,11.39c8.06,3.94,18.44,8.44,31.01,13.36a478.53,478.53,0,0,1,63.79,28.13,148.67,148.67,0,0,1,39.75,30.8,94.97,94.97,0,0,1,20.35,36.85,167.04,167.04,0,0,1,6.01,46.98c1.98,37.98-15.48,74.26-46.03,95.64q-46.03,32.35-130.31,32.35a365.41,365.41,0,0,1-91.66-9.71A358.78,358.78,0,0,1,7277,9382.8l19.67-98.45a374.23,374.23,0,0,0,61.33,18.99,287.26,287.26,0,0,0,61.88,7.88ZM7272.9,8971.4q-35.38,123.07-73.9,230.81t-84.28,209.15a467.48,467.48,0,0,1-33.06,61.89,187.85,187.85,0,0,1-36.2,42.2,128.87,128.87,0,0,1-44.39,24.33,197.87,197.87,0,0,1-57.78,7.59,229.06,229.06,0,0,1-50.81-5.2,217.6,217.6,0,0,1-38.11-11.81L6874.72,9434a184.47,184.47,0,0,0,32.37,8.86,169.38,169.38,0,0,0,29.78,2.39,64.82,64.82,0,0,0,48.49-17.3,143.55,143.55,0,0,0,28.68-48.24q-40.16-81.01-80.32-181.86a2318.14,2318.14,0,0,1-75.4-226.45h124.3q7.79,31.65,18.44,68.5c7.1,24.47,14.48,49.37,22.4,74.4s15.85,49.65,24.04,73.42,15.85,45.29,23.22,64.84c6.83-19.55,13.66-41.07,21.17-64.84s14.62-48.24,21.72-73.42,13.66-49.93,20.35-74.4,12.57-47.4,17.76-68.5Zm-595.43,339.39a113.26,113.26,0,0,0,45.62-6.47,25.18,25.18,0,0,0,13.66-25.04,30.79,30.79,0,0,0-17.35-25.6,316.78,316.78,0,0,0-52.73-24.61q-27.32-10.55-49.99-21.94a148.46,148.46,0,0,1-38.11-27.15,111.12,111.12,0,0,1-24.45-37.69,144.43,144.43,0,0,1-8.61-52.6c-1.35-36.96,14.8-72.3,43.3-94.8q43.3-34.74,118.84-34.88a367.02,367.02,0,0,1,72.4,6.89,325.17,325.17,0,0,1,54.64,15.05l-20.49,93.95a411.92,411.92,0,0,0-44.4-12.94,234.86,234.86,0,0,0-53.96-5.77q-54.64,0-54.64,31.65a34.63,34.63,0,0,0,2.32,12.94,27.89,27.89,0,0,0,9.43,10.97,139.57,139.57,0,0,0,19.26,11.39c8.2,3.94,18.58,8.44,31.14,13.36a467.68,467.68,0,0,1,63.65,28.13,148.67,148.67,0,0,1,39.75,30.8,97.08,97.08,0,0,1,20.49,36.85,167.27,167.27,0,0,1,5.87,46.98c2.04,37.99-15.44,74.3-46.03,95.64q-45.9,32.35-130.18,32.35a359.6,359.6,0,0,1-142.47-25.88l19.67-98.45a375.23,375.23,0,0,0,61.47,18.99,286.32,286.32,0,0,0,61.88,8.3Z" transform="translate(-6534.46 -8777.28)" fill="#00a0ff"/><path id="Tracé_3530" data-name="Tracé 3530" d="M14407.18,9085.65a156.01,156.01,0,0,0-21.58-87.91,70.27,70.27,0,0,0-61.88-32.07,71.2,71.2,0,0,0-62.15,32.07,153.82,153.82,0,0,0-21.99,87.91,158.3,158.3,0,0,0,21.99,88.75,70.98,70.98,0,0,0,62.15,32.77,70.04,70.04,0,0,0,61.88-32.77,160.33,160.33,0,0,0,21.58-88.75m119.66,0a285.52,285.52,0,0,1-13.66,91.99,200.92,200.92,0,0,1-40.98,71.31,184.13,184.13,0,0,1-64.06,45.71,208.11,208.11,0,0,1-83.87,16.18,205.71,205.71,0,0,1-82.91-16.18,184.64,184.64,0,0,1-64.2-45.71,213,213,0,0,1-41.66-71.31,271.21,271.21,0,0,1-14.89-91.99,261.06,261.06,0,0,1,15.3-91.56,207.07,207.07,0,0,1,42.48-70.32,191.13,191.13,0,0,1,64.48-45.43,214.97,214.97,0,0,1,163.92,0,187.75,187.75,0,0,1,64.2,45.43,207.63,207.63,0,0,1,41.66,70.32A267.69,267.69,0,0,1,14526.84,9085.65Zm-451.59-335.45a67.11,67.11,0,0,1-20.76,52.32,73.11,73.11,0,0,1-98.35,0c-27.83-28.94-27.83-75.56,0-104.5a72.71,72.71,0,0,1,98.35,0A66.96,66.96,0,0,1,14075.25,8750.2Zm-10.93,549.38h-117.34V8872.99h117.34Zm-161.19-64.14a68.94,68.94,0,0,1-22.4,56.26,77.35,77.35,0,0,1-101.49,0,79.85,79.85,0,0,1,0-110.97,77.35,77.35,0,0,1,101.49,0,68.91,68.91,0,0,1,22.4,54.71Z" transform="translate(-10867.25 -8678.87)" fill="#00a0ff"/></g></g></g></g></svg>