<svg xmlns="http://www.w3.org/2000/svg" xmlns:xlink="http://www.w3.org/1999/xlink" width="3660" height="771" viewBox="0 0 3660 771">
  <defs>
    <clipPath id="clip-path">
      <rect id="Rectangle_2246" data-name="Rectangle 2246" width="3660" height="771" fill="#fff" stroke="#707070" stroke-width="1"/>
    </clipPath>
  </defs>
  <g id="Groupe_244" data-name="Groupe 244" transform="translate(-16888 5678.874)">
    <g id="Groupe_241" data-name="Groupe 241" transform="translate(16888 -5678.874)">
      <g id="Groupe_de_masques_4" data-name="Groupe de masques 4" transform="translate(0 0)" clip-path="url(#clip-path)">
        <g id="Systemeio_logo_cmyk_color_mode_no_wheel" data-name="Systemeio_logo (cmyk color mode)no wheel" transform="translate(0.067 0.299)">
          <path id="Tracé_3529" data-name="Tracé 3529" d="M9286.491,9141.865a129.936,129.936,0,0,0-5.19-29.958,75.961,75.961,0,0,0-13.659-25.88,72.286,72.286,0,0,0-22.812-18.705,73.411,73.411,0,0,0-34.149-7.174,76.177,76.177,0,0,0-33.877,6.893,68.477,68.477,0,0,0-23.633,18.144,82.624,82.624,0,0,0-14.477,26.3,170,170,0,0,0-7.514,30.381Zm-275.381,46.275a269.556,269.556,0,0,1,16.8-99.3,213.469,213.469,0,0,1,44.531-70.326,184.308,184.308,0,0,1,63.38-42.9,193.052,193.052,0,0,1,73.49-14.063q88.106,0,139.33,55.557t51.088,163.153q0,10.55-.82,23.207c0,8.3-.957,15.753-1.5,22.224H9131.453a80.2,80.2,0,0,0,33.877,59.073,132.162,132.162,0,0,0,80.182,21.941,327.286,327.286,0,0,0,63.383-6.048,237.988,237.988,0,0,0,50.677-15.051l15.846,98.456a164.721,164.721,0,0,1-25.271,9.7,349.81,349.81,0,0,1-34.969,8.581c-12.841,2.389-26.637,4.358-40.979,6.047a418.921,418.921,0,0,1-43.984,2.391,253.619,253.619,0,0,1-97.258-17.019,189.284,189.284,0,0,1-68.3-46.555,185.8,185.8,0,0,1-40.021-70.325,282.857,282.857,0,0,1-13.525-88.751Zm-396.134-16.174q0-58.37-14.479-82.7a54.082,54.082,0,0,0-50-24.334,214.785,214.785,0,0,0-22.812,1.267c-7.786.845-15.435,1.688-22.812,2.813v328.98H8386.859V8986.308c9.971-2.673,21.581-5.485,34.969-8.439s27.319-5.625,42.481-8.157,30.325-4.22,46.033-5.626,31.282-1.969,46.443-1.969a189.153,189.153,0,0,1,72.806,11.673,165.667,165.667,0,0,1,46.033,28.131,215.258,215.258,0,0,1,118.023-39.664,202.14,202.14,0,0,1,81.958,14.065,124.818,124.818,0,0,1,50.814,40.226,153.976,153.976,0,0,1,25.953,61.464,415.685,415.685,0,0,1,6.967,79.466V9398.13h-117.2V9171.967q0-58.37-14.479-82.7a54.083,54.083,0,0,0-50-24.334,128.717,128.717,0,0,0-54.364,17.021,182.238,182.238,0,0,1,7.1,39.38c1.093,14.066,1.64,28.131,1.64,44.025v232.634H8614.7Zm-396.133-30.1a122.637,122.637,0,0,0-5.055-29.958,75.963,75.963,0,0,0-13.66-25.88,72.228,72.228,0,0,0-22.811-18.705,73.652,73.652,0,0,0-34.286-7.174,75.928,75.928,0,0,0-33.739,6.893,68.491,68.491,0,0,0-23.631,18.144,82.943,82.943,0,0,0-14.617,26.3,182.13,182.13,0,0,0-7.375,30.381Zm-275.381,46.275a269.413,269.413,0,0,1,16.938-99.3,213.522,213.522,0,0,1,44.531-70.326,185.006,185.006,0,0,1,63.246-42.9,194.233,194.233,0,0,1,73.625-14.064q88.106,0,139.329,55.557t51.087,163.153q0,10.55-.818,23.207c0,8.3-1.092,15.753-1.5,22.224H8063.259A80.493,80.493,0,0,0,8097,9284.768a132.815,132.815,0,0,0,80.319,21.941,328.411,328.411,0,0,0,63.381-6.048,237.98,237.98,0,0,0,50.678-15.051l15.709,98.456a157.053,157.053,0,0,1-25.134,9.705,350.139,350.139,0,0,1-34.969,8.58c-12.841,2.389-26.638,4.358-40.979,6.047a418.909,418.909,0,0,1-43.985,2.391,253.608,253.608,0,0,1-97.256-17.019,181.913,181.913,0,0,1-108.459-116.88,287.044,287.044,0,0,1-13.523-88.75ZM7644.724,8865.63l117.2-19.409V8971.4h140.832v100.425H7761.242v149.933a123.066,123.066,0,0,0,12.978,60.76c8.6,15.052,26.089,22.646,52.315,22.646a221.459,221.459,0,0,0,38.93-3.657,191.327,191.327,0,0,0,36.608-10.127l16.528,93.954a336.878,336.878,0,0,1-47.262,15.472,271.875,271.875,0,0,1-63.654,6.471,205.277,205.277,0,0,1-79.5-13.362,126.683,126.683,0,0,1-50.4-37.271,142.559,142.559,0,0,1-26.363-57.948,356.306,356.306,0,0,1-7.376-75.389Zm-224.157,445.58a112.785,112.785,0,0,0,45.625-6.471,25.042,25.042,0,0,0,13.659-25.036,30.791,30.791,0,0,0-17.348-25.6,316.97,316.97,0,0,0-52.727-24.612,522.9,522.9,0,0,1-49.857-21.942,146.912,146.912,0,0,1-38.248-27.146,110.819,110.819,0,0,1-24.315-37.694,143.516,143.516,0,0,1-8.742-52.6c-1.346-36.96,14.795-72.3,43.3-94.8q43.3-34.739,118.841-34.881a367.031,367.031,0,0,1,72.4,6.893,325.172,325.172,0,0,1,54.64,15.05l-20.49,93.953a402.98,402.98,0,0,0-44.394-12.938,233.956,233.956,0,0,0-54.64-5.768c-36.607,0-54.639,10.55-54.639,31.646a34.638,34.638,0,0,0,2.323,12.94,27.868,27.868,0,0,0,9.561,10.97,124.7,124.7,0,0,0,19.261,11.393c8.059,3.938,18.441,8.439,31.007,13.361a478.534,478.534,0,0,1,63.791,28.132,148.672,148.672,0,0,1,39.75,30.8,94.975,94.975,0,0,1,20.354,36.85,167.036,167.036,0,0,1,6.009,46.978c1.984,37.981-15.479,74.264-46.034,95.642q-46.033,32.35-130.313,32.35a365.406,365.406,0,0,1-91.657-9.705A358.78,358.78,0,0,1,7277,9382.8l19.671-98.455a374.226,374.226,0,0,0,61.333,18.988,287.265,287.265,0,0,0,61.878,7.877ZM7272.9,8971.4q-35.379,123.069-73.9,230.808t-84.281,209.146a467.484,467.484,0,0,1-33.057,61.886,187.853,187.853,0,0,1-36.2,42.2,128.865,128.865,0,0,1-44.394,24.333,197.873,197.873,0,0,1-57.781,7.594,229.063,229.063,0,0,1-50.813-5.2,217.6,217.6,0,0,1-38.111-11.815L6874.723,9434a184.467,184.467,0,0,0,32.374,8.861,169.377,169.377,0,0,0,29.778,2.392,64.821,64.821,0,0,0,48.493-17.3,143.55,143.55,0,0,0,28.685-48.243q-40.16-81.013-80.319-181.86a2318.138,2318.138,0,0,1-75.4-226.446h124.3q7.789,31.646,18.441,68.5c7.1,24.473,14.479,49.368,22.4,74.4s15.845,49.65,24.041,73.42,15.846,45.289,23.222,64.839c6.83-19.551,13.659-41.069,21.172-64.839s14.616-48.243,21.719-73.42,13.66-49.931,20.354-74.4,12.567-47.4,17.757-68.5Zm-595.429,339.389a113.262,113.262,0,0,0,45.624-6.47,25.184,25.184,0,0,0,13.659-25.036,30.786,30.786,0,0,0-17.348-25.6,316.776,316.776,0,0,0-52.727-24.613q-27.319-10.548-49.994-21.941a148.46,148.46,0,0,1-38.111-27.146,111.116,111.116,0,0,1-24.451-37.693,144.425,144.425,0,0,1-8.606-52.6c-1.346-36.959,14.8-72.3,43.3-94.8q43.3-34.743,118.84-34.883a367.022,367.022,0,0,1,72.4,6.891,325.168,325.168,0,0,1,54.64,15.051l-20.49,93.954a411.919,411.919,0,0,0-44.4-12.94,234.864,234.864,0,0,0-53.956-5.767q-54.639,0-54.639,31.647a34.634,34.634,0,0,0,2.321,12.939,27.889,27.889,0,0,0,9.425,10.97,139.569,139.569,0,0,0,19.26,11.393c8.2,3.938,18.577,8.439,31.145,13.362a467.679,467.679,0,0,1,63.654,28.13,148.669,148.669,0,0,1,39.75,30.8,97.081,97.081,0,0,1,20.49,36.852,167.267,167.267,0,0,1,5.874,46.977c2.039,37.993-15.437,74.3-46.034,95.643q-45.9,32.348-130.177,32.349a359.6,359.6,0,0,1-142.471-25.881l19.669-98.454a375.225,375.225,0,0,0,61.469,18.987,286.322,286.322,0,0,0,61.88,8.3Z" transform="translate(-6534.458 -8777.28)" fill="#00a0ff"/>
          <path id="Tracé_3530" data-name="Tracé 3530" d="M14407.181,9085.651a156.015,156.015,0,0,0-21.581-87.905,70.265,70.265,0,0,0-61.88-32.068,71.2,71.2,0,0,0-62.151,32.068,153.818,153.818,0,0,0-21.992,87.905,158.3,158.3,0,0,0,21.991,88.749,70.979,70.979,0,0,0,62.152,32.773,70.039,70.039,0,0,0,61.88-32.773,160.333,160.333,0,0,0,21.581-88.749m119.659,0a285.521,285.521,0,0,1-13.659,91.986,200.916,200.916,0,0,1-40.978,71.309,184.133,184.133,0,0,1-64.065,45.711,208.112,208.112,0,0,1-83.872,16.176,205.712,205.712,0,0,1-82.914-16.176,184.639,184.639,0,0,1-64.2-45.711,213,213,0,0,1-41.662-71.309,271.21,271.21,0,0,1-14.889-91.986,261.056,261.056,0,0,1,15.3-91.563,207.07,207.07,0,0,1,42.48-70.323,191.132,191.132,0,0,1,64.476-45.432,214.973,214.973,0,0,1,163.916,0,187.751,187.751,0,0,1,64.2,45.431,207.635,207.635,0,0,1,41.662,70.324A267.693,267.693,0,0,1,14526.84,9085.651Zm-451.592-335.45a67.107,67.107,0,0,1-20.763,52.322,73.109,73.109,0,0,1-98.351,0c-27.829-28.941-27.829-75.562,0-104.5a72.71,72.71,0,0,1,98.35,0A66.956,66.956,0,0,1,14075.248,8750.2Zm-10.928,549.379h-117.337V8872.988h117.337Zm-161.185-64.136a68.941,68.941,0,0,1-22.4,56.26,77.353,77.353,0,0,1-101.493,0,79.853,79.853,0,0,1,0-110.974,77.349,77.349,0,0,1,101.492,0,68.908,68.908,0,0,1,22.4,54.714Z" transform="translate(-10867.252 -8678.87)" fill="#00a0ff"/>
        </g>
      </g>
    </g>
  </g>
</svg>
